<?xml version="1.0" encoding="utf-8"?>
<!-- Generator: Adobe Illustrator 17.0.0, SVG Export Plug-In . SVG Version: 6.00 Build 0)  -->
<!DOCTYPE svg PUBLIC "-//W3C//DTD SVG 1.1//EN" "http://www.w3.org/Graphics/SVG/1.1/DTD/svg11.dtd">
<svg version="1.1" id="Layer_1" xmlns="http://www.w3.org/2000/svg" xmlns:xlink="http://www.w3.org/1999/xlink" x="0px" y="0px"
	 width="58.656px" height="58.649px" viewBox="2.672 2.675 58.656 58.649" enable-background="new 2.672 2.675 58.656 58.649"
	 xml:space="preserve">
<g>
	<g>
		<path fill="#131019" d="M59.029,44.236c-1.542,0-2.795-1.254-2.795-2.793c0-0.133-0.107-0.24-0.239-0.24
			c-0.023,0-0.045,0.006-0.064,0.012c-0.019-0.006-0.041-0.012-0.065-0.012c-0.131,0-0.238,0.107-0.238,0.24
			c0,1.539-1.252,2.793-2.794,2.793c-1.541,0-2.794-1.254-2.794-2.793c0-0.133-0.108-0.24-0.24-0.24
			c-0.023,0-0.045,0.006-0.064,0.012c-0.019-0.006-0.039-0.012-0.063-0.012c-0.132,0-0.24,0.107-0.24,0.24
			c0,1.533-1.248,2.787-2.783,2.791c-1.534-0.004-2.784-1.258-2.784-2.791c0-0.133-0.106-0.24-0.239-0.24
			c-0.022,0-0.044,0.006-0.064,0.012c-0.018-0.006-0.039-0.012-0.063-0.012c-0.133,0-0.24,0.107-0.24,0.24
			c0,1.539-1.253,2.793-2.794,2.793c-1.54,0-2.794-1.254-2.794-2.793c0-0.133-0.107-0.24-0.238-0.24
			c-0.024,0-0.046,0.006-0.064,0.012c-0.02-0.006-0.041-0.012-0.065-0.012c-0.132,0-0.239,0.107-0.239,0.24
			c0,1.539-1.254,2.793-2.795,2.793c-1.539,0-2.792-1.254-2.792-2.793c0-0.133-0.108-0.24-0.239-0.24
			c-0.025,0-0.047,0.006-0.064,0.012c-0.018-0.006-0.04-0.012-0.065-0.012c-0.131,0-0.238,0.107-0.238,0.24
			c0,1.533-1.249,2.787-2.784,2.791c-1.534-0.004-2.782-1.258-2.782-2.791c0-0.133-0.108-0.24-0.239-0.24
			c-0.025,0-0.047,0.006-0.065,0.012c-0.019-0.006-0.04-0.012-0.065-0.012c-0.132,0-0.238,0.107-0.238,0.24
			c0,1.539-1.254,2.793-2.793,2.793c-1.542,0-2.795-1.254-2.795-2.793c0-0.133-0.107-0.24-0.239-0.24
			c-0.024,0-0.046,0.004-0.064,0.012c-0.018-0.006-0.04-0.012-0.063-0.012c-0.131,0-0.24,0.107-0.24,0.24
			c0,1.539-1.252,2.793-2.793,2.793s-2.795-1.254-2.795-2.793c0-0.133-0.107-0.24-0.24-0.24c-0.023,0-0.045,0.004-0.063,0.012
			c-0.02-0.006-0.04-0.012-0.064-0.012c-0.132,0-0.239,0.107-0.239,0.24c0,1.533-1.249,2.787-2.782,2.791
			c-1.536-0.004-2.786-1.258-2.786-2.791c0-0.133-0.106-0.24-0.237-0.24c-0.024,0-0.046,0.006-0.064,0.012
			c-0.02-0.006-0.039-0.012-0.064-0.012c-0.132,0-0.24,0.107-0.24,0.24c0,1.539-1.253,2.793-2.794,2.793
			c-0.131,0-0.238,0.107-0.238,0.238s0.107,0.238,0.238,0.238c1.409,0,2.653-0.91,3.099-2.217c0.44,1.291,1.666,2.199,3.058,2.217
			h0.003h0.074L9.58,44.71c1.383-0.025,2.599-0.932,3.038-2.215c0.445,1.307,1.689,2.217,3.098,2.217c1.407,0,2.65-0.91,3.098-2.217
			c0.445,1.307,1.688,2.217,3.098,2.217c1.406,0,2.65-0.91,3.098-2.217c0.441,1.293,1.672,2.203,3.067,2.217h0.066l0.003-0.002
			c1.381-0.025,2.598-0.932,3.038-2.215c0.444,1.307,1.686,2.217,3.094,2.217c1.409,0,2.653-0.91,3.099-2.217
			c0.446,1.307,1.69,2.217,3.098,2.217s2.651-0.91,3.097-2.217c0.441,1.287,1.662,2.193,3.049,2.215l0.002,0.002h0.087l0.001-0.002
			c1.381-0.025,2.598-0.932,3.035-2.215c0.447,1.307,1.691,2.217,3.099,2.217c1.409,0,2.651-0.91,3.098-2.217
			c0.446,1.307,1.69,2.217,3.099,2.217c0.131,0,0.236-0.107,0.236-0.238S59.16,44.236,59.029,44.236z M31.137,41.326
			c0,0,0,0,0-0.002l0.002-0.004L31.137,41.326z"/>
	</g>
	<g>
		<g>
			<path fill="#131019" d="M60.43,30.7l0.898-2.213L46.907,28.38l-4.709-4.181l-0.031-0.027H20.081l-5.916-4.294l-2.604-0.591
				l5.044,4.885H12.29V24.5c0,0.338,0.302,2.028,6.284,2.028c0.424,0,0.847-0.008,1.3-0.024c0.06-0.006,0.12-0.008,0.18-0.008
				c2.043,0,3.768,2.875,3.768,4.68c0,0.742-0.297,1.119-0.879,1.119c-0.07,0-0.143-0.004-0.256-0.017c0,0-3.666-0.014-7.021-0.014
				c-3.212,0-5.026,0.013-5.393,0.037c-1.942,0.13-3.624,3.292-4.702,5.958c-0.388-0.033-1.152,0.014-2.281,0.145l-0.09,0.03
				c-0.615,0.305-0.544,1.303-0.501,1.633c-0.03,0.152-0.004,0.309,0.079,0.453c0.23,0.41,0.916,0.688,1.505,0.857
				c-0.296,0.107-0.614,0.164-0.947,0.164c-0.131,0-0.238,0.107-0.238,0.238c0,0.133,0.107,0.24,0.238,0.24
				c1.409,0,2.653-0.912,3.099-2.217C6.875,41.092,8.1,42,9.492,42.018l0.003,0.002l0.074-0.002H9.57
				c1.383-0.025,2.599-0.932,3.038-2.215c0.445,1.305,1.689,2.217,3.098,2.217c1.407,0,2.65-0.912,3.098-2.219
				c0.445,1.307,1.688,2.219,3.098,2.219c1.406,0,2.65-0.912,3.098-2.219c0.441,1.295,1.672,2.205,3.067,2.217l0.066,0.002
				l0.003-0.002c1.381-0.025,2.598-0.932,3.038-2.215c0.444,1.305,1.686,2.217,3.094,2.217c1.409,0,2.653-0.912,3.099-2.219
				c0.446,1.307,1.69,2.219,3.098,2.219s2.651-0.912,3.097-2.219c0.441,1.287,1.662,2.195,3.049,2.217l0.002,0.002l0.087-0.002
				h0.001c1.381-0.025,2.598-0.932,3.035-2.217c0.447,1.307,1.691,2.219,3.099,2.219c1.409,0,2.651-0.912,3.098-2.219
				c0.446,1.307,1.69,2.219,3.099,2.219c0.131,0,0.236-0.107,0.236-0.24c0-0.131-0.105-0.238-0.236-0.238
				c-1.542,0-2.795-1.252-2.795-2.793c0-0.133-0.107-0.24-0.239-0.24c-0.023,0-0.045,0.006-0.064,0.014
				c-0.019-0.008-0.041-0.014-0.065-0.014c-0.131,0-0.238,0.107-0.238,0.24c0,1.541-1.252,2.793-2.794,2.793
				c-0.683,0-1.333-0.248-1.845-0.701c3.215-2.002,10.344-6.723,10.136-9.134C61.087,31.277,60.854,30.939,60.43,30.7z
				 M31.137,38.631L31.137,38.631l0.002-0.006L31.137,38.631z M37.591,29.475l-3.484-0.039l-6.646-3.544h10.81L37.591,29.475z
				 M38.555,29.688l0.655-3.809h1.56l4.493,3.809H38.555z M48.966,30.319l-1.287-1.162h1.792L48.966,30.319z M52.809,30.299h-0.083
				c-0.767,0-2.008,0.006-2.985,0.016l0.482-1.115h3.063L52.809,30.299z M56.031,30.35c-0.637-0.02-1.665-0.032-2.451-0.04
				l0.498-1.153h2.473L56.031,30.35z M59.752,30.571c-0.567-0.055-1.64-0.098-2.518-0.135l-0.455-0.02l0.547-1.26h2.896
				L59.752,30.571z"/>
		</g>
	</g>
</g>
</svg>
