<?xml version="1.0" encoding="utf-8"?>
<!-- Generator: Adobe Illustrator 17.0.0, SVG Export Plug-In . SVG Version: 6.00 Build 0)  -->
<!DOCTYPE svg PUBLIC "-//W3C//DTD SVG 1.1//EN" "http://www.w3.org/Graphics/SVG/1.1/DTD/svg11.dtd">
<svg version="1.1" id="Layer_1" xmlns="http://www.w3.org/2000/svg" xmlns:xlink="http://www.w3.org/1999/xlink" x="0px" y="0px"
	 width="122px" height="122px" viewBox="274 238 122 122" enable-background="new 274 238 122 122" xml:space="preserve">
<g>
	
		<linearGradient id="SVGID_1_" gradientUnits="userSpaceOnUse" x1="275.96" y1="304.34" x2="275.96" y2="184.34" gradientTransform="matrix(1 0 0 -1 59.04 543.34)">
		<stop  offset="0" style="stop-color:#FFB600"/>
		<stop  offset="0.4086" style="stop-color:#FFB300"/>
		<stop  offset="0.7688" style="stop-color:#F5A000"/>
		<stop  offset="1" style="stop-color:#E29302"/>
	</linearGradient>
	<path fill="url(#SVGID_1_)" d="M395,347c0,6.627-5.373,12-12,12h-96c-6.627,0-12-5.373-12-12v-96c0-6.627,5.373-12,12-12h96
		c6.627,0,12,5.373,12,12V347z"/>
	<path fill="none" stroke="#CD8B00" stroke-width="2" stroke-miterlimit="10" d="M395,347c0,6.627-5.373,12-12,12h-96
		c-6.627,0-12-5.373-12-12v-96c0-6.627,5.373-12,12-12h96c6.627,0,12,5.373,12,12V347z"/>
</g>
<g>
	
		<linearGradient id="SVGID_2_" gradientUnits="userSpaceOnUse" x1="271.46" y1="288.34" x2="271.46" y2="201.34" gradientTransform="matrix(1 0 0 -1 59.04 543.34)">
		<stop  offset="0" style="stop-color:#181818"/>
		<stop  offset="1" style="stop-color:#090909"/>
	</linearGradient>
	<path fill="url(#SVGID_2_)" d="M374,330c0,6.627-5.373,12-12,12h-63c-6.627,0-12-5.373-12-12v-63c0-6.627,5.373-12,12-12h63
		c6.627,0,12,5.373,12,12V330z"/>
</g>
<g>
	<g>
		<g>
			
				<linearGradient id="SVGID_3_" gradientUnits="userSpaceOnUse" x1="275.96" y1="303.34" x2="275.96" y2="185.34" gradientTransform="matrix(1 0 0 -1 59.04 543.34)">
				<stop  offset="0" style="stop-color:#FFB600"/>
				<stop  offset="0.4086" style="stop-color:#FFB300"/>
				<stop  offset="0.7688" style="stop-color:#F5A000"/>
				<stop  offset="1" style="stop-color:#E29302"/>
			</linearGradient>
			<path fill="url(#SVGID_3_)" d="M382,240h-94c-6.627,0-12,5.373-12,12v94c0,6.627,5.373,12,12,12h94c6.627,0,12-5.373,12-12v-94
				C394,245.373,388.627,240,382,240z M365.487,293.847c-2.813,0.344-34.214,4.007-36.827,4.326
				c2.588,3.396,19.887,27.924,21.706,30.453c1.04,1.445-2.357,2.01-3.921,2.191l-28.361,3.295c-3.12,0.359-7.197-1.403-9.042-3.922
				l-17.394-23.882c-1.844-2.517-1.677-5.875-0.404-8.76l11.617-26.129c1.274-2.879,4.88-5.527,8.009-5.891l28.37-3.297
				c3.119-0.359,7.196,1.396,9.042,3.92l16.754,22.832C364.46,288.199,368.596,293.467,365.487,293.847z"/>
		</g>
	</g>
</g>
<path fill="#242424" d="M378.554,294.493c-2.418,0.76-1.392,2.904-0.924,4.773c2.727,10.891-1.004,20.633-7.53,27.613
	c-2.014,2.154-4.07,3.797-6.996,5.468c-1.859,1.062-4.113,1.836-3.084,3.995c0.984,2.064,3.39,0.834,5.419-0.349
	c7.202-4.203,11.778-10.092,14.387-15.929c2.424-5.428,3.572-11.048,2.782-17.603c-0.239-1.99-0.491-5.256-1.65-7.026
	C380.409,294.599,379.469,294.206,378.554,294.493z"/>
<path fill="#242424" d="M368.848,299.143c-0.17,0.637,0.233,1.413,0.42,2.164c2.157,8.649-1.472,17.51-8.287,22.39
	c-1.72,1.232-5.181,2.192-4.167,4.598c1.143,2.714,4.526,0.217,6.488-1.207c4.202-3.052,6.76-6.569,8.436-10.273
	c3.622-8.008,1.15-17.954,1.133-17.981C371.912,297.237,369.301,297.448,368.848,299.143z"/>
<path fill="#242424" d="M362.339,300.963c-1.968,0.55-1.599,1.993-1.381,3.4c0.729,4.695-1.142,9.245-4.719,12.072
	c-0.596,0.471-1.497,0.815-2.152,1.463c-0.514,0.507-0.699,1.728-0.537,2.2c1.213,3.523,5.689-0.385,7.224-2.019
	c2.642-2.813,4.062-6.121,4.531-9.665c0.24-1.823,0.275-4.085-0.355-5.99c-0.167-0.505-0.293-0.57-0.343-0.64
	C364.191,301.202,363.22,300.718,362.339,300.963z"/>
<g>
	
		<linearGradient id="SVGID_4_" gradientUnits="userSpaceOnUse" x1="275.96" y1="304.34" x2="275.96" y2="184.34" gradientTransform="matrix(1 0 0 -1 59.04 543.34)">
		<stop  offset="0" style="stop-color:#FFB600"/>
		<stop  offset="0.4086" style="stop-color:#FFB300"/>
		<stop  offset="0.7688" style="stop-color:#F5A000"/>
		<stop  offset="1" style="stop-color:#E29302"/>
	</linearGradient>
	<path fill="url(#SVGID_4_)" d="M395,347c0,6.627-5.373,12-12,12h-96c-6.627,0-12-5.373-12-12v-96c0-6.627,5.373-12,12-12h96
		c6.627,0,12,5.373,12,12V347z"/>
	<path fill="none" stroke="#CD8B00" stroke-width="2" stroke-miterlimit="10" d="M395,347c0,6.627-5.373,12-12,12h-96
		c-6.627,0-12-5.373-12-12v-96c0-6.627,5.373-12,12-12h96c6.627,0,12,5.373,12,12V347z"/>
</g>
<g>
	<path fill="#242424" d="M374,330c0,6.627-5.373,12-12,12h-63c-6.627,0-12-5.373-12-12v-63c0-6.627,5.373-12,12-12h63
		c6.627,0,12,5.373,12,12V330z"/>
</g>
<g>
	<g>
		<g>
			
				<linearGradient id="SVGID_5_" gradientUnits="userSpaceOnUse" x1="275.96" y1="303.34" x2="275.96" y2="185.34" gradientTransform="matrix(1 0 0 -1 59.04 543.34)">
				<stop  offset="0" style="stop-color:#FFB600"/>
				<stop  offset="0.4086" style="stop-color:#FFB300"/>
				<stop  offset="0.7688" style="stop-color:#F5A000"/>
				<stop  offset="1" style="stop-color:#E29302"/>
			</linearGradient>
			<path fill="url(#SVGID_5_)" d="M382,240h-94c-6.627,0-12,5.373-12,12v94c0,6.627,5.373,12,12,12h94c6.627,0,12-5.373,12-12v-94
				C394,245.373,388.627,240,382,240z M365.487,293.847c-2.813,0.344-34.214,4.007-36.827,4.326
				c2.588,3.396,19.887,27.924,21.706,30.453c1.04,1.445-2.357,2.01-3.921,2.191l-28.361,3.295c-3.12,0.359-7.197-1.403-9.042-3.922
				l-17.394-23.882c-1.844-2.517-1.677-5.875-0.404-8.76l11.617-26.129c1.274-2.879,4.88-5.527,8.009-5.891l28.37-3.297
				c3.119-0.359,7.196,1.396,9.042,3.92l16.754,22.832C364.46,288.199,368.596,293.467,365.487,293.847z"/>
		</g>
	</g>
</g>
<path fill="#242424" d="M378.554,294.493c-2.418,0.76-1.392,2.904-0.924,4.773c2.727,10.891-1.004,20.633-7.53,27.613
	c-2.014,2.154-4.07,3.797-6.996,5.468c-1.859,1.062-4.113,1.836-3.084,3.995c0.984,2.064,3.39,0.834,5.419-0.349
	c7.202-4.203,11.778-10.092,14.387-15.929c2.424-5.428,3.572-11.048,2.782-17.603c-0.239-1.99-0.491-5.256-1.65-7.026
	C380.409,294.599,379.469,294.206,378.554,294.493z"/>
<path fill="#242424" d="M368.848,299.143c-0.17,0.637,0.233,1.413,0.42,2.164c2.157,8.649-1.472,17.51-8.287,22.39
	c-1.72,1.232-5.181,2.192-4.167,4.598c1.143,2.714,4.526,0.217,6.488-1.207c4.202-3.052,6.76-6.569,8.436-10.273
	c3.622-8.008,1.15-17.954,1.133-17.981C371.912,297.237,369.301,297.448,368.848,299.143z"/>
<path fill="#242424" d="M362.339,300.963c-1.968,0.55-1.599,1.993-1.381,3.4c0.729,4.695-1.142,9.245-4.719,12.072
	c-0.596,0.471-1.497,0.815-2.152,1.463c-0.514,0.507-0.699,1.728-0.537,2.2c1.213,3.523,5.689-0.385,7.224-2.019
	c2.642-2.813,4.062-6.121,4.531-9.665c0.24-1.823,0.275-4.085-0.355-5.99c-0.167-0.505-0.293-0.57-0.343-0.64
	C364.191,301.202,363.22,300.718,362.339,300.963z"/>
</svg>
