<?xml version="1.0" encoding="utf-8"?>
<!-- Generator: Adobe Illustrator 17.0.0, SVG Export Plug-In . SVG Version: 6.00 Build 0)  -->
<!DOCTYPE svg PUBLIC "-//W3C//DTD SVG 1.1//EN" "http://www.w3.org/Graphics/SVG/1.1/DTD/svg11.dtd">
<svg version="1.1" id="Layer_1" xmlns="http://www.w3.org/2000/svg" xmlns:xlink="http://www.w3.org/1999/xlink" x="0px" y="0px"
	 width="48px" height="48px" viewBox="0 0 48 48" enable-background="new 0 0 48 48" xml:space="preserve">
<path fill="#FF8000" d="M24,48C10.746,48,0,37.254,0,24S10.746,0,24,0s24,10.746,24,24S37.254,48,24,48z M24,6
	C14.061,6,6,14.061,6,24s8.061,18,18,18s18-8.061,18-18S33.939,6,24,6z M33,27h-6v6c0,1.659-1.341,3-3,3c-1.656,0-3-1.341-3-3v-6h-6
	c-1.656,0-3-1.341-3-3c0-1.656,1.344-3,3-3h6v-6c0-1.656,1.344-3,3-3c1.659,0,3,1.344,3,3v6h6c1.659,0,3,1.344,3,3
	C36,25.659,34.659,27,33,27z"/>
</svg>
