<?xml version="1.0" encoding="utf-8"?>
<!-- Generator: Adobe Illustrator 17.0.0, SVG Export Plug-In . SVG Version: 6.00 Build 0)  -->
<!DOCTYPE svg PUBLIC "-//W3C//DTD SVG 1.1//EN" "http://www.w3.org/Graphics/SVG/1.1/DTD/svg11.dtd">
<svg version="1.1" id="Layer_1" xmlns="http://www.w3.org/2000/svg" xmlns:xlink="http://www.w3.org/1999/xlink" x="0px" y="0px"
	 width="48px" height="48px" viewBox="0 0 48 48" enable-background="new 0 0 48 48" xml:space="preserve">
<path d="M28.226,43.521c-1.166,1.166-2.696,1.752-4.227,1.751s-3.061-0.586-4.227-1.752L7.816,31.563
	c-1.71-1.71-2.218-4.287-1.297-6.523c0.921-2.23,3.109-3.689,5.524-3.688h5.979L18.021,8.707c0-3.306,2.673-5.978,5.979-5.978
	s5.978,2.673,5.978,5.979l0.001,12.645h5.979c2.415,0,4.603,1.459,5.524,3.689c0.921,2.242,0.406,4.813-1.298,6.522L28.226,43.521z"
	/>
</svg>
