<?xml version="1.0" encoding="utf-8"?>
<!-- Generator: Adobe Illustrator 17.0.0, SVG Export Plug-In . SVG Version: 6.00 Build 0)  -->
<!DOCTYPE svg PUBLIC "-//W3C//DTD SVG 1.1//EN" "http://www.w3.org/Graphics/SVG/1.1/DTD/svg11.dtd">
<svg version="1.1" id="Layer_1" xmlns="http://www.w3.org/2000/svg" xmlns:xlink="http://www.w3.org/1999/xlink" x="0px" y="0px"
	 width="48px" height="48px" viewBox="0 0 48 48" enable-background="new 0 0 48 48" xml:space="preserve">
<path d="M24,0C10.746,0,0,10.746,0,24s10.746,24,24,24s24-10.746,24-24S37.254,0,24,0z M24,42c-9.939,0-18-8.061-18-18
	S14.061,6,24,6s18,8.061,18,18S33.939,42,24,42z M31.923,13.596c-2.204,0-3.993,1.789-3.993,3.993s1.789,3.993,3.993,3.993
	s3.993-1.789,3.993-3.993S34.128,13.596,31.923,13.596z M20.882,13.518c-2.204,0-3.993,1.789-3.993,3.993s1.789,3.993,3.993,3.993
	s3.993-1.789,3.993-3.993S23.086,13.518,20.882,13.518z M23.999,37c-2.931,0-5.361-2.57-5.886-5.962
	c1.581-0.843,3.624-1.371,5.886-1.371s4.308,0.528,5.889,1.371C29.36,34.43,26.93,37,23.999,37z"/>
</svg>
