<?xml version="1.0" encoding="utf-8"?>
<!-- Generator: Adobe Illustrator 17.0.0, SVG Export Plug-In . SVG Version: 6.00 Build 0)  -->
<!DOCTYPE svg PUBLIC "-//W3C//DTD SVG 1.1//EN" "http://www.w3.org/Graphics/SVG/1.1/DTD/svg11.dtd">
<svg version="1.1" id="Layer_1" xmlns="http://www.w3.org/2000/svg" xmlns:xlink="http://www.w3.org/1999/xlink" x="0px" y="0px"
	 width="96.394px" height="81.323px" viewBox="0 0 96.394 81.323" enable-background="new 0 0 96.394 81.323" xml:space="preserve">
<path fill="#FFB615" d="M0.955,40.229l15.242,27.059c1.619,2.855,5.66,5.192,8.962,5.199l30.013,0.025
	c1.655,0.002,5.27-0.173,4.361-1.809c-1.591-2.862-16.655-30.584-18.943-34.447l0,0l0,0c2.768-0.014,35.999-0.002,38.979-0.018
	c3.293-0.017-0.382-6.023,0.124-5.132L64.99,5.221c-1.619-2.861-5.661-5.192-8.961-5.198L26.007,0
	c-3.311-0.002-7.4,2.322-9.082,5.173L1.603,31.034C-0.077,33.89-0.662,37.375,0.955,40.229 M93.133,38.509
	c-2.617,0.498-1.808,2.862-1.548,4.87c1.517,11.704-3.569,21.42-11.236,27.91c-2.366,2.003-4.713,3.467-7.972,4.854
	c-2.071,0.882-4.518,1.414-3.708,3.794c0.775,2.275,3.437,1.285,5.7,0.297c8.033-3.508,13.53-9.098,16.967-14.873
	c3.194-5.371,5.079-11.098,5.056-18.039c-0.006-2.106,0.129-5.548-0.864-7.538C95.057,38.846,94.124,38.321,93.133,38.509z
	 M82.432,42.178c-0.255,0.644,0.071,1.504,0.174,2.31c1.195,9.294-3.676,18.102-11.388,22.364c-1.947,1.076-5.677,1.655-4.912,4.292
	c0.862,2.974,4.699,0.78,6.921-0.467c4.76-2.673,7.86-6.033,10.062-9.695c4.76-7.918,3.394-18.605,3.379-18.635
	C85.863,40.562,83.112,40.464,82.432,42.178z M75.414,43.283c-2.122,0.333-1.913,1.886-1.857,3.381
	c0.188,4.991-2.322,9.513-6.402,12.028c-0.68,0.419-1.662,0.668-2.425,1.264c-0.598,0.467-0.941,1.719-0.829,2.231
	c0.836,3.827,5.986,0.293,7.789-1.225c3.102-2.615,4.989-5.894,5.911-9.537c0.474-1.874,0.786-4.231,0.361-6.297
	c-0.113-0.548-0.236-0.631-0.28-0.71C77.318,43.758,76.363,43.135,75.414,43.283z"/>
</svg>
