<?xml version="1.0" encoding="utf-8"?>
<!-- Generator: Adobe Illustrator 17.0.0, SVG Export Plug-In . SVG Version: 6.00 Build 0)  -->
<!DOCTYPE svg PUBLIC "-//W3C//DTD SVG 1.1//EN" "http://www.w3.org/Graphics/SVG/1.1/DTD/svg11.dtd">
<svg version="1.1" id="Layer_1" xmlns="http://www.w3.org/2000/svg" xmlns:xlink="http://www.w3.org/1999/xlink" x="0px" y="0px"
	 width="48px" height="48px" viewBox="0 0 48 48" enable-background="new 0 0 48 48" xml:space="preserve">
<g>
	<path d="M35.388,1.526c-0.778-0.778-2.314-1.414-3.414-1.414H16.138c-1.1,0-2.636,0.636-3.414,1.414L1.526,12.724
		c-0.778,0.778-1.414,2.314-1.414,3.414v15.836c0,1.1,0.636,2.636,1.414,3.414l11.198,11.198C13.502,47.364,15.038,48,16.138,48
		h15.836c1.1,0,2.636-0.636,3.414-1.414l11.198-11.198C47.364,34.61,48,33.074,48,31.974V16.138c0-1.1-0.636-2.636-1.414-3.414
		L35.388,1.526z M24.244,39.056c-1.659,0-3-1.341-3-3c0-1.656,1.341-3,3-3s3,1.344,3,3C27.244,37.715,25.903,39.056,24.244,39.056z
		 M27.665,25.101c-0.232,1.075-0.788,2.777-1.237,3.781c0,0-0.525,1.174-2.184,1.174s-2.184-1.174-2.184-1.174
		c-0.449-1.004-1.11-2.677-1.469-3.716c0,0-2.347-6.798-2.347-10.11s2.688-6,6-6s4.886,3.954,4.886,3.954
		c0.407,1.022,0.55,2.738,0.318,3.813L27.665,25.101z"/>
</g>
</svg>
