<?xml version="1.0" encoding="utf-8"?>
<!-- Generator: Adobe Illustrator 17.0.0, SVG Export Plug-In . SVG Version: 6.00 Build 0)  -->
<!DOCTYPE svg PUBLIC "-//W3C//DTD SVG 1.1//EN" "http://www.w3.org/Graphics/SVG/1.1/DTD/svg11.dtd">
<svg version="1.1" id="Layer_1" xmlns="http://www.w3.org/2000/svg" xmlns:xlink="http://www.w3.org/1999/xlink" x="0px" y="0px"
	 width="35.167px" height="35.167px" viewBox="6.417 6.417 35.167 35.167" enable-background="new 6.417 6.417 35.167 35.167"
	 xml:space="preserve">
<g>
	<path d="M39.639,20.853L11.505,6.786c-0.492-0.246-1.037-0.369-1.572-0.369c-0.644,0-1.284,0.179-1.85,0.524
		C7.05,7.581,6.417,8.713,6.417,9.933L9.82,21.2l0,0L31.803,24L9.825,26.785l0,0L6.417,38.067c0,1.22,0.633,2.349,1.667,2.993
		c0.566,0.348,1.206,0.524,1.85,0.524c0.535,0,1.08-0.123,1.572-0.369l28.133-14.067c1.192-0.594,1.945-1.815,1.945-3.147
		C41.583,22.667,40.831,21.45,39.639,20.853z"/>
</g>
</svg>
