<?xml version="1.0" encoding="utf-8"?>
<!-- Generator: Adobe Illustrator 17.0.0, SVG Export Plug-In . SVG Version: 6.00 Build 0)  -->
<!DOCTYPE svg PUBLIC "-//W3C//DTD SVG 1.1//EN" "http://www.w3.org/Graphics/SVG/1.1/DTD/svg11.dtd">
<svg version="1.1" id="Layer_1" xmlns="http://www.w3.org/2000/svg" xmlns:xlink="http://www.w3.org/1999/xlink" x="0px" y="0px"
	 width="48px" height="48px" viewBox="0 0 48 48" enable-background="new 0 0 48 48" xml:space="preserve">
<path fill="#FFFFFF" d="M24,42C6,42,0,24,0,24S6,6,24,6s24,18,24,18S42,42,24,42z M24,12c-6.627,0-12,5.373-12,12s5.373,12,12,12
	s12-5.373,12-12S30.627,12,24,12z M24,30c-3.312,0-6-2.688-6-6c0-0.102,0.024-0.195,0.03-0.297C18.495,23.865,18.978,24,19.5,24
	c2.484,0,4.5-2.016,4.5-4.5c0-0.522-0.135-1.005-0.297-1.47C23.805,18.024,23.898,18,24,18c3.312,0,6,2.688,6,6S27.312,30,24,30z"/>
</svg>
