<?xml version="1.0" encoding="utf-8"?>
<!-- Generator: Adobe Illustrator 17.0.0, SVG Export Plug-In . SVG Version: 6.00 Build 0)  -->
<!DOCTYPE svg PUBLIC "-//W3C//DTD SVG 1.1//EN" "http://www.w3.org/Graphics/SVG/1.1/DTD/svg11.dtd">
<svg version="1.1" id="Layer_1" xmlns="http://www.w3.org/2000/svg" xmlns:xlink="http://www.w3.org/1999/xlink" x="0px" y="0px"
	 width="48px" height="48px" viewBox="0 0 48 48" enable-background="new 0 0 48 48" xml:space="preserve">
<path fill="#FFFFFF" d="M48,24c0,13.254-10.746,24-24,24S0,37.254,0,24S10.746,0,24,0S48,10.746,48,24z M42,24
	c0-9.939-8.061-18-18-18S6,14.061,6,24s8.061,18,18,18S42,33.939,42,24z M27,21l3,12c0,3.312-2.688,6-6,6s-6-2.688-6-6s3-12,3-12
	c0-1.659,1.341-3,3-3S27,19.341,27,21z M21,12c0-1.659,1.341-3,3-3s3,1.341,3,3c0,1.656-1.341,3-3,3S21,13.656,21,12z"/>
</svg>
