<?xml version="1.0" encoding="utf-8"?>
<!-- Generator: Adobe Illustrator 17.0.0, SVG Export Plug-In . SVG Version: 6.00 Build 0)  -->
<!DOCTYPE svg PUBLIC "-//W3C//DTD SVG 1.1//EN" "http://www.w3.org/Graphics/SVG/1.1/DTD/svg11.dtd">
<svg version="1.1" id="Layer_1" xmlns="http://www.w3.org/2000/svg" xmlns:xlink="http://www.w3.org/1999/xlink" x="0px" y="0px"
	 width="48px" height="48px" viewBox="0 0 48 48" enable-background="new 0 0 48 48" xml:space="preserve">
<path fill="#FFFFFF" d="M19.407,33.093c-2.229,0-5.718-8.814-7.407-5.25c-0.702,1.482-1.872,4.641-3,7.17V36c0,1.659,1.344,3,3,3h24
	c1.659,0,3-1.341,3-3v-1.398c-1.695-3.816-3.891-10.14-6-12.57C28.686,17.064,23.532,33.093,19.407,33.093z M39,0H9
	C4.029,0,0,4.029,0,9v30c0,4.968,4.029,9,9,9h30c4.968,0,9-4.032,9-9V9C48,4.029,43.968,0,39,0z M42,39c0,1.659-1.341,3-3,3H9
	c-1.656,0-3-1.341-3-3V9c0-1.656,1.344-3,3-3h30c1.659,0,3,1.344,3,3V39z M13.5,18c2.487,0,4.5-2.013,4.5-4.5S15.987,9,13.5,9
	S9,11.013,9,13.5S11.013,18,13.5,18z"/>
</svg>
