<?xml version="1.0" encoding="utf-8"?>
<!-- Generator: Adobe Illustrator 17.0.0, SVG Export Plug-In . SVG Version: 6.00 Build 0)  -->
<!DOCTYPE svg PUBLIC "-//W3C//DTD SVG 1.1//EN" "http://www.w3.org/Graphics/SVG/1.1/DTD/svg11.dtd">
<svg version="1.1" id="Layer_1" xmlns="http://www.w3.org/2000/svg" xmlns:xlink="http://www.w3.org/1999/xlink" x="0px" y="0px"
	 width="48px" height="48px" viewBox="0 0 48 48" enable-background="new 0 0 48 48" xml:space="preserve">
<path fill="#FFFFFF" d="M24,0C14.061,0,6,8.061,6,18s18,30,18,30s18-20.061,18-30S33.939,0,24,0z M24,30c-6.627,0-12-5.373-12-12
	S17.373,6,24,6s12,5.373,12,12S30.627,30,24,30z M24,12c-3.312,0-6,2.688-6,6s2.688,6,6,6s6-2.688,6-6S27.312,12,24,12z"/>
</svg>
