<?xml version="1.0" encoding="utf-8"?>
<!-- Generator: Adobe Illustrator 17.0.0, SVG Export Plug-In . SVG Version: 6.00 Build 0)  -->
<!DOCTYPE svg PUBLIC "-//W3C//DTD SVG 1.1//EN" "http://www.w3.org/Graphics/SVG/1.1/DTD/svg11.dtd">
<svg version="1.1" id="Layer_1" xmlns="http://www.w3.org/2000/svg" xmlns:xlink="http://www.w3.org/1999/xlink" x="0px" y="0px"
	 width="48px" height="48px" viewBox="0 0 48 48" enable-background="new 0 0 48 48" xml:space="preserve">
<path fill="#FFFFFF" d="M39,48H9c-1.656,0-3-1.341-3-3V24c0-1.656,1.344-3,3-3v-6C9,6.714,15.717,0,24,0c8.286,0,15,6.714,15,15v6
	c1.659,0,3,1.344,3,3v21C42,46.659,40.659,48,39,48z M33,15c0-4.971-4.032-9-9-9c-4.971,0-9,4.029-9,9v6h18V15z M36,27H12v15h24V27z
	"/>
</svg>
