<?xml version="1.0" encoding="utf-8"?>
<!-- Generator: Adobe Illustrator 17.0.0, SVG Export Plug-In . SVG Version: 6.00 Build 0)  -->
<!DOCTYPE svg PUBLIC "-//W3C//DTD SVG 1.1//EN" "http://www.w3.org/Graphics/SVG/1.1/DTD/svg11.dtd">
<svg version="1.1" id="Layer_1" xmlns="http://www.w3.org/2000/svg" xmlns:xlink="http://www.w3.org/1999/xlink" x="0px" y="0px"
	 width="48px" height="48px" viewBox="0 0 48 48" enable-background="new 0 0 48 48" xml:space="preserve">
<path fill="#FFFFFF" d="M39,21H15v-6c0-4.971,4.029-9,9-9c3.915,0,7.206,2.514,8.448,6h6.249C37.308,5.154,31.257,0,24,0
	C15.717,0,9,6.714,9,15v6c-1.656,0-3,1.344-3,3v21c0,1.659,1.344,3,3,3h30c1.659,0,3-1.341,3-3V24C42,22.344,40.659,21,39,21z
	 M36,27v15H12V27H36z"/>
</svg>
