<?xml version="1.0" encoding="utf-8"?>
<!-- Generator: Adobe Illustrator 17.0.0, SVG Export Plug-In . SVG Version: 6.00 Build 0)  -->
<!DOCTYPE svg PUBLIC "-//W3C//DTD SVG 1.1//EN" "http://www.w3.org/Graphics/SVG/1.1/DTD/svg11.dtd">
<svg version="1.1" id="Layer_1" xmlns="http://www.w3.org/2000/svg" xmlns:xlink="http://www.w3.org/1999/xlink" x="0px" y="0px"
	 width="48px" height="48px" viewBox="0 0 48 48" enable-background="new 0 0 48 48" xml:space="preserve">
<path fill="#FFFFFF" d="M3,15c-1.656,0-3-1.344-3-3s1.344-3,3-3h3c3.84,0,7.308,1.488,9.96,3.864
	c-1.302,1.635-2.307,3.492-2.976,5.523C11.334,16.338,8.835,15,6,15H3z M30,15c-4.971,0-9,4.029-9,9c0,8.286-6.717,15-15,15H3
	c-1.656,0-3-1.341-3-3s1.344-3,3-3h3c4.971,0,9-4.029,9-9c0-8.283,6.717-15,15-15h6V5.997c0-1.212,0.732-2.31,1.851-2.772
	c1.122-0.462,2.412-0.204,3.27,0.651l6,6C47.706,10.461,48,11.229,48,11.997c0,0.768-0.294,1.536-0.879,2.121l-6,6
	c-0.858,0.858-2.148,1.113-3.27,0.651C36.732,20.307,36,19.209,36,17.997V15H30z M41.121,27.876l6,6
	C47.706,34.461,48,35.229,48,35.997c0,0.768-0.294,1.536-0.879,2.121l-6,6c-0.858,0.858-2.148,1.113-3.27,0.651
	C36.732,44.307,36,43.209,36,41.997V39h-6c-3.84,0-7.308-1.485-9.963-3.861c1.302-1.638,2.307-3.492,2.979-5.526
	C24.666,31.665,27.165,33,30,33h6v-3.003c0-1.212,0.732-2.31,1.851-2.772C38.973,26.763,40.263,27.021,41.121,27.876z"/>
</svg>
