<?xml version="1.0" encoding="utf-8"?>
<!-- Generator: Adobe Illustrator 17.0.0, SVG Export Plug-In . SVG Version: 6.00 Build 0)  -->
<!DOCTYPE svg PUBLIC "-//W3C//DTD SVG 1.1//EN" "http://www.w3.org/Graphics/SVG/1.1/DTD/svg11.dtd">
<svg version="1.1" id="Layer_1" xmlns="http://www.w3.org/2000/svg" xmlns:xlink="http://www.w3.org/1999/xlink" x="0px" y="0px"
	 width="48px" height="48px" viewBox="0 0 48 48" enable-background="new 0 0 48 48" xml:space="preserve">
<path fill="#FFFFFF" d="M42,42H30c-1.659,0-3-1.341-3-3s1.341-3,3-3h12c1.659,0,3,1.341,3,3S43.659,42,42,42z M21,39
	c0,4.971,4.029,9,9,9H6c-1.656,0-3-1.341-3-3c0-6,5.799-11.598,11.727-13.812C11.304,29.073,9,25.317,9,21v-3
	c0-6.627,5.373-12,12-12s12,5.373,12,12v3c0,3.717-1.764,6.948-4.425,9.144C24.285,30.831,21,34.518,21,39z"/>
</svg>
