<?xml version="1.0" encoding="utf-8"?>
<!-- Generator: Adobe Illustrator 17.0.0, SVG Export Plug-In . SVG Version: 6.00 Build 0)  -->
<!DOCTYPE svg PUBLIC "-//W3C//DTD SVG 1.1//EN" "http://www.w3.org/Graphics/SVG/1.1/DTD/svg11.dtd">
<svg version="1.1" id="Capa_1" xmlns="http://www.w3.org/2000/svg" xmlns:xlink="http://www.w3.org/1999/xlink" x="0px" y="0px"
	 width="535.754px" height="535.748px" viewBox="153.068 38.695 535.754 535.748"
	 enable-background="new 153.068 38.695 535.754 535.748" xml:space="preserve">
<path d="M480.473,369.074H361.417c-3.286,0-5.953,2.667-5.953,5.953v59.528c0,3.286,2.667,5.953,5.953,5.953h119.056
	c3.286,0,5.953-2.667,5.953-5.953v-59.528C486.426,371.74,483.759,369.074,480.473,369.074z"/>
<path d="M682.868,178.584H623.34c-3.286,0-5.953-2.667-5.953-5.953v-53.575c0-3.286-2.667-5.953-5.953-5.953h-47.622
	c-3.286,0-5.953-2.667-5.953-5.953V47.622c0-3.286-2.667-5.953-5.953-5.953h-59.528c-3.286,0-5.953,2.667-5.953,5.953v59.528
	c0,3.286-2.667,5.953-5.953,5.953H361.417c-3.286,0-5.953-2.667-5.953-5.953V47.622c0-3.286-2.667-5.953-5.953-5.953h-59.528
	c-3.286,0-5.953,2.667-5.953,5.953v59.528c0,3.286-2.667,5.953-5.953,5.953h-47.622c-3.286,0-5.953,2.667-5.953,5.953v53.575
	c0,3.286-2.667,5.953-5.953,5.953h-59.528c-3.286,0-5.953,2.667-5.953,5.953v316.701v64.278c0,3.286,2.667,5.953,5.953,5.953h63.844
	h67.118c3.286,0,5.953-2.667,5.953-5.953v-59.528c0-3.286-2.667-5.953-5.953-5.953h-59.528c-3.286,0-5.953-2.667-5.953-5.953
	V315.498c0-3.286,2.667-5.953,5.953-5.953h47.622c3.286,0,5.953,2.667,5.953,5.953v47.622c0,3.286,2.667,5.953,5.953,5.953h59.528
	c3.286,0,5.953-2.667,5.953-5.953v-47.622c0-3.286,2.667-5.953,5.953-5.953h119.056c3.286,0,5.953,2.667,5.953,5.953v47.622
	c0,3.286,2.667,5.953,5.953,5.953h59.528c3.286,0,5.953-2.667,5.953-5.953v-47.622c0-3.286,2.667-5.953,5.953-5.953h47.622
	c3.286,0,5.953,2.667,5.953,5.953v178.584c0,3.286-2.667,5.953-5.953,5.953h-59.528c-3.286,0-5.953,2.667-5.953,5.953v59.528
	c0,3.286,2.667,5.953,5.953,5.953h67.118h63.844c3.286,0,5.953-2.667,5.953-5.953v-64.278V184.537
	C688.821,181.251,686.154,178.584,682.868,178.584z M355.464,244.065c0,3.286-2.667,5.953-5.953,5.953h-59.528
	c-3.286,0-5.953-2.667-5.953-5.953v-59.528c0-3.286,2.667-5.953,5.953-5.953h59.528c3.286,0,5.953,2.667,5.953,5.953V244.065z
	 M557.859,244.065c0,3.286-2.667,5.953-5.953,5.953h-59.528c-3.286,0-5.953-2.667-5.953-5.953v-59.528
	c0-3.286,2.667-5.953,5.953-5.953h59.528c3.286,0,5.953,2.667,5.953,5.953V244.065z"/>
</svg>
