<?xml version="1.0" encoding="utf-8"?>
<!-- Generator: Adobe Illustrator 17.0.0, SVG Export Plug-In . SVG Version: 6.00 Build 0)  -->
<!DOCTYPE svg PUBLIC "-//W3C//DTD SVG 1.1//EN" "http://www.w3.org/Graphics/SVG/1.1/DTD/svg11.dtd">
<svg version="1.1" id="Layer_1" xmlns="http://www.w3.org/2000/svg" xmlns:xlink="http://www.w3.org/1999/xlink" x="0px" y="0px"
	 width="25.522px" height="25.512px" viewBox="0.278 0.273 25.522 25.512" enable-background="new 0.278 0.273 25.522 25.512"
	 xml:space="preserve">
<path fill="none" stroke="#000000" stroke-width="1.6" stroke-linecap="round" stroke-linejoin="round" stroke-miterlimit="10" d="
	M16,7c1.771-1.771,4.563-4.438,7-2c2.084,2.084,0.424,4.686-1.848,6.957c-2.013,2.013-2.77,3.691-1.508,4.953S22.648,17.352,25,15"
	/>
<path d="M3.682,10.18l-1.487,1.488c-2.556,2.556-2.556,6.698,0,9.254c2.556,2.555,6.699,2.555,9.253,0l1.489-1.489L3.682,10.18z"/>
<g>
	<path d="M10.094,10.199l1.104-1.105c0.531-0.53,1.321-0.63,1.957-0.313l1.165-1.165c-2.566-1.981-6.252-1.821-8.605,0.531
		L4.646,9.216l4.037,4.036l1.098-1.097C9.465,11.52,9.564,10.729,10.094,10.199z"/>
	<path d="M15.491,8.784l-1.204,1.204c0.234,0.607,0.108,1.322-0.382,1.813l-1.104,1.105c-0.491,0.49-1.206,0.615-1.813,0.381
		l-1.135,1.135l4.047,4.047l1.068-1.068C17.324,15.045,17.482,11.35,15.491,8.784z"/>
</g>
<path d="M13.197,11.094l-1.102,1.104c-0.133,0.132-0.31,0.206-0.497,0.206c-0.187,0-0.362-0.073-0.495-0.206L10.8,11.895
	c-0.272-0.272-0.272-0.717,0-0.989l1.104-1.105c0.133-0.132,0.31-0.205,0.496-0.205c0.188,0,0.363,0.072,0.494,0.205l0.304,0.304
	c0.132,0.132,0.205,0.308,0.205,0.494S13.33,10.961,13.197,11.094z"/>
</svg>
