<?xml version="1.0" encoding="utf-8"?>
<!-- Generator: Adobe Illustrator 17.0.0, SVG Export Plug-In . SVG Version: 6.00 Build 0)  -->
<!DOCTYPE svg PUBLIC "-//W3C//DTD SVG 1.1//EN" "http://www.w3.org/Graphics/SVG/1.1/DTD/svg11.dtd">
<svg version="1.1" id="Layer_1" xmlns="http://www.w3.org/2000/svg" xmlns:xlink="http://www.w3.org/1999/xlink" x="0px" y="0px"
	 width="60.012px" height="60.009px" viewBox="1.854 0.211 60.012 60.009" enable-background="new 1.854 0.211 60.012 60.009"
	 xml:space="preserve">
<g>
	<path d="M10.235,21.622c0,5.837,4.749,10.586,10.586,10.586s10.586-4.749,10.586-10.586s-4.749-10.586-10.586-10.586
		S10.235,15.785,10.235,21.622z M20.821,29.208c-4.183,0-7.586-3.403-7.586-7.586c0-1.438,0.41-2.779,1.107-3.926
		c1.703,1.731,4.05,2.418,6.417,2.921c2.974,0.632,6.146,0.946,6.795,4.449c0.002,0.009,0.005,0.016,0.007,0.025
		C26.299,27.532,23.754,29.208,20.821,29.208z M28.29,20.335c-3.177-2.61-8.796-1.677-11.912-4.849
		c1.25-0.908,2.783-1.45,4.443-1.45C24.565,14.036,27.676,16.764,28.29,20.335z"/>
	<path d="M43.58,4.588c-3.398,0-6.163,2.765-6.163,6.163v0.647l-4.969,7.086l4.969-0.575v9.223c0,3.398,2.765,6.163,6.163,6.163
		h12.123c3.398,0,6.163-2.765,6.163-6.163V10.75c0-3.398-2.765-6.163-6.163-6.163L43.58,4.588L43.58,4.588z M58.865,10.75v16.381
		c0,1.744-1.419,3.163-3.163,3.163H43.58c-1.744,0-3.163-1.419-3.163-3.163v-12.59l-1.677,0.194l1.677-2.391V10.75
		c0-1.744,1.419-3.163,3.163-3.163h12.123C57.446,7.588,58.865,9.007,58.865,10.75z"/>
	<path d="M3.354,55.845h5.939h23.056h26.484c0.829,0,1.5-0.671,1.5-1.5s-0.671-1.5-1.5-1.5H37.664
		c0.325-0.63,0.509-1.326,0.509-2.059L36.307,38.03c-0.075-2.734-2.658-4.938-5.823-4.938h-6.685l-2.861,2.953l-0.039-0.11
		l-0.084,0.238L20.788,36.2l-3.206-3.108h-6.424c-3.165,0-5.749,2.204-5.823,4.938l-1.85,12.537l-0.016,0.219
		c0,0.734,0.185,1.429,0.509,2.059H3.354c-0.829,0-1.5,0.671-1.5,1.5S2.526,55.845,3.354,55.845z M21.769,47.356l-0.87,0.567
		l-0.87-0.567l0.87-2.451L21.769,47.356z M6.472,50.876L8.317,38.37l0.016-0.219c0-1.116,1.293-2.059,2.825-2.059h5.208l3.331,3.23
		l-3.285,9.258l4.487,2.925l4.487-2.925l-3.328-9.378l3.011-3.109h5.414c1.531,0,2.825,0.943,2.825,2.059l1.862,12.726
		c-0.068,1.076-1.333,1.968-2.822,1.968H9.293C7.804,52.845,6.54,51.953,6.472,50.876z"/>
	<path d="M45.651,15.363h-0.634c-0.11,0-0.2,0.09-0.2,0.2v1.498c0,0.11-0.09,0.2-0.2,0.2h-1.535c-0.11,0-0.2-0.09-0.2-0.2v-1.498
		c0-0.11-0.09-0.2-0.2-0.2h-0.634c-0.11,0-0.2,0.09-0.2,0.2v4.579c0,0.11,0.09,0.2,0.2,0.2h0.634c0.11,0,0.2-0.09,0.2-0.2V18.32
		c0-0.11,0.09-0.2,0.2-0.2h1.535c0.11,0,0.2,0.09,0.2,0.2v1.822c0,0.11,0.09,0.2,0.2,0.2h0.634c0.11,0,0.2-0.09,0.2-0.2v-4.579
		C45.851,15.453,45.761,15.363,45.651,15.363z"/>
	<path d="M49.808,17.279c-0.167-0.248-0.379-0.43-0.636-0.545s-0.545-0.173-0.866-0.173c-0.54,0-0.978,0.17-1.316,0.511
		c-0.338,0.34-0.507,0.829-0.507,1.467c0,0.586,0.139,1.032,0.417,1.337c0.074,0.082,0.214,0.194,0.307,0.255
		c0.336,0.223,0.714,0.334,1.135,0.334c0.594,0,1.055-0.179,1.385-0.537c0.149-0.159,0.253-0.316,0.31-0.471
		c0.038-0.104-0.042-0.194-0.153-0.194H49.3c-0.11,0-0.232,0.065-0.286,0.136c-0.035,0.046-0.072,0.085-0.112,0.117
		c-0.137,0.113-0.315,0.169-0.534,0.169c-0.207,0-0.384-0.046-0.531-0.138c-0.196-0.12-0.317-0.313-0.364-0.579
		c-0.019-0.109,0.069-0.198,0.179-0.198h2.281c0.11,0,0.202-0.089,0.201-0.2c-0.002-0.222-0.012-0.399-0.032-0.531
		C50.057,17.752,49.959,17.498,49.808,17.279z M48.934,18.136h-1.258c-0.11,0-0.189-0.09-0.157-0.195
		c0.046-0.15,0.117-0.275,0.214-0.375c0.136-0.14,0.328-0.21,0.575-0.21c0.227,0,0.417,0.066,0.571,0.198
		c0.111,0.096,0.186,0.223,0.226,0.383C49.13,18.045,49.044,18.136,48.934,18.136z"/>
	<path d="M51.403,15.363H50.84c-0.11,0-0.2,0.09-0.2,0.2v4.579c0,0.11,0.09,0.2,0.2,0.2h0.563c0.11,0,0.2-0.09,0.2-0.2v-4.579
		C51.603,15.453,51.513,15.363,51.403,15.363z"/>
	<path d="M53.325,15.363h-0.563c-0.11,0-0.2,0.09-0.2,0.2v4.579c0,0.11,0.09,0.2,0.2,0.2h0.563c0.11,0,0.2-0.09,0.2-0.2v-4.579
		C53.525,15.453,53.435,15.363,53.325,15.363z"/>
	<path d="M54.237,18.506c0,0.54,0.155,1.002,0.466,1.385c0.311,0.384,0.782,0.575,1.415,0.575s1.104-0.192,1.415-0.575
		C57.845,19.508,58,19.046,58,18.506c0-0.531-0.155-0.991-0.466-1.38s-0.782-0.584-1.415-0.584s-1.104,0.195-1.415,0.584
		C54.393,17.515,54.237,17.975,54.237,18.506z M55.465,17.654c0.152-0.199,0.369-0.298,0.65-0.298c0.281,0,0.498,0.1,0.648,0.298
		c0.151,0.199,0.226,0.483,0.226,0.852s-0.075,0.653-0.226,0.853s-0.367,0.3-0.648,0.3s-0.498-0.1-0.65-0.3
		c-0.152-0.2-0.228-0.485-0.228-0.853S55.313,17.853,55.465,17.654z"/>
</g>
</svg>
