<?xml version="1.0" encoding="utf-8"?>
<!-- Generator: Adobe Illustrator 17.0.0, SVG Export Plug-In . SVG Version: 6.00 Build 0)  -->
<!DOCTYPE svg PUBLIC "-//W3C//DTD SVG 1.1//EN" "http://www.w3.org/Graphics/SVG/1.1/DTD/svg11.dtd">
<svg version="1.1" id="Layer_1" xmlns="http://www.w3.org/2000/svg" xmlns:xlink="http://www.w3.org/1999/xlink" x="0px" y="0px"
	 width="18.312px" height="18.32px" viewBox="3.845 3.84 18.312 18.32" enable-background="new 3.845 3.84 18.312 18.32"
	 xml:space="preserve">
<g>
	<path d="M21.008,20.106H20.58v-2.043c-0.071,0.042-0.152,0.067-0.24,0.067c-0.905,0-1.628-0.27-2.146-0.803
		c-0.107-0.11-0.199-0.225-0.279-0.344c-0.063,0.099-0.137,0.194-0.221,0.287c-0.517,0.57-1.28,0.859-2.27,0.859
		c-0.905,0-1.628-0.27-2.146-0.803c-0.106-0.11-0.199-0.225-0.278-0.344c-0.064,0.099-0.138,0.194-0.222,0.287
		c-0.516,0.57-1.28,0.859-2.27,0.859c-0.905,0-1.627-0.27-2.146-0.803c-0.106-0.11-0.199-0.225-0.278-0.344
		c-0.064,0.099-0.138,0.194-0.221,0.287c-0.517,0.57-1.28,0.859-2.27,0.859c-0.062,0-0.121-0.012-0.175-0.034v2.01H4.992
		c-0.378,0-0.685,0.307-0.685,0.685v0.686c0,0.379,0.307,0.686,0.685,0.686h16.016c0.378,0,0.686-0.307,0.686-0.686v-0.686
		C21.693,20.413,21.386,20.106,21.008,20.106z"/>
	<path d="M7.161,16.633c0.366-0.403,0.417-0.948,0.419-1.186c-0.007-0.104-0.005-0.168-0.005-0.18
		c0.007-0.25,0.208-0.452,0.458-0.461c0.252-0.008,0.465,0.178,0.489,0.428c0.001,0.01,0.007,0.075,0.007,0.178
		c0.019,0.25,0.108,0.838,0.521,1.258c0.333,0.34,0.824,0.511,1.459,0.511c0.71,0,1.237-0.184,1.565-0.548
		c0.366-0.403,0.417-0.948,0.419-1.186c-0.007-0.104-0.006-0.168-0.006-0.18c0.007-0.25,0.208-0.452,0.458-0.461
		c0.25-0.008,0.465,0.178,0.489,0.428c0.001,0.01,0.007,0.075,0.007,0.178c0.02,0.25,0.109,0.838,0.521,1.258
		c0.333,0.34,0.824,0.511,1.46,0.511c0.71,0,1.236-0.184,1.565-0.548c0.366-0.403,0.416-0.948,0.419-1.186
		c-0.008-0.104-0.006-0.168-0.005-0.18c0.006-0.25,0.206-0.452,0.458-0.461c0.247-0.008,0.464,0.178,0.489,0.428
		c0.001,0.01,0.007,0.075,0.007,0.178c0.02,0.25,0.108,0.838,0.521,1.258c0.332,0.34,0.824,0.511,1.46,0.511
		c0.088,0,0.169,0.026,0.24,0.067v-2.195c0-0.379-0.307-0.686-0.686-0.686h-0.448v-1.736c-0.06,0.035-0.129,0.057-0.203,0.057
		c-0.771,0-1.385-0.23-1.826-0.684c-0.09-0.092-0.169-0.19-0.236-0.291c-0.055,0.083-0.117,0.165-0.188,0.243
		c-0.44,0.486-1.09,0.732-1.931,0.732c-0.77,0-1.385-0.23-1.826-0.684c-0.09-0.092-0.168-0.19-0.236-0.291
		c-0.055,0.083-0.118,0.165-0.188,0.243c-0.439,0.486-1.089,0.732-1.931,0.732c-0.77,0-1.384-0.23-1.825-0.684
		c-0.09-0.092-0.169-0.19-0.237-0.291c-0.055,0.083-0.117,0.165-0.188,0.243c-0.439,0.486-1.088,0.732-1.931,0.732
		c-0.053,0-0.103-0.01-0.148-0.029v1.708H6.105c-0.378,0-0.685,0.307-0.685,0.686v2.162c0.054-0.021,0.113-0.034,0.175-0.034
		C6.306,17.181,6.832,16.997,7.161,16.633z"/>
	<path d="M8.033,11.415c0.312-0.344,0.354-0.808,0.356-1.01c-0.006-0.088-0.004-0.143-0.004-0.152
		c0.006-0.213,0.177-0.384,0.39-0.392c0.214-0.007,0.396,0.151,0.417,0.364c0,0.009,0.006,0.064,0.006,0.152
		c0.017,0.211,0.092,0.712,0.443,1.07c0.283,0.289,0.701,0.434,1.241,0.434c0.604,0,1.052-0.157,1.332-0.465
		c0.312-0.344,0.354-0.808,0.356-1.01c-0.006-0.088-0.005-0.143-0.004-0.152c0.006-0.213,0.176-0.384,0.39-0.392
		c0.212-0.007,0.395,0.151,0.416,0.364c0.001,0.009,0.006,0.064,0.006,0.152c0.016,0.211,0.092,0.712,0.444,1.07
		c0.282,0.289,0.7,0.434,1.241,0.434c0.604,0,1.051-0.157,1.331-0.465c0.312-0.344,0.354-0.808,0.356-1.01
		c-0.006-0.088-0.005-0.143-0.004-0.152c0.005-0.213,0.176-0.384,0.39-0.392c0.21-0.007,0.395,0.151,0.416,0.364
		c0.001,0.009,0.006,0.064,0.006,0.152c0.017,0.211,0.093,0.712,0.443,1.07c0.283,0.289,0.701,0.434,1.242,0.434
		c0.074,0,0.144,0.022,0.203,0.057v-1.87c0-0.322-0.26-0.583-0.582-0.583h-4.45h-0.87c0.693-0.633,2.441-2.332,2.636-3.519
		c0.1-0.607,0.008-1.101-0.271-1.469c-0.279-0.366-0.732-0.585-1.348-0.651C14.055,3.797,13.406,4,13,4.443
		C12.594,4,11.948,3.795,11.439,3.848c-0.615,0.066-1.068,0.285-1.347,0.651C9.812,4.866,9.721,5.36,9.819,5.968
		c0.195,1.188,1.957,2.885,2.656,3.519h-0.89h-4.45c-0.322,0-0.583,0.261-0.583,0.583v1.839C6.598,11.89,6.648,11.88,6.7,11.88
		C7.306,11.88,7.754,11.723,8.033,11.415z M10.644,5.833c-0.061-0.372-0.022-0.65,0.113-0.828c0.136-0.178,0.388-0.285,0.771-0.326
		c0.024-0.003,0.048-0.004,0.074-0.004c0.33,0,0.889,0.204,0.987,0.75C12.624,5.625,12.797,5.77,13,5.77
		c0.202,0,0.375-0.145,0.411-0.344c0.105-0.589,0.735-0.782,1.061-0.746c0.384,0.041,0.636,0.147,0.771,0.326
		c0.135,0.177,0.173,0.456,0.111,0.828c-0.122,0.755-1.405,2.149-2.345,3.011C12.063,7.982,10.768,6.587,10.644,5.833z"/>
</g>
</svg>
