<?xml version="1.0" encoding="utf-8"?>
<!-- Generator: Adobe Illustrator 17.0.0, SVG Export Plug-In . SVG Version: 6.00 Build 0)  -->
<!DOCTYPE svg PUBLIC "-//W3C//DTD SVG 1.1//EN" "http://www.w3.org/Graphics/SVG/1.1/DTD/svg11.dtd">
<svg version="1.1" id="Layer_1" xmlns="http://www.w3.org/2000/svg" xmlns:xlink="http://www.w3.org/1999/xlink" x="0px" y="0px"
	 width="18.743px" height="18.743px" viewBox="14.628 14.629 18.743 18.743" enable-background="new 14.628 14.629 18.743 18.743"
	 xml:space="preserve">
<path fill="#FFFFFF" d="M28.233,32.49l-4.238-4.248l-4.248,4.238c-1.174,1.172-3.071,1.17-4.243-0.005
	c-1.17-1.172-1.17-3.071,0.005-4.243l4.248-4.238l-4.238-4.248c-1.17-1.172-1.17-3.071,0.005-4.243
	c1.172-1.17,3.073-1.167,4.243,0.005l4.238,4.248l4.248-4.238c1.172-1.17,3.073-1.167,4.243,0.005
	c1.172,1.174,1.167,3.073-0.005,4.243l-4.248,4.238l4.238,4.248c1.172,1.174,1.167,3.073-0.005,4.243
	C31.301,33.667,29.405,33.665,28.233,32.49z"/>
</svg>
