<?xml version="1.0" encoding="utf-8"?>
<!-- Generator: Adobe Illustrator 17.0.0, SVG Export Plug-In . SVG Version: 6.00 Build 0)  -->
<!DOCTYPE svg PUBLIC "-//W3C//DTD SVG 1.1//EN" "http://www.w3.org/Graphics/SVG/1.1/DTD/svg11.dtd">
<svg version="1.1" id="Layer_1" xmlns="http://www.w3.org/2000/svg" xmlns:xlink="http://www.w3.org/1999/xlink" x="0px" y="0px"
	 width="48px" height="48px" viewBox="0 0 48 48" enable-background="new 0 0 48 48" xml:space="preserve">
<path fill="#FFFFFF" d="M46.599,40.236L36.054,29.691C37.89,26.718,39,23.25,39,19.5C39,8.73,30.27,0,19.5,0S0,8.73,0,19.5
	S8.73,39,19.5,39c3.75,0,7.218-1.11,10.188-2.943l10.548,10.545c1.758,1.758,4.605,1.758,6.363,0S48.357,41.994,46.599,40.236z
	 M19.5,33C12.045,33,6,26.955,6,19.5S12.045,6,19.5,6S33,12.045,33,19.5S26.955,33,19.5,33z"/>
</svg>
