<?xml version="1.0" encoding="utf-8"?>
<!-- Generator: Adobe Illustrator 17.0.0, SVG Export Plug-In . SVG Version: 6.00 Build 0)  -->
<!DOCTYPE svg PUBLIC "-//W3C//DTD SVG 1.1//EN" "http://www.w3.org/Graphics/SVG/1.1/DTD/svg11.dtd">
<svg version="1.1" id="Layer_1" xmlns="http://www.w3.org/2000/svg" xmlns:xlink="http://www.w3.org/1999/xlink" x="0px" y="0px"
	 width="48px" height="48px" viewBox="0 0 48 48" enable-background="new 0 0 48 48" xml:space="preserve">
<path fill="#FFFFFF" d="M38.667,26.268C43.371,28.875,47.073,33.498,48,39c0,4.968-4.032,9-9,9h-4.146
	c1.788-1.563,3.102-3.63,3.72-6H39c1.659,0,3-1.341,3-3c-0.774-2.988-2.817-5.496-5.466-7.11c-1.398-2.424-3.282-4.608-5.571-6.375
	c0.348-0.591,0.648-1.209,0.909-1.842C34.263,22.881,36,20.655,36,18v-6c0-2.658-1.737-4.884-4.131-5.673
	c-0.978-2.379-2.58-4.413-4.563-5.997C28.176,0.129,29.07,0,30,0c6.627,0,12,5.373,12,12v6C42,21.213,40.719,24.114,38.667,26.268z
	 M27,48H9c-4.971,0-9-4.032-9-9l0,0c0.927-5.502,4.629-10.125,9.336-12.732C7.281,24.114,6,21.213,6,18v-6C6,5.373,11.373,0,18,0
	s12,5.373,12,12v6c0,3.213-1.281,6.114-3.333,8.268C31.371,28.875,35.073,33.498,36,39l0,0C36,43.968,31.968,48,27,48z M24,18v-6
	c0-3.312-2.688-6-6-6s-6,2.688-6,6v6c0,3.312,2.688,6,6,6S24,21.312,24,18z M30,39c-1.338-5.169-6.417-9-12-9l0,0l0,0
	c-5.586,0-10.662,3.831-12,9l0,0c0,1.659,1.344,3,3,3h18C28.659,42,30,40.659,30,39L30,39z"/>
</svg>
