<?xml version="1.0" encoding="utf-8"?>
<!-- Generator: Adobe Illustrator 15.0.0, SVG Export Plug-In . SVG Version: 6.00 Build 0)  -->
<!DOCTYPE svg PUBLIC "-//W3C//DTD SVG 1.1//EN" "http://www.w3.org/Graphics/SVG/1.1/DTD/svg11.dtd">
<svg version="1.1" id="Layer_1" xmlns="http://www.w3.org/2000/svg" xmlns:xlink="http://www.w3.org/1999/xlink" x="0px" y="0px"
	 width="64px" height="64px" viewBox="0 0 64 64" enable-background="new 0 0 64 64" xml:space="preserve">
<g>
	<path d="M44.282,9.785c0.48,0,0.871-0.389,0.871-0.869V3.713c0-0.48-0.391-0.871-0.871-0.871c-0.479,0-0.869,0.391-0.869,0.871
		v5.203C43.413,9.396,43.804,9.785,44.282,9.785z"/>
	<path d="M39.544,9.785c0.481,0,0.872-0.389,0.872-0.869V3.713c0-0.48-0.391-0.871-0.872-0.871c-0.478,0-0.868,0.391-0.868,0.871
		v5.203C38.676,9.396,39.066,9.785,39.544,9.785z"/>
	<path d="M34.719,9.785c0.479,0,0.867-0.389,0.867-0.869V3.713c0-0.48-0.389-0.871-0.867-0.871c-0.48,0-0.871,0.391-0.871,0.871
		v5.203C33.848,9.396,34.238,9.785,34.719,9.785z"/>
	<path d="M29.98,9.785c0.479,0,0.869-0.389,0.869-0.869V3.713c0-0.48-0.391-0.871-0.869-0.871c-0.48,0-0.87,0.391-0.87,0.871v5.203
		C29.11,9.396,29.5,9.785,29.98,9.785z"/>
	<path d="M25.609,9.785c0.477,0,0.868-0.389,0.868-0.869V3.713c0-0.48-0.391-0.871-0.868-0.871c-0.482,0-0.871,0.391-0.871,0.871
		v5.203C24.738,9.396,25.127,9.785,25.609,9.785z"/>
	<path d="M20.87,9.785c0.479,0,0.868-0.389,0.868-0.869V3.713c0-0.48-0.389-0.871-0.868-0.871C20.39,2.842,20,3.232,20,3.713v5.203
		C20,9.396,20.39,9.785,20.87,9.785z"/>
	<path d="M8.912,18.761H3.711c-0.48,0-0.869,0.391-0.869,0.869s0.389,0.869,0.869,0.869h5.201c0.482,0,0.871-0.391,0.871-0.869
		S9.394,18.761,8.912,18.761z"/>
	<path d="M8.912,23.5H3.711c-0.48,0-0.869,0.389-0.869,0.868c0,0.48,0.389,0.869,0.869,0.869h5.201c0.482,0,0.871-0.389,0.871-0.869
		C9.783,23.888,9.394,23.5,8.912,23.5z"/>
	<path d="M8.912,28.328H3.711c-0.48,0-0.869,0.389-0.869,0.871c0,0.479,0.389,0.868,0.869,0.868h5.201
		c0.482,0,0.871-0.389,0.871-0.868C9.783,28.717,9.394,28.328,8.912,28.328z"/>
	<path d="M8.912,33.064H3.711c-0.48,0-0.869,0.391-0.869,0.869s0.389,0.869,0.869,0.869h5.201c0.482,0,0.871-0.391,0.871-0.869
		S9.394,33.064,8.912,33.064z"/>
	<path d="M8.912,37.434H3.711c-0.48,0-0.869,0.391-0.869,0.869c0,0.482,0.389,0.873,0.869,0.873h5.201
		c0.482,0,0.871-0.391,0.871-0.873C9.783,37.824,9.394,37.434,8.912,37.434z"/>
	<path d="M8.912,42.174H3.711c-0.48,0-0.869,0.388-0.869,0.869c0,0.479,0.389,0.87,0.869,0.87h5.201c0.482,0,0.871-0.391,0.871-0.87
		C9.783,42.562,9.394,42.174,8.912,42.174z"/>
	<path d="M44.282,54.217c-0.479,0-0.869,0.391-0.869,0.869v5.203c0,0.481,0.391,0.869,0.869,0.869c0.48,0,0.871-0.388,0.871-0.869
		v-5.203C45.153,54.607,44.763,54.217,44.282,54.217z"/>
	<path d="M39.544,54.217c-0.478,0-0.868,0.391-0.868,0.869v5.203c0,0.481,0.391,0.869,0.868,0.869c0.481,0,0.872-0.388,0.872-0.869
		v-5.203C40.416,54.607,40.025,54.217,39.544,54.217z"/>
	<path d="M34.719,54.217c-0.48,0-0.871,0.391-0.871,0.869v5.203c0,0.481,0.391,0.869,0.871,0.869c0.479,0,0.867-0.388,0.867-0.869
		v-5.203C35.586,54.607,35.197,54.217,34.719,54.217z"/>
	<path d="M29.98,54.217c-0.48,0-0.87,0.391-0.87,0.869v5.203c0,0.481,0.389,0.869,0.87,0.869c0.479,0,0.869-0.388,0.869-0.869
		v-5.203C30.849,54.607,30.458,54.217,29.98,54.217z"/>
	<path d="M25.609,54.217c-0.482,0-0.871,0.391-0.871,0.869v5.203c0,0.481,0.389,0.869,0.871,0.869c0.477,0,0.868-0.388,0.868-0.869
		v-5.203C26.477,54.607,26.086,54.217,25.609,54.217z"/>
	<path d="M20.87,54.217c-0.48,0-0.871,0.391-0.871,0.869v5.203c0,0.481,0.391,0.869,0.871,0.869c0.479,0,0.868-0.388,0.868-0.869
		v-5.203C21.738,54.607,21.349,54.217,20.87,54.217z"/>
	<path d="M46.699,12.062H18.451c-2.964,0-5.378,2.416-5.378,5.38v28.246c0,2.969,2.414,5.385,5.378,5.385h28.248
		c2.965,0,5.381-2.416,5.381-5.385V17.442C52.08,14.478,49.664,12.062,46.699,12.062z M21.183,20.646
		c-0.948,0-1.716-0.768-1.716-1.714s0.768-1.716,1.716-1.716c0.944,0,1.714,0.77,1.714,1.716S22.127,20.646,21.183,20.646z
		 M41.663,40.091H23.68V21.94h17.983V40.091z"/>
	<path d="M55.083,20.499h5.204c0.48,0,0.871-0.391,0.871-0.869s-0.391-0.869-0.871-0.869h-5.204c-0.479,0-0.869,0.391-0.869,0.869
		S54.604,20.499,55.083,20.499z"/>
	<path d="M60.287,23.5h-5.204c-0.479,0-0.869,0.389-0.869,0.868c0,0.48,0.391,0.869,0.869,0.869h5.204
		c0.48,0,0.871-0.389,0.871-0.869C61.158,23.888,60.768,23.5,60.287,23.5z"/>
	<path d="M60.287,28.328h-5.204c-0.479,0-0.869,0.389-0.869,0.871c0,0.479,0.391,0.868,0.869,0.868h5.204
		c0.48,0,0.871-0.389,0.871-0.868C61.158,28.717,60.768,28.328,60.287,28.328z"/>
	<path d="M60.287,33.064h-5.204c-0.479,0-0.869,0.391-0.869,0.869s0.391,0.869,0.869,0.869h5.204c0.48,0,0.871-0.391,0.871-0.869
		S60.768,33.064,60.287,33.064z"/>
	<path d="M60.287,37.434h-5.204c-0.479,0-0.869,0.391-0.869,0.869c0,0.482,0.391,0.873,0.869,0.873h5.204
		c0.48,0,0.871-0.391,0.871-0.873C61.158,37.824,60.768,37.434,60.287,37.434z"/>
	<path d="M60.287,42.174h-5.204c-0.479,0-0.869,0.388-0.869,0.869c0,0.479,0.391,0.87,0.869,0.87h5.204
		c0.48,0,0.871-0.391,0.871-0.87C61.158,42.562,60.768,42.174,60.287,42.174z"/>
</g>
</svg>
