<?xml version="1.0" encoding="iso-8859-1"?>
<!-- Generator: Adobe Illustrator 17.1.0, SVG Export Plug-In . SVG Version: 6.00 Build 0)  -->
<!DOCTYPE svg PUBLIC "-//W3C//DTD SVG 1.1//EN" "http://www.w3.org/Graphics/SVG/1.1/DTD/svg11.dtd">
<svg version="1.1" id="Layer_1" xmlns="http://www.w3.org/2000/svg" xmlns:xlink="http://www.w3.org/1999/xlink" x="0px" y="0px"
	 viewBox="0 0 64 64" style="enable-background:new 0 0 64 64;" xml:space="preserve">
<g>
	<path d="M38.358,18h-0.013c0,0-1.736-1.955-3.252-0.542s-0.189,4.658,3.252,6.071l0.013,0.002c3.441-1.413,4.767-4.66,3.252-6.073
		S38.358,18,38.358,18z"/>
	<path d="M53.23,30.799c-2.276-8.42-11.676-3.183-11.676-3.183L36.91,26.56l2.471,4.727c-0.958,5.425,2.28,9.063,2.28,9.063
		c1.668,2.084,3.934,3.279,6.34,3.922V47h1v-2.491c0.664,0.135,1.333,0.229,2,0.295V47h1v-2.118
		c5.032,0.277,9.594-1.059,9.594-1.059C56.89,43.106,55.134,39.052,53.23,30.799z M44.271,30.187
		c-0.637,0.004-1.156-0.51-1.16-1.147c-0.004-0.637,0.51-1.156,1.147-1.16c0.637-0.004,1.156,0.51,1.16,1.147
		C45.421,29.664,44.908,30.183,44.271,30.187z"/>
	<path d="M21,47h1v-2.751c2.419-0.84,4.644-2.151,6.351-4.146c0,0,4.064-4.27,2.769-10.554l3.074-5.523l-5.89,1.293
		c0,0-12.027-5.945-14.801,3.862C11.2,38.788,9.026,43.519,3.055,44.419c0,0,7.581,1.939,14.945,0.805V47h1v-1.951
		c0.674-0.131,1.342-0.291,2-0.482V47z M25.594,25.99c0.753-0.004,1.367,0.602,1.371,1.355c0.004,0.753-0.602,1.367-1.355,1.371
		c-0.753,0.004-1.367-0.602-1.371-1.355C24.235,26.608,24.842,25.995,25.594,25.99z"/>
</g>
</svg>
