<?xml version="1.0" encoding="iso-8859-1"?>
<!-- Generator: Adobe Illustrator 16.0.4, SVG Export Plug-In . SVG Version: 6.00 Build 0)  -->
<!DOCTYPE svg PUBLIC "-//W3C//DTD SVG 1.1//EN" "http://www.w3.org/Graphics/SVG/1.1/DTD/svg11.dtd">
<svg version="1.1" id="Capa_1" xmlns="http://www.w3.org/2000/svg" xmlns:xlink="http://www.w3.org/1999/xlink" x="0px" y="0px"
	 width="15px" height="12.143px" viewBox="0 0 15 12.143" style="enable-background:new 0 0 15 12.143;" xml:space="preserve">
<path style="fill:#010002;" d="M5.4,4.699C5.4,5.08,5.091,5.39,4.709,5.39c-0.382,0-0.692-0.31-0.692-0.691
	c0-0.382,0.31-0.691,0.692-0.691C5.091,4.008,5.4,4.317,5.4,4.699z M4.782,9.431l0.148,2.549c0,0.09,0.073,0.163,0.162,0.163
	c0.09,0,0.162-0.073,0.162-0.163l0.139-2.549h0.451L5.378,6.573l0.938,1.869c0.035,0.083,0.13,0.122,0.213,0.086
	c0.082-0.035,0.121-0.129,0.085-0.212c0,0-0.688-1.861-0.858-2.207C5.588,5.762,5.42,5.551,4.775,5.551H4.643
	c-0.644,0-0.812,0.211-0.982,0.557C3.492,6.455,2.802,8.315,2.802,8.315C2.768,8.398,2.806,8.493,2.888,8.528
	c0.083,0.036,0.178-0.004,0.213-0.086L4.04,6.573L3.573,9.431h0.451l0.14,2.549c0,0.09,0.073,0.163,0.162,0.163
	c0.091,0,0.163-0.073,0.163-0.163l0.139-2.549H4.782z M10.293,4.006c-0.383,0-0.692,0.309-0.692,0.691c0,0.381,0.31,0.69,0.692,0.69
	c0.381,0,0.689-0.309,0.689-0.69C10.982,4.315,10.674,4.006,10.293,4.006z M11.009,8.074l0.046-1.503l0.844,1.869
	c0.035,0.083,0.13,0.121,0.213,0.086c0.082-0.035,0.122-0.129,0.086-0.213c0,0-0.594-1.86-0.764-2.207
	c-0.169-0.346-0.431-0.557-1.076-0.557h-0.132c-0.644,0-0.908,0.211-1.077,0.557C8.979,6.453,8.385,8.313,8.385,8.313
	C8.35,8.397,8.389,8.491,8.471,8.526C8.554,8.561,8.649,8.522,8.684,8.44l0.845-1.869l0.046,1.503l-0.133,3.777
	c-0.011,0.15,0.102,0.28,0.251,0.29c0.007,0,0.014,0.001,0.019,0.001c0.142,0,0.261-0.109,0.272-0.252l0.307-2.921l0.308,2.921
	c0.01,0.143,0.129,0.252,0.271,0.252c0.006,0,0.013,0,0.019-0.001c0.15-0.01,0.262-0.14,0.252-0.29L11.009,8.074L11.009,8.074z
	 M7.5,8.207c-0.234,0-0.424,0.19-0.424,0.424S7.266,9.054,7.5,9.054s0.425-0.189,0.425-0.423S7.734,8.207,7.5,8.207z M7.5,10.704
	c0,0,0.191,1.326,0.191,1.327c0.025,0.064,0.087,0.111,0.161,0.111c0.077,0,0.14-0.051,0.163-0.12
	c0.002-0.003,0.006-0.082,0.002-0.095l-0.078-1.629l0.024-0.559c0.022-0.19,0.026-0.134,0.243-0.263
	c0.221-0.133,0.597-0.715,0.615-0.744c0.018-0.029,0.053-0.08,0.06-0.113c0.01-0.059-0.028-0.114-0.086-0.126
	C8.75,8.486,8.713,8.509,8.685,8.54C8.656,8.571,8.223,9.147,7.898,9.202c-0.072-0.01-0.151-0.048-0.357-0.048H7.459
	c-0.206,0-0.284,0.038-0.357,0.048C6.777,9.147,6.344,8.571,6.315,8.54C6.287,8.509,6.25,8.486,6.206,8.493
	C6.148,8.505,6.11,8.561,6.121,8.619C6.127,8.652,6.162,8.703,6.18,8.732c0.018,0.029,0.395,0.611,0.615,0.744
	c0.217,0.129,0.221,0.073,0.243,0.263l0.023,0.559l-0.077,1.629c-0.004,0.014,0,0.092,0.002,0.095
	c0.023,0.069,0.085,0.12,0.163,0.12c0.073,0,0.136-0.047,0.161-0.111C7.31,12.03,7.5,10.704,7.5,10.704 M14.881,5.501
	c0.209-0.299,0.135-0.712-0.166-0.921L8.602,0.327c-0.628-0.437-1.576-0.437-2.203,0L0.284,4.58c-0.3,0.209-0.375,0.622-0.166,0.921
	c0.209,0.3,0.621,0.375,0.921,0.166l6.114-4.253c0.172-0.119,0.521-0.119,0.693,0l6.113,4.253c0.115,0.08,0.248,0.119,0.377,0.119
	C14.547,5.785,14.753,5.686,14.881,5.501z"/>
<g>
</g>
<g>
</g>
<g>
</g>
<g>
</g>
<g>
</g>
<g>
</g>
<g>
</g>
<g>
</g>
<g>
</g>
<g>
</g>
<g>
</g>
<g>
</g>
<g>
</g>
<g>
</g>
<g>
</g>
</svg>
