<?xml version="1.0" encoding="utf-8"?>
<!-- Generator: Adobe Illustrator 17.0.0, SVG Export Plug-In . SVG Version: 6.00 Build 0)  -->
<!DOCTYPE svg PUBLIC "-//W3C//DTD SVG 1.1//EN" "http://www.w3.org/Graphics/SVG/1.1/DTD/svg11.dtd">
<svg version="1.1" id="Capa_1" xmlns="http://www.w3.org/2000/svg" xmlns:xlink="http://www.w3.org/1999/xlink" x="0px" y="0px"
	 width="64px" height="64px" viewBox="0 0 64 64" enable-background="new 0 0 64 64" xml:space="preserve">
<path d="M50.042,31.125c2.757,0,5-2.691,5-6v-10c0-3.309-2.691-6-6-6h-33.75c-3.308,0-6,2.691-6,6v10c0,3.309,2.439,6,5.438,6
	c1.975,0,3.158,0.581,3.408,0.875c-0.25,0.294-1.434,0.875-3.408,0.875c-2.998,0-5.438,2.691-5.438,6v10c0,3.309,2.691,6,6,6h33.75
	c3.309,0,6-2.691,6-6v-10c0-3.309-2.243-6-5-6c-1.863,0-2.917-0.652-3.003-0.851C47.125,31.777,48.179,31.125,50.042,31.125z
	 M50.042,34.875c1.654,0,3,1.794,3,4v10c0,2.206-1.794,4-4,4h-33.75c-2.206,0-4-1.794-4-4v-10c0-2.206,1.542-4,3.438-4
	c2.619,0,5.438-0.899,5.438-2.875s-2.819-2.875-5.438-2.875c-1.895,0-3.438-1.794-3.438-4v-10c0-2.206,1.794-4,4-4h33.75
	c2.206,0,4,1.794,4,4v10c0,2.206-1.346,4-3,4c-2.897,0-5,1.209-5,2.875S47.145,34.875,50.042,34.875z M17.119,37.802h-2.631
	c-0.789,0-1.434,0.643-1.434,1.434v0.904c0,0.789,0.644,1.434,1.434,1.434h2.631c0.791,0,1.434-0.645,1.434-1.434v-0.904
	C18.552,38.444,17.91,37.802,17.119,37.802z M17.552,40.14c0,0.238-0.193,0.434-0.434,0.434h-2.631
	c-0.238,0-0.434-0.195-0.434-0.434v-0.904c0-0.238,0.195-0.434,0.434-0.434h2.631c0.24,0,0.434,0.195,0.434,0.434V40.14z
	 M17.119,44.052h-2.631c-0.789,0-1.434,0.643-1.434,1.434v0.904c0,0.789,0.644,1.434,1.434,1.434h2.631
	c0.791,0,1.434-0.645,1.434-1.434v-0.904C18.552,44.694,17.91,44.052,17.119,44.052z M17.552,46.39c0,0.238-0.193,0.434-0.434,0.434
	h-2.631c-0.238,0-0.434-0.195-0.434-0.434v-0.904c0-0.238,0.195-0.434,0.434-0.434h2.631c0.24,0,0.434,0.195,0.434,0.434V46.39z
	 M47.363,41.573h2.631c0.791,0,1.434-0.645,1.434-1.434v-0.904c0-0.791-0.643-1.434-1.434-1.434h-2.631
	c-0.789,0-1.434,0.643-1.434,1.434v0.904C45.93,40.929,46.574,41.573,47.363,41.573z M46.93,39.235c0-0.238,0.195-0.434,0.434-0.434
	h2.631c0.24,0,0.434,0.195,0.434,0.434v0.904c0,0.238-0.193,0.434-0.434,0.434h-2.631c-0.238,0-0.434-0.195-0.434-0.434V39.235z
	 M47.363,47.823h2.631c0.791,0,1.434-0.645,1.434-1.434v-0.904c0-0.791-0.643-1.434-1.434-1.434h-2.631
	c-0.789,0-1.434,0.643-1.434,1.434v0.904C45.93,47.179,46.574,47.823,47.363,47.823z M46.93,45.485c0-0.238,0.195-0.434,0.434-0.434
	h2.631c0.24,0,0.434,0.195,0.434,0.434v0.904c0,0.238-0.193,0.434-0.434,0.434h-2.631c-0.238,0-0.434-0.195-0.434-0.434V45.485z
	 M23.439,32.378c-0.482,0-0.873-0.363-0.873-0.812c0-0.449,0.391-0.812,0.873-0.812h17.689c0.482,0,0.872,0.363,0.872,0.812
	c0,0.449-0.389,0.812-0.872,0.812H23.439z M44.026,35.586H20.307c-0.297,0-0.537,0.24-0.537,0.537v13.753
	c0,0.297,0.24,0.538,0.537,0.538h23.719c0.297,0,0.538-0.241,0.538-0.538V36.123C44.564,35.826,44.323,35.586,44.026,35.586z
	 M43.489,49.339H20.844V36.66h22.645V49.339z M44.026,13.301H20.307c-0.297,0-0.537,0.24-0.537,0.537v13.753
	c0,0.297,0.24,0.538,0.537,0.538h23.719c0.297,0,0.538-0.241,0.538-0.538V13.838C44.564,13.541,44.323,13.301,44.026,13.301z
	 M43.489,27.054H20.844V14.375h22.645V27.054z"/>
</svg>
