<?xml version="1.0" encoding="utf-8"?>
<!-- Generator: Adobe Illustrator 17.0.0, SVG Export Plug-In . SVG Version: 6.00 Build 0)  -->
<!DOCTYPE svg PUBLIC "-//W3C//DTD SVG 1.1//EN" "http://www.w3.org/Graphics/SVG/1.1/DTD/svg11.dtd">
<svg version="1.1" id="Layer_1" xmlns="http://www.w3.org/2000/svg" xmlns:xlink="http://www.w3.org/1999/xlink" x="0px" y="0px"
	 width="32px" height="32px" viewBox="0 0 32 32" enable-background="new 0 0 32 32" xml:space="preserve">
<g>
	<path d="M14.859,10.421c-0.191,1.561,0.923,2.984,2.486,3.173c1.559,0.189,2.979-0.926,3.169-2.487
		c0.188-1.562-0.924-2.983-2.483-3.171C16.467,7.747,15.048,8.859,14.859,10.421z"/>
	<path d="M14.402,20.843c0.01-2.104-1.595-3.08-2.675-3.225l-0.209-0.014c-0.596,0.002-1.3,0.004-2.012,0.005
		c0.62-0.79,1.847-2.271,1.949-2.432c0.237,0.358,0.528,0.706,0.886,1.024c0.863,0.771,1.942,1.235,3.227,1.391
		c0.699,0.085,2.974-0.129,3.524-0.234c0.621-0.134,0.955-0.386,1.177-0.715c0.292-0.565,0.264-1.202,0.264-1.202
		c-0.045-1.132-1.098-1.515-1.978-1.311c-1.312,0.296-3.073,0.476-4.023-0.36c-0.401-0.351-0.619-0.852-0.735-1.328
		c0.36-0.819,0.312-1.801-0.22-2.605c-0.831-1.255-2.435-1.452-3.779-0.77c-1.333,0.678-4.707,4.594-5.564,7.479
		c-0.002-0.001-0.005-0.001-0.007-0.001c-0.006,0.031-0.013,0.062-0.019,0.093c-0.09,0.321-0.148,0.629-0.167,0.916
		c-0.087,0.573-0.134,1.111-0.134,1.588l0.029,0.006c0.002,0.812,0.638,1.491,1.46,1.536c0.472,0.026,4.605,0.015,5.906,0.013
		c0.004,0.023,0.012,0.065,0.012,0.136c-0.006,1.188,0.001,5.512,0.004,7.516c0,0.571,0.463,1.024,1.034,1.024h1.023
		c0.272,0,0.536-0.101,0.73-0.295c0.193-0.194,0.303-0.453,0.302-0.729C14.404,26.343,14.396,22.028,14.402,20.843z"/>
	<path d="M3.086,7.762c0-0.854-0.693-1.545-1.547-1.545c-0.854,0-1.546,0.691-1.546,1.545v15.447c0,0.796,0.609,1.453,1.385,1.535
		c0.001,0.003,0.007,0.011,0.008,0.011h0.556v3.603c0,0.568,0.448,1.029,1.017,1.029c0.57,0,1.017-0.461,1.017-1.029v-3.603h3.262
		v3.603c0,0.568,0.448,1.029,1.017,1.029c0.568,0,1.016-0.461,1.016-1.029v-3.603h1.017v-3.092h-7.2V7.762z"/>
	<path d="M30.908,18.037c-0.235-1.215-1.012-2.238-2.07-2.801v-0.985h1.481V7.467l-5.634-2.011V4.467h-2.032v10.335h2.032v-0.551
		h1.061v0.713c-1.398,0.443-2.45,1.616-2.733,3.056h-6.535c-0.569,0-1.03,0.491-1.03,1.06c0,0.569,0.461,1.06,1.03,1.06h2.067v9.275
		h11.352v-9.275h0.998c0.568,0,1.031-0.482,1.031-1.051C31.926,18.521,31.473,18.044,30.908,18.037z"/>
	<polygon points="9.607,5.568 7.278,5.568 7.278,5.532 9.565,2.209 9.565,1.586 6.008,1.586 6.008,2.476 8.125,2.476 8.125,2.517 
		5.796,5.882 5.796,6.5 9.607,6.5 	"/>
	<polygon points="13.25,5.609 11.768,5.609 11.768,5.61 13.25,3.491 13.25,3.069 10.963,3.069 10.963,3.661 12.318,3.661 
		12.318,3.688 10.836,5.835 10.836,6.203 13.25,6.203 	"/>
	<polygon points="15.919,6.415 14.902,6.415 14.902,6.397 15.919,4.932 15.919,4.636 14.352,4.636 14.352,5.06 15.283,5.06 
		15.283,5.067 14.225,6.551 14.225,6.795 15.919,6.795 	"/>
</g>
</svg>
