<?xml version="1.0" encoding="utf-8"?>
<!-- Generator: Adobe Illustrator 17.0.0, SVG Export Plug-In . SVG Version: 6.00 Build 0)  -->
<!DOCTYPE svg PUBLIC "-//W3C//DTD SVG 1.1//EN" "http://www.w3.org/Graphics/SVG/1.1/DTD/svg11.dtd">
<svg version="1.1" id="Capa_1" xmlns="http://www.w3.org/2000/svg" xmlns:xlink="http://www.w3.org/1999/xlink" x="0px" y="0px"
	 width="20.754px" height="16.62px" viewBox="0 0 20.754 16.62" enable-background="new 0 0 20.754 16.62" xml:space="preserve">
<path d="M10.324,10.587c-0.001-1.55-1.257-2.805-2.807-2.805c-1.548,0-2.804,1.255-2.804,2.805c0,1.55,1.256,2.805,2.804,2.805
	C9.068,13.392,10.324,12.137,10.324,10.587z M5.763,11.934c-0.252-0.17-0.452-0.4-0.566-0.669c-0.118-0.268-0.146-0.571-0.098-0.873
	C5.15,10.09,5.272,9.791,5.463,9.517c-0.035,0.293-0.067,0.572-0.054,0.838c0.01,0.266,0.062,0.517,0.16,0.747
	c0.1,0.231,0.246,0.441,0.431,0.631c0.185,0.191,0.405,0.362,0.658,0.521C6.317,12.225,6.016,12.103,5.763,11.934z M19.275,2.019
	h-6.368l0.064,0.273h-5.95l0.066-0.273H4.406V1.146H1.904v0.873H1.482C0.665,2.019,0,2.681,0,3.499v10.536
	c0,0.818,0.665,1.481,1.482,1.481H4.07c-1.524-1.085-2.522-2.865-2.522-4.875c0-3.297,2.683-5.979,5.979-5.979
	c3.296,0,5.979,2.683,5.979,5.979c0,2.01-0.998,3.79-2.522,4.875h8.292c0.816,0,1.479-0.663,1.479-1.481V3.499
	C20.754,2.681,20.092,2.019,19.275,2.019z M18.734,13.401c0,0.438-0.354,0.793-0.792,0.793s-0.794-0.355-0.794-0.793V7.524
	c0-0.438,0.356-0.793,0.794-0.793s0.792,0.355,0.792,0.793V13.401z M19.14,5.446h-3.893V3.679h3.893V5.446z M12.42,0H7.575
	L7.087,2.019h5.82L12.42,0z M7.97,1.545l0.192-0.798h3.669l0.192,0.798H7.97z M10.983,15.516h-0.864
	c1.79-0.939,3.011-2.813,3.011-4.975c0-3.101-2.512-5.614-5.613-5.614c-3.099,0-5.612,2.513-5.612,5.614
	c0,2.162,1.222,4.037,3.011,4.975H4.07c0.978,0.694,2.17,1.104,3.457,1.104C8.814,16.62,10.005,16.21,10.983,15.516z M2.294,10.641
	c0-2.885,2.348-5.232,5.233-5.232c2.884,0,5.232,2.347,5.232,5.232s-2.349,5.232-5.232,5.232
	C4.642,15.873,2.294,13.526,2.294,10.641z"/>
</svg>
