<svg width="36.977" xmlns="http://www.w3.org/2000/svg" height="47.692"><g fill="#231f20"><path d="M18.488 7.809c-2.89 0-5.231 2.343-5.231 5.232 0 2.887 2.342 5.229 5.231 5.229s5.231-2.342 5.231-5.229c.001-2.89-2.341-5.232-5.231-5.232zm0 8.022c-1.558 0-2.82-1.262-2.82-2.82 0-1.557 1.263-2.82 2.82-2.82s2.82 1.263 2.82 2.82c.001 1.558-1.263 2.82-2.82 2.82zM0 0v36.978h11.633l6.855 10.715 6.855-10.715h11.633v-36.978h-36.976zm26.16 15.881c-1.074 3.193-8.189 19.601-8.189 19.601s-6.698-17.89-7.279-19.94c-.259-.797-.402-1.646-.402-2.531 0-4.527 3.671-8.199 8.199-8.199 4.529 0 8.199 3.672 8.199 8.199 0 1.011-.192 1.976-.528 2.87z"/></g></svg>