<?xml version="1.0" encoding="iso-8859-1"?>
<!-- Generator: Adobe Illustrator 17.1.0, SVG Export Plug-In . SVG Version: 6.00 Build 0)  -->
<!DOCTYPE svg PUBLIC "-//W3C//DTD SVG 1.1//EN" "http://www.w3.org/Graphics/SVG/1.1/DTD/svg11.dtd">
<svg version="1.1" id="Capa_1" xmlns="http://www.w3.org/2000/svg" xmlns:xlink="http://www.w3.org/1999/xlink" x="0px" y="0px"
	 viewBox="0 0 200 200" style="enable-background:new 0 0 200 200;" xml:space="preserve">
<g>
	<rect x="98.5" y="93.602" width="37" height="19.569"/>
	<polygon points="88.5,60.604 58.38,60.604 60.62,83.603 88.5,83.603 	"/>
	<polygon points="88.5,113.171 88.5,93.603 61.594,93.603 63.5,113.171 	"/>
	<polygon points="88.5,31.034 55.5,31.034 57.406,50.604 88.5,50.604 	"/>
	<polygon points="145.5,113.171 165.5,113.171 169.312,93.603 145.5,93.603 	"/>
	<rect x="98.5" y="31.034" width="37" height="19.569"/>
	<rect x="98.5" y="60.604" width="37" height="22.999"/>
	<polygon points="145.5,50.604 177.688,50.604 181.5,31.034 145.5,31.034 	"/>
	<polygon points="145.5,83.603 171.26,83.603 175.74,60.604 145.5,60.604 	"/>
	<polygon points="45.105,26.034 15,26.034 15,36.034 35.895,36.034 43.895,133.172 165.5,133.172 165.5,123.172 53.105,123.172 	"/>
	<circle cx="59.75" cy="157.853" r="15.25"/>
	<circle cx="147.25" cy="157.853" r="15.25"/>
</g>
</svg>
