<?xml version="1.0" encoding="iso-8859-1"?>
<!-- Generator: Adobe Illustrator 17.1.0, SVG Export Plug-In . SVG Version: 6.00 Build 0)  -->
<!DOCTYPE svg PUBLIC "-//W3C//DTD SVG 1.1//EN" "http://www.w3.org/Graphics/SVG/1.1/DTD/svg11.dtd">
<svg version="1.1" id="Capa_1" xmlns="http://www.w3.org/2000/svg" xmlns:xlink="http://www.w3.org/1999/xlink" x="0px" y="0px"
	 viewBox="0 0 100 100" style="enable-background:new 0 0 100 100;" xml:space="preserve">
<path d="M60,62H40c-0.552,0-1,0.448-1,1v10c0,0.552,0.448,1,1,1h20c0.552,0,1-0.448,1-1V63C61,62.448,60.552,62,60,62z"/>
<path d="M94,30H84c-0.552,0-1-0.448-1-1v-9c0-0.552-0.448-1-1-1h-8c-0.552,0-1-0.448-1-1V8c0-0.552-0.448-1-1-1H62
	c-0.552,0-1,0.448-1,1v10c0,0.552-0.448,1-1,1H40c-0.552,0-1-0.448-1-1V8c0-0.552-0.448-1-1-1H28c-0.552,0-1,0.448-1,1v10
	c0,0.552-0.448,1-1,1h-8c-0.552,0-1,0.448-1,1v9c0,0.552-0.448,1-1,1H6c-0.552,0-1,0.448-1,1v53.202V95c0,0.552,0.448,1,1,1h10.725
	H28c0.552,0,1-0.448,1-1V85c0-0.552-0.448-1-1-1H18c-0.552,0-1-0.448-1-1V53c0-0.552,0.448-1,1-1h8c0.552,0,1,0.448,1,1v8
	c0,0.552,0.448,1,1,1h10c0.552,0,1-0.448,1-1v-8c0-0.552,0.448-1,1-1h20c0.552,0,1,0.448,1,1v8c0,0.552,0.448,1,1,1h10
	c0.552,0,1-0.448,1-1v-8c0-0.552,0.448-1,1-1h8c0.552,0,1,0.448,1,1v30c0,0.552-0.448,1-1,1H72c-0.552,0-1,0.448-1,1v10
	c0,0.552,0.448,1,1,1h11.275H94c0.552,0,1-0.448,1-1V84.202V31C95,30.448,94.552,30,94,30z M39,41c0,0.552-0.448,1-1,1H28
	c-0.552,0-1-0.448-1-1V31c0-0.552,0.448-1,1-1h10c0.552,0,1,0.448,1,1V41z M73,41c0,0.552-0.448,1-1,1H62c-0.552,0-1-0.448-1-1V31
	c0-0.552,0.448-1,1-1h10c0.552,0,1,0.448,1,1V41z"/>
</svg>
