<?xml version="1.0" encoding="iso-8859-1"?>
<!-- Generator: Adobe Illustrator 17.0.0, SVG Export Plug-In . SVG Version: 6.00 Build 0)  -->
<!DOCTYPE svg PUBLIC "-//W3C//DTD SVG 1.1//EN" "http://www.w3.org/Graphics/SVG/1.1/DTD/svg11.dtd">
<svg version="1.1" id="Capa_1" xmlns="http://www.w3.org/2000/svg" xmlns:xlink="http://www.w3.org/1999/xlink" x="0px" y="0px"
	 width="64px" height="64px" viewBox="0 0 64 64" style="enable-background:new 0 0 64 64;" xml:space="preserve">
<g>
	<path d="M38.156,15.172h2.721c0.359,0,0.653-0.293,0.653-0.653V12.72c-0.631,0.172-1.883,0.344-2.741-0.649h-0.186
		c-0.117,0.312-0.439,0.996-1.1,1.362v1.085C37.504,14.879,37.797,15.172,38.156,15.172z M40.339,13.023
		c0.326,0.027,0.38,0.598,0.38,0.598h-0.762C39.957,13.621,40.012,12.996,40.339,13.023z M40.277,14.294
		c0.085-0.033,0.18,0.008,0.212,0.091c0.033,0.084-0.007,0.179-0.091,0.212c-0.362,0.143-0.666,0.193-0.912,0.193
		c-0.505,0-0.764-0.205-0.78-0.218c-0.069-0.057-0.08-0.16-0.023-0.229c0.057-0.069,0.158-0.08,0.228-0.025
		C38.932,14.333,39.367,14.655,40.277,14.294z M38.429,13.023c0.327,0.027,0.381,0.598,0.381,0.598h-0.762
		C38.048,13.621,38.102,12.996,38.429,13.023z"/>
	<path d="M34.976,27.19l2.248,1.298c0.624,0.36,1.13,0.359,1.13-0.003v-0.656h4.466c0.722,0,1.306-0.584,1.306-1.306
		c0-0.721-0.584-1.305-1.306-1.305h-4.466c0,0,0-0.288,0-0.642s-0.506-0.35-1.13,0.011l-2.248,1.298
		C34.352,26.245,34.352,26.829,34.976,27.19z"/>
	<path d="M10.668,58.243h43.328c3.309,0,6-2.691,6-6v-39.41c0-3.309-2.691-6-6-6H10.668c-3.309,0-6,2.691-6,6v39.41
		C4.668,55.552,7.359,58.243,10.668,58.243z M28.016,27.497c0.362,0,0.363,0.506,0.004,1.13l-1.299,2.248
		c-0.36,0.624-0.944,0.624-1.306,0l-1.298-2.248c-0.36-0.624-0.365-1.13-0.011-1.13c0.354,0,0.643,0,0.643,0v-4.466
		c0-0.722,0.584-1.306,1.305-1.306c0.722,0,1.306,0.584,1.306,1.306v4.466H28.016z M32.332,33.192v10.717H19V33.192H32.332z
		 M45.664,56.243H32.332V45.218h13.332V56.243z M57.996,43.909H45.664V33.192h12.332V43.909z M45.664,8.833h8.332
		c2.206,0,4,1.794,4,4v7.025H45.664V8.833z M45.664,31.884H32.332V21.167h13.332V31.884z M39.447,9.568
		c3.101-0.002,2.476,3.02,2.476,3.02s-0.025,0.01-0.067,0.027v1.904c0,0.54-0.44,0.979-0.979,0.979h-2.721
		c-0.54,0-0.979-0.439-0.979-0.979v-0.943c-0.05,0.016-0.099,0.033-0.151,0.045C37.026,13.621,36.182,9.57,39.447,9.568z
		 M39.23,16.05l0.319-0.183l0.327,0.192l-0.252,0.262l0.332,0.355l-0.287,0.542c-0.085,0.159-0.212,0.154-0.283-0.011l-0.244-0.558
		l0.332-0.332L39.23,16.05z M34.838,17.62c0-0.478,0.191-1.024,0.435-1.244c0.24-0.217,0.8-0.406,1.273-0.431l1.769-0.095
		l0.903,1.591c0.093,0.165,0.213,0.255,0.338,0.255c0.124,0,0.244-0.088,0.339-0.249l0.941-1.593l1.718,0.091
		c0.474,0.024,1.032,0.213,1.273,0.43c0.244,0.22,0.436,0.766,0.436,1.244v0.531c0,0.495-0.403,0.898-0.898,0.898h-7.63
		c-0.495,0-0.898-0.402-0.898-0.898V17.62z M19,8.833h13.332v11.025H19V8.833z M6.668,21.167H19v10.717H6.668V21.167z M6.668,45.218
		H19v11.025h-8.332c-2.206,0-4-1.794-4-4V45.218z"/>
</g>
</svg>
