<?xml version="1.0" encoding="iso-8859-1"?>
<!-- Generator: Adobe Illustrator 16.0.0, SVG Export Plug-In . SVG Version: 6.00 Build 0)  -->
<!DOCTYPE svg PUBLIC "-//W3C//DTD SVG 1.1//EN" "http://www.w3.org/Graphics/SVG/1.1/DTD/svg11.dtd">
<svg version="1.1" id="Layer_1" xmlns="http://www.w3.org/2000/svg" xmlns:xlink="http://www.w3.org/1999/xlink" x="0px" y="0px"
	 width="31.979px" height="29.456px" viewBox="0 0 31.979 29.456" style="enable-background:new 0 0 31.979 29.456;"
	 xml:space="preserve">
<g>
	<path d="M27.23,18.662c1.4,0,2.535-1.135,2.535-2.539c0-0.874,0.308-1.676-0.368-2.13c-0.403-0.275-2.184-0.406-2.709-0.406
		c-0.626,0-1.438,0.51-1.881,0.885c-0.55,0.465-0.116,0.874-0.116,1.65C24.691,17.527,25.826,18.662,27.23,18.662z M25.462,15.875
		c0.465-0.085,0.783,0.068,0.783,0.068l0.777-0.378c0,0-0.396,0.573-0.039,0.378c0.791-0.268,1.68-0.155,2.131-0.066
		c0.016,0.1,0.029,0.2,0.029,0.304c0,1.046-0.829,1.891-1.857,1.891c-1.025,0-1.855-0.845-1.855-1.891
		C25.431,16.077,25.445,15.976,25.462,15.875z"/>
	<path d="M31.964,22.703l-2.949-3.625h-3.282l-1.702-1.481c0.003-0.008,0.007-0.016,0.01-0.025l-0.968-0.834
		c-0.003,0.004-0.009,0.008-0.012,0.013l-1.174-1.021l0.327-0.13l-2.898-8.343h1.029h0.694l-0.325-0.614
		c-0.008-0.015-0.738-1.411-1.022-2.736c0-0.019,0.005-0.034,0.005-0.054c0-0.257-0.04-0.506-0.098-0.748
		c-0.003-0.075-0.009-0.148-0.012-0.227C19.545,1.664,19.486,0,16.588,0c-1.128,0-1.983,0.293-2.545,0.872
		C13.25,1.685,13.182,2.9,13.209,3.867c0.044,1.557-0.901,2.69-0.909,2.703l-0.585,0.689h1.692l-2.881,8.35l0.323,0.129
		l-1.143,0.994c-0.3-0.365-0.789-0.665-1.501-0.797c-0.019-0.342-0.086-0.673-0.21-0.976c-0.158-0.913-0.681-2.159-2.485-2.201
		c-2.315-0.056-3.115,1.802-3.208,2.696c-0.029,0.134-0.037,0.274-0.047,0.414c-1.745,0.306-2.977,3.167-0.489,3.188
		c-0.101-0.952,0.318-1.842,0.558-2.263c0.319,1.311,1.496,2.292,2.902,2.292c1.467,0,2.685-1.064,2.94-2.459
		c0.148,0.165,0.388,0.488,0.559,0.963L6.919,19.16H5.862H4.604H3.438L0,23.187v0.685l0.112-0.028l0.64,0.159l2.826-3.097
		l0.102,1.288l-1.888,3.685h1.916v3.204H3.384v0.375H4.86v-0.375v-3.204h0.554v3.204h0.003v0.375h1.477v-0.375H6.568v-3.204H9.04
		l-2.143-3.685l0.119-1.564l1.878-1.808c-0.004,0.079,0.002,0.151-0.008,0.234c0.779-0.021,1.239-0.675,1.199-1.385l1.638-1.58
		l-0.358-0.146l0.763,0.305l1.797-4.93l0.18,2.285l-2.903,8.038h3.351v6.997H14.11v0.817h2.004v-0.817v-6.997h0.75v6.997v0.817
		h2.003v-0.817h-0.439v-6.997h2.599l-2.561-8.038l0.139-2.813l1.989,5.458l0.274-0.11l0.158-0.063l4.249,4.812l0.124,4.82h0.504
		v3.163h-0.32v0.371h1.459v-0.371v-3.163h0.546v3.163v0.371h1.458v-0.371h-0.319v-3.163h0.611v-4.083l2.011,2.065l0.631-0.157
		v-0.848L31.964,22.703z M5.227,18.236c-1.184,0-2.147-0.963-2.147-2.149c0-0.022,0.006-0.043,0.006-0.067l0.046-0.037
		c0,0,1.526,0.176,2.011,0.044v-1.141c0,0,0.764,1.449,1.203,1.295c0-0.834,0.254-0.921,0.254-0.921s0.326,0.777,0.769,0.905
		C7.324,17.313,6.384,18.236,5.227,18.236z M17.219,6.075l-0.004,0.871l-0.001,0.149l-0.848,1.286l-0.853-1.207V6.847V6.411V5.951
		c-0.78-0.379-1.323-1.172-1.323-2.097c0-0.389,0.104-0.751,0.273-1.074l1.233-0.117l2.976,0.274
		c0.12,0.281,0.188,0.592,0.188,0.917C18.861,4.9,18.166,5.777,17.219,6.075z"/>
</g>
<g>
</g>
<g>
</g>
<g>
</g>
<g>
</g>
<g>
</g>
<g>
</g>
<g>
</g>
<g>
</g>
<g>
</g>
<g>
</g>
<g>
</g>
<g>
</g>
<g>
</g>
<g>
</g>
<g>
</g>
</svg>
