<?xml version="1.0" encoding="utf-8"?>
<!-- Generator: Adobe Illustrator 17.0.0, SVG Export Plug-In . SVG Version: 6.00 Build 0)  -->
<!DOCTYPE svg PUBLIC "-//W3C//DTD SVG 1.1//EN" "http://www.w3.org/Graphics/SVG/1.1/DTD/svg11.dtd">
<svg version="1.1" id="Layer_1" xmlns="http://www.w3.org/2000/svg" xmlns:xlink="http://www.w3.org/1999/xlink" x="0px" y="0px"
	 width="48px" height="48px" viewBox="0 0 48 48" enable-background="new 0 0 48 48" xml:space="preserve">
<path fill="#FFB615" d="M5.917,10.7c0-0.494,0.135-0.986,0.402-1.42C6.813,8.486,7.68,8,8.617,8h21.6
	c0.937,0,1.806,0.486,2.298,1.28c0.265,0.435,0.402,0.926,0.402,1.42c0,0.41-0.095,0.829-0.284,1.207l-10.8,21.6
	C21.374,34.422,20.44,35,19.417,35c-1.023,0-1.96-0.578-2.416-1.493l-10.8-21.6C6.011,11.529,5.917,11.11,5.917,10.7z"/>
<path fill="#FFB615" d="M39.833,37.667h-2.667v2.667c0,1.475-1.192,2.667-2.667,2.667s-2.667-1.192-2.667-2.667v-2.667h-2.667
	c-1.475,0-2.667-1.192-2.667-2.667s1.192-2.667,2.667-2.667h2.667v-2.667c0-1.475,1.192-2.667,2.667-2.667s2.667,1.192,2.667,2.667
	v2.667h2.667c1.475,0,2.667,1.192,2.667,2.667S41.308,37.667,39.833,37.667z"/>
</svg>
