<?xml version="1.0" encoding="utf-8"?>
<!-- Generator: Adobe Illustrator 17.0.0, SVG Export Plug-In . SVG Version: 6.00 Build 0)  -->
<!DOCTYPE svg PUBLIC "-//W3C//DTD SVG 1.1//EN" "http://www.w3.org/Graphics/SVG/1.1/DTD/svg11.dtd">
<svg version="1.1" id="Layer_1" xmlns="http://www.w3.org/2000/svg" xmlns:xlink="http://www.w3.org/1999/xlink" x="0px" y="0px"
	 width="40.986px" height="46.15px" viewBox="3.67 1.009 40.986 46.15" enable-background="new 3.67 1.009 40.986 46.15"
	 xml:space="preserve">
<g>
	<path d="M24.163,36.085"/>
	<path d="M24.163,12.085"/>
	<g>
		<path d="M44.654,14.252c0-1.1-0.78-2.45-1.732-3l-17.029-9.83c-0.953-0.55-2.512-0.55-3.464,0L5.402,11.255
			c-0.953,0.55-1.732,1.9-1.732,3l0.002,19.662c0,1.1,0.78,2.45,1.732,3l17.029,9.83c0.953,0.55,2.512,0.55,3.464,0l17.027-9.833
			c0.953-0.55,1.732-1.9,1.732-3L44.654,14.252z M25.896,40.158c-0.953,0.55-2.511,0.55-3.464,0L11.11,33.623
			c-0.953-0.55-1.732-1.9-1.732-3L9.376,17.55c0-1.1,0.779-2.45,1.732-3l11.321-6.538c0.953-0.55,2.511-0.55,3.464,0l11.322,6.536
			c0.953,0.55,1.732,1.9,1.732,3l0.001,13.073c0,1.1-0.779,2.45-1.732,3L25.896,40.158z"/>
	</g>
</g>
<path d="M33.35,25.296l-9.187,9.524l-9.187-9.524c-2.104-2.104-2.104-5.516,0-7.619s5.516-2.104,7.619,0l1.568,1.906l1.568-1.905
	c2.104-2.104,5.516-2.104,7.619,0C35.454,19.781,35.454,23.192,33.35,25.296z"/>
</svg>
