<?xml version="1.0" encoding="utf-8"?>
<!-- Generator: Adobe Illustrator 17.0.0, SVG Export Plug-In . SVG Version: 6.00 Build 0)  -->
<!DOCTYPE svg PUBLIC "-//W3C//DTD SVG 1.1//EN" "http://www.w3.org/Graphics/SVG/1.1/DTD/svg11.dtd">
<svg version="1.1" id="Layer_1" xmlns="http://www.w3.org/2000/svg" xmlns:xlink="http://www.w3.org/1999/xlink" x="0px" y="0px"
	 width="41.028px" height="41.028px" viewBox="0.098 4.81 41.028 41.028" enable-background="new 0.098 4.81 41.028 41.028"
	 xml:space="preserve">
<rect x="0.098" y="4.81" fill="#FFDEB9" width="41.028" height="41.028"/>
<path fill="#FFFFFF" d="M38.54,13.33L23.198,5.364c-1.422-0.738-3.749-0.738-5.171,0L2.684,13.33
	c-1.423,0.738-2.587,2.551-2.587,4.028V33.29c0,1.477,1.163,3.289,2.586,4.028l15.342,7.966c1.422,0.738,3.749,0.738,5.171,0
	l15.342-7.966c1.422-0.738,2.586-2.551,2.586-4.028V17.358C41.124,15.881,39.962,14.068,38.54,13.33z"/>
<g>
	<path d="M24.146,37.108"/>
	<path d="M24.146,15.627"/>
</g>
<g>
	<path fill="#FFD3A2" d="M15.507,21.513c-0.801,0.011-1.418-0.528-1.429-1.249c-0.053-3.254,2.888-5.927,6.424-5.974
		c3.591-0.047,6.591,2.623,6.642,5.803c0.026,1.59-0.587,2.99-1.866,4.199L23.18,26.06c-0.708,0.655-1.055,1.381-1.042,2.151
		c0.012,0.721-0.587,1.275-1.388,1.285c-0.801,0.011-1.418-0.528-1.43-1.249c-0.024-1.465,0.591-2.766,1.87-3.951l2.099-1.792
		c0.707-0.68,1.053-1.48,1.039-2.374c-0.03-1.838-1.74-3.331-3.784-3.305c-2.016,0.027-3.678,1.514-3.648,3.402
		C16.907,20.925,16.281,21.504,15.507,21.513z M20.861,36.356c-1.022,0-1.907-0.795-1.907-1.715c0-0.968,0.884-1.739,1.907-1.739
		c1.077,0,1.934,0.77,1.934,1.739C22.795,35.562,21.939,36.356,20.861,36.356z"/>
</g>
</svg>
