<?xml version="1.0" encoding="utf-8"?>
<!-- Generator: Adobe Illustrator 17.0.0, SVG Export Plug-In . SVG Version: 6.00 Build 0)  -->
<!DOCTYPE svg PUBLIC "-//W3C//DTD SVG 1.1//EN" "http://www.w3.org/Graphics/SVG/1.1/DTD/svg11.dtd">
<svg version="1.1" id="Layer_1" xmlns="http://www.w3.org/2000/svg" xmlns:xlink="http://www.w3.org/1999/xlink" x="0px" y="0px"
	 width="41.223px" height="45.838px" viewBox="0 0 41.223 45.838" enable-background="new 0 0 41.223 45.838" xml:space="preserve">
<rect x="0" fill="#FFDEB9" width="41.223" height="45.838"/>
<path fill="#FFFFFF" d="M38.625,9.519l-15.415-8.9c-1.429-0.825-3.767-0.825-5.196,0l-15.415,8.9C1.169,10.344,0,12.369,0,14.019
	v17.8c0,1.65,1.169,3.675,2.598,4.5l15.415,8.9c1.429,0.825,3.767,0.825,5.196,0l15.415-8.9c1.429-0.825,2.598-2.85,2.598-4.5v-17.8
	C41.222,12.369,40.054,10.344,38.625,9.519z"/>
<g>
	<path d="M24.163,36.085"/>
	<path d="M24.163,12.085"/>
</g>
<g>
	<path fill="#FFD3A2" d="M15.483,18.662c-0.805,0.012-1.425-0.59-1.436-1.395c-0.053-3.636,2.902-6.622,6.455-6.674
		c3.608-0.053,6.622,2.93,6.674,6.483c0.026,1.776-0.59,3.34-1.875,4.691l-2.109,1.974c-0.711,0.732-1.06,1.543-1.047,2.403
		c0.012,0.805-0.59,1.424-1.395,1.436c-0.805,0.012-1.425-0.59-1.437-1.395c-0.024-1.637,0.594-3.09,1.879-4.414l2.109-2.002
		c0.71-0.76,1.058-1.653,1.044-2.652c-0.03-2.054-1.748-3.722-3.802-3.692c-2.026,0.03-3.696,1.692-3.665,3.801
		C16.889,18.004,16.26,18.651,15.483,18.662z M20.862,35.245c-1.027,0-1.916-0.888-1.916-1.916c0-1.082,0.888-1.943,1.916-1.943
		c1.082,0,1.943,0.86,1.943,1.943C22.805,34.357,21.945,35.245,20.862,35.245z"/>
</g>
</svg>
