<?xml version="1.0" encoding="utf-8"?>
<!-- Generator: Adobe Illustrator 17.0.0, SVG Export Plug-In . SVG Version: 6.00 Build 0)  -->
<!DOCTYPE svg PUBLIC "-//W3C//DTD SVG 1.1//EN" "http://www.w3.org/Graphics/SVG/1.1/DTD/svg11.dtd">
<svg version="1.1" id="Layer_1" xmlns="http://www.w3.org/2000/svg" xmlns:xlink="http://www.w3.org/1999/xlink" x="0px" y="0px"
	 width="48px" height="48px" viewBox="0 0 48 48" enable-background="new 0 0 48 48" xml:space="preserve">
<path d="M24,0C10.746,0,0,10.746,0,24s10.746,24,24,24s24-10.746,24-24S37.254,0,24,0z M24,42c-9.939,0-18-8.061-18-18
	S14.061,6,24,6s18,8.061,18,18S33.939,42,24,42z M33.242,14.205c-0.16,0.053-0.421,0.167-0.782,0.341
	c-0.361,0.174-0.789,0.361-1.283,0.561c-0.495,0.2-1.042,0.374-1.644,0.521c-0.602,0.147-1.23,0.214-1.885,0.2
	c-0.655-0.013-1.31-0.14-1.965-0.381c-0.655-0.241-1.276-0.655-1.864-1.243c-0.588-0.588-1.256-0.982-2.005-1.183
	c-0.748-0.2-1.504-0.274-2.265-0.221c-0.762,0.053-1.51,0.2-2.245,0.441c-0.735,0.241-1.383,0.508-1.945,0.802
	c-0.561,0.294-1.016,0.581-1.363,0.862c-0.347,0.281-0.521,0.474-0.521,0.581v4.932v4.691v8.62c0,0.401,0.147,0.748,0.441,1.042
	c0.294,0.294,0.823,0.433,1.224,0.433c0.428,0,0.839-0.121,1.12-0.415c0.281-0.294,0.396-0.61,0.396-1.011v-8.143
	c0.454-0.214,0.761-0.607,1.35-0.767s1.203-0.234,1.844-0.221c0.642,0.013,1.303,0.147,1.985,0.401
	c0.682,0.254,1.343,0.702,1.985,1.343c0.802,0.802,1.691,1.29,2.666,1.463c0.976,0.174,1.931,0.167,2.867-0.02
	c0.935-0.187,1.804-0.481,2.606-0.882c0.802-0.401,1.443-0.762,1.925-1.083c0.267-0.187,0.441-0.394,0.521-0.621
	c0.08-0.227,0.12-0.621,0.12-1.183v-8.58c0-0.374-0.094-0.715-0.281-1.022C34.057,14.158,33.723,14.071,33.242,14.205z"/>
</svg>
