<?xml version="1.0" encoding="utf-8"?>
<!-- Generator: Adobe Illustrator 17.0.0, SVG Export Plug-In . SVG Version: 6.00 Build 0)  -->
<!DOCTYPE svg PUBLIC "-//W3C//DTD SVG 1.1//EN" "http://www.w3.org/Graphics/SVG/1.1/DTD/svg11.dtd">
<svg version="1.1" id="Layer_1" xmlns="http://www.w3.org/2000/svg" xmlns:xlink="http://www.w3.org/1999/xlink" x="0px" y="0px"
	 width="48px" height="48px" viewBox="0 0 48 48" enable-background="new 0 0 48 48" xml:space="preserve">
<path d="M42,10.5C42,4.701,37.299,0,31.5,0S21,4.701,21,10.5v27c0,2.484-2.013,4.5-4.5,4.5S12,39.984,12,37.5S12,12,12,12h3
	c1.212,0,2.31-0.732,2.772-1.851c0.462-1.122,0.207-2.412-0.651-3.27l-6-6C10.533,0.294,9.765,0,9,0S7.464,0.294,6.876,0.879l-6,6
	c-0.855,0.858-1.113,2.148-0.651,3.27C0.69,11.268,1.785,12,3,12h3c0,0,0,19.701,0,25.5S10.701,48,16.5,48
	C22.302,48,27,43.299,27,37.5v-27C27,8.013,29.016,6,31.5,6S36,8.013,36,10.5H42z"/>
<path d="M42,10.453v33.792C42,46.322,40.659,48,39,48s-3-1.678-3-3.755V10.453"/>
</svg>
