<?xml version="1.0" encoding="utf-8"?>
<!-- Generator: Adobe Illustrator 17.0.0, SVG Export Plug-In . SVG Version: 6.00 Build 0)  -->
<!DOCTYPE svg PUBLIC "-//W3C//DTD SVG 1.1//EN" "http://www.w3.org/Graphics/SVG/1.1/DTD/svg11.dtd">
<svg version="1.1" id="Layer_1" xmlns="http://www.w3.org/2000/svg" xmlns:xlink="http://www.w3.org/1999/xlink" x="0px" y="0px"
	 width="48px" height="48px" viewBox="0 0 48 48" enable-background="new 0 0 48 48" xml:space="preserve">
<g>
	<path fill="#FFB615" d="M24.163,36.085"/>
	<path fill="#FFB615" d="M24.163,12.085"/>
	<g>
		<path fill="#FFB615" d="M44.654,14.252c0-1.1-0.78-2.45-1.732-3l-17.029-9.83c-0.953-0.55-2.512-0.55-3.464,0L5.402,11.255
			c-0.953,0.55-1.732,1.9-1.732,3l0.002,19.662c0,1.1,0.78,2.45,1.732,3l17.029,9.83c0.953,0.55,2.512,0.55,3.464,0l17.027-9.833
			c0.953-0.55,1.732-1.9,1.732-3L44.654,14.252z M25.896,40.158c-0.953,0.55-2.511,0.55-3.464,0L11.11,33.623
			c-0.953-0.55-1.732-1.9-1.732-3L9.376,17.55c0-1.1,0.779-2.45,1.732-3l11.321-6.538c0.953-0.55,2.511-0.55,3.464,0l11.322,6.536
			c0.953,0.55,1.732,1.9,1.732,3l0.001,13.073c0,1.1-0.779,2.45-1.732,3L25.896,40.158z"/>
	</g>
</g>
<path fill="#FFB615" d="M26.152,13.654l5.627,5.627c0.802,0.805,1.044,2.014,0.611,3.069c-0.433,1.049-1.463,1.736-2.6,1.736h-2.813
	v8.44c0,1.556-1.258,2.813-2.813,2.813s-2.813-1.258-2.813-2.813v-8.44h-2.813c-1.137,0-2.166-0.686-2.6-1.736
	c-0.433-1.052-0.194-2.265,0.611-3.069l5.627-5.627c0.549-0.549,1.269-0.824,1.989-0.824S25.604,13.105,26.152,13.654z"/>
</svg>
