<?xml version="1.0" encoding="utf-8"?>
<!-- Generator: Adobe Illustrator 17.0.0, SVG Export Plug-In . SVG Version: 6.00 Build 0)  -->
<!DOCTYPE svg PUBLIC "-//W3C//DTD SVG 1.1//EN" "http://www.w3.org/Graphics/SVG/1.1/DTD/svg11.dtd">
<svg version="1.1" id="Layer_1" xmlns="http://www.w3.org/2000/svg" xmlns:xlink="http://www.w3.org/1999/xlink" x="0px" y="0px"
	 width="48px" height="48px" viewBox="0 0 48 48" enable-background="new 0 0 48 48" xml:space="preserve">
<path d="M40.554,48c-1.526,0-2.759-1.341-2.759-3V22.333c0-3.312-2.472-6-5.518-6s-5.518,2.688-5.518,6V36
	c0,6.627-4.941,12-11.036,12S4.688,42.627,4.688,36v-7.5c0-1.656,1.233-3,2.759-3s2.759,1.344,2.759,3V36c0,3.312,2.472,6,5.518,6
	s5.518-2.688,5.518-6V22.333c0-6.627,4.941-12,11.036-12s11.036,5.373,11.036,12V45C43.313,46.659,42.079,48,40.554,48z"/>
<path d="M2.912,18.669c-1.503-4.314,1.854-9.408,7.496-11.374L9.5,4.69c-0.167-0.481,0.026-1.043,0.501-1.463
	s1.155-0.627,1.77-0.544l12.034,1.649c0.558,0.077,0.984,0.384,1.135,0.819s0.009,0.94-0.382,1.348l-8.404,8.77
	c-0.428,0.449-1.092,0.708-1.725,0.674c-0.633-0.035-1.132-0.355-1.299-0.835l-0.908-2.605c-4.447,1.549-7.463,5.041-7.809,8.563
	C3.751,20.383,3.23,19.583,2.912,18.669z"/>
</svg>
