<?xml version="1.0" encoding="utf-8"?>
<!-- Generator: Adobe Illustrator 17.0.0, SVG Export Plug-In . SVG Version: 6.00 Build 0)  -->
<!DOCTYPE svg PUBLIC "-//W3C//DTD SVG 1.1//EN" "http://www.w3.org/Graphics/SVG/1.1/DTD/svg11.dtd">
<svg version="1.1" id="Layer_1" xmlns="http://www.w3.org/2000/svg" xmlns:xlink="http://www.w3.org/1999/xlink" x="0px" y="0px"
	 width="48px" height="48px" viewBox="0 0 48 48" enable-background="new 0 0 48 48" xml:space="preserve">
<path fill="#FFB615" d="M45,4.125V48h-6V4.125H45z M27,22.75h6V48h-6V22.75z M15,31h6v17h-6V31z M3,37.25h6V48H3V37.25z M3.777,20.2
	c3.184,0.714,10.981-4.363,15.125-8.323l-1.611-1.687c-0.297-0.311-0.247-0.904,0.127-1.545c0.376-0.64,1.018-1.223,1.669-1.514
	l9.814-2.601c0.593-0.266,1.109-0.256,1.378,0.025c0.269,0.282,0.255,0.798-0.036,1.376l-3.369,9.347
	c-0.323,0.638-0.932,1.252-1.588,1.598s-1.253,0.37-1.55,0.059l-1.611-1.687c-5.259,5.024-14.621,9.959-17.291,7.166
	C4.269,21.824,3.929,21.064,3.777,20.2z"/>
</svg>
