<?xml version="1.0" encoding="utf-8"?>
<!-- Generator: Adobe Illustrator 17.0.0, SVG Export Plug-In . SVG Version: 6.00 Build 0)  -->
<!DOCTYPE svg PUBLIC "-//W3C//DTD SVG 1.1//EN" "http://www.w3.org/Graphics/SVG/1.1/DTD/svg11.dtd">
<svg version="1.1" id="Layer_1" xmlns="http://www.w3.org/2000/svg" xmlns:xlink="http://www.w3.org/1999/xlink" x="0px" y="0px"
	 width="26px" height="26.001px" viewBox="12 12 26 26.001" enable-background="new 12 12 26 26.001" xml:space="preserve">
<path fill="#C2C0B4" d="M12,12v26c0.115,0,0.229,0,0.344,0c0.055-0.371,0.15-0.703,0.264-1.021c0.011-0.029,0.021-0.059,0.031-0.086
	c0.543-1.438,1.664-2.367,3.223-2.941c1.257-0.465,2.488-1,3.709-1.555c0.349-0.158,0.605-0.506,0.921-0.747
	c0.139-0.104,0.307-0.204,0.473-0.231c0.565-0.09,0.815-0.291,0.951-0.85c0.176-0.732,0.301-1.465,0.147-2.229
	c-0.065-0.332-0.188-0.545-0.512-0.672c-0.672-0.262-1.332-0.553-1.996-0.834c-0.496-0.211-0.527-0.385-0.348-0.898
	c0.572-1.62,0.996-3.266,1.135-4.997c0.104-1.297,0.018-2.631,0.488-3.882c0.334-0.882,0.879-1.699,1.77-1.961
	c0.683-0.2,1.271-0.655,1.99-0.754c0.127-0.008,0.252-0.026,0.383-0.019c0.014,0.001,0.027,0.004,0.041,0.005
	c1.705,0.108,3.738,1.137,4.219,3.03c0.025,0.098,0.039,0.198,0.061,0.297h0.042c0.265,1.074,0.237,2.191,0.324,3.284
	c0.139,1.731,0.562,3.377,1.135,4.997c0.181,0.514,0.147,0.688-0.349,0.898c-0.663,0.281-1.323,0.572-1.995,0.834
	c-0.324,0.127-0.445,0.34-0.513,0.672c-0.151,0.763-0.026,1.494,0.148,2.229c0.135,0.559,0.385,0.76,0.951,0.85
	c0.166,0.027,0.334,0.125,0.473,0.231c0.314,0.241,0.572,0.589,0.92,0.747c1.221,0.555,2.453,1.09,3.709,1.555
	c1.74,0.643,2.94,1.719,3.391,3.461h0.027c0.043,0.191,0.082,0.387,0.107,0.588c0.111,0,0.225,0,0.336,0V12
	C29.328,12,20.663,12,12,12z"/>
</svg>
