<?xml version="1.0" encoding="utf-8"?>
<!-- Generator: Adobe Illustrator 17.0.0, SVG Export Plug-In . SVG Version: 6.00 Build 0)  -->
<!DOCTYPE svg PUBLIC "-//W3C//DTD SVG 1.1//EN" "http://www.w3.org/Graphics/SVG/1.1/DTD/svg11.dtd">
<svg version="1.1" id="Layer_1" xmlns="http://www.w3.org/2000/svg" xmlns:xlink="http://www.w3.org/1999/xlink" x="0px" y="0px"
	 width="26px" height="24.691px" viewBox="11.998 12.654 26 24.691" enable-background="new 11.998 12.654 26 24.691"
	 xml:space="preserve">
<path fill="#C2C0B4" d="M13.198,36.524c0.745-0.399,1.484-0.812,2.247-1.174c0.74-0.354,1.505-0.657,2.262-0.977
	c0.712-0.299,1.432-0.582,2.139-0.89c0.121-0.053,0.244-0.183,0.294-0.305c0.158-0.396,0.292-0.805,0.417-1.213
	c0.095-0.309,0.156-0.615,0.554-0.697c0.1-0.021,0.223-0.193,0.238-0.31c0.081-0.594,0.142-1.191,0.183-1.791
	c0.01-0.127-0.056-0.291-0.143-0.388c-0.524-0.586-0.812-1.262-0.933-2.04c-0.061-0.389-0.278-0.75-0.391-1.133
	c-0.149-0.515-0.273-1.035-0.391-1.559c-0.043-0.188-0.018-0.392-0.049-0.584c-0.046-0.281-0.037-0.498,0.301-0.606
	c0.093-0.03,0.171-0.253,0.174-0.39c0.017-0.834,0.006-1.669,0.011-2.503c0.004-0.512-0.001-1.026,0.036-1.537
	c0.072-0.979,0.646-1.669,1.366-2.262c1.051-0.867,2.31-1.271,3.604-1.578c0.679-0.159,1.372-0.257,2.062-0.367
	c0.185-0.03,0.376-0.005,0.564-0.005c0.03,0.048,0.062,0.095,0.094,0.143c-0.146,0.104-0.306,0.192-0.431,0.316
	c-0.281,0.281-0.254,0.479,0.048,0.732c0.623,0.529,1.248,1.057,1.854,1.604c0.534,0.479,0.742,1.108,0.743,1.814
	c0.001,1.215,0.002,2.43,0.001,3.646c-0.001,0.249-0.019,0.494,0.29,0.604c0.065,0.023,0.134,0.16,0.128,0.238
	c-0.052,0.622-0.119,1.243-0.185,1.864c-0.002,0.023-0.007,0.052-0.021,0.069c-0.559,0.815-0.631,1.816-1.029,2.692
	c-0.017,0.033-0.024,0.072-0.049,0.099c-0.74,0.873-0.51,1.923-0.524,2.924c-0.002,0.102,0.071,0.262,0.153,0.296
	c0.303,0.133,0.377,0.393,0.461,0.667c0.131,0.433,0.262,0.868,0.447,1.278c0.067,0.152,0.271,0.28,0.44,0.344
	c2.278,0.875,4.534,1.801,6.709,2.916c0.435,0.224,0.81,0.498,1.126,0.824V12.654c-8.67,0-17.336,0-26,0v24.691
	C12.348,37.02,12.759,36.759,13.198,36.524z"/>
</svg>
