<?xml version="1.0" encoding="utf-8"?>
<!-- Generator: Adobe Illustrator 17.0.0, SVG Export Plug-In . SVG Version: 6.00 Build 0)  -->
<!DOCTYPE svg PUBLIC "-//W3C//DTD SVG 1.1//EN" "http://www.w3.org/Graphics/SVG/1.1/DTD/svg11.dtd">
<svg version="1.1" id="Layer_1" xmlns="http://www.w3.org/2000/svg" xmlns:xlink="http://www.w3.org/1999/xlink" x="0px" y="0px"
	 width="48px" height="48px" viewBox="0 0 48 48" enable-background="new 0 0 48 48" xml:space="preserve">
<path d="M39,48H9c-4.971,0-9-4.032-9-9V9c0-4.971,4.029-9,9-9h30c4.971,0,9,4.029,9,9v30C48,43.968,43.971,48,39,48z M42,9
	c0-1.656-1.341-3-3-3H9C7.341,6,6,7.344,6,9v30c0,1.659,1.341,3,3,3h30c1.659,0,3-1.341,3-3V9z M29.442,38.513H18.558
	c-3.006,0-5.443-2.438-5.443-5.443l0,0c0.56-3.327,2.799-6.123,5.646-7.699c-1.243-1.303-2.018-3.057-2.018-4.999v-3.628
	c0-4.007,3.249-7.257,7.257-7.257s7.257,3.249,7.257,7.257v3.628c0,1.943-0.775,3.697-2.015,4.999
	c2.845,1.576,5.084,4.372,5.644,7.699l0,0C34.884,36.074,32.445,38.513,29.442,38.513z M27.627,20.372v-3.628
	c0-2.003-1.625-3.628-3.628-3.628s-3.628,1.625-3.628,3.628v3.628c0,2.003,1.625,3.628,3.628,3.628S27.627,22.374,27.627,20.372z
	 M31.256,33.071c-0.809-3.126-3.881-5.443-7.257-5.443l0,0l0,0c-3.377,0-6.448,2.317-7.257,5.443l0,0
	c0,1.004,0.813,1.814,1.814,1.814h10.884C30.444,34.885,31.256,34.073,31.256,33.071L31.256,33.071z"/>
</svg>
