<?xml version="1.0" encoding="utf-8"?>
<!-- Generator: Adobe Illustrator 17.0.0, SVG Export Plug-In . SVG Version: 6.00 Build 0)  -->
<!DOCTYPE svg PUBLIC "-//W3C//DTD SVG 1.1//EN" "http://www.w3.org/Graphics/SVG/1.1/DTD/svg11.dtd">
<svg version="1.1" id="Layer_1" xmlns="http://www.w3.org/2000/svg" xmlns:xlink="http://www.w3.org/1999/xlink" x="0px" y="0px"
	 width="48px" height="48px" viewBox="0 0 48 48" enable-background="new 0 0 48 48" xml:space="preserve">
<path d="M39,48H9c-4.971,0-9-4.032-9-9V9c0-4.971,4.029-9,9-9h30c4.971,0,9,4.029,9,9v30C48,43.968,43.971,48,39,48z M42,9
	c0-1.656-1.341-3-3-3H9C7.341,6,6,7.344,6,9v30c0,1.659,1.341,3,3,3h30c1.659,0,3-1.341,3-3V9z M38.03,24
	c0-7.748-6.283-14.031-14.031-14.031S9.968,16.252,9.968,24s6.283,14.031,14.031,14.031h1.753c0.966,0,1.753-0.787,1.753-1.753
	c0-0.966-0.787-1.753-1.753-1.753h-1.753c-5.81,0-10.524-4.711-10.524-10.524s4.714-10.522,10.524-10.522
	c5.813,0,10.524,4.711,10.524,10.524v5.262c0,0.966-0.787,1.753-1.753,1.753s-1.753-0.787-1.753-1.753v-5.262
	c0-3.873-3.144-7.015-7.015-7.015c-3.873,0-7.015,3.143-7.015,7.015c0,3.871,3.143,7.015,7.015,7.015
	c1.315,0,2.535-0.384,3.583-1.013c0.363,2.548,2.535,4.522,5.186,4.522c2.905,0,5.262-2.357,5.262-5.262V24H38.03z M23.999,27.509
	c-1.94,0-3.509-1.57-3.509-3.509c0-1.94,1.568-3.509,3.509-3.509c1.939,0,3.509,1.568,3.509,3.509
	C27.508,25.939,25.938,27.509,23.999,27.509z"/>
</svg>
