<?xml version="1.0" encoding="utf-8"?>
<!-- Generator: Adobe Illustrator 17.0.0, SVG Export Plug-In . SVG Version: 6.00 Build 0)  -->
<!DOCTYPE svg PUBLIC "-//W3C//DTD SVG 1.1//EN" "http://www.w3.org/Graphics/SVG/1.1/DTD/svg11.dtd">
<svg version="1.1" id="Layer_1" xmlns="http://www.w3.org/2000/svg" xmlns:xlink="http://www.w3.org/1999/xlink" x="0px" y="0px"
	 width="48px" height="48px" viewBox="0 0 48 48" enable-background="new 0 0 48 48" xml:space="preserve">
<path d="M39,48H9c-4.971,0-9-4.032-9-9V9c0-4.971,4.029-9,9-9h30c4.971,0,9,4.029,9,9v30C48,43.968,43.971,48,39,48z M42,9
	c0-1.656-1.341-3-3-3H9C7.341,6,6,7.344,6,9v30c0,1.659,1.341,3,3,3h30c1.659,0,3-1.341,3-3V9z M33.25,20.583
	c0-5.108-4.142-9.25-9.25-9.25s-9.25,4.142-9.25,9.25s4.142,9.25,9.25,9.25h1.156c0.637,0,1.156-0.519,1.156-1.156
	c0-0.637-0.519-1.156-1.156-1.156H24c-3.83,0-6.938-3.106-6.938-6.938S20.17,13.646,24,13.646c3.832,0,6.938,3.106,6.938,6.938
	v3.469c0,0.637-0.519,1.156-1.156,1.156s-1.156-0.519-1.156-1.156v-3.469c0-2.553-2.073-4.625-4.625-4.625
	c-2.553,0-4.625,2.072-4.625,4.625c0,2.552,2.072,4.625,4.625,4.625c0.867,0,1.671-0.253,2.362-0.668
	c0.239,1.68,1.671,2.981,3.419,2.981c1.915,0,3.469-1.554,3.469-3.469V20.583z M24,22.896c-1.279,0-2.313-1.035-2.313-2.313
	c0-1.279,1.034-2.313,2.313-2.313c1.278,0,2.313,1.034,2.313,2.313C26.313,21.861,25.278,22.896,24,22.896z M30.917,36.222H17.083
	v-2.306h13.833V36.222z"/>
</svg>
