<?xml version="1.0" encoding="utf-8"?>
<!-- Generator: Adobe Illustrator 17.0.0, SVG Export Plug-In . SVG Version: 6.00 Build 0)  -->
<!DOCTYPE svg PUBLIC "-//W3C//DTD SVG 1.1//EN" "http://www.w3.org/Graphics/SVG/1.1/DTD/svg11.dtd">
<svg version="1.1" id="Layer_1" xmlns="http://www.w3.org/2000/svg" xmlns:xlink="http://www.w3.org/1999/xlink" x="0px" y="0px"
	 width="48px" height="48px" viewBox="0 0 48 48" enable-background="new 0 0 48 48" xml:space="preserve">
<path fill="#FFFFFF" d="M24,48C10.746,48,0,37.254,0,24S10.746,0,24,0s24,10.746,24,24S37.254,48,24,48z M24,42
	c3.885,0,7.461-1.26,10.404-3.354l-25.05-25.05C7.26,16.539,6,20.115,6,24C6,33.939,14.061,42,24,42z M24,6
	c-3.885,0-7.461,1.26-10.404,3.354l25.05,25.05C40.74,31.461,42,27.888,42,24C42,14.061,33.939,6,24,6z"/>
</svg>
