<?xml version="1.0" encoding="utf-8"?>
<!-- Generator: Adobe Illustrator 17.0.0, SVG Export Plug-In . SVG Version: 6.00 Build 0)  -->
<!DOCTYPE svg PUBLIC "-//W3C//DTD SVG 1.1//EN" "http://www.w3.org/Graphics/SVG/1.1/DTD/svg11.dtd">
<svg version="1.1" id="Layer_1" xmlns="http://www.w3.org/2000/svg" xmlns:xlink="http://www.w3.org/1999/xlink" x="0px" y="0px"
	 width="48px" height="48px" viewBox="0 0 48 48" enable-background="new 0 0 48 48" xml:space="preserve">
<path fill="#FFB633" d="M24,0C10.746,0,0,10.746,0,24s10.746,24,24,24s24-10.746,24-24S37.254,0,24,0z M24,42
	c-9.939,0-18-8.061-18-18S14.061,6,24,6s18,8.061,18,18S33.939,42,24,42z M33,21h-6v-6c0-1.659-1.344-3-3-3s-3,1.341-3,3v9
	c0,1.659,1.344,3,3,3h9c1.659,0,3-1.341,3-3S34.659,21,33,21z"/>
</svg>
