<?xml version="1.0" encoding="utf-8"?>
<!-- Generator: Adobe Illustrator 17.0.0, SVG Export Plug-In . SVG Version: 6.00 Build 0)  -->
<!DOCTYPE svg PUBLIC "-//W3C//DTD SVG 1.1//EN" "http://www.w3.org/Graphics/SVG/1.1/DTD/svg11.dtd">
<svg version="1.1" id="Layer_1" xmlns="http://www.w3.org/2000/svg" xmlns:xlink="http://www.w3.org/1999/xlink" x="0px" y="0px"
	 width="46.143px" height="46.15px" viewBox="3.67 1.009 46.143 46.15" enable-background="new 3.67 1.009 46.143 46.15"
	 xml:space="preserve">
<g>
	<g>
		<path fill="#EDC97A" d="M47.232,14.252c0-1.1-0.78-2.45-1.732-3l-17.029-9.83c-0.953-0.55-2.512-0.55-3.464,0L7.98,11.255
			c-0.953,0.55-1.732,1.9-1.732,3L6.25,33.917c0,1.1,0.78,2.45,1.732,3l17.029,9.83c0.953,0.55,2.512,0.55,3.464,0l17.027-9.833
			c0.953-0.55,1.732-1.9,1.732-3L47.232,14.252z M28.474,40.158c-0.953,0.55-2.511,0.55-3.464,0l-11.322-6.535
			c-0.953-0.55-1.732-1.9-1.732-3L11.954,17.55c0-1.1,0.779-2.45,1.732-3l11.321-6.538c0.953-0.55,2.511-0.55,3.464,0l11.322,6.536
			c0.953,0.55,1.732,1.9,1.732,3l0.001,13.073c0,1.1-0.779,2.45-1.732,3L28.474,40.158z"/>
	</g>
</g>
<path fill="#EDC97A" d="M26.741,13.39c2.527,0,4.583,2.056,4.583,4.583c0,0.125-0.015,0.249-0.046,0.373l-1.49,5.958
	c-0.113,1.583-1.436,2.836-3.048,2.836c-1.584,0-2.894-1.213-3.04-2.761c-0.377-1.109-1.543-4.683-1.543-6.406
	C22.158,15.446,24.214,13.39,26.741,13.39z M26.741,28.668c1.685,0,3.056,1.37,3.056,3.056s-1.37,3.056-3.056,3.056
	c-1.685,0-3.056-1.37-3.056-3.056S25.056,28.668,26.741,28.668z"/>
</svg>
