<?xml version="1.0" encoding="utf-8"?>
<!-- Generator: Adobe Illustrator 17.0.0, SVG Export Plug-In . SVG Version: 6.00 Build 0)  -->
<!DOCTYPE svg PUBLIC "-//W3C//DTD SVG 1.1//EN" "http://www.w3.org/Graphics/SVG/1.1/DTD/svg11.dtd">
<svg version="1.1" id="Layer_1" xmlns="http://www.w3.org/2000/svg" xmlns:xlink="http://www.w3.org/1999/xlink" x="0px" y="0px"
	 width="48px" height="48px" viewBox="0 0 48 48" enable-background="new 0 0 48 48" xml:space="preserve">
<g>
	<path fill="none" d="M12.75,17.997c0-1.212,0.732-1.035,1.851-1.497c1.122-0.462,2.412-0.207,3.27,0.651l6,4.725
		c0.585,0.585,0.879,1.353,0.879,2.121s-0.294,1.536-0.879,2.121l-6,4.69c-0.858,0.855-2.148,1.113-3.27,0.651
		c-1.119-0.462-1.851-0.25-1.851-1.462V27H9.377l0.001,3.623c0,1.1,0.779,2.45,1.732,3l11.322,6.535c0.953,0.55,2.511,0.55,3.464,0
		l11.32-6.537c0.953-0.55,1.732-1.9,1.732-3l-0.001-13.073c0-1.1-0.779-2.45-1.732-3L25.893,8.012c-0.953-0.55-2.511-0.55-3.464,0
		L11.108,14.55c-0.953,0.55-1.732,1.9-1.732,3L9.377,21h3.373V17.997z"/>
	<path fill="#FFFFFF" d="M44.654,14.252c0-1.1-0.78-2.45-1.732-3l-17.029-9.83c-0.953-0.55-2.512-0.55-3.464,0L5.402,11.255
		c-0.953,0.55-1.732,1.9-1.732,3v3.307c0.027-0.001-0.027,0,0,0l5.706-0.013l0,0c0-1.1,0.779-2.45,1.732-3l11.321-6.538
		c0.953-0.55,2.511-0.55,3.464,0l11.322,6.536c0.953,0.55,1.732,1.9,1.732,3l0.001,13.073c0,1.1-0.779,2.45-1.732,3l-11.32,6.537
		c-0.953,0.55-2.511,0.55-3.464,0L11.11,33.623c-0.953-0.55-1.732-1.9-1.732-3l0,0l-5.706,0.002c-0.027,0,0.027,0.001,0,0l0,3.292
		c0,1.1,0.78,2.45,1.732,3l17.029,9.83c0.953,0.55,2.512,0.55,3.464,0l17.027-9.833c0.953-0.55,1.732-1.9,1.732-3L44.654,14.252z"/>
	<path fill="#FFFFFF" d="M10.711,27h3.373v1.688c0,1.212,0.732,2.31,1.851,2.772c1.122,0.462,2.412,0.204,3.27-0.651l6-4.69
		c0.585-0.585,0.879-1.353,0.879-2.121s-0.294-1.536-0.879-2.121l-6-4.725c-0.858-0.858-2.148-1.113-3.27-0.651
		c-1.119,0.462-1.851,1.56-1.851,2.772V21H10.71H5.083c-0.027,0-0.052,0.007-0.079,0.008C3.386,21.051,2.083,22.371,2.083,24
		c0,1.632,1.302,2.949,2.921,2.992C5.031,26.993,5.056,27,5.083,27H10.711z"/>
</g>
</svg>
