<?xml version="1.0" encoding="utf-8"?>
<!-- Generator: Adobe Illustrator 17.0.0, SVG Export Plug-In . SVG Version: 6.00 Build 0)  -->
<!DOCTYPE svg PUBLIC "-//W3C//DTD SVG 1.1//EN" "http://www.w3.org/Graphics/SVG/1.1/DTD/svg11.dtd">
<svg version="1.1" id="Layer_1" xmlns="http://www.w3.org/2000/svg" xmlns:xlink="http://www.w3.org/1999/xlink" x="0px" y="0px"
	 width="48px" height="48px" viewBox="0 0 48 48" enable-background="new 0 0 48 48" xml:space="preserve">
<path fill="#FFB633" d="M30.129,34.266C30.75,38.625,34.464,42,39,42c4.968,0,9-4.032,9-9v-9C48,10.746,37.254,0,24,0S0,10.746,0,24
	s10.746,24,24,24h3c1.653,0,3-1.347,3-3s-1.347-3-3-3h-3c-9.936,0-18-8.058-18-18S14.064,6,24,6c9.942,0,18,8.058,18,18v9
	c0,1.653-1.347,3-3,3s-3-1.347-3-3v-9c0-0.334-0.023-0.662-0.05-0.989c-1.229,3.229-6.012-3.042-5.997,8.858"/>
<path fill="#FFB633" d="M35.472,25.97L24,37.862L12.528,25.97c-2.627-2.627-2.627-6.887,0-9.514s6.887-2.627,9.514,0L24,18.836
	l1.958-2.378c2.627-2.627,6.887-2.627,9.514,0C38.099,19.083,38.099,23.343,35.472,25.97z"/>
</svg>
