<?xml version="1.0" encoding="utf-8"?>
<!-- Generator: Adobe Illustrator 17.0.0, SVG Export Plug-In . SVG Version: 6.00 Build 0)  -->
<!DOCTYPE svg PUBLIC "-//W3C//DTD SVG 1.1//EN" "http://www.w3.org/Graphics/SVG/1.1/DTD/svg11.dtd">
<svg version="1.1" id="Layer_1" xmlns="http://www.w3.org/2000/svg" xmlns:xlink="http://www.w3.org/1999/xlink" x="0px" y="0px"
	 width="48px" height="48px" viewBox="0 0 48 48" enable-background="new 0 0 48 48" xml:space="preserve">
<path fill="#FFFFFF" d="M42,39H30c-1.659,0-3-1.341-3-3s1.341-3,3-3h12c1.659,0,3,1.341,3,3S43.659,39,42,39z M30.711,27H30
	c-2.748,0-5.181,1.26-6.831,3.201C22.458,30.072,21.735,30,21,30c-5.586,0-10.662,3.831-12,9c0,1.659,1.344,3,3,3h11.337
	c1.647,1.827,4.008,3,6.663,3h6.663c-1.647,1.827-4.008,3-6.663,3H12c-4.971,0-9-4.032-9-9c0.927-5.502,4.629-10.125,9.336-12.729
	C10.281,24.114,9,21.21,9,18v-6C9,5.373,14.373,0,21,0s12,5.373,12,12v6c0,3.21-1.281,6.114-3.333,8.271
	C30.039,26.475,30.354,26.769,30.711,27z M27,12c0-3.312-2.688-6-6-6s-6,2.688-6,6v6c0,3.312,2.688,6,6,6s6-2.688,6-6V12z"/>
</svg>
