<?xml version="1.0" encoding="utf-8"?>
<!-- Generator: Adobe Illustrator 17.0.0, SVG Export Plug-In . SVG Version: 6.00 Build 0)  -->
<!DOCTYPE svg PUBLIC "-//W3C//DTD SVG 1.1//EN" "http://www.w3.org/Graphics/SVG/1.1/DTD/svg11.dtd">
<svg version="1.1" id="Layer_1" xmlns="http://www.w3.org/2000/svg" xmlns:xlink="http://www.w3.org/1999/xlink" x="0px" y="0px"
	 width="63px" height="63px" viewBox="0 -3.031 63 63" enable-background="new 0 -3.031 63 63" xml:space="preserve">
<path d="M48,24C48,10.746,37.254,0,24,0S0,10.746,0,24s10.746,24,24,24h3c1.653,0,3-1.347,3-3s-1.347-3-3-3h-3
	c-9.936,0-18-8.058-18-18S14.064,6,24,6c9.942,0,18,8.058,18,18v9c0,1.653-1.347,3-3,3s-3-1.347-3-3v-9c0-6.624-5.379-12-12-12
	c-6.624,0-12,5.376-12,12c0,6.621,5.376,12,12,12c2.25,0,4.335-0.657,6.129-1.734C30.75,38.625,34.464,42,39,42c4.968,0,9-4.032,9-9
	V24z M24,30c-3.318,0-6-2.685-6-6c0-3.318,2.682-6,6-6c3.315,0,6,2.682,6,6C30,27.315,27.315,30,24,30z"/>
<path d="M60.516,49.484h-4.969v4.969c0,1.374-1.111,2.484-2.484,2.484c-1.371,0-2.484-1.111-2.484-2.484v-4.969H45.61
	c-1.371,0-2.484-1.111-2.484-2.484c0-1.371,1.113-2.484,2.484-2.484h4.969v-4.969c0-1.371,1.113-2.484,2.484-2.484
	c1.374,0,2.484,1.113,2.484,2.484v4.969h4.969C61.89,44.516,63,45.629,63,47C63,48.373,61.889,49.484,60.516,49.484z"/>
</svg>
