<?xml version="1.0" encoding="utf-8"?>
<!-- Generator: Adobe Illustrator 17.0.0, SVG Export Plug-In . SVG Version: 6.00 Build 0)  -->
<!DOCTYPE svg PUBLIC "-//W3C//DTD SVG 1.1//EN" "http://www.w3.org/Graphics/SVG/1.1/DTD/svg11.dtd">
<svg version="1.1" id="Layer_1" xmlns="http://www.w3.org/2000/svg" xmlns:xlink="http://www.w3.org/1999/xlink" x="0px" y="0px"
	 width="48px" height="48px" viewBox="0 0 48 48" enable-background="new 0 0 48 48" xml:space="preserve">
<path fill="#FFFFFF" d="M42,15v24c0,4.968-4.032,9-9,9H15c-4.971,0-9-4.032-9-9V15c-1.656,0-3-1.344-3-3s1.344-3,3-3h9
	c0-4.971,4.029-9,9-9c4.968,0,9,4.029,9,9h9c1.659,0,3,1.344,3,3S43.659,15,42,15z M24,6c-1.656,0-3,1.344-3,3h6
	C27,7.344,25.656,6,24,6z M36,15H12v24c0,1.659,1.344,3,3,3h18c1.659,0,3-1.341,3-3V15z M30,18h3v21h-3V18z M21,18h6v21h-6V18z
	 M15,18h3v21h-3V18z"/>
</svg>
