<?xml version="1.0" encoding="utf-8"?>
<!-- Generator: Adobe Illustrator 17.0.0, SVG Export Plug-In . SVG Version: 6.00 Build 0)  -->
<!DOCTYPE svg PUBLIC "-//W3C//DTD SVG 1.1//EN" "http://www.w3.org/Graphics/SVG/1.1/DTD/svg11.dtd">
<svg version="1.1" id="Layer_1" xmlns="http://www.w3.org/2000/svg" xmlns:xlink="http://www.w3.org/1999/xlink" x="0px" y="0px"
	 width="31.465px" height="31.465px" viewBox="0 -3.973 31.465 31.465" enable-background="new 0 -3.973 31.465 31.465"
	 xml:space="preserve">
<g>
	<path d="M30.22,3.037V1.055l-0.286-0.113C29.835,0.905,27.507,0,24.399,0c-3.326,0-6.194,1.014-8.527,3.015
		C13.541,1.014,10.673,0,7.346,0C4.238,0,1.91,0.905,1.813,0.943L1.527,1.055v1.836C0.586,3.067,0,3.382,0,3.897
		c0,2.676,0,18.917,0,18.917h13.934c0.481,0.431,1.187,0.705,1.974,0.705c0.788,0,1.492-0.273,1.976-0.705h13.582
		c0,0,0-17.979,0-18.917C31.465,3.478,30.991,3.205,30.22,3.037z M15.724,21.323c-1.158-0.478-5.143-1.993-9.132-1.993
		c-1.576,0-2.973,0.242-4.163,0.719V1.681c0.693-0.232,2.587-0.779,4.917-0.779c3.063,0,5.695,0.927,7.847,2.734V14.6l0.531-0.585
		V21.323z M29.316,20.054c-1.278-0.513-2.745-0.772-4.37-0.772c-3.987,0-7.783,1.528-8.924,2.031v-7.298l0.531,0.585V3.636
		c2.15-1.807,4.783-2.734,7.846-2.734c2.323,0,4.222,0.548,4.917,0.779V20.054z"/>
	<path d="M9.769,4.678c2.135,0.41,3.59,1.197,3.615,1.21l0.354-0.638c-0.105-0.06-1.677-0.912-3.97-1.328v0.756H9.769z"/>
	<path d="M9.769,6.748c2.135,0.409,3.59,1.197,3.615,1.211l0.354-0.639c-0.105-0.06-1.677-0.912-3.97-1.327v0.755H9.769z"/>
	<path d="M9.769,8.693c2.135,0.41,3.59,1.197,3.615,1.211l0.354-0.639c-0.105-0.061-1.677-0.912-3.97-1.327v0.755H9.769z"/>
	<path d="M9.769,10.825c2.135,0.41,3.59,1.198,3.615,1.211l0.354-0.638c-0.105-0.06-1.677-0.913-3.97-1.328v0.755H9.769z"/>
	<path d="M4.216,12.219l0.188,0.707c4.705-1.246,8.938,1.063,8.98,1.086l0.354-0.639C13.558,13.271,9.212,10.896,4.216,12.219z"/>
	<path d="M4.216,14.248l0.188,0.707c4.705-1.248,8.938,1.061,8.98,1.085l0.354-0.638C13.558,15.299,9.212,12.925,4.216,14.248z"/>
	<path d="M4.216,16.282l0.188,0.707c4.705-1.249,8.938,1.062,8.98,1.084l0.354-0.638C13.558,17.333,9.212,14.958,4.216,16.282z"/>
	<path d="M18.577,5.943c0.044-0.023,4.276-2.332,8.98-1.084l0.188-0.707c-4.996-1.324-9.342,1.052-9.524,1.154L18.577,5.943z"/>
	<path d="M18.222,7.375l0.355,0.638c0.044-0.023,4.276-2.333,8.98-1.084l0.188-0.708C22.75,4.897,18.404,7.273,18.222,7.375z"/>
	<path d="M18.222,9.319l0.355,0.639c0.044-0.024,4.276-2.332,8.98-1.086l0.188-0.706C22.75,6.843,18.404,9.218,18.222,9.319z"/>
	<path d="M18.222,11.452l0.355,0.638c0.044-0.023,4.276-2.333,8.98-1.085l0.188-0.707C22.75,8.973,18.404,11.35,18.222,11.452z"/>
	<path d="M18.222,13.427l0.355,0.639c0.044-0.024,4.276-2.332,8.98-1.085l0.188-0.708C22.75,10.951,18.404,13.325,18.222,13.427z"/>
	<path d="M18.222,15.456l0.355,0.638c0.044-0.023,4.276-2.332,8.98-1.085l0.188-0.706C22.75,12.979,18.404,15.353,18.222,15.456z"/>
	<path d="M18.222,17.49l0.355,0.637c0.044-0.022,4.276-2.333,8.98-1.084l0.188-0.707C22.75,15.012,18.404,17.388,18.222,17.49z"/>
	<path d="M8.978,10.696V3.799c0,0-1.174-0.134-2.381-0.102c-1.205,0.033-2.381,0.4-2.381,0.4v6.896c0,0,0.983-0.291,2.251-0.383
		C7.733,10.518,8.978,10.696,8.978,10.696z"/>
</g>
</svg>
