<?xml version="1.0" encoding="utf-8"?>
<!-- Generator: Adobe Illustrator 17.0.0, SVG Export Plug-In . SVG Version: 6.00 Build 0)  -->
<!DOCTYPE svg PUBLIC "-//W3C//DTD SVG 1.1//EN" "http://www.w3.org/Graphics/SVG/1.1/DTD/svg11.dtd">
<svg version="1.1" id="Capa_1" xmlns="http://www.w3.org/2000/svg" xmlns:xlink="http://www.w3.org/1999/xlink" x="0px" y="0px"
	 width="64px" height="64px" viewBox="0 0 64 64" enable-background="new 0 0 64 64" xml:space="preserve">
<path d="M31.983,37.915c-8.871,0-16.059-8.617-16.059-19.238c0-10.62,7.188-18.492,16.059-18.492
	c8.873,0,16.066,7.872,16.066,18.492C48.049,29.299,40.855,37.915,31.983,37.915z M7.002,63.922c0,0-3.406,0.225-4.907-1.842
	c-0.811-1.117-0.246-3.38,0.309-4.643l1.358-3.094c0,0,3.755-8.398,8.029-13.265c2.626-2.984,5.749-2.305,7.768-1.334
	c1.244,0.597,2.651,2.337,3.679,3.259c1.417,1.27,3.917,2.714,8.006,2.796h2.508c4.086-0.081,6.587-1.525,8.002-2.796
	c1.027-0.922,2.395-2.716,3.627-3.333c1.854-0.928,4.675-1.499,7.232,1.408c4.276,4.867,7.662,13.417,7.662,13.417l1.392,3.034
	c0.576,1.254,1.165,3.506,0.377,4.638c-1.407,2.024-4.564,1.755-4.564,1.755S7.002,63.922,7.002,63.922z"/>
</svg>
