<?xml version="1.0" encoding="utf-8"?>
<!-- Generator: Adobe Illustrator 17.0.0, SVG Export Plug-In . SVG Version: 6.00 Build 0)  -->
<!DOCTYPE svg PUBLIC "-//W3C//DTD SVG 1.1//EN" "http://www.w3.org/Graphics/SVG/1.1/DTD/svg11.dtd">
<svg version="1.1" id="Layer_1" xmlns="http://www.w3.org/2000/svg" xmlns:xlink="http://www.w3.org/1999/xlink" x="0px" y="0px"
	 width="31.663px" height="31.676px" viewBox="0.215 0.324 31.663 31.676" enable-background="new 0.215 0.324 31.663 31.676"
	 xml:space="preserve">
<g>
	<circle cx="11.62" cy="10.554" r="2.64"/>
	<path d="M15.911,26.335l6.348-2.74c0.548-0.237,0.801-0.874,0.564-1.423l-1.541-3.57c-0.114-0.264-0.328-0.471-0.594-0.577
		c-0.267-0.105-0.565-0.102-0.829,0.012l-0.854,0.369c-0.478-0.675-1.271-1.047-2.082-1.005c-0.013-0.059-0.03-0.12-0.051-0.179
		c-0.284-0.788-1.15-1.2-1.939-0.915c-1.173,0.42-2.773,0.781-3.739,0.119c-0.407-0.28-0.663-0.717-0.824-1.141
		c0.24-0.794,0.085-1.69-0.492-2.371c-0.903-1.063-2.499-1.192-3.562-0.289c-0.258,0.219-1.882,1.683-2.888,4.532
		c-0.49,0.224-1.082,0.403-1.795,0.487c-0.833,0.097-1.427,0.852-1.329,1.682c0.091,0.772,0.745,1.341,1.503,1.341
		c0.06,0,0.12-0.005,0.178-0.013c0.247-0.028,0.481-0.066,0.71-0.111c-0.045,0.479-0.071,0.982-0.071,1.506
		c0,0.684,0.272,1.303,0.712,1.757c0.289,0.893,0.523,2.122,0.204,3.134c-0.237,0.755-0.761,1.33-1.601,1.757
		c-0.747,0.379-1.043,1.292-0.664,2.039c0.269,0.525,0.799,0.829,1.352,0.829c0.232,0,0.466-0.055,0.687-0.166
		c1.559-0.792,2.637-2.02,3.118-3.549c0.405-1.287,0.344-2.597,0.128-3.704c0.103-0.07,0.202-0.148,0.292-0.232
		c1.026,1.196,2.056,3.22,1.435,6.252c-0.167,0.82,0.361,1.622,1.183,1.789c0.101,0.02,0.205,0.03,0.304,0.03
		c0.705,0,1.337-0.495,1.484-1.212c1.042-5.102-1.405-8.538-3.483-10.171c0.145-1.055,0.435-1.898,0.743-2.543
		c0.261,0.304,0.568,0.591,0.931,0.844c0.88,0.613,1.924,0.92,3.123,0.92c0.653,0,1.353-0.092,2.096-0.275
		c-0.023,0.235-0.014,0.476,0.034,0.714l-1.191,0.514c-0.548,0.237-0.801,0.874-0.564,1.423l1.542,3.569
		C14.726,26.32,15.362,26.572,15.911,26.335z M15.79,19.218c0.056-0.02,0.111-0.037,0.167-0.057
		c0.377-0.134,0.665-0.403,0.835-0.732c0.458-0.087,0.929,0.066,1.25,0.394l-2.376,1.026C15.658,19.63,15.701,19.414,15.79,19.218z"
		/>
	<path d="M22.44,2.893c-0.473,0-0.493,0.384-0.493,0.856v14.35c0.032,0.058,0.062,0.117,0.088,0.179l0.896,2.077V3.749
		C22.932,3.276,22.912,2.893,22.44,2.893z"/>
	<path d="M21.947,24.624v3.096c0,0.473,0.02,0.856,0.493,0.856c0.472,0,0.492-0.383,0.492-0.856v-3.567
		c-0.107,0.077-0.223,0.143-0.347,0.197L21.947,24.624z"/>
	<path d="M15.05,10.104V7.747l5.665-2.338V3.984V3.749c0-0.345,0.012-0.713,0.162-1.076c0.07-0.166,0.162-0.315,0.272-0.444
		l-4.219-1.84c-0.265-0.108-0.469-0.079-0.707,0.081c-0.238,0.159-0.188,0.426-0.188,0.711v3.146L17.02,3.97V2.459l3.055,1.261
		l-6.464,2.661c-0.321,0.133-0.533,0.445-0.533,0.792v0.245C14.13,7.908,14.894,8.911,15.05,10.104z"/>
	<path d="M20.715,27.72v-0.193l-5.665,2.338v-2.67c-0.579-0.135-1.072-0.537-1.315-1.099l-0.656-1.519v6.566
		c0,0.286,0.146,0.553,0.382,0.712C13.604,31.951,13.773,32,13.939,32c0.111,0,0.341-0.021,0.446-0.065l6.724-2.745
		c-0.093-0.117-0.17-0.248-0.232-0.394C20.728,28.433,20.715,28.065,20.715,27.72z"/>
	<path d="M13.079,13.69v2.246c0.465-0.059,1.001-0.193,1.578-0.401c0.128-0.045,0.259-0.08,0.393-0.103v-4.426
		C14.894,12.196,14.13,13.2,13.079,13.69z"/>
	<path d="M31.376,6.381L25.202,3.82l2.656-1.361v1.509l1.971,0.75V1.181c0-0.285-0.383-0.552-0.62-0.711
		c-0.238-0.16-0.779-0.19-1.043-0.081L23.722,2.22c0.114,0.131,0.208,0.282,0.279,0.454c0.098,0.238,0.137,0.479,0.152,0.712
		c0.008,0.123,0.01,0.245,0.01,0.363v1.659l5.665,2.339v22.118l-5.665-2.338v0.193c0,0.345,0.008,0.713-0.142,1.076
		c-0.036,0.086-0.105,0.166-0.105,0.243v0.035l6.839,2.861C30.86,31.979,30.961,32,31.071,32c0.168,0,0.269-0.049,0.413-0.145
		c0.236-0.159,0.315-0.426,0.315-0.712V7.173C31.8,6.826,31.698,6.514,31.376,6.381z"/>
</g>
</svg>
