<?xml version="1.0" encoding="utf-8"?>
<!-- Generator: Adobe Illustrator 17.0.0, SVG Export Plug-In . SVG Version: 6.00 Build 0)  -->
<!DOCTYPE svg PUBLIC "-//W3C//DTD SVG 1.1//EN" "http://www.w3.org/Graphics/SVG/1.1/DTD/svg11.dtd">
<svg version="1.1" id="Capa_1" xmlns="http://www.w3.org/2000/svg" xmlns:xlink="http://www.w3.org/1999/xlink" x="0px" y="0px"
	 width="23.302px" height="23.302px" viewBox="0.001 0 23.302 23.302" enable-background="new 0.001 0 23.302 23.302"
	 xml:space="preserve">
<g>
	<path d="M23.302,19.995l-6.995-6.997L15.4,13.55l-1.367-1.327c2.155-3.022,1.887-7.244-0.824-9.958
		c-3.025-3.02-7.923-3.02-10.944,0.001c-3.019,3.021-3.019,7.92,0,10.943c2.715,2.713,6.942,2.98,9.966,0.818l1.284,1.238
		l-0.52,1.045l6.997,6.992c0,0,1.521,0.021,2.438-1.028C23.347,21.227,23.302,19.995,23.302,19.995z M3.521,11.951
		C1.194,9.622,1.196,5.85,3.524,3.521c2.32-2.325,6.099-2.327,8.428,0c2.324,2.33,2.324,6.1-0.005,8.43
		C9.623,14.275,5.85,14.275,3.521,11.951z"/>
	<path d="M9.987,5.86V4.197c0-0.303-0.246-0.549-0.55-0.549H5.998c-0.306,0-0.552,0.246-0.552,0.549V5.86H3.329v5.336h8.777V5.86
		H9.987z M8.888,5.86H6.547V4.748h2.341C8.888,4.748,8.888,5.86,8.888,5.86z"/>
</g>
</svg>
