<?xml version="1.0" encoding="utf-8"?>
<!-- Generator: Adobe Illustrator 17.0.0, SVG Export Plug-In . SVG Version: 6.00 Build 0)  -->
<!DOCTYPE svg PUBLIC "-//W3C//DTD SVG 1.1//EN" "http://www.w3.org/Graphics/SVG/1.1/DTD/svg11.dtd">
<svg version="1.1" id="Layer_1" xmlns="http://www.w3.org/2000/svg" xmlns:xlink="http://www.w3.org/1999/xlink" x="0px" y="0px"
	 width="544.437px" height="544.45px" viewBox="155.728 26.972 544.437 544.45"
	 enable-background="new 155.728 26.972 544.437 544.45" xml:space="preserve">
<g id="Imagenes">
</g>
<g id="Layer_2">
	<path d="M443.073,184.909l-14.649-38.228l-14.51,38.265c4.911-0.493,9.887-0.753,14.919-0.753
		C433.641,184.183,438.385,184.453,443.073,184.909z"/>
	<path d="M663.568,264.435c-19.514-0.614-35.708,12.324-54.263,21.337c-24.425,11.859-17.068-7.32-17.068-7.32l54.877-104.258
		c-30.489-31.094-124.376-66.457-124.376-66.457l-37.903,83.609L428.832,53.482l-57.854,137.724l-37.837-83.46
		c0,0-93.896,35.363-124.376,66.457l54.877,104.258c0,0,7.357,19.179-17.068,7.32c-18.556-9.013-34.749-21.951-54.264-21.337
		s-36.582,30.49-36.582,59.751c0,29.262,7.32,67.071,38.414,67.071s46.339-16.463,57.314-22.556
		c10.975-6.102,19.514,1.218,13.719,12.194c-5.795,10.975-61.277,98.77-61.277,98.77s55.482,39.019,126.813,65.239l32.313-81.786
		c-48.246-24.23-81.507-74.047-81.507-131.613c0-59.695,35.754-111.094,86.911-134.217c1.47-0.67,2.921-1.367,4.418-1.981
		c9.692-4,19.923-6.902,30.527-8.762l25.03-65.983l25.234,65.881c10.287,1.758,20.212,4.53,29.662,8.297
		c1.144,0.456,2.325,0.856,3.46,1.339c52.515,22.546,89.413,74.745,89.413,135.426c0,58.161-33.959,108.397-83.014,132.338
		l32.024,81.06c71.331-26.22,126.813-65.239,126.813-65.239s-55.482-87.794-61.277-98.77c-5.795-10.975,2.744-18.296,13.719-12.194
		s26.22,22.556,57.314,22.556c31.094,0,38.414-37.8,38.414-67.071C700.15,294.924,683.082,265.048,663.568,264.435z"/>
	<path d="M404.863,195.717c-1.786,0.316-3.581,0.595-5.348,0.977c-8.669,1.879-17.04,4.548-25.02,7.98
		c-3.934,1.693-7.776,3.534-11.515,5.571c-42.953,23.421-72.168,68.987-72.168,121.26c0,53.64,30.815,100.119,75.619,122.944
		c18.77,9.562,39.93,15.068,62.393,15.068c21.867,0,42.488-5.246,60.886-14.343c45.613-22.546,77.135-69.443,77.135-123.679
		c0-53.352-30.48-99.635-74.903-122.6c-3.46-1.786-6.976-3.479-10.594-4.976c-7.646-3.153-15.617-5.655-23.876-7.413
		c-1.758-0.372-3.553-0.605-5.33-0.912c-1.758-0.298-3.516-0.577-5.292-0.809c-5.916-0.772-11.906-1.311-18.026-1.311
		c-6.362,0-12.566,0.586-18.695,1.423C408.37,195.15,406.612,195.41,404.863,195.717z M428.842,217.705
		c10.148,0,19.933,1.46,29.308,3.962c8.325,2.223,16.296,5.292,23.755,9.236c36.08,19.105,60.737,57.007,60.737,100.593
		c0,41.977-22.9,78.623-56.812,98.351c-16.779,9.766-36.21,15.449-56.989,15.449c-21.523,0-41.586-6.111-58.765-16.528
		c-32.917-19.97-55.035-56.04-55.035-97.272c0-42.86,23.83-80.233,58.923-99.635c14.482-8.008,30.908-12.836,48.357-13.831
		C424.489,217.91,426.637,217.705,428.842,217.705z"/>
	<path d="M386.251,372.05c-6.511,0-11.813,5.302-11.813,11.813v4.279c0,6.511,5.292,11.813,11.813,11.813h16.007
		c-1.637-11.422-0.698-21.765,0.26-27.904L386.251,372.05L386.251,372.05z"/>
	<path d="M474.241,399.954c4.865,0,9.041-2.958,10.845-7.171c0.623-1.432,0.967-2.995,0.967-4.641v-4.279
		c0-1.823-0.493-3.507-1.237-5.051c-1.907-3.962-5.888-6.762-10.576-6.762h-17.393c2.521,8.185,3.404,17.803,1.637,27.904
		L474.241,399.954L474.241,399.954z"/>
	<path d="M324.333,331.506c0,35.94,18.24,67.694,45.948,86.511c14.119,9.59,30.703,15.794,48.58,17.486
		c-7.664-7.953-12.185-17.152-14.677-26.248h-17.933c-6.232,0-11.785-2.772-15.645-7.078c-3.367-3.739-5.469-8.632-5.469-14.036
		v-4.279c0-5.776,2.344-11.013,6.111-14.826c3.832-3.879,9.134-6.288,15.003-6.288h18.296h48.608h21.105
		c3.758,0,7.246,1.07,10.306,2.809c6.399,3.628,10.789,10.427,10.789,18.305v4.279c0,7.553-4.018,14.138-9.999,17.877
		c-3.237,2.018-7.022,3.237-11.115,3.237h-18.165c-3.004,8.808-8.232,17.728-16.333,26.174c16.798-1.749,32.387-7.543,45.874-16.314
		c28.676-18.649,47.715-50.924,47.715-87.608c0-38.144-20.612-71.489-51.222-89.738c-15.626-9.311-33.801-14.761-53.268-14.761
		c-20.23,0-39.075,5.878-55.091,15.868C344.135,261.337,324.333,294.115,324.333,331.506z M453.648,294.059
		c4.39-8.78,14.742-14.24,27.02-14.24c0.753,0,1.46,0.195,2.195,0.242c10.724,0.605,20.639,5.348,26.778,13.226l2.177,2.809
		l-2.13,2.846c-6.604,8.79-16.212,14.287-26.155,15.17c-0.93,0.084-1.86,0.186-2.8,0.186c-10.975,0-20.779-5.73-26.909-15.719
		l-1.349-2.195L453.648,294.059z M416.75,329.953l1.237,3.59c1.46,4.279,6.036,13.124,10.855,13.124
		c4.781,0,9.385-9.115,10.752-13.273l1.107-3.386l3.553,0.195c9.394,0.502,12.25-1.414,12.882-2.009
		c0.381-0.353,0.623-0.772,0.623-1.674c0-2.567,2.083-4.651,4.651-4.651c2.567,0,4.651,2.083,4.651,4.651
		c0,3.321-1.218,6.241-3.525,8.427c-3.302,3.135-8.492,4.539-16.38,4.651c-2.465,5.692-8.399,16.38-18.323,16.38
		c-9.785,0-15.747-10.306-18.296-15.98c-5.599,0.307-13.003-0.242-17.719-4.39c-2.642-2.325-4.046-5.469-4.046-9.087
		c0-2.567,2.083-4.651,4.651-4.651s4.651,2.083,4.651,4.651c0,0.949,0.251,1.553,0.884,2.111c2.139,1.879,7.785,2.623,14.026,1.804
		L416.75,329.953z M406.584,293.287l2.176,2.8l-2.13,2.837c-7.208,9.617-18.026,15.356-28.945,15.356
		c-1.823,0-3.6-0.214-5.348-0.521c-8.771-1.553-16.454-6.864-21.56-15.198l-1.358-2.204l1.153-2.307
		c3.832-7.655,12.203-12.789,22.425-13.97c1.497-0.177,3.042-0.27,4.604-0.27C389.2,279.819,400.036,284.851,406.584,293.287z"/>
	<path d="M448.96,399.954c2.167-10.306,1.051-20.072-1.907-27.904h-35.075c-0.893,5.339-2.111,16.138-0.186,27.904
		c0.502,3.06,1.237,6.185,2.232,9.301c2.688,8.427,7.357,16.761,15.301,23.43c8.213-7.497,13.561-15.505,16.789-23.43
		C447.398,406.13,448.319,403.023,448.96,399.954z"/>
</g>
</svg>
