<?xml version="1.0" encoding="utf-8"?>
<!-- Generator: Adobe Illustrator 17.0.0, SVG Export Plug-In . SVG Version: 6.00 Build 0)  -->
<!DOCTYPE svg PUBLIC "-//W3C//DTD SVG 1.1//EN" "http://www.w3.org/Graphics/SVG/1.1/DTD/svg11.dtd">
<svg version="1.1" id="Capa_1" xmlns="http://www.w3.org/2000/svg" xmlns:xlink="http://www.w3.org/1999/xlink" x="0px" y="0px"
	 width="480.104px" height="480.1px" viewBox="9.148 4.1 480.104 480.1" enable-background="new 9.148 4.1 480.104 480.1"
	 xml:space="preserve">
<path d="M54.4,387.5c20.3,0,39.8-5.4,54.9-15.1c5.1-3.3,9.4-6.9,13.1-10.9c3.6,4,8,7.6,13.1,10.9c8.6,5.5,18.6,9.6,29.3,12.1v-26.2
	c-17.9-5.7-29.8-16.6-29.8-26.4c0-7-5.7-12.6-12.6-12.6c-7,0-12.6,5.7-12.6,12.6c0,14-24.2,30.3-55.4,30.3c-7,0-12.6,5.7-12.6,12.6
	S47.5,387.5,54.4,387.5z"/>
<path d="M271.1,332c0-7-5.7-12.6-12.6-12.6c-6.9,0-12.6,5.7-12.6,12.6c0,9.2-10.4,19.3-26.3,25.2v26.5c9.4-2.6,18.2-6.3,25.8-11.3
	c5.1-3.3,9.4-6.9,13.1-10.9c3.6,4,8,7.6,13.1,10.9c15.1,9.7,34.6,15.1,54.9,15.1s39.8-5.4,54.9-15.1c5.1-3.3,9.4-6.9,13.1-10.9
	c3.6,4,8,7.6,13.1,10.9c15.1,9.7,34.6,15.1,54.9,15.1c7,0,12.6-5.7,12.6-12.6s-5.7-12.6-12.6-12.6c-31.2,0-55.4-16.3-55.4-30.3
	c0-7-5.7-12.6-12.6-12.6s-12.6,5.7-12.6,12.6c0,14-24.2,30.3-55.4,30.3C295.3,362.2,271.1,346,271.1,332z"/>
<path d="M54.4,458.3c20.3,0,39.8-5.4,54.9-15.1c5.1-3.3,9.4-6.9,13.1-10.9c3.6,4,8,7.6,13.1,10.9c8.6,5.5,18.6,9.6,29.3,12.1v-26.2
	c-17.9-5.7-29.8-16.6-29.8-26.4c0-7-5.7-12.6-12.6-12.6c-7,0-12.6,5.7-12.6,12.6c0,14-24.2,30.3-55.4,30.3c-7,0-12.6,5.7-12.6,12.6
	S47.5,458.3,54.4,458.3z"/>
<path d="M219.5,454.5c9.4-2.6,18.2-6.3,25.8-11.3c5.1-3.3,9.4-6.9,13.1-10.9c3.6,4,8,7.6,13.1,10.9c15.1,9.7,34.6,15.1,54.9,15.1
	s39.8-5.4,54.9-15.1c5.1-3.3,9.4-6.9,13.1-10.9c3.6,4,8,7.6,13.1,10.9c15.1,9.7,34.6,15.1,54.9,15.1c7,0,12.6-5.7,12.6-12.6
	s-5.7-12.6-12.6-12.6c-31.2,0-55.4-16.3-55.4-30.3c0-7-5.7-12.6-12.6-12.6s-12.6,5.7-12.6,12.6c0,14-24.2,30.3-55.4,30.3
	S271,416.8,271,402.8c0-7-5.7-12.6-12.6-12.6c-6.9,0-12.6,5.7-12.6,12.6c0,9.2-10.4,19.3-26.3,25.2L219.5,454.5L219.5,454.5z"/>
<path d="M175.4,25.1v6.3c5.6-0.5,11.2-0.7,16.8-0.7s11.3,0.3,16.8,0.7v-6.3c0-11.6-7.5-21-16.8-21C182.9,4.1,175.4,13.5,175.4,25.1z
	"/>
<path d="M209,463v-6.3V431v-45v-25.7V233.7h-33.7V361v25.6v45.2v25.6v5.8c0,11.6,7.5,21,16.8,21C201.5,484.1,209,474.6,209,463z"/>
<path d="M170.1,223.2h5.3H209h5.3h5.3h154.7c0-91.2-67.1-166.8-154.7-180c-1.7-0.3-3.5-0.5-5.3-0.7c-1.7-0.2-3.5-0.4-5.3-0.6
	c-5.5-0.5-11.2-0.8-16.8-0.8s-11.3,0.3-16.8,0.8c-1.8,0.2-3.5,0.3-5.3,0.6c-1.8,0.2-3.5,0.4-5.3,0.7
	c-87.5,13.2-154.7,88.7-154.7,180h154.7H170.1z"/>
<circle cx="448.9" cy="106.9" r="39.4"/>
</svg>
