<?xml version="1.0" encoding="utf-8"?>
<!-- Generator: Adobe Illustrator 17.0.0, SVG Export Plug-In . SVG Version: 6.00 Build 0)  -->
<!DOCTYPE svg PUBLIC "-//W3C//DTD SVG 1.1//EN" "http://www.w3.org/Graphics/SVG/1.1/DTD/svg11.dtd">
<svg version="1.1" id="Capa_1" xmlns="http://www.w3.org/2000/svg" xmlns:xlink="http://www.w3.org/1999/xlink" x="0px" y="0px"
	 width="33.992px" height="33.987px" viewBox="0 -1.151 33.992 33.987" enable-background="new 0 -1.151 33.992 33.987"
	 xml:space="preserve">
<path d="M31.686,6.871H27.86v1.727h2.238v14.488H27.86v1.727h3.826c1.273,0,2.307-1.033,2.307-2.305V9.176
	C33.992,7.9,32.959,6.871,31.686,6.871z M31.65,12.752h0.672v6.18H31.65V12.752z M31.959,21.577c-0.328,0-0.594-0.264-0.594-0.59
	s0.266-0.59,0.594-0.59c0.324,0,0.59,0.264,0.59,0.59S32.283,21.577,31.959,21.577z"/>
<path d="M7.609,23.086H6.012V8.598H7.61V6.871H2.305C1.033,6.871,0,7.9,0,9.176v13.332c0,1.272,1.033,2.305,2.305,2.305H7.61
	L7.609,23.086L7.609,23.086z M4.191,18.655H2.459v-5.627h1.732V18.655z"/>
<path d="M24.398,0h-13.33C9.793,0,8.764,1.034,8.764,2.309v4.562v1.727v14.488v1.727v4.566c0,1.271,1.029,2.306,2.305,2.306h13.33
	c1.275,0,2.307-1.034,2.307-2.306v-4.566v-1.727V8.598V6.871V2.309C26.705,1.034,25.674,0,24.398,0z M22.879,1.444
	c0.326,0,0.59,0.265,0.59,0.59s-0.264,0.59-0.59,0.59s-0.59-0.265-0.59-0.59S22.553,1.444,22.879,1.444z M14.643,1.669h6.182v0.673
	h-6.182C14.643,2.342,14.643,1.669,14.643,1.669z M20.549,29.225H14.92v-1.732h5.629V29.225z M24.979,6.871v1.727v14.488v1.727
	v0.859H10.492v-0.859v-1.727V8.598V6.871V3.895h14.486L24.979,6.871L24.979,6.871z"/>
<polygon points="30.994,5.362 30.441,5.357 31.301,6.271 32.197,5.375 31.633,5.37 31.633,2.006 28.227,2.006 28.227,2.625 
	30.994,2.625 "/>
<polygon points="5.006,27.024 5.561,27.03 4.701,26.116 3.805,27.011 4.369,27.017 4.369,30.381 7.771,30.381 7.771,29.762 
	5.006,29.762 "/>
</svg>
