<?xml version="1.0" encoding="utf-8"?>
<!-- Generator: Adobe Illustrator 17.0.0, SVG Export Plug-In . SVG Version: 6.00 Build 0)  -->
<!DOCTYPE svg PUBLIC "-//W3C//DTD SVG 1.1//EN" "http://www.w3.org/Graphics/SVG/1.1/DTD/svg11.dtd">
<svg version="1.1" id="Layer_1" xmlns="http://www.w3.org/2000/svg" xmlns:xlink="http://www.w3.org/1999/xlink" x="0px" y="0px"
	 width="48px" height="48px" viewBox="0 0 48 48" enable-background="new 0 0 48 48" xml:space="preserve">
<path fill="#FFFFFF" d="M42,42h-3v3c0,1.659-1.341,3-3,3s-3-1.341-3-3v-3h-3c-1.659,0-3-1.341-3-3s1.341-3,3-3h3v-3
	c0-1.659,1.341-3,3-3s3,1.341,3,3v3h3c1.659,0,3,1.341,3,3S43.659,42,42,42z M27.423,30.423C23.715,31.536,21,34.935,21,39
	c0,3.915,2.511,7.209,6,8.448V48H6c-1.656,0-3-1.341-3-3c0-6,5.799-11.598,11.727-13.812C11.304,29.073,9,25.317,9,21v-3
	c0-6.627,5.373-12,12-12s12,5.373,12,12v3c0,1.398-0.312,2.697-0.756,3.939C29.961,26.025,28.161,27.96,27.423,30.423z"/>
</svg>
