<?xml version="1.0" encoding="utf-8"?>
<!-- Generator: Adobe Illustrator 17.0.0, SVG Export Plug-In . SVG Version: 6.00 Build 0)  -->
<!DOCTYPE svg PUBLIC "-//W3C//DTD SVG 1.1//EN" "http://www.w3.org/Graphics/SVG/1.1/DTD/svg11.dtd">
<svg version="1.1" id="Layer_1" xmlns="http://www.w3.org/2000/svg" xmlns:xlink="http://www.w3.org/1999/xlink" x="0px" y="0px"
	 width="48px" height="48px" viewBox="0 0 48 48" enable-background="new 0 0 48 48" xml:space="preserve">
<path d="M15,30H3c-1.656,0-3,1.344-3,3v12c0,1.659,1.344,3,3,3h12c1.656,0,3-1.341,3-3V33C18,31.344,16.656,30,15,30z M12,42H6v-6h6
	V42z M45,0H33c-1.659,0-3,1.344-3,3v12c0,1.656,1.341,3,3,3h12c1.659,0,3-1.344,3-3V3C48,1.344,46.659,0,45,0z M42,12h-6V6h6V12z
	 M6.878,23.121C7.463,23.706,8.231,24,8.999,24s1.536-0.294,2.121-0.879l6-6c0.855-0.855,1.113-2.148,0.651-3.27
	C17.309,12.732,16.211,12,14.999,12h-2.997V3c0-1.659-1.341-3-3-3c-1.656,0-3,1.341-3,3v9H2.999c-1.212,0-2.31,0.732-2.772,1.851
	c-0.462,1.122-0.207,2.415,0.651,3.27L6.878,23.121z M33.001,36h3.003v9c0,1.659,1.344,3,3,3c1.659,0,3-1.341,3-3v-9h2.997
	c1.212,0,2.31-0.732,2.772-1.851c0.462-1.122,0.204-2.415-0.651-3.27l-6-6C40.537,24.294,39.769,24,39.001,24
	s-1.536,0.294-2.121,0.879l-6,6c-0.858,0.855-1.113,2.148-0.651,3.27C30.691,35.268,31.789,36,33.001,36z"/>
</svg>
