<?xml version="1.0" encoding="utf-8"?>
<!-- Generator: Adobe Illustrator 17.0.0, SVG Export Plug-In . SVG Version: 6.00 Build 0)  -->
<!DOCTYPE svg PUBLIC "-//W3C//DTD SVG 1.1//EN" "http://www.w3.org/Graphics/SVG/1.1/DTD/svg11.dtd">
<svg version="1.1" id="Layer_1" xmlns="http://www.w3.org/2000/svg" xmlns:xlink="http://www.w3.org/1999/xlink" x="0px" y="0px"
	 width="48px" height="48px" viewBox="0 0 48 48" enable-background="new 0 0 48 48" xml:space="preserve">
<path fill="#FFFFFF" d="M40.089,44.334L3.666,7.908l4.242-4.242l36.426,36.426L40.089,44.334z M39,30.516L18.057,9.57
	C18.039,9.381,18,9.195,18,9c0-3.312,2.688-6,6-6s6,2.688,6,6c0,0.411-0.042,0.813-0.123,1.2C35.238,12.489,39,17.805,39,24V30.516z
	 M24,39c-2.931,0-5.361-2.103-5.886-4.878C19.695,33.432,21.738,33,24,33c0.201,0,0.372,0.048,0.57,0.054l3.861,3.861
	C27.33,38.16,25.791,39,24,39z M24,42c3.072,0,5.847-0.594,7.968-1.545l2.742,2.739C31.71,44.313,28.032,45,24,45
	c-9.939,0-18-4.029-18-9c0-1.836,1.113-3.54,3-4.962V24c0-1.932,0.402-3.756,1.065-5.448L21.633,30.12C16.14,30.669,12,33.09,12,36
	C12,39.312,17.373,42,24,42z"/>
</svg>
