<?xml version="1.0" encoding="utf-8"?>
<!-- Generator: Adobe Illustrator 17.0.0, SVG Export Plug-In . SVG Version: 6.00 Build 0)  -->
<!DOCTYPE svg PUBLIC "-//W3C//DTD SVG 1.1//EN" "http://www.w3.org/Graphics/SVG/1.1/DTD/svg11.dtd">
<svg version="1.1" id="Layer_1" xmlns="http://www.w3.org/2000/svg" xmlns:xlink="http://www.w3.org/1999/xlink" x="0px" y="0px"
	 width="48px" height="48px" viewBox="0 0 48 48" enable-background="new 0 0 48 48" xml:space="preserve">
<path fill="#FFFFFF" d="M36,0L15,21L9,39l18-6l21-21L36,0z M15,33l3-9l6,6L15,33z M27,27l-6-6l9-9l6,6L27,27z M42,26.484l6-6V39
	c0,4.971-4.029,9-9,9H9c-4.971,0-9-4.029-9-9V9c0-4.971,4.029-9,9-9h18.516l-6,6H9C7.341,6,6,7.341,6,9v30c0,1.659,1.341,3,3,3h30
	c1.659,0,3-1.341,3-3V26.484z"/>
</svg>
