<?xml version="1.0" encoding="utf-8"?>
<!-- Generator: Adobe Illustrator 17.0.0, SVG Export Plug-In . SVG Version: 6.00 Build 0)  -->
<!DOCTYPE svg PUBLIC "-//W3C//DTD SVG 1.1//EN" "http://www.w3.org/Graphics/SVG/1.1/DTD/svg11.dtd">
<svg version="1.1" id="Layer_1" xmlns="http://www.w3.org/2000/svg" xmlns:xlink="http://www.w3.org/1999/xlink" x="0px" y="0px"
	 width="41.223px" height="45.838px" viewBox="2.555 0.667 41.223 45.838" enable-background="new 2.555 0.667 41.223 45.838"
	 xml:space="preserve">
<g>
	<path fill="#FFC88B" d="M43.778,32.486c0,1.65-1.169,3.675-2.598,4.5l-15.415,8.9c-1.429,0.825-3.767,0.825-5.196,0l-15.415-8.9
		c-1.429-0.825-2.598-2.85-2.598-4.5v-17.8c0-1.65,1.169-3.675,2.598-4.5l15.415-8.9c1.429-0.825,3.767-0.825,5.196,0l15.415,8.9
		c1.429,0.825,2.598,2.85,2.598,4.5V32.486z"/>
</g>
<g>
	<path d="M24.163,36.085"/>
	<path d="M24.163,12.085"/>
</g>
<path d="M24.05,14.651h-4.883c-1.219,0-2.208,0.989-2.208,2.208s0.989,2.208,2.208,2.208h4.86h-2.001h8.845
	c1.828,0,3.311,1.481,3.311,3.311s-1.483,3.311-3.311,3.311c-1.828,0-14.305,0-14.305,0v-2.208c0-0.892-0.539-1.7-1.362-2.04
	c-0.826-0.34-1.775-0.152-2.406,0.479l-4.415,4.415c-0.43,0.433-0.647,0.998-0.647,1.561c0,0.563,0.216,1.13,0.647,1.563
	l4.415,4.415c0.631,0.629,1.581,0.819,2.406,0.479c0.823-0.342,1.362-1.148,1.362-2.042v-2.208c0,0,10.037,0,14.305,0
	s7.727-3.459,7.727-7.727c0-4.269-3.459-7.727-7.727-7.727h-8.845"/>
</svg>
