<?xml version="1.0" encoding="utf-8"?>
<!-- Generator: Adobe Illustrator 17.0.0, SVG Export Plug-In . SVG Version: 6.00 Build 0)  -->
<!DOCTYPE svg PUBLIC "-//W3C//DTD SVG 1.1//EN" "http://www.w3.org/Graphics/SVG/1.1/DTD/svg11.dtd">
<svg version="1.1" id="Layer_1" xmlns="http://www.w3.org/2000/svg" xmlns:xlink="http://www.w3.org/1999/xlink" x="0px" y="0px"
	 width="48px" height="48px" viewBox="0 0 48 48" enable-background="new 0 0 48 48" xml:space="preserve">
<path fill="#FFFFFF" d="M39,0L21,6h-9c-4.971,0-9,4.029-9,9c-1.656,0-3,1.344-3,3s1.344,3,3,3c0,3.702,2.241,6.879,5.436,8.262L6,45
	c0,1.659,1.344,3,3,3h6c1.656,0,3-1.341,3-3l2.25-15H21l18,6c4.968,0,9-8.061,9-18S43.968,0,39,0z M12,18H9v-6h3V18z M18,18h-3v-6h3
	V18z M39,30c-3.312,0-6-5.373-6-12s2.688-12,6-12s6,5.373,6,12S42.312,30,39,30z M39,15h-2.724C36.108,15.942,36,16.941,36,18
	s0.108,2.058,0.276,3H39c1.659,0,3-1.344,3-3S40.659,15,39,15z"/>
</svg>
