<?xml version="1.0" encoding="utf-8"?>
<!-- Generator: Adobe Illustrator 17.0.0, SVG Export Plug-In . SVG Version: 6.00 Build 0)  -->
<!DOCTYPE svg PUBLIC "-//W3C//DTD SVG 1.1//EN" "http://www.w3.org/Graphics/SVG/1.1/DTD/svg11.dtd">
<svg version="1.1" id="Layer_1" xmlns="http://www.w3.org/2000/svg" xmlns:xlink="http://www.w3.org/1999/xlink" x="0px" y="0px"
	 width="16.877px" height="24px" viewBox="15.725 12.085 16.877 24" enable-background="new 15.725 12.085 16.877 24"
	 xml:space="preserve">
<g>
	<path d="M24.163,36.085"/>
	<path d="M24.163,12.085"/>
</g>
<path fill="#FFB615" d="M26.152,13.654l5.627,5.627c0.802,0.805,1.044,2.014,0.611,3.069c-0.433,1.049-1.463,1.736-2.6,1.736h-2.813
	v8.44c0,1.556-1.258,2.813-2.813,2.813s-2.813-1.258-2.813-2.813v-8.44h-2.813c-1.137,0-2.166-0.686-2.6-1.736
	c-0.433-1.052-0.194-2.265,0.611-3.069l5.627-5.627c0.549-0.549,1.269-0.824,1.989-0.824S25.604,13.105,26.152,13.654z"/>
</svg>
