<?xml version="1.0" encoding="utf-8"?>
<!-- Generator: Adobe Illustrator 17.0.0, SVG Export Plug-In . SVG Version: 6.00 Build 0)  -->
<!DOCTYPE svg PUBLIC "-//W3C//DTD SVG 1.1//EN" "http://www.w3.org/Graphics/SVG/1.1/DTD/svg11.dtd">
<svg version="1.1" id="Layer_1" xmlns="http://www.w3.org/2000/svg" xmlns:xlink="http://www.w3.org/1999/xlink" x="0px" y="0px"
	 width="48px" height="48px" viewBox="0 0 48 48" enable-background="new 0 0 48 48" xml:space="preserve">
<path d="M24,48C10.746,48,0,37.254,0,24S10.746,0,24,0s24,10.746,24,24S37.254,48,24,48z M24,6C14.061,6,6,14.061,6,24
	s8.061,18,18,18s18-8.061,18-18S33.939,6,24,6z"/>
<g>
	<path stroke="#000000" stroke-width="3" stroke-miterlimit="10" d="M18.219,19.243c-0.805,0.012-1.425-0.59-1.436-1.395
		c-0.053-3.636,2.902-6.622,6.455-6.674c3.608-0.053,6.622,2.93,6.674,6.483c0.026,1.776-0.59,3.34-1.875,4.691l-2.109,1.974
		c-0.711,0.732-1.06,1.543-1.047,2.403c0.012,0.805-0.59,1.424-1.395,1.436c-0.805,0.012-1.425-0.59-1.437-1.395
		c-0.024-1.637,0.594-3.09,1.879-4.414l2.109-2.002c0.71-0.76,1.058-1.653,1.044-2.652c-0.03-2.054-1.748-3.722-3.802-3.692
		c-2.026,0.03-3.696,1.692-3.665,3.801C19.625,18.585,18.996,19.232,18.219,19.243z M23.986,36.826
		c-1.027,0-1.916-0.888-1.916-1.916c0-1.082,0.888-1.943,1.916-1.943c1.082,0,1.943,0.86,1.943,1.943
		C25.929,35.938,25.069,36.826,23.986,36.826z"/>
</g>
</svg>
