<?xml version="1.0" encoding="utf-8"?>
<!-- Generator: Adobe Illustrator 17.0.0, SVG Export Plug-In . SVG Version: 6.00 Build 0)  -->
<!DOCTYPE svg PUBLIC "-//W3C//DTD SVG 1.1//EN" "http://www.w3.org/Graphics/SVG/1.1/DTD/svg11.dtd">
<svg version="1.1" id="Layer_1" xmlns="http://www.w3.org/2000/svg" xmlns:xlink="http://www.w3.org/1999/xlink" x="0px" y="0px"
	 width="48px" height="48px" viewBox="0 0 48 48" enable-background="new 0 0 48 48" xml:space="preserve">
<g>
	<g>
		<path d="M32.749,14.526c0-1.06-0.623-2.361-1.384-2.891L17.758,2.163c-0.762-0.53-2.007-0.53-2.768,0L1.384,11.638
			C0.622,12.168,0,13.469,0,14.529l0.002,18.945c0,1.06,0.623,2.361,1.384,2.891l13.607,9.472c0.762,0.53,2.007,0.53,2.768,0
			l13.606-9.475c0.762-0.53,1.384-1.831,1.384-2.891L32.749,14.526z M17.76,39.487c-0.762,0.53-2.006,0.53-2.768,0L5.945,33.19
			C5.183,32.66,4.75,31.06,4.75,30L4.749,17.405c0-1.06,0.433-2.062,1.195-2.592l9.046-6.3c0.762-0.53,2.006-0.53,2.768,0
			l9.047,6.298c0.762,0.53,0.928,1.892,0.928,2.952l0.001,12.596c0,1.06-0.166,2.3-0.928,2.83L17.76,39.487z"/>
	</g>
</g>
<g>
	<path d="M48.124,14.526c0-1.06-0.627-2.361-1.392-2.891L33.05,2.164c-0.766-0.53-2.018-0.53-2.783,0L25.64,5.375l4.627,3.138l0,0
		c0.766-0.53,2.017-0.53,2.783,0l9.097,6.298c0.766,0.53,1.144,1.866,1.144,2.926l0.001,12.596c0,1.06-0.378,2.326-1.144,2.856
		l-9.095,6.299c-0.766,0.53-2.017,0.53-2.783,0l0,0l-4.565,3.188l4.565,3.16c0.766,0.53,2.018,0.53,2.783,0l13.68-9.475
		c0.766-0.53,1.392-1.831,1.392-2.891L48.124,14.526z"/>
</g>
</svg>
