<?xml version="1.0" encoding="utf-8"?>
<!-- Generator: Adobe Illustrator 17.0.0, SVG Export Plug-In . SVG Version: 6.00 Build 0)  -->
<!DOCTYPE svg PUBLIC "-//W3C//DTD SVG 1.1//EN" "http://www.w3.org/Graphics/SVG/1.1/DTD/svg11.dtd">
<svg version="1.1" id="Layer_1" xmlns="http://www.w3.org/2000/svg" xmlns:xlink="http://www.w3.org/1999/xlink" x="0px" y="0px"
	 width="48px" height="48px" viewBox="0 0 48 48" enable-background="new 0 0 48 48" xml:space="preserve">
<path d="M32.285,13.05L20.007,3.474c-1.886-1.471-4.971-1.47-6.856,0.002L0.879,13.06c-0.471,0.368-0.857,1.171-0.857,1.783
	l-0.039,18.325c0,0.613,0.386,1.415,0.858,1.783l0.695,0.542l11.583,9.034c1.886,1.471,4.971,1.47,6.856-0.002l12.273-9.584
	c0.471-0.368,0.857-1.171,0.856-1.783l0.039-18.325C33.143,14.22,32.757,13.417,32.285,13.05z M27.628,30.312
	c0,0.422-0.257,0.976-0.571,1.229l-8.179,6.606c-1.256,1.015-3.312,1.015-4.569,0.001l-7.72-6.227l-0.463-0.374
	c-0.314-0.253-0.571-0.806-0.572-1.229l0.026-12.631c0-0.422,0.257-0.976,0.571-1.229l8.179-6.606
	c1.256-1.015,3.312-1.015,4.569-0.002l8.183,6.6c0.314,0.253,0.571,0.806,0.571,1.229L27.628,30.312z"/>
<path d="M47.159,13.05L34.881,3.474c-1.886-1.471-4.971-1.47-6.856,0.002l-2.578,2.013l4.854,3.786
	c1.161-0.368,2.537-0.177,3.471,0.577l8.183,6.601c0.314,0.253,0.571,0.806,0.572,1.229l-0.026,12.631
	c0,0.422-0.257,0.976-0.571,1.229l-8.179,6.606c-0.939,0.758-2.325,0.949-3.49,0.575l-4.853,3.79l2.584,2.015
	c1.886,1.471,4.971,1.47,6.856-0.002l12.273-9.584c0.471-0.368,0.857-1.171,0.857-1.783l0.039-18.325
	C48.017,14.22,47.631,13.417,47.159,13.05z"/>
</svg>
