<?xml version="1.0" encoding="utf-8"?>
<!-- Generator: Adobe Illustrator 17.0.0, SVG Export Plug-In . SVG Version: 6.00 Build 0)  -->
<!DOCTYPE svg PUBLIC "-//W3C//DTD SVG 1.1//EN" "http://www.w3.org/Graphics/SVG/1.1/DTD/svg11.dtd">
<svg version="1.1" id="Layer_1" xmlns="http://www.w3.org/2000/svg" xmlns:xlink="http://www.w3.org/1999/xlink" x="0px" y="0px"
	 width="48px" height="48px" viewBox="0 0 48 48" enable-background="new 0 0 48 48" xml:space="preserve">
<path fill="#FFFFFF" d="M39,0c4.971,0,9,4.029,9,9v30c0,4.971-4.029,9-9,9H9c-4.971,0-9-4.029-9-9v-5.277l2.637,2.637
	C3.6,37.323,4.752,38.01,6,38.451V39c0,1.659,1.344,3,3,3h30c1.659,0,3-1.341,3-3V9c0-1.656-1.341-3-3-3H9C7.344,6,6,7.344,6,9
	v0.546c-1.245,0.441-2.397,1.125-3.363,2.088L0,14.271V9c0-4.971,4.029-9,9-9H39z M10.149,15.225C11.268,15.687,12,16.785,12,17.997
	V21h9c1.659,0,3,1.344,3,3c0,1.659-1.341,3-3,3h-9v2.997c0,1.212-0.732,2.31-1.851,2.772c-1.122,0.462-2.412,0.204-3.27-0.651l-6-6
	C0.294,25.533,0,24.765,0,23.997s0.294-1.536,0.879-2.121l6-6C7.737,15.018,9.027,14.763,10.149,15.225z"/>
</svg>
