<?xml version="1.0" encoding="utf-8"?>
<!-- Generator: Adobe Illustrator 17.0.0, SVG Export Plug-In . SVG Version: 6.00 Build 0)  -->
<!DOCTYPE svg PUBLIC "-//W3C//DTD SVG 1.1//EN" "http://www.w3.org/Graphics/SVG/1.1/DTD/svg11.dtd">
<svg version="1.1" id="Layer_1" xmlns="http://www.w3.org/2000/svg" xmlns:xlink="http://www.w3.org/1999/xlink" x="0px" y="0px"
	 width="48px" height="48px" viewBox="0 0 48 48" enable-background="new 0 0 48 48" xml:space="preserve">
<g>
	<path fill="none" d="M12,19.377v1.728l3.373,0H21c0.027,0,0.052,0.007,0.079,0.008C22.698,21.156,24,22.476,24,24.105
		c0,1.632-1.302,2.949-2.921,2.992c-0.027,0.001-0.052,0.008-0.079,0.008h-5.627l-3.373,0v1.688c0,1.212-0.732,2.31-1.851,2.772
		c-0.178,0.073-0.36,0.122-0.543,0.159c0.297,0.782,0.857,1.526,1.504,1.899l11.322,6.535c0.953,0.55,2.511,0.55,3.464,0
		l11.32-6.537c0.953-0.55,1.732-1.9,1.732-3l-0.001-13.073c0-1.1-0.779-2.45-1.732-3L25.893,8.012c-0.953-0.55-2.511-0.55-3.464,0
		L11.108,14.55c-0.646,0.373-1.205,1.114-1.503,1.895c0.184,0.038,0.366,0.086,0.544,0.16C11.268,17.067,12,18.165,12,19.377z"/>
	<path fill="#FFFFFF" d="M44.654,14.252c0-1.1-0.78-2.45-1.732-3l-17.029-9.83c-0.953-0.55-2.512-0.55-3.464,0L5.402,11.255
		c-0.953,0.55-1.732,1.9-1.732,3l0,0v1.292c0.722-0.722,5.922-5.54,9.206-2.018l0.408-0.236l9.145-5.281
		c0.953-0.55,2.511-0.55,3.464,0l11.322,6.536c0.953,0.55,1.732,1.9,1.732,3l0.001,13.073c0,1.1-0.779,2.45-1.732,3l-11.32,6.537
		c-0.953,0.55-2.511,0.55-3.464,0l-9.559-5.518l0,0c-3.268,3.068-8.48-1.171-9.203-1.89l0.002,1.167l0,0c0,1.1,0.78,2.45,1.732,3
		l17.029,9.83c0.953,0.55,2.512,0.55,3.464,0l17.027-9.833c0.953-0.55,1.732-1.9,1.732-3L44.654,14.252z"/>
	<path fill="#FFFFFF" d="M9.606,31.724c0.184-0.038,0.366-0.086,0.543-0.159C11.268,31.103,12,30.005,12,28.793v-1.688l3.373,0H21
		c0.027,0,0.052-0.007,0.079-0.008C22.698,27.055,24,25.737,24,24.105c0-1.629-1.302-2.949-2.921-2.992
		c-0.027-0.001-0.052-0.008-0.079-0.008h-5.627l-3.373,0v-1.728c0-1.212-0.732-2.31-1.851-2.772c-0.178-0.073-0.36-0.122-0.544-0.16
		c-0.976-0.2-2.004,0.089-2.726,0.811l-3.208,2.527l-2.792,2.198C0.294,22.566,0,23.334,0,24.102s0.294,1.536,0.879,2.121
		l2.792,2.183l3.208,2.508C7.601,31.633,8.629,31.924,9.606,31.724z"/>
</g>
</svg>
