<?xml version="1.0" encoding="utf-8"?>
<!-- Generator: Adobe Illustrator 17.0.0, SVG Export Plug-In . SVG Version: 6.00 Build 0)  -->
<!DOCTYPE svg PUBLIC "-//W3C//DTD SVG 1.1//EN" "http://www.w3.org/Graphics/SVG/1.1/DTD/svg11.dtd">
<svg version="1.1" id="Layer_1" xmlns="http://www.w3.org/2000/svg" xmlns:xlink="http://www.w3.org/1999/xlink" x="0px" y="0px"
	 width="48px" height="48px" viewBox="0 0 48 48" enable-background="new 0 0 48 48" xml:space="preserve">
<g>
	<path d="M24.163,36.085"/>
	<path d="M24.163,12.085"/>
	<g>
		<path d="M44.654,14.252c0-1.1-0.78-2.45-1.732-3l-17.029-9.83c-0.953-0.55-2.512-0.55-3.464,0L5.402,11.255
			c-0.953,0.55-1.732,1.9-1.732,3l0.002,19.662c0,1.1,0.78,2.45,1.732,3l17.029,9.83c0.953,0.55,2.512,0.55,3.464,0l17.027-9.833
			c0.953-0.55,1.732-1.9,1.732-3L44.654,14.252z M25.896,40.158c-0.953,0.55-2.511,0.55-3.464,0L11.11,33.623
			c-0.953-0.55-1.732-1.9-1.732-3L9.376,17.55c0-1.1,0.779-2.45,1.732-3l11.321-6.538c0.953-0.55,2.511-0.55,3.464,0l11.322,6.536
			c0.953,0.55,1.732,1.9,1.732,3l0.001,13.073c0,1.1-0.779,2.45-1.732,3L25.896,40.158z"/>
	</g>
</g>
<polygon points="24.163,15.862 25.164,17.765 26.704,16.265 27.067,18.384 28.996,17.433 28.687,19.561 30.815,19.252 29.864,21.18 
	31.983,21.544 30.482,23.084 32.385,24.085 30.482,25.086 31.983,26.626 29.864,26.99 30.815,28.918 28.687,28.609 28.996,30.737 
	27.067,29.786 26.704,31.905 25.164,30.404 24.163,32.307 23.162,30.404 21.622,31.905 21.258,29.786 19.33,30.737 19.639,28.609 
	17.511,28.918 18.462,26.99 16.343,26.626 17.843,25.086 15.94,24.085 17.843,23.084 16.343,21.544 18.462,21.18 17.511,19.252 
	19.639,19.561 19.33,17.433 21.258,18.384 21.622,16.265 23.162,17.765 "/>
</svg>
