<?xml version="1.0" encoding="utf-8"?>
<!-- Generator: Adobe Illustrator 17.0.0, SVG Export Plug-In . SVG Version: 6.00 Build 0)  -->
<!DOCTYPE svg PUBLIC "-//W3C//DTD SVG 1.1//EN" "http://www.w3.org/Graphics/SVG/1.1/DTD/svg11.dtd">
<svg version="1.1" id="Layer_1" xmlns="http://www.w3.org/2000/svg" xmlns:xlink="http://www.w3.org/1999/xlink" x="0px" y="0px"
	 width="48px" height="48px" viewBox="0 0 48 48" enable-background="new 0 0 48 48" xml:space="preserve">
<g>
	<path d="M24.163,36.085"/>
	<path d="M24.163,12.085"/>
	<g>
		<path d="M44.654,14.252c0-1.1-0.78-2.45-1.732-3l-17.029-9.83c-0.953-0.55-2.512-0.55-3.464,0L5.402,11.255
			c-0.953,0.55-1.732,1.9-1.732,3l0.002,19.662c0,1.1,0.78,2.45,1.732,3l17.029,9.83c0.953,0.55,2.512,0.55,3.464,0l17.027-9.833
			c0.953-0.55,1.732-1.9,1.732-3L44.654,14.252z M25.896,40.158c-0.953,0.55-2.511,0.55-3.464,0L11.11,33.623
			c-0.953-0.55-1.732-1.9-1.732-3L9.376,17.55c0-1.1,0.779-2.45,1.732-3l11.321-6.538c0.953-0.55,2.511-0.55,3.464,0l11.322,6.536
			c0.953,0.55,1.732,1.9,1.732,3l0.001,13.073c0,1.1-0.779,2.45-1.732,3L25.896,40.158z"/>
	</g>
</g>
<path d="M41.076,17.233c3.825,0,6.924-3.1,6.924-6.924s-3.1-6.924-6.924-6.924l0,0c-20.773,0-23.082,27.698-23.082,27.698v1.154
	c0,0.637,0.517,1.154,1.154,1.154s1.154-0.517,1.154-1.154v-1.154c0,0,0.235-3.268,2.327-5.865c0,0.035-0.018,0.06-0.018,0.095
	c0,1.911,1.551,3.462,3.462,3.462s3.462-1.551,3.462-3.462c0-0.582-0.18-1.106-0.434-1.588c0.482,0.254,1.004,0.434,1.588,0.434
	c1.911,0,3.462-1.551,3.462-3.462c0-0.582-0.18-1.106-0.434-1.588c0.482,0.254,1.004,0.434,1.588,0.434
	c1.678,0,3.01-1.214,3.326-2.797C39.393,17.04,40.208,17.233,41.076,17.233z"/>
</svg>
