<?xml version="1.0" encoding="utf-8"?>
<!-- Generator: Adobe Illustrator 17.0.0, SVG Export Plug-In . SVG Version: 6.00 Build 0)  -->
<!DOCTYPE svg PUBLIC "-//W3C//DTD SVG 1.1//EN" "http://www.w3.org/Graphics/SVG/1.1/DTD/svg11.dtd">
<svg version="1.1" id="Layer_1" xmlns="http://www.w3.org/2000/svg" xmlns:xlink="http://www.w3.org/1999/xlink" x="0px" y="0px"
	 width="48px" height="48px" viewBox="0 0 48 48" enable-background="new 0 0 48 48" xml:space="preserve">
<path fill="#FFFFFF" d="M42,39h-3v3c0,1.659-1.341,3-3,3s-3-1.341-3-3v-3h-3c-1.659,0-3-1.341-3-3s1.341-3,3-3h3v-3
	c0-1.659,1.341-3,3-3s3,1.341,3,3v3h3c1.659,0,3,1.341,3,3S43.659,39,42,39z M27.423,27.423c-1.677,0.504-3.132,1.491-4.245,2.784
	C22.464,30.075,21.738,30,21,30c-5.586,0-10.662,3.831-12,9c0,1.659,1.344,3,3,3h11.454c0.984,1.062,2.151,1.953,3.546,2.448V48H12
	c-4.971,0-9-4.032-9-9c0.927-5.502,4.629-10.125,9.336-12.729C10.281,24.114,9,21.21,9,18v-6C9,5.373,14.373,0,21,0s12,5.373,12,12
	v6c0,1.347-0.27,2.619-0.684,3.822C29.979,22.893,28.173,24.921,27.423,27.423z M27,12c0-3.312-2.688-6-6-6s-6,2.688-6,6v6
	c0,3.312,2.688,6,6,6s6-2.688,6-6V12z"/>
</svg>
