<?xml version="1.0" encoding="utf-8"?>
<!-- Generator: Adobe Illustrator 17.0.0, SVG Export Plug-In . SVG Version: 6.00 Build 0)  -->
<!DOCTYPE svg PUBLIC "-//W3C//DTD SVG 1.1//EN" "http://www.w3.org/Graphics/SVG/1.1/DTD/svg11.dtd">
<svg version="1.1" id="Layer_1" xmlns="http://www.w3.org/2000/svg" xmlns:xlink="http://www.w3.org/1999/xlink" x="0px" y="0px"
	 width="48px" height="48px" viewBox="0 0 48 48" enable-background="new 0 0 48 48" xml:space="preserve">
<path d="M27.879,32.119l-6-6C21.294,25.534,21,24.766,21,23.998c0-0.768,0.294-1.536,0.879-2.121l6-6
	c0.858-0.855,2.148-1.113,3.27-0.651C32.268,15.688,33,16.786,33,17.998v3.003h3v6h-3v2.997c0,1.212-0.732,2.31-1.851,2.772
	C30.027,33.232,28.737,32.977,27.879,32.119z M39,21.001h3v6h-3V21.001z M45,21.001h3v6h-3V21.001z M0,18.001l0,12
	c0,1.656,1.341,3,3,3h12c1.659,0,3-1.344,3-3v-12c0-1.656-1.341-3-3-3H3C1.341,15.001,0,16.345,0,18.001z M6,21.001h6v6H6V21.001z"
	/>
</svg>
