<?xml version="1.0" encoding="utf-8"?>
<!-- Generator: Adobe Illustrator 17.0.0, SVG Export Plug-In . SVG Version: 6.00 Build 0)  -->
<!DOCTYPE svg PUBLIC "-//W3C//DTD SVG 1.1//EN" "http://www.w3.org/Graphics/SVG/1.1/DTD/svg11.dtd">
<svg version="1.1" id="Layer_1" xmlns="http://www.w3.org/2000/svg" xmlns:xlink="http://www.w3.org/1999/xlink" x="0px" y="0px"
	 width="48px" height="48px" viewBox="0 0 48 48" enable-background="new 0 0 48 48" xml:space="preserve">
<path d="M37.851,32.77C36.732,32.308,36,31.21,36,29.998v-2.997h-3v-6h3v-3.003c0-1.212,0.732-2.31,1.851-2.772
	c1.122-0.462,2.412-0.204,3.27,0.651l6,6C47.706,22.462,48,23.23,48,23.998c0,0.768-0.294,1.536-0.879,2.121l-6,6
	C40.263,32.977,38.973,33.232,37.851,32.77z M30,27.001h-3v-6h3V27.001z M24,27.001h-3v-6h3V27.001z M0,18.001l0,12
	c0,1.656,1.341,3,3,3h12c1.659,0,3-1.344,3-3v-12c0-1.656-1.341-3-3-3H3C1.341,15.001,0,16.345,0,18.001z M6,21.001h6v6H6V21.001z"
	/>
</svg>
