<?xml version="1.0" encoding="utf-8"?>
<!-- Generator: Adobe Illustrator 17.0.0, SVG Export Plug-In . SVG Version: 6.00 Build 0)  -->
<!DOCTYPE svg PUBLIC "-//W3C//DTD SVG 1.1//EN" "http://www.w3.org/Graphics/SVG/1.1/DTD/svg11.dtd">
<svg version="1.1" id="Layer_1" xmlns="http://www.w3.org/2000/svg" xmlns:xlink="http://www.w3.org/1999/xlink" x="0px" y="0px"
	 width="48px" height="48px" viewBox="0 0 48 48" enable-background="new 0 0 48 48" xml:space="preserve">
<path d="M39,48H9c-1.656,0-3-1.341-3-3V24c0-1.656,1.344-3,3-3v-6C9,6.714,15.717,0,24,0c8.286,0,15,6.714,15,15v6
	c1.659,0,3,1.344,3,3v21C42,46.659,40.659,48,39,48z M33,15c0-4.971-4.032-9-9-9c-4.971,0-9,4.029-9,9v6h18V15z"/>
<path fill="#FFFFFF" d="M29.526,35.729c1.772,0.982,3.167,2.724,3.516,4.797c0,1.872-1.519,3.391-3.391,3.391h-1.562
	c0.674-0.589,1.169-1.368,1.401-2.26h0.16c0.625,0,1.13-0.505,1.13-1.13c-0.292-1.126-1.061-2.071-2.059-2.679
	c-0.527-0.913-1.236-1.736-2.099-2.402c0.131-0.223,0.244-0.455,0.342-0.694c0.901-0.298,1.555-1.137,1.555-2.137v-2.26
	c0-1.001-0.654-1.84-1.556-2.137c-0.368-0.896-0.972-1.663-1.719-2.259c0.328-0.076,0.665-0.124,1.015-0.124
	c2.497,0,4.521,2.024,4.521,4.521v2.26C30.781,33.825,30.299,34.918,29.526,35.729z M25.13,43.917h-6.781
	c-1.873,0-3.391-1.519-3.391-3.391l0,0c0.349-2.073,1.744-3.814,3.517-4.797c-0.774-0.811-1.257-1.904-1.257-3.115v-2.26
	c0-2.497,2.024-4.521,4.521-4.521s4.521,2.024,4.521,4.521v2.26c0,1.21-0.483,2.303-1.256,3.115
	c1.772,0.982,3.167,2.724,3.516,4.797l0,0C28.521,42.398,27.002,43.917,25.13,43.917z M24,32.615v-2.26
	c0-1.248-1.013-2.26-2.26-2.26c-1.248,0-2.26,1.013-2.26,2.26v2.26c0,1.248,1.013,2.26,2.26,2.26C22.987,34.875,24,33.862,24,32.615
	z M26.26,40.526c-0.504-1.947-2.418-3.391-4.521-3.391l0,0l0,0c-2.104,0-4.017,1.443-4.521,3.391l0,0c0,0.625,0.506,1.13,1.13,1.13
	h6.781C25.755,41.656,26.26,41.151,26.26,40.526L26.26,40.526z"/>
</svg>
