<?xml version="1.0" encoding="utf-8"?>
<!-- Generator: Adobe Illustrator 17.0.0, SVG Export Plug-In . SVG Version: 6.00 Build 0)  -->
<!DOCTYPE svg PUBLIC "-//W3C//DTD SVG 1.1//EN" "http://www.w3.org/Graphics/SVG/1.1/DTD/svg11.dtd">
<svg version="1.1" id="Layer_1" xmlns="http://www.w3.org/2000/svg" xmlns:xlink="http://www.w3.org/1999/xlink" x="0px" y="0px"
	 width="48px" height="48px" viewBox="0 0 48 48" enable-background="new 0 0 48 48" xml:space="preserve">
<path fill="#FFFFFF" d="M43.953,42C41.481,35.013,34.833,30,27,30v6c0,1.107-0.609,2.121-1.584,2.646
	c-0.975,0.522-2.16,0.465-3.078-0.15l-18-12C3.501,25.938,3,25.002,3,24s0.501-1.938,1.335-2.496l18-12
	c0.921-0.612,2.103-0.672,3.078-0.15S27,10.893,27,12v6c9.939,0,18,8.061,18,18C45,38.106,44.619,40.122,43.953,42z"/>
</svg>
