<?xml version="1.0" encoding="utf-8"?>
<!-- Generator: Adobe Illustrator 17.0.0, SVG Export Plug-In . SVG Version: 6.00 Build 0)  -->
<!DOCTYPE svg PUBLIC "-//W3C//DTD SVG 1.1//EN" "http://www.w3.org/Graphics/SVG/1.1/DTD/svg11.dtd">
<svg version="1.1" id="Layer_1" xmlns="http://www.w3.org/2000/svg" xmlns:xlink="http://www.w3.org/1999/xlink" x="0px" y="0px"
	 width="48px" height="48px" viewBox="0 0 48 48" enable-background="new 0 0 48 48" xml:space="preserve">
<path fill="#FFFFFF" d="M24,3c4.962,0,9,4.038,9,9c0,0.246-0.03,0.489-0.09,0.732l-2.925,11.7C29.763,27.54,27.165,30,24,30
	c-3.111,0-5.682-2.382-5.97-5.421C17.289,22.401,15,15.384,15,12C15,7.038,19.038,3,24,3z M24,33c3.309,0,6,2.691,6,6s-2.691,6-6,6
	s-6-2.691-6-6S20.691,33,24,33z"/>
</svg>
