<?xml version="1.0" encoding="utf-8"?>
<!-- Generator: Adobe Illustrator 17.0.0, SVG Export Plug-In . SVG Version: 6.00 Build 0)  -->
<!DOCTYPE svg PUBLIC "-//W3C//DTD SVG 1.1//EN" "http://www.w3.org/Graphics/SVG/1.1/DTD/svg11.dtd">
<svg version="1.1" id="Layer_1" xmlns="http://www.w3.org/2000/svg" xmlns:xlink="http://www.w3.org/1999/xlink" x="0px" y="0px"
	 width="48px" height="48px" viewBox="0 0 48 48" enable-background="new 0 0 48 48" xml:space="preserve">
<path d="M39,6c4.971,0,9,4.029,9,9v12c0,4.971-4.029,9-9,9H12v3c0,1.212-0.732,2.31-1.851,2.772
	c-1.122,0.462-2.412,0.204-3.27-0.651l-6-6C0.294,34.536,0,33.768,0,33s0.294-1.536,0.879-2.121l6-6
	c0.858-0.858,2.148-1.113,3.27-0.651C11.268,24.69,12,25.788,12,27v3h27c1.659,0,3-1.341,3-3V15c0-1.656-1.341-3-3-3h-6.75
	c-1.656,0-3-1.344-3-3s1.344-3,3-3H39z"/>
</svg>
