<?xml version="1.0" encoding="utf-8"?>
<!-- Generator: Adobe Illustrator 17.0.0, SVG Export Plug-In . SVG Version: 6.00 Build 0)  -->
<!DOCTYPE svg PUBLIC "-//W3C//DTD SVG 1.1//EN" "http://www.w3.org/Graphics/SVG/1.1/DTD/svg11.dtd">
<svg version="1.1" id="Layer_1" xmlns="http://www.w3.org/2000/svg" xmlns:xlink="http://www.w3.org/1999/xlink" x="0px" y="0px"
	 width="48px" height="48px" viewBox="0 0 48 48" enable-background="new 0 0 48 48" xml:space="preserve">
<path d="M5.282,32.488c-4.526-2.055-6.53-7.389-4.475-11.915s7.389-6.53,11.915-4.475c3.565,1.618,5.526,5.266,5.212,8.955
	l13.989,7.593c2.57-2.665,6.608-3.59,10.173-1.971c4.526,2.055,6.53,7.389,4.475,11.915c-2.055,4.526-7.389,6.53-11.915,4.475
	c-3.565-1.618-5.526-5.266-5.212-8.955l-13.986-7.592C12.884,33.181,8.847,34.106,5.282,32.488z"/>
<path d="M13.372,32.002c-4.346,2.414-9.824,0.849-12.238-3.497s-0.849-9.824,3.497-12.238c3.422-1.901,7.521-1.306,10.299,1.143
	l14.429-6.72c-0.611-3.652,1.049-7.446,4.471-9.348c4.346-2.414,9.824-0.849,12.238,3.497s0.849,9.824-3.497,12.238
	c-3.422,1.901-7.521,1.306-10.299-1.143l-14.426,6.719C18.455,26.306,16.795,30.101,13.372,32.002z"/>
</svg>
