<?xml version="1.0" encoding="utf-8"?>
<!-- Generator: Adobe Illustrator 17.0.0, SVG Export Plug-In . SVG Version: 6.00 Build 0)  -->
<!DOCTYPE svg PUBLIC "-//W3C//DTD SVG 1.1//EN" "http://www.w3.org/Graphics/SVG/1.1/DTD/svg11.dtd">
<svg version="1.1" id="Layer_1" xmlns="http://www.w3.org/2000/svg" xmlns:xlink="http://www.w3.org/1999/xlink" x="0px" y="0px"
	 width="47.679px" height="47.692px" viewBox="-5.351 0 47.679 47.692" enable-background="new -5.351 0 47.679 47.692"
	 xml:space="preserve">
<g>
	<path d="M18.488,7.809c-2.89,0-5.231,2.343-5.231,5.232c0,2.887,2.342,5.229,5.231,5.229s5.231-2.342,5.231-5.229
		C23.72,10.151,21.378,7.809,18.488,7.809z M18.488,15.831c-1.558,0-2.82-1.262-2.82-2.82c0-1.557,1.263-2.82,2.82-2.82
		s2.82,1.263,2.82,2.82C21.309,14.569,20.045,15.831,18.488,15.831z M0,0v36.978h11.633l6.855,10.715l6.855-10.715h11.633V0H0z
		 M26.16,15.881c-1.074,3.193-8.189,19.601-8.189,19.601s-6.698-17.89-7.279-19.94c-0.259-0.797-0.402-1.646-0.402-2.531
		c0-4.527,3.671-8.199,8.199-8.199c4.529,0,8.199,3.672,8.199,8.199C26.688,14.022,26.496,14.987,26.16,15.881z"/>
</g>
</svg>
