<?xml version="1.0" encoding="utf-8"?>
<!-- Generator: Adobe Illustrator 17.0.0, SVG Export Plug-In . SVG Version: 6.00 Build 0)  -->
<!DOCTYPE svg PUBLIC "-//W3C//DTD SVG 1.1//EN" "http://www.w3.org/Graphics/SVG/1.1/DTD/svg11.dtd">
<svg version="1.1" id="Layer_1" xmlns="http://www.w3.org/2000/svg" xmlns:xlink="http://www.w3.org/1999/xlink" x="0px" y="0px"
	 width="64px" height="64px" viewBox="-8 -8 64 64" enable-background="new -8 -8 64 64" xml:space="preserve">
<path d="M44,56H4c-6.628,0-12-5.376-12-12V4C-8-2.628-2.628-8,4-8h40c6.628,0,12,5.372,12,12v40C56,50.624,50.628,56,44,56z M48,4
	c0-2.208-1.788-4-4-4H4C1.788,0,0,1.792,0,4v40c0,2.212,1.788,4,4,4h40c2.212,0,4-1.788,4-4V4z M23.104,32.186
	c-1.476,0.016-2.556-1.092-2.775-2.464l-0.28-5.64c-0.272-1.676,0.681-2.857,2.308-3.079c4.42-0.608,6.44-2.003,6.413-4.496
	l-0.001-0.101c-0.025-2.289-1.768-3.595-4.719-3.563c-2.188,0.024-4.064,0.705-5.881,2.1c-0.605,0.464-1.416,0.829-2.28,0.839
	c-1.933,0.021-3.58-1.589-3.6-3.523c-0.011-0.967,0.385-1.989,1.293-2.761c2.672-2.268,6.065-3.729,10.544-3.779
	c7.327-0.079,12.353,3.633,12.427,10.4l0.001,0.101c0.069,6.461-4.38,9.156-9.913,10.335l-0.408,3.104
	c-0.189,1.325-1.245,2.507-2.721,2.523L23.104,32.186z M23.421,34.63c2.544-0.028,4.447,1.835,4.473,4.277l0.001,0.1
	c0.027,2.443-1.836,4.347-4.38,4.373c-2.544,0.027-4.447-1.836-4.473-4.279l-0.001-0.1C19.014,36.559,20.877,34.658,23.421,34.63z"
	/>
</svg>
