<?xml version="1.0" encoding="utf-8"?>
<!-- Generator: Adobe Illustrator 17.0.0, SVG Export Plug-In . SVG Version: 6.00 Build 0)  -->
<!DOCTYPE svg PUBLIC "-//W3C//DTD SVG 1.1//EN" "http://www.w3.org/Graphics/SVG/1.1/DTD/svg11.dtd">
<svg version="1.1" id="Layer_1" xmlns="http://www.w3.org/2000/svg" xmlns:xlink="http://www.w3.org/1999/xlink" x="0px" y="0px"
	 width="420.239px" height="91.784px" viewBox="0 0 420.239 91.784" enable-background="new 0 0 420.239 91.784"
	 xml:space="preserve">
<g>
	<path fill="#FFB600" d="M397.366,75.198c-14.121,0-25.656-10.84-25.656-26.751v-0.2c0-14.817,10.442-26.752,24.662-26.752
		c15.216,0,23.868,12.432,23.868,26.056c0,2.087-1.69,3.58-3.58,3.58h-37.194c1.094,11.137,8.951,17.403,18.1,17.403
		c6.366,0,11.039-2.486,14.819-5.967c0.596-0.497,1.293-0.894,2.186-0.894c1.889,0,3.38,1.491,3.38,3.281
		c0,0.896-0.398,1.79-1.193,2.486C411.885,72.115,406.119,75.198,397.366,75.198z M412.581,45.461
		c-0.794-9.347-6.166-17.502-16.408-17.502c-8.95,0-15.713,7.458-16.708,17.502H412.581z"/>
</g>
<g>
	<path fill="#EEEEEE" d="M0,48.408v-0.201C0,33.466,11.507,20.95,26.75,20.95c8.68,0,14.536,3.332,19.18,7.573
		c0.605,0.503,1.211,1.513,1.211,2.723c0,2.12-1.716,3.734-3.736,3.734c-1.008,0-1.918-0.402-2.524-0.909
		c-3.734-3.43-7.974-6.258-14.232-6.258c-10.601,0-18.675,8.987-18.675,20.19v0.202c0,11.306,8.276,20.233,19.18,20.289
		c7.105,0.037,10.7-2.723,14.537-6.359c0.504-0.505,1.211-1.008,2.22-1.008c1.918,0,3.533,1.715,3.533,3.531
		c0,0.91-0.404,1.818-1.01,2.424c-4.947,4.945-10.903,8.379-19.684,8.379C11.507,75.463,0,63.045,0,48.408z"/>
	<path fill="#EEEEEE" d="M52.943,3.948C52.943,1.824,54.665,0,56.789,0c2.226,0,3.948,1.824,3.948,3.948v27.223
		c3.441-5.665,8.905-10.221,17.914-10.221c12.65,0,20.039,8.502,20.039,20.95v29.046c0,2.228-1.721,3.948-3.846,3.948
		c-2.226,0-3.946-1.721-3.946-3.948V43.823c0-9.717-5.264-15.789-14.472-15.789c-9.008,0-15.688,6.581-15.688,16.397v26.516
		c0,2.228-1.621,3.948-3.846,3.948c-2.226,0-3.948-1.721-3.948-3.948V3.948z"/>
	<path fill="#EEEEEE" d="M104.026,59.207v-0.2c0-11.033,9.107-16.904,22.366-16.904c6.679,0,11.437,0.913,16.092,2.228v-1.823
		c0-9.411-5.77-14.27-15.587-14.27c-5.262,0-9.714,1.215-13.561,2.935c-0.507,0.203-1.012,0.305-1.416,0.305
		c-1.822,0-3.443-1.517-3.443-3.34c0-1.621,1.114-2.834,2.126-3.24c5.163-2.228,10.424-3.542,17.103-3.542
		c7.389,0,13.057,1.922,16.903,5.769c3.542,3.544,5.365,8.603,5.365,15.284v28.642c0,2.226-1.619,3.846-3.745,3.846
		c-2.226,0-3.745-1.62-3.745-3.645v-4.756c-3.644,4.756-9.716,9.007-18.926,9.007C113.844,75.502,104.026,69.935,104.026,59.207z
		 M142.584,55.16v-5.062c-3.845-1.113-9.007-2.228-15.381-2.228c-9.82,0-15.283,4.252-15.283,10.829v0.203
		c0,6.578,6.072,10.425,13.155,10.425C134.692,69.329,142.584,63.459,142.584,55.16z"/>
	<path fill="#EEEEEE" d="M186.339,28.965l-18.424-0.008v30.564c0,6.378,3.542,8.705,8.804,8.705c2.732,0,4.153-0.71,4.758-0.71
		c1.82,0,3.338,1.519,3.338,3.341c0,1.416-0.909,2.531-2.225,3.035c-2.226,0.911-4.657,1.417-7.693,1.417
		c-8.4,0-14.776-4.149-14.776-14.775V28.957h-4.25c-1.822,0-3.441-1.621-3.441-3.44c0-1.924,1.619-3.443,3.441-3.443h4.25V9.728
		c0-2.125,1.62-3.947,3.846-3.947c2.124,0,3.947,1.822,3.947,3.947v12.346h18.752"/>
	<path fill="#EEEEEE" d="M185.492,22.064V9.717c0-2.125,1.621-3.947,3.846-3.947c2.125,0,3.948,1.822,3.948,3.947v12.346h13.561
		c1.922,0,3.544,1.62,3.544,3.443c0,1.921-1.621,3.44-3.544,3.44h-13.561v30.564c0,6.378,3.54,8.705,8.804,8.705
		c2.732,0,4.149-0.71,4.756-0.71c1.822,0,3.341,1.519,3.341,3.341c0,1.416-0.911,2.531-2.228,3.035
		c-2.225,0.911-4.655,1.417-7.691,1.417c-8.4,0-14.777-4.149-14.777-14.775V28.947"/>
	<path fill="#EEEEEE" d="M205.833,90.266c-1.214-0.507-2.428-1.519-2.428-3.341c0-1.922,1.619-3.341,3.339-3.341
		c0.71,0,1.316,0.203,1.921,0.406c1.519,0.505,3.037,0.91,5.669,0.91c4.859,0,7.69-2.935,10.526-9.31l0.403-0.809l-21.859-46.354
		c-0.305-0.708-0.506-1.417-0.506-2.124c0-2.127,1.719-3.847,3.946-3.847c2.125,0,3.239,1.315,3.948,3.037l18.216,41.089
		l16.193-41.191c0.608-1.62,1.721-2.935,3.745-2.935c2.124,0,3.846,1.721,3.846,3.847c0,0.606-0.203,1.313-0.406,1.92
		l-20.444,48.783c-4.555,10.83-9.614,14.777-17.509,14.777C210.994,91.784,208.465,91.176,205.833,90.266z"/>
</g>
<path fill="#FFB600" d="M310.02,25.507c0-2.128,1.722-3.949,3.846-3.951c2.225,0.001,3.946,1.721,3.947,3.95l0.001,45.441
	c-0.001,2.226-1.62,3.948-3.847,3.948c-2.225,0.001-3.946-1.722-3.946-3.947L310.02,25.507z M257.886,70.947
	c0,2.228,1.723,3.948,3.948,3.948c2.226,0,3.846-1.721,3.846-3.948V44.431c0-9.817,6.679-16.397,15.687-16.397
	c9.209,0,14.472,6.072,14.472,15.789v27.124c0,2.228,1.721,3.948,3.947,3.948c2.125,0,3.846-1.721,3.846-3.948V41.901
	c0-12.449-7.389-20.95-20.039-20.95c-9.009,0-14.472,4.556-17.914,10.221V3.948c0-2.124-1.721-3.948-3.948-3.948
	c-2.123,0-3.846,1.824-3.846,3.948V70.947z M309.329,6.957c-0.015,2.429,1.999,4.162,4.531,4.177
	c2.631,0.016,4.665-1.693,4.679-4.122l0.008-1.315c0.015-2.53-2.002-4.162-4.632-4.178c-2.531-0.015-4.564,1.593-4.579,4.125
	L309.329,6.957z M352.811,71.859l19.735-44.533c0.203-0.504,0.406-1.211,0.406-1.921c0-2.127-1.722-3.847-3.846-3.847
	c-2.025,0-3.138,1.317-3.643,2.835l-17.206,41.089l-16.901-40.886c-0.608-1.721-1.722-3.038-3.947-3.038
	c-2.228,0-3.947,1.823-3.947,3.847c0,0.71,0.304,1.417,0.506,2.125l19.636,44.329c0.909,2.023,2.328,3.339,4.452,3.339h0.405
	C350.583,75.198,351.899,73.882,352.811,71.859z"/>
</svg>
