<?xml version="1.0" encoding="utf-8"?>
<!-- Generator: Adobe Illustrator 17.0.0, SVG Export Plug-In . SVG Version: 6.00 Build 0)  -->
<!DOCTYPE svg PUBLIC "-//W3C//DTD SVG 1.1//EN" "http://www.w3.org/Graphics/SVG/1.1/DTD/svg11.dtd">
<svg version="1.1" id="Layer_1" xmlns="http://www.w3.org/2000/svg" xmlns:xlink="http://www.w3.org/1999/xlink" x="0px" y="0px"
	 width="48px" height="48px" viewBox="-10 -14 48 48" enable-background="new -10 -14 48 48" xml:space="preserve">
<path d="M-6.596-0.661h41.143c1.893,0,3.429-1.536,3.429-3.429s-1.536-3.429-3.429-3.429H-6.596c-1.893,0-3.429,1.536-3.429,3.429
	S-8.489-0.661-6.596-0.661z M34.546,6.196H-6.596c-1.893,0-3.429,1.536-3.429,3.429s1.536,3.429,3.429,3.429h41.143
	c1.893,0,3.429-1.536,3.429-3.429S36.439,6.196,34.546,6.196z M34.546,19.911H-6.596c-1.893,0-3.429,1.536-3.429,3.429
	c0,1.893,1.536,3.429,3.429,3.429h41.143c1.893,0,3.429-1.536,3.429-3.429C37.975,21.447,36.439,19.911,34.546,19.911z"/>
</svg>
