<?xml version="1.0" encoding="utf-8"?>
<!-- Generator: Adobe Illustrator 17.0.0, SVG Export Plug-In . SVG Version: 6.00 Build 0)  -->
<!DOCTYPE svg PUBLIC "-//W3C//DTD SVG 1.1//EN" "http://www.w3.org/Graphics/SVG/1.1/DTD/svg11.dtd">
<svg version="1.1" id="Layer_1" xmlns="http://www.w3.org/2000/svg" xmlns:xlink="http://www.w3.org/1999/xlink" x="0px" y="0px"
	 width="48px" height="48px" viewBox="-9.25 -9.083 48 48" enable-background="new -9.25 -9.083 48 48" xml:space="preserve">
<path fill="#FFFFFF" d="M-5.821,4.631h41.143c1.893,0,3.429-1.536,3.429-3.429s-1.536-3.429-3.429-3.429H-5.821
	c-1.893,0-3.429,1.536-3.429,3.429S-7.714,4.631-5.821,4.631z M35.321,11.488H-5.821c-1.893,0-3.429,1.536-3.429,3.429
	s1.536,3.429,3.429,3.429h41.143c1.893,0,3.429-1.536,3.429-3.429S37.214,11.488,35.321,11.488z M35.321,25.202H-5.821
	c-1.893,0-3.429,1.536-3.429,3.429s1.536,3.429,3.429,3.429h41.143c1.893,0,3.429-1.536,3.429-3.429S37.214,25.202,35.321,25.202z"
	/>
</svg>
