<?xml version="1.0" encoding="utf-8"?>
<!-- Generator: Adobe Illustrator 17.0.0, SVG Export Plug-In . SVG Version: 6.00 Build 0)  -->
<!DOCTYPE svg PUBLIC "-//W3C//DTD SVG 1.1//EN" "http://www.w3.org/Graphics/SVG/1.1/DTD/svg11.dtd">
<svg version="1.1" id="Capa_1" xmlns="http://www.w3.org/2000/svg" xmlns:xlink="http://www.w3.org/1999/xlink" x="0px" y="0px"
	 width="503.123px" height="503.123px" viewBox="172.137 41.837 503.123 503.123"
	 enable-background="new 172.137 41.837 503.123 503.123" xml:space="preserve">
<g>
	<path d="M423.689,544.96c138.719,0,251.571-112.852,251.571-251.562S562.408,41.837,423.689,41.837
		c-138.71,0-251.552,112.852-251.552,251.562S284.979,544.96,423.689,544.96z M205.975,344.388
		c4.381,3.162,9.152,5.934,13.868,8.641l1.451,0.837c37.354,21.346,84.948,32.629,137.649,32.629
		c16.854,0,34.173-1.153,51.427-3.414c13.831-1.814,28.267-4.762,44.144-9.05c1.497-0.4,3.125-0.781,4.818-1.172
		c4.669-1.088,9.952-2.325,13.384-4.418c0.214-0.037,0.149-0.521-0.53-1.963c-2.083-4.037-4.344-8.073-6.613-12.129l-0.949-1.684
		c-8.306-14.77-17.44-28.276-27.122-40.135l-2.083-2.623c-3.534-4.539-7.199-9.218-11.571-11.599
		c-1.73-0.949-6.418,0.177-10.185,1.256c-1.814,0.53-3.544,1.005-5.013,1.274c-5.674,1.032-11.338,2.195-17.003,3.367
		c-10.083,2.083-20.528,4.232-31.01,5.571c-12.789,1.609-24.22,2.902-35.968,2.4c-23.216-0.958-47.613-7.218-76.782-19.709
		c-12.715-5.571-25.011-13.375-37.596-23.858c-0.8-0.67-1.907-1.87-3.144-3.246c-1.051-1.172-3.209-3.544-4.706-4.669
		c3.004-20.463,8.827-40.014,17.003-58.291c-1.553,6.381-3.014,12.808-4.213,19.281c-0.344,1.777-0.828,3.739-1.349,5.795
		c-1.358,5.571-3.06,12.501-2,16.9c2.018,8.483,10.622,14.519,18.203,19.84c0.874,0.577,1.525,1.079,2.232,1.637
		c0.977,0.753,3.255,2.493,4.251,2.725c1.032-1.042,2.186-7.339,2.567-9.422c0.223-1.228,0.428-2.288,0.623-3.032
		c3.637-14.584,9.45-30.452,17.263-47.129c1.767-3.73,3.469-7.46,5.19-11.199c7.208-15.654,14.668-31.847,24.165-46.888
		c12.836-20.509,29.169-40.256,52.933-64.03c0.353-0.363,0.744-0.679,1.107-1.032c11.72-4.716,23.904-8.492,36.498-11.18
		c-2.623,2.232-5.218,4.511-7.785,6.79c-2.176,1.935-4.325,3.851-6.446,5.674c-39.009,33.364-69.164,76.121-92.175,130.72
		c-5.776,13.673-12.324,29.169-16.007,44.981c-0.344,1.46-0.939,3.162-1.581,4.948c-0.949,2.66-2.26,6.316-1.953,8.129
		c0.195,1.032,3.246,2.669,9.05,4.799c1.302,0.474,2.483,0.912,3.367,1.321c11.208,5.023,23.904,8.762,37.754,11.134
		c1.256,0.195,2.651,0.512,4.083,0.809c3.088,0.688,6.26,1.414,8.762,1.079c0.595-0.353,1.163-2.344,1.432-3.302l0.474-1.563
		c2.558-7.562,5.051-15.217,7.469-22.825c2.139-6.678,4.799-13.189,7.339-19.477c1.274-3.144,2.539-6.269,3.758-9.422
		c8.994-23.579,17.142-43.316,27.615-62.979c20.695-38.451,48.562-70.699,80.623-93.264c5.274-3.72,10.315-6.985,15.208-9.887
		c8.483,1.311,16.789,3.144,24.937,5.385c-13.292,5.144-25.076,12.966-34.74,20.072c-46.711,34.182-73.712,83.209-88.129,118.312
		c-8.139,19.737-17.347,42.097-24.09,64.179c-0.577,1.963-1.414,4.102-2.279,6.288c-1.395,3.525-2.846,7.171-3.004,10.213
		c0.995-0.353,1.73-0.353,2.521-0.344c5.199,0,10.696-0.856,16.026-1.693c2.167-0.344,4.325-0.679,6.427-0.949l2.995-0.409
		c13.347-1.804,25.95-3.507,38.823-6.446c1.86-0.409,4.102-0.688,6.502-0.986c5.106-0.623,11.45-1.404,14.008-3.776
		c1.432-1.349,2.4-4.93,3.172-7.813c0.484-1.795,0.958-3.534,1.516-4.985l1.944-4.985c3.739-9.664,7.627-19.672,12.073-29.308
		c12.957-28.239,31.038-54.366,53.705-77.638c14.594-14.994,33.01-27.867,50.524-35.326c6.027-2.539,11.673-4.446,17.272-5.823
		l1.219-0.279c0.084-0.019,0.195-0.047,0.288-0.065c10.706,8.222,20.686,17.365,29.745,27.355
		c-4.204-2.949-8.325-5.664-12.268-8.027l-1.237-0.753c-2.93-1.795-5.962-3.655-8.734-3.655c-7.925,1.088-15.654,4.288-20.844,6.604
		l-1.181,0.521c-0.781,0.326-2.242,0.949-2.576,1.367c0.446,0.586,3.888,3.637,5.348,4.939c1.125,0.995,2.13,1.897,2.781,2.614
		c9.357,10.231,17.561,20.091,25.085,30.136l0.679,0.912c12.603,16.714,25.653,33.996,36.386,52.515
		c10.027,17.179,19.151,37.847,27.113,61.425c2.716,8.018,4.641,16.398,6.176,24.983c-1.693,16.11-5.134,31.689-10.073,46.599
		c-0.4-6.297-1.023-12.91-1.944-20.249c-1.777-14.398-4.055-29.699-8.501-44.051c-11.775-38.405-33.094-71.843-50.338-96.686
		c-12.194-17.514-23.876-32.08-35.698-44.516c-0.623-0.66-1.414-1.572-2.288-2.595c-2.018-2.344-6.725-7.841-9.013-7.841
		c-2.558,0.688-5.664,3.283-8.408,5.571c-1.014,0.837-1.981,1.646-2.902,2.335c-9.599,7.385-18.296,15.989-29.029,28.759
		c-0.698,0.8-1.628,1.739-2.679,2.8c-1.73,1.721-6.967,6.976-6.799,8.836c0.381,1.897,4.865,5.683,7.264,7.72
		c1.395,1.172,2.66,2.251,3.581,3.172c10.501,10.483,20.267,21.17,29.029,31.773c25.839,31.606,54.022,69.815,67.146,113.689
		c8.492,28.387,13.245,53.25,14.51,76.019l0.112,2.409c-4.418,5.664-9.097,11.106-14.036,16.314
		c0.084-6.809-0.828-14.036-1.702-20.779c-0.288-2.232-0.567-4.399-0.8-6.455c-4.744-42.609-16.575-80.195-35.168-111.708
		c-7.553-12.873-16.389-25.197-24.072-35.735c-13.347-18.314-28.108-35.066-42.079-50.422c-3.953-4.39-7.515-7.999-10.91-11.059
		c-1.032-0.912-1.925-1.702-2.297-1.823c0.177,0.074-0.688,1.488-1.06,2.093l-7.608,12.706
		c-6.902,11.534-11.896,24.379-16.733,36.805l-3.107,7.943c-0.539,1.395-1.311,3.042-2.149,4.79
		c-1.87,3.944-4.195,8.864-3.739,11.813c0.298,1.832,3.069,4.279,5.302,6.26c1.367,1.209,2.669,2.381,3.655,3.488
		c7.664,8.464,14.77,17.756,20.491,26.816c19.002,30.248,39.763,66.541,49.687,106.406c4.158,16.566,5.692,33.931,4.334,48.878
		c-0.465,5.525-1.46,10.855-3.023,16.249c-0.13,0.465-0.326,1.07-0.539,1.684c-0.26,0.772-0.753,2.195-0.651,2.66
		c0.065,0.028,0.363,0.084,0.614,0.139c-23.309,10.399-48.683,16.91-75.359,18.742c11.087-3.125,21.56-6.985,30.676-10.641
		c3.079-1.209,6.278-2.279,9.497-3.348c6.055-2.018,12.343-4.111,17.486-7.301c1.525-0.939,2.093-2.567,2.958-5.367
		c1.99-6.688,2.921-12.892,2.921-18.919l0.009-1.209c0.028-1.07,0.102-3.916-0.437-4.558c-0.419,0.093-1.367,0.363-2.13,0.577
		l-1.2,0.326c-2.279,0.577-4.595,1.125-6.911,1.665l-5.116,1.218c-14.696,3.683-29.141,6.474-42.907,8.278
		c-39.586,5.199-83.051,4.055-124.674-3.246c-14.733-2.576-27.653-5.664-39.307-9.329c-9.301-7.822-17.942-16.398-25.867-25.606
		c39.214,16.882,85.553,25.783,135.231,25.783c16.1,0,32.526-0.939,48.822-2.781c14.947-1.739,29.411-4.883,45.437-8.52
		c1.488-0.335,3.274-0.632,5.162-0.939c4.399-0.716,9.85-1.6,12.278-3.386c0.614-0.577,0.939-2.949-0.995-10.948
		c-0.223-0.893-0.4-1.684-0.549-2.344c-3.33-14.696-9.087-29.104-14.203-41.456c-0.381-0.884-0.744-1.972-1.144-3.153
		c-0.837-2.483-2.595-7.646-4.306-8.213c-0.633,0-1.702,0.372-2.539,0.679c-0.595,0.214-1.181,0.428-1.73,0.586l-1.005,0.316
		c-4.539,1.432-9.097,2.865-13.682,4.176c-14.826,4.325-31.299,7.664-50.338,10.222c-16.659,2.232-33.568,3.358-50.264,3.358
		c-34.749,0-67.508-4.762-97.338-14.138c-17.989-5.655-34.898-12.789-50.376-21.142
		C209.983,359.698,207.788,352.117,205.975,344.388z"/>
</g>
</svg>
