<?xml version="1.0" encoding="utf-8"?>
<!-- Generator: Adobe Illustrator 17.0.0, SVG Export Plug-In . SVG Version: 6.00 Build 0)  -->
<!DOCTYPE svg PUBLIC "-//W3C//DTD SVG 1.1//EN" "http://www.w3.org/Graphics/SVG/1.1/DTD/svg11.dtd">
<svg version="1.1" id="Capa_1" xmlns="http://www.w3.org/2000/svg" xmlns:xlink="http://www.w3.org/1999/xlink" x="0px" y="0px"
	 width="59.414px" height="59.42px" viewBox="2.48 1.913 59.414 59.42" enable-background="new 2.48 1.913 59.414 59.42"
	 xml:space="preserve">
<g>
	<path d="M21.321,38.625c0,0,1.192,3.068,1.572,4.25h-1.072h-1v1v0.884c-1.301,0.19-3.512,1-3.512,1.97s2.211,1.78,3.512,1.97v0.884
		v1h1h2.174v10.75H47.97v-10.75h0.812h1v-1v-0.879c1.295-0.179,3.55-0.995,3.55-1.975s-2.255-1.796-3.55-1.975v-0.879v-1h-1h-0.5
		v-4.25V16.031V9.135c0-1.861-1.509-3.37-3.37-3.37s-3.37,1.509-3.37,3.37v6.896h-13.48V5.283c0-1.861-1.509-3.37-3.37-3.37
		c-1.861,0-3.37,1.509-3.37,3.37v10.748v8.752c0,0-5.296-4.574-8.305-2.079s-1.685,4.606-1.685,4.606L21.321,38.625z M48.783,43.875
		v0.924c-0.848,0.236-1.474,1.007-1.474,1.93c0,0.924,0.626,1.694,1.474,1.93v0.924H21.821v-0.912
		c0.868-0.223,1.512-1.004,1.512-1.942s-0.644-1.719-1.512-1.942v-0.912H48.783z"/>
	<path d="M28.321,48.741c1.111,0,2.012-0.901,2.012-2.012s-0.901-2.012-2.012-2.012s-3.012,0.901-3.012,2.012
		C25.309,47.841,27.21,48.741,28.321,48.741z"/>
	<circle cx="35.321" cy="46.729" r="2.012"/>
	<path d="M42.321,48.741c1.111,0,3.012-0.901,3.012-2.012s-1.901-2.012-3.012-2.012s-2.012,0.901-2.012,2.012
		C40.309,47.841,41.21,48.741,42.321,48.741z"/>
</g>
</svg>
