<?xml version="1.0" encoding="utf-8"?>
<!-- Generator: Adobe Illustrator 17.0.0, SVG Export Plug-In . SVG Version: 6.00 Build 0)  -->
<!DOCTYPE svg PUBLIC "-//W3C//DTD SVG 1.1//EN" "http://www.w3.org/Graphics/SVG/1.1/DTD/svg11.dtd">
<svg version="1.1" id="Capa_1" xmlns="http://www.w3.org/2000/svg" xmlns:xlink="http://www.w3.org/1999/xlink" x="0px" y="0px"
	 width="60.491px" height="60.5px" viewBox="1.754 1.5 60.491 60.5" enable-background="new 1.754 1.5 60.491 60.5"
	 xml:space="preserve">
<path d="M13.597,21.194v22.083c0,4.065,3.296,7.361,7.361,7.361h22.083c4.065,0,7.361-3.296,7.361-7.361V21.194
	c0-4.065-3.296-7.361-7.361-7.361H20.958C16.893,13.833,13.597,17.129,13.597,21.194z"/>
<rect x="22.5" y="1.5" width="19" height="10.833"/>
<rect x="22.5" y="52.23" width="19" height="9.77"/>
<g>
	<path fill="#FFFFFF" d="M40.336,27.582c-0.764,0-1.389,0.625-1.389,1.389v5.558c0,0.764,0.625,1.389,1.389,1.389
		s1.389-0.625,1.389-1.389v-5.558C41.726,28.207,41.101,27.582,40.336,27.582z"/>
	<path fill="#FFFFFF" d="M23.664,27.582c-0.764,0-1.389,0.625-1.389,1.389v5.558c0,0.764,0.625,1.389,1.389,1.389
		s1.389-0.625,1.389-1.389v-5.558C25.053,28.207,24.428,27.582,23.664,27.582z"/>
	<path fill="#FFFFFF" d="M25.748,36.613c0,1.151,0.933,2.084,2.084,2.084h0.695v2.779c0,0.764,0.625,1.389,1.389,1.389
		s1.389-0.625,1.389-1.389v-2.779h1.389v2.779c0,0.764,0.625,1.389,1.389,1.389s1.389-0.625,1.389-1.389v-2.779h0.695
		c1.151,0,2.084-0.933,2.084-2.084v-7.642H25.748V36.613z"/>
	<path fill="#FFFFFF" d="M34.575,22.578l0.879-1.689c0.044-0.085,0.011-0.19-0.074-0.234c-0.085-0.044-0.19-0.011-0.234,0.074
		l-0.893,1.715c-0.699-0.27-1.459-0.419-2.253-0.419s-1.554,0.148-2.253,0.419l-0.893-1.715c-0.044-0.085-0.149-0.118-0.234-0.074
		s-0.118,0.149-0.074,0.234l0.879,1.689c-1.968,0.89-3.392,2.77-3.639,5.004h12.427C37.967,25.347,36.542,23.468,34.575,22.578z
		 M29.221,26.505c-0.556,0-1.007-0.451-1.007-1.007s0.451-1.007,1.007-1.007s1.007,0.451,1.007,1.007
		C30.228,26.054,29.778,26.505,29.221,26.505z M34.779,26.505c-0.556,0-1.007-0.451-1.007-1.007s0.451-1.007,1.007-1.007
		s1.007,0.451,1.007,1.007C35.786,26.054,35.335,26.505,34.779,26.505z"/>
</g>
</svg>
