<?xml version="1.0" encoding="utf-8"?>
<!-- Generator: Adobe Illustrator 17.0.0, SVG Export Plug-In . SVG Version: 6.00 Build 0)  -->
<!DOCTYPE svg PUBLIC "-//W3C//DTD SVG 1.1//EN" "http://www.w3.org/Graphics/SVG/1.1/DTD/svg11.dtd">
<svg version="1.1" id="Layer_1" xmlns="http://www.w3.org/2000/svg" xmlns:xlink="http://www.w3.org/1999/xlink" x="0px" y="0px"
	 width="437.333px" height="94.667px" viewBox="0 0 437.333 94.667" enable-background="new 0 0 437.333 94.667"
	 xml:space="preserve">
<g>
	<path fill="#222222" d="M1.794,49.85v-0.201c0-14.741,11.507-27.257,26.75-27.257c8.68,0,14.536,3.332,19.18,7.573
		c0.605,0.503,1.211,1.513,1.211,2.723c0,2.12-1.716,3.734-3.736,3.734c-1.008,0-1.918-0.402-2.524-0.909
		c-3.734-3.43-7.974-6.258-14.232-6.258c-10.601,0-18.675,8.987-18.675,20.19v0.202c0,11.306,8.276,20.205,19.18,20.289
		c7.925,0.061,10.7-2.723,14.537-6.359c0.504-0.505,1.211-1.008,2.22-1.008c1.918,0,3.533,1.715,3.533,3.531
		c0,0.91-0.404,1.818-1.01,2.424c-4.947,4.945-10.903,8.379-19.684,8.379C13.301,76.905,1.794,64.487,1.794,49.85z"/>
	<path fill="#222222" d="M54.737,5.39c0-2.124,1.721-3.948,3.846-3.948c2.226,0,3.948,1.824,3.948,3.948v27.223
		c3.441-5.665,8.905-10.221,17.914-10.221c12.65,0,20.039,8.502,20.039,20.95v29.046c0,2.228-1.721,3.948-3.846,3.948
		c-2.226,0-3.946-1.721-3.946-3.948V45.265c0-9.717-5.264-15.789-14.472-15.789c-9.008,0-15.688,6.581-15.688,16.397v26.516
		c0,2.228-1.621,3.948-3.846,3.948c-2.226,0-3.948-1.721-3.948-3.948V5.39z"/>
	<path fill="#222222" d="M105.821,60.648v-0.2c0-11.033,9.107-16.904,22.366-16.904c6.679,0,11.437,0.913,16.092,2.228v-1.823
		c0-9.411-5.77-14.27-15.587-14.27c-5.262,0-9.714,1.215-13.561,2.935c-0.507,0.203-1.012,0.305-1.416,0.305
		c-1.822,0-3.443-1.517-3.443-3.34c0-1.621,1.114-2.834,2.126-3.24c5.163-2.228,10.424-3.542,17.103-3.542
		c7.389,0,13.057,1.922,16.903,5.769c3.542,3.544,5.365,8.603,5.365,15.284v28.642c0,2.226-1.619,3.846-3.745,3.846
		c-2.226,0-3.745-1.62-3.745-3.645v-4.756c-3.644,4.756-9.716,9.007-18.926,9.007C115.638,76.943,105.821,71.376,105.821,60.648z
		 M144.378,56.602V51.54c-3.845-1.113-9.007-2.228-15.381-2.228c-9.82,0-15.283,4.252-15.283,10.829v0.203
		c0,6.578,6.072,10.425,13.155,10.425C136.486,70.77,144.378,64.901,144.378,56.602z"/>
	<path fill="#222222" d="M188.133,30.406l-18.424-0.008v30.564c0,6.378,3.542,8.705,8.804,8.705c2.732,0,4.153-0.71,4.758-0.71
		c1.82,0,3.338,1.519,3.338,3.341c0,1.416-0.909,2.531-2.225,3.035c-2.226,0.911-4.657,1.417-7.693,1.417
		c-8.4,0-14.776-4.149-14.776-14.775V30.399h-4.25c-1.822,0-3.441-1.621-3.441-3.44c0-1.924,1.619-3.443,3.441-3.443h4.25V11.169
		c0-2.125,1.62-3.947,3.846-3.947c2.124,0,3.947,1.822,3.947,3.947v12.346h18.752"/>
	<path fill="#222222" d="M187.286,23.505V11.159c0-2.125,1.621-3.947,3.846-3.947c2.125,0,3.948,1.822,3.948,3.947v12.346h13.561
		c1.922,0,3.544,1.62,3.544,3.443c0,1.921-1.621,3.44-3.544,3.44H195.08v30.564c0,6.378,3.54,8.705,8.804,8.705
		c2.732,0,4.149-0.71,4.756-0.71c1.822,0,3.341,1.519,3.341,3.341c0,1.416-0.911,2.531-2.228,3.035
		c-2.225,0.911-4.655,1.417-7.691,1.417c-8.4,0-14.777-4.149-14.777-14.775V30.388"/>
	<path fill="#222222" d="M207.627,91.707c-1.214-0.507-2.428-1.519-2.428-3.341c0-1.922,1.619-3.341,3.339-3.341
		c0.71,0,1.316,0.203,1.921,0.406c1.519,0.505,3.037,0.91,5.669,0.91c4.859,0,7.69-2.935,10.526-9.31l0.403-0.809L205.199,29.87
		c-0.305-0.708-0.506-1.417-0.506-2.124c0-2.127,1.719-3.847,3.946-3.847c2.125,0,3.239,1.315,3.948,3.037l18.216,41.089
		l16.193-41.191c0.608-1.62,1.721-2.935,3.745-2.935c2.124,0,3.846,1.721,3.846,3.847c0,0.606-0.203,1.313-0.406,1.92
		l-20.444,48.783c-4.555,10.83-9.614,14.777-17.509,14.777C212.788,93.225,210.26,92.617,207.627,91.707z"/>
</g>
<path fill="#FFB615" d="M311.814,26.949c0-2.128,1.722-3.949,3.846-3.951c2.225,0.001,3.946,1.721,3.947,3.95l0.001,45.441
	c-0.001,2.226-1.62,3.948-3.847,3.948c-2.225,0.001-3.946-1.722-3.946-3.947L311.814,26.949z M259.68,72.389
	c0,2.228,1.724,3.948,3.948,3.948c2.226,0,3.846-1.721,3.846-3.948V45.873c0-9.817,6.679-16.397,15.687-16.397
	c9.209,0,14.472,6.072,14.472,15.789v27.124c0,2.228,1.721,3.948,3.947,3.948c2.125,0,3.846-1.721,3.846-3.948V43.343
	c0-12.449-7.389-20.95-20.039-20.95c-9.009,0-14.472,4.556-17.914,10.221V5.39c0-2.124-1.721-3.948-3.948-3.948
	c-2.123,0-3.846,1.824-3.846,3.948V72.389z M311.123,8.399c-0.015,2.429,1.999,4.162,4.531,4.177
	c2.631,0.016,4.665-1.693,4.679-4.122l0.008-1.315c0.015-2.53-2.002-4.162-4.632-4.178c-2.531-0.015-4.564,1.593-4.579,4.125
	L311.123,8.399z M353.938,73.3l19.735-44.533c0.203-0.504,0.406-1.211,0.406-1.921c0-2.127-1.722-3.847-3.846-3.847
	c-2.025,0-3.138,1.317-3.643,2.835l-17.206,41.089l-16.901-40.886c-0.608-1.721-1.722-3.038-3.947-3.038
	c-2.228,0-3.947,1.823-3.947,3.847c0,0.71,0.304,1.417,0.506,2.125L344.729,73.3c0.909,2.023,2.328,3.339,4.452,3.339h0.405
	C351.711,76.64,353.027,75.323,353.938,73.3z"/>
<path fill="#FFB615" d="M432.367,47.596c-1.807,0.593-1.017,2.191-0.649,3.589c2.146,8.144-0.562,15.486-5.393,20.782
	c-1.491,1.634-3.018,2.886-5.197,4.166c-1.385,0.814-3.068,1.415-2.277,3.025c0.757,1.539,2.55,0.595,4.061-0.312
	c5.363-3.219,8.741-7.679,10.644-12.081c1.768-4.094,2.577-8.32,1.924-13.23c-0.197-1.49-0.417-3.938-1.303-5.255
	C433.759,47.658,433.051,47.372,432.367,47.596z M425.129,51.173c-0.122,0.479,0.188,1.058,0.335,1.619
	c1.698,6.468-0.942,13.148-6.009,16.871c-1.279,0.94-3.866,1.692-3.083,3.488c0.883,2.025,3.397,0.121,4.855-0.965
	c3.124-2.328,5.01-4.99,6.232-7.784c2.643-6.04,0.697-13.478,0.683-13.498C427.41,49.715,425.454,49.898,425.129,51.173z
	 M420.264,52.599c-1.471,0.43-1.181,1.51-1.004,2.563c0.591,3.515-0.771,6.945-3.428,9.099c-0.443,0.359-1.115,0.625-1.6,1.117
	c-0.381,0.385-0.508,1.303-0.382,1.655c0.943,2.632,4.263-0.342,5.4-1.581c1.955-2.135,2.99-4.629,3.309-7.291
	c0.163-1.37,0.168-3.066-0.322-4.489c-0.13-0.378-0.225-0.425-0.264-0.477C421.655,52.761,420.922,52.407,420.264,52.599z
	 M370.583,55.273l11.604,18.204c1.231,1.92,4.022,3.31,6.189,3.094l19.696-1.991c1.086-0.109,3.448-0.476,2.755-1.577
	c-1.213-1.927-12.74-20.614-14.47-23.205l0,0l0,0c1.815-0.195,23.623-2.41,25.577-2.621c2.16-0.232-0.607-4.253-0.223-3.655
	L410.53,26.117c-1.232-1.924-4.022-3.31-6.188-3.093l-19.703,1.992c-2.173,0.22-4.719,2.145-5.653,4.282l-8.523,19.398
	C369.53,50.838,369.352,53.354,370.583,55.273"/>
</svg>
