<?xml version="1.0" encoding="utf-8"?>
<!-- Generator: Adobe Illustrator 17.0.0, SVG Export Plug-In . SVG Version: 6.00 Build 0)  -->
<!DOCTYPE svg PUBLIC "-//W3C//DTD SVG 1.1//EN" "http://www.w3.org/Graphics/SVG/1.1/DTD/svg11.dtd">
<svg version="1.1" id="Layer_1" xmlns="http://www.w3.org/2000/svg" xmlns:xlink="http://www.w3.org/1999/xlink" x="0px" y="0px"
	 width="504.332px" height="504.34px" viewBox="171.245 26.153 504.332 504.34"
	 enable-background="new 171.245 26.153 504.332 504.34" xml:space="preserve">
<g>
	<path d="M668.73,308.978c-9.087-9.087-23.802-9.087-32.88,0l-29.597,29.597l-25.197-25.197
		c15.663-21.179,24.258-46.636,24.258-73.461c0-33.131-12.91-64.272-36.331-87.692c-23.421-23.43-54.561-36.321-87.692-36.321
		c-20.519,0-40.265,4.967-57.891,14.305c-17.635-9.329-37.372-14.305-57.891-14.305c-33.131,0-64.272,12.901-87.692,36.321
		c-43.865,43.865-47.79,112.629-12.064,161.135l-25.216,25.216l-29.597-29.597c-9.087-9.087-23.802-9.087-32.88,0
		s-9.087,23.802,0,32.88l29.597,29.597l-29.597,29.597c-9.087,9.087-9.087,23.802,0,32.88c4.539,4.539,10.492,6.809,16.445,6.809
		s11.896-2.27,16.445-6.809l29.597-29.597l29.597,29.597c4.539,4.539,10.492,6.809,16.445,6.809s11.896-2.27,16.445-6.809
		c9.087-9.087,9.087-23.802,0-32.88l-29.597-29.597l26.416-26.416c19.514,12.24,42.06,18.9,65.667,18.9
		c20.519,0,40.265-4.967,57.891-14.305c17.635,9.329,37.372,14.305,57.891,14.305c23.607,0,46.143-6.66,65.667-18.9l26.416,26.416
		l-29.597,29.597c-9.087,9.087-9.087,23.802,0,32.88c4.539,4.539,10.492,6.809,16.445,6.809s11.896-2.27,16.445-6.809l29.597-29.597
		l29.597,29.597c4.539,4.539,10.492,6.809,16.445,6.809s11.896-2.27,16.445-6.809c9.087-9.087,9.087-23.802,0-32.88l-29.597-29.597
		l29.597-29.597C677.808,332.771,677.808,318.056,668.73,308.978z M423.391,291.315c-25.997-29.262-25.997-73.545,0-102.797
		C449.388,217.779,449.388,262.053,423.391,291.315z M365.5,317.433c-20.705,0-40.163-8.064-54.812-22.695
		c-30.22-30.229-30.22-79.405,0-109.625c14.64-14.631,34.108-22.695,54.812-22.695c5.981,0,11.831,0.753,17.514,2.056
		c-34.089,44.358-34.089,106.546,0,150.903C377.331,316.68,371.481,317.433,365.5,317.433z M463.768,315.378
		c34.089-44.358,34.089-106.555,0-150.903c5.683-1.311,11.534-2.056,17.514-2.056c20.705,0,40.163,8.064,54.812,22.695
		c14.64,14.64,22.704,34.108,22.704,54.812c0,20.714-8.064,40.172-22.704,54.822c-14.64,14.631-34.108,22.695-54.812,22.695
		C475.311,317.433,469.46,316.68,463.768,315.378z"/>
</g>
</svg>
