<?xml version="1.0" encoding="utf-8"?>
<!-- Generator: Adobe Illustrator 17.0.0, SVG Export Plug-In . SVG Version: 6.00 Build 0)  -->
<!DOCTYPE svg PUBLIC "-//W3C//DTD SVG 1.1//EN" "http://www.w3.org/Graphics/SVG/1.1/DTD/svg11.dtd">
<svg version="1.1" id="Capa_1" xmlns="http://www.w3.org/2000/svg" xmlns:xlink="http://www.w3.org/1999/xlink" x="0px" y="0px"
	 width="20.004px" height="20.013px" viewBox="0 -3.908 20.004 20.013" enable-background="new 0 -3.908 20.004 20.013"
	 xml:space="preserve">
<path d="M20.004,1.947C20.004,0.871,15.525,0,10.002,0C4.477,0,0,0.871,0,1.947c0,0.057,0,8.243,0,8.301
	c0,1.076,4.477,1.949,10.002,1.949c5.523,0,10.002-0.873,10.002-1.949C20.004,10.19,20.004,2.004,20.004,1.947z M18.421,3.758
	c0.172-0.041,0.259-0.064,0.435-0.109v0.596c-0.176,0.045-0.263,0.068-0.435,0.109V3.758z M1.071,3.611
	c0.178,0.045,0.266,0.07,0.44,0.111v0.596c-0.174-0.041-0.262-0.064-0.44-0.111C1.071,4.207,1.071,3.611,1.071,3.611z M1.738,10.418
	c-0.353-0.086-0.532-0.131-0.904-0.228V8.418c0,0,0.058-0.506,0.455-0.405C1.685,8.115,1.738,8.65,1.738,8.65V10.418z M1.738,7.278
	C1.385,7.19,1.206,7.146,0.834,7.049V5.277c0,0,0.058-0.508,0.455-0.406c0.396,0.102,0.449,0.637,0.449,0.637V7.278z M4.145,10.908
	c-0.362-0.056-0.538-0.086-0.885-0.154V8.981c0,0,0.047-0.512,0.435-0.442c0.389,0.065,0.45,0.601,0.45,0.601V10.908z M4.145,7.767
	C3.783,7.711,3.607,7.683,3.26,7.615V5.842c0,0,0.047-0.512,0.435-0.443c0.389,0.068,0.45,0.598,0.45,0.598V7.767z M3.484,4.752
	V4.156C3.655,4.188,3.739,4.203,3.915,4.23v0.596C3.739,4.799,3.655,4.785,3.484,4.752z M6.959,11.188
	c-0.484-0.023-0.712-0.041-1.127-0.076V9.338c0,0,0.042-0.514,0.538-0.479C6.866,8.892,6.959,9.42,6.959,9.42
	S6.959,11.188,6.959,11.188z M6.959,8.047C6.475,8.021,6.248,8.008,5.833,7.972V6.199c0,0,0.042-0.516,0.538-0.482
	C6.867,5.752,6.96,6.276,6.96,6.276L6.959,8.047L6.959,8.047z M6.104,5.09V4.492C6.316,4.51,6.426,4.518,6.655,4.533v0.594
	C6.426,5.113,6.316,5.105,6.104,5.09z M10.615,11.26c-0.548,0.007-0.828,0.007-1.375-0.002V9.485c0,0,0.077-0.52,0.682-0.518
	c0.604,0.002,0.693,0.52,0.693,0.52V11.26z M10.615,8.121C10.066,8.123,9.787,8.123,9.24,8.119V6.346c0,0,0.077-0.52,0.682-0.518
	c0.604,0.002,0.693,0.52,0.693,0.52V8.121z M9.591,5.217V4.623c0.266,0,0.402,0,0.669,0v0.596C9.994,5.219,9.857,5.219,9.591,5.217z
	 M14.073,11.123c-0.429,0.037-0.662,0.051-1.155,0.076V9.426c0,0,0.086-0.522,0.594-0.557c0.51-0.031,0.562,0.483,0.562,0.483v1.771
	H14.073z M14.073,7.983c-0.429,0.033-0.662,0.052-1.155,0.074v-1.77c0,0,0.086-0.525,0.594-0.559
	c0.51-0.033,0.562,0.484,0.562,0.484v1.771H14.073z M13.229,5.139V4.541c0.232-0.012,0.347-0.018,0.563-0.033v0.596
	C13.575,5.117,13.461,5.127,13.229,5.139z M16.674,10.778c-0.351,0.066-0.525,0.099-0.892,0.15v-1.77c0,0,0.055-0.527,0.446-0.593
	c0.392-0.067,0.445,0.441,0.445,0.441v1.772H16.674z M16.674,7.642c-0.351,0.063-0.525,0.094-0.892,0.147V6.018
	c0,0,0.055-0.527,0.446-0.594c0.392-0.066,0.445,0.443,0.445,0.443v1.775H16.674z M16.016,4.85V4.256
	c0.176-0.029,0.262-0.045,0.433-0.076v0.598C16.275,4.809,16.189,4.822,16.016,4.85z M10.002,3.564
	c-4.581,0-8.293-0.723-8.293-1.617c0-0.891,3.712-1.615,8.293-1.615c4.582,0,8.293,0.725,8.293,1.615
	C18.295,2.842,14.583,3.564,10.002,3.564z M19.092,10.229c-0.369,0.098-0.546,0.141-0.898,0.225V8.683c0,0,0.048-0.531,0.441-0.634
	c0.393-0.098,0.458,0.408,0.458,0.408L19.092,10.229L19.092,10.229z M19.092,7.088c-0.369,0.097-0.546,0.142-0.898,0.226V5.541
	c0,0,0.048-0.533,0.441-0.631c0.393-0.1,0.458,0.406,0.458,0.406L19.092,7.088L19.092,7.088z"/>
</svg>
