<?xml version="1.0" encoding="utf-8"?>
<!-- Generator: Adobe Illustrator 17.0.0, SVG Export Plug-In . SVG Version: 6.00 Build 0)  -->
<!DOCTYPE svg PUBLIC "-//W3C//DTD SVG 1.1//EN" "http://www.w3.org/Graphics/SVG/1.1/DTD/svg11.dtd">
<svg version="1.1" id="Capa_1" xmlns="http://www.w3.org/2000/svg" xmlns:xlink="http://www.w3.org/1999/xlink" x="0px" y="0px"
	 width="555.364px" height="555.364px" viewBox="156.585 13.341 555.364 555.364"
	 enable-background="new 156.585 13.341 555.364 555.364" xml:space="preserve">
<g>
	<path d="M184.899,249.259c-10.257,25.826-15.674,53.602-15.674,82.226c0,59.462,23.156,115.362,65.201,157.41
		c42.045,42.045,97.947,65.201,157.41,65.201c28.624,0,56.406-5.417,82.232-15.674c35.782,18.177,68.549,28.204,95.147,28.204
		c21.695,0,39.086-6.39,51.691-18.998c22.043-22.043,20.888-55.037,16.037-78.833c-4.664-22.883-15.075-49.444-30.386-77.75
		c18.022-64.579,6.009-135.087-34.946-190.862c-0.116-0.158-0.223-0.318-0.339-0.473c-1.902-2.583-3.89-5.125-5.914-7.643
		c-0.363-0.449-0.705-0.911-1.074-1.36c-1.881-2.301-3.846-4.557-5.834-6.798c-0.509-0.574-0.991-1.164-1.506-1.732
		c-2.488-2.747-5.048-5.45-7.697-8.099c-2.527-2.527-5.11-4.977-7.733-7.367c-1.554-1.411-3.149-2.753-4.735-4.113
		c-1.045-0.899-2.072-1.825-3.128-2.703c-2.274-1.881-4.587-3.694-6.917-5.471c-0.351-0.268-0.693-0.551-1.045-0.816
		c-38.381-29.005-84.902-44.732-133.852-44.732c-1.786,0-3.557,0.089-5.334,0.131c-0.226,0.006-0.452,0.009-0.679,0.015
		c-3.092,0.08-6.182,0.223-9.271,0.432c-0.211,0.015-0.42,0.033-0.631,0.048c-14.808,1.039-29.32,3.524-43.393,7.39
		c-31.693-17.189-70.782-33.464-105.156-33.464c-21.686,0-39.074,6.387-51.676,18.989c-18.751,18.751-33.22,57.739,4.349,136.986
		C181.589,242.66,183.217,245.952,184.899,249.259z M190.426,117.145c8.742-8.742,21.368-12.891,36.943-12.888
		c21.251,0.003,48.009,7.762,77.836,22.07c0.033,0.015,0.065,0.033,0.098,0.048c-2.208,0.932-4.417,1.863-6.602,2.869
		c-0.015-0.003-0.03-0.009-0.048-0.012c-9.932-2.649-19.094-4.033-27.273-4.033c-12.989,0-23.522,3.459-30.815,10.751
		c-9.292,9.292-11.944,23.505-9.024,41.155c1.217,7.367,3.414,15.334,6.521,23.808c16.814,45.878,60.213,106.421,119.068,165.279
		c58.846,58.846,119.392,102.26,165.268,119.08c8.468,3.104,16.436,5.307,23.799,6.527c4.497,0.744,8.786,1.152,12.81,1.152
		c11.781,0,21.433-3.262,28.362-10.194c11.861-11.861,13.522-32.339,6.709-57.977c1.018-2.188,2.039-4.372,2.979-6.584
		c24.77,51.661,29.779,94.039,9.114,114.704c-8.748,8.748-21.374,12.894-36.961,12.894c-19.579,0-43.813-6.563-70.826-18.778
		c-7.596-3.435-15.409-7.31-23.403-11.62c-46.932-25.308-100.016-65.371-150.85-116.205
		c-50.849-50.849-90.887-103.933-116.193-150.874c-4.313-8.004-8.176-15.811-11.611-23.415
		C174.413,176.408,170.701,136.87,190.426,117.145z"/>
	<path d="M542.096,105.29l28.416,11.54l6.983,30.937c1.816,8.051,7.703,13.254,15.001,13.254c3.045,0,7.62-0.946,12.096-5.456
		l21.493-21.635l30.49,0.661l0.497,0.006c6.563,0,11.864-2.878,14.552-7.896c2.703-5.051,2.134-11.123-1.557-16.665L652.545,83.74
		l13.724-28.559c2.676-5.572,2.61-11.316-0.182-15.757c-3.307-5.262-9.733-7.664-16.948-6.182l-30.059,6.191l-23.895-19.71
		c-3.414-2.816-7.253-4.304-11.099-4.304c-7.84,0-14.013,6.105-15.013,14.843l-3.527,30.773L539.611,77.44
		c-5.712,3.613-8.691,8.998-8.173,14.772C531.95,97.98,535.837,102.751,542.096,105.29z"/>
	<path d="M705.289,225.269l-13.837-9.114l-1.601-16.662c-0.726-7.575-6.143-12.864-13.174-12.864c-3.212,0-6.375,1.167-9.155,3.375
		l-13.108,10.414l-16.168-3.64c-6.018-1.357-11.665,0.738-14.698,5.307c-2.506,3.78-2.813,8.62-0.842,13.287l6.372,15.084
		l-9.084,14.379c-2.92,4.622-3.238,9.974-0.848,14.311c2.39,4.334,7.075,6.923,12.593,6.923l16.656-0.057l11.522,12.031
		c2.899,3.027,6.563,4.691,10.316,4.691c6.378,0,11.584-4.604,12.959-11.462l3.289-16.418l15.849-5.563
		c5.346-1.875,8.905-5.997,9.524-11.025C712.477,233.243,710.022,228.385,705.289,225.269z"/>
	<path d="M705.84,354.087l-10.408-6.855l-1.203-12.534c-0.545-5.697-4.619-9.676-9.908-9.676c-2.414,0-4.795,0.878-6.887,2.539
		l-9.861,7.834l-12.162-2.738c-4.527-1.021-8.774,0.557-11.054,3.991c-1.884,2.842-2.116,6.486-0.634,9.995l4.792,11.349
		l-6.834,10.816c-2.197,3.476-2.435,7.501-0.637,10.766c1.798,3.259,5.322,5.206,9.474,5.206l12.531-0.042l8.667,9.051
		c2.179,2.277,4.935,3.53,7.759,3.53c4.798,0,8.715-3.465,9.748-8.623l2.473-12.349l11.921-4.185c4.021-1.411,6.7-4.512,7.164-8.292
		C711.245,360.088,709.4,356.43,705.84,354.087z"/>
</g>
</svg>
