<?xml version="1.0" encoding="utf-8"?>
<!-- Generator: Adobe Illustrator 17.0.0, SVG Export Plug-In . SVG Version: 6.00 Build 0)  -->
<!DOCTYPE svg PUBLIC "-//W3C//DTD SVG 1.1//EN" "http://www.w3.org/Graphics/SVG/1.1/DTD/svg11.dtd">
<svg version="1.1" id="Layer_1" xmlns="http://www.w3.org/2000/svg" xmlns:xlink="http://www.w3.org/1999/xlink" x="0px" y="0px"
	 width="544.495px" height="544.507px" viewBox="151.72 25.132 544.495 544.507"
	 enable-background="new 151.72 25.132 544.495 544.507" xml:space="preserve">
<g>
	<path d="M480.082,167.423h-0.121c0,0-16.147-18.184-30.248-5.041s-1.758,43.325,30.248,56.468l0.121,0.019
		c32.006-13.143,44.339-43.344,30.248-56.486C496.239,149.241,480.082,167.423,480.082,167.423z"/>
	<path d="M618.411,286.469c-21.17-78.317-108.601-29.606-108.601-29.606l-43.195-9.822l22.983,43.967
		c-8.911,50.459,21.207,84.297,21.207,84.297c15.514,19.384,36.591,30.499,58.97,36.479v25.374h9.301v-23.169
		c6.176,1.256,12.399,2.13,18.602,2.744v20.426h9.301v-19.7c46.804,2.576,89.236-9.85,89.236-9.85
		C652.453,400.94,636.12,363.232,618.411,286.469z M535.081,280.777c-5.925,0.037-10.752-4.744-10.789-10.669
		c-0.037-5.925,4.744-10.752,10.669-10.789s10.752,4.744,10.789,10.669C545.777,275.912,541.006,280.74,535.081,280.777z"/>
	<path d="M318.631,437.159h9.301v-25.588c22.5-7.813,43.195-20.007,59.072-38.563c0,0,37.8-39.716,25.755-98.165l28.592-51.371
		l-54.784,12.027c0,0-111.866-55.296-137.668,35.921c-21.421,89.357-41.642,133.361-97.179,141.732c0,0,70.513,18.035,139.007,7.488
		v16.519h9.301v-18.147c6.269-1.218,12.482-2.707,18.603-4.483V437.159z M361.361,241.74c7.004-0.037,12.715,5.599,12.752,12.603
		c0.037,7.004-5.599,12.715-12.603,12.752c-7.004,0.037-12.715-5.599-12.752-12.603C348.721,247.488,354.367,241.786,361.361,241.74
		z"/>
</g>
</svg>
