<?xml version="1.0" encoding="utf-8"?>
<!-- Generator: Adobe Illustrator 17.0.0, SVG Export Plug-In . SVG Version: 6.00 Build 0)  -->
<!DOCTYPE svg PUBLIC "-//W3C//DTD SVG 1.1//EN" "http://www.w3.org/Graphics/SVG/1.1/DTD/svg11.dtd">
<svg version="1.1" id="Capa_1" xmlns="http://www.w3.org/2000/svg" xmlns:xlink="http://www.w3.org/1999/xlink" x="0px" y="0px"
	 width="487.105px" height="487.111px" viewBox="154.363 81.089 487.105 487.111"
	 enable-background="new 154.363 81.089 487.105 487.111" xml:space="preserve">
<g>
	<path d="M623.266,197.931c0-64.43-52.413-116.842-116.842-116.842c-64.42,0-116.833,52.413-116.833,116.842
		c0,64.42,52.413,116.833,116.833,116.833C570.853,314.764,623.266,262.351,623.266,197.931z M588.47,137.221
		c2.344,3.153,4.483,6.464,6.455,9.878c-1.302,4.195-3.33,10.362-6.241,17.914l-9.171-3.534c4.781-12.389,7.143-20.956,7.571-22.546
		L588.47,137.221z M564.435,113.968c2.818,1.953,5.525,4.046,8.12,6.26c-1.172,3.99-3.441,11.18-6.995,20.416l-9.171-3.534
		c4.781-12.389,7.143-20.946,7.553-22.537L564.435,113.968z M419.02,250.631c14.538-3.376,54.17-15.384,83.637-50.431
		c29.81-35.438,45.027-77.731,49.938-93.292c3.004,1.535,5.925,3.2,8.743,5.013c-5.646,17.607-21.086,58.849-51.157,94.603
		c-29.457,35.038-67.369,48.273-85.246,52.822C422.815,256.547,420.833,253.645,419.02,250.631z M555.525,163.879
		c-3.702,7.72-7.72,15.254-11.896,22.36l-8.464-4.985c4.046-6.874,7.925-14.156,11.506-21.635L555.525,163.879z M529.732,207.483
		c-3.209,4.427-6.585,8.743-10.008,12.817c-2.037,2.409-4.093,4.716-6.204,6.929l-7.106-6.781c1.953-2.065,3.897-4.223,5.776-6.464
		c3.293-3.907,6.502-8.036,9.59-12.278L529.732,207.483z M494.341,244.307c-6.734,5.06-14.017,9.701-21.625,13.784l-4.651-8.659
		c7.19-3.851,14.036-8.213,20.37-12.975L494.341,244.307z M428.972,264.332c4.083-0.949,9.971-2.53,16.993-5.069l3.339,9.236
		c-4.716,1.702-8.948,2.995-12.529,3.99C434.032,269.913,431.428,267.197,428.972,264.332z M439.966,275.336
		c11.757-2.437,54.756-13.598,86.204-50.999c36.08-42.888,50.757-95.691,51.715-99.244c2.744,2.688,5.33,5.525,7.757,8.511
		c-4.958,16.007-20.444,59.602-51.947,97.059c-28.508,33.912-65.034,47.436-83.553,52.394
		C446.579,280.693,443.194,278.107,439.966,275.336z M578.648,188.257c-3.702,7.729-7.701,15.254-11.896,22.37l-8.464-4.985
		c4.055-6.874,7.925-14.147,11.506-21.635L578.648,188.257z M552.865,231.862c-3.209,4.437-6.576,8.743-9.999,12.817
		c-2.037,2.409-4.102,4.716-6.204,6.929l-7.125-6.771c1.972-2.065,3.897-4.223,5.804-6.483c3.274-3.897,6.492-8.018,9.571-12.259
		L552.865,231.862z M517.455,268.685c-6.725,5.069-14.008,9.711-21.625,13.784l-4.632-8.659c7.181-3.841,14.036-8.204,20.36-12.975
		L517.455,268.685z M457.285,287.39c3.367-0.921,7.348-2.139,11.813-3.748l3.339,9.245c-0.66,0.242-1.228,0.409-1.87,0.623
		C465.972,291.78,461.536,289.734,457.285,287.39z M489.505,298.598c-6.241-1.042-12.306-2.642-18.11-4.762
		c10.873-2.651,54.264-15.301,84.66-54.496c23.365-30.099,36.628-64.318,42.99-84.316c2.186,4.688,4.018,9.58,5.478,14.622
		c-7.525,20.835-20.379,49.52-40.702,75.712C539.815,276.303,509.009,291.538,489.505,298.598z"/>
	<path d="M362.505,430.453l15.673,9.394l33.159,53.715c6.818-6.595,18.156-19.3,24.806-36.117l-23.858-38.656l-2.465-18.277
		c7.729-9.208,9.18-22.593,2.53-33.373L259.67,119.856c-8.297-13.459-25.95-17.635-39.4-9.32l-34.117,21.058
		c-13.45,8.306-17.617,25.95-9.32,39.409l152.68,247.283C336.555,429.69,350.283,434.322,362.505,430.453z"/>
	<path d="M424.507,514.889l6.055,9.822c5.981-5.469,18.026-17.84,25.578-34.87l-1.395-2.27
		C444.17,501.244,431.707,510.332,424.507,514.889z"/>
	<path d="M417.494,503.533l0.967,1.581c7.013-4.493,19.858-13.98,29.764-28.099l-4.79-7.748
		C435.297,485.739,423.912,497.645,417.494,503.533z"/>
	<path d="M452.383,560.047c4.976,8.064,15.561,10.576,23.634,5.59l4.865-3.004c8.083-4.985,10.585-15.57,5.609-23.644
		l-23.235-37.624c-9.041,16.919-21.17,28.583-26.564,33.261L452.383,560.047z"/>
</g>
</svg>
