<?xml version="1.0" encoding="utf-8"?>
<!-- Generator: Adobe Illustrator 16.0.0, SVG Export Plug-In . SVG Version: 6.00 Build 0)  -->
<!DOCTYPE svg PUBLIC "-//W3C//DTD SVG 1.1//EN" "http://www.w3.org/Graphics/SVG/1.1/DTD/svg11.dtd">
<svg version="1.1" id="Layer_1" xmlns="http://www.w3.org/2000/svg" xmlns:xlink="http://www.w3.org/1999/xlink" x="0px" y="0px"
	 width="50px" height="50px" viewBox="0 0 50 50" enable-background="new 0 0 50 50" xml:space="preserve">
<path d="M13.267,8.143v40.31c-2.445-0.222-4.365-2.253-4.365-4.755V12.899C8.901,10.396,10.823,8.365,13.267,8.143z M14.098,48.499
	h0.435v-40.4h-0.435V48.499z M32.997,8.099h1.067v40.4h-0.768V49.5h-2.198v-1.001H18.9V49.5h-2.2v-1.001h-0.768v-40.4H17V1.7
	c0-0.662,0.536-1.2,1.199-1.2h13.599c0.663,0,1.199,0.538,1.199,1.2V8.099z M29.051,18.736c1.041,0,1.883-0.843,1.883-1.884
	s-0.842-1.884-1.883-1.884c-1.042,0-1.885,0.843-1.885,1.884S28.009,18.736,29.051,18.736z M26.275,16.969l-3.769,1.483l2.104,5.347
	l3.769-1.483L26.275,16.969z M19.401,8.099h11.194V2.899H19.401V8.099z M18.952,21.842l2.3,0.512l0.513-2.298l-2.3-0.513
	L18.952,21.842z M20.123,26.693c0,1.533,0.863,2.778,1.929,2.778c1.067,0,1.93-1.245,1.93-2.778c0-1.535-0.862-2.779-1.93-2.779
	C20.986,23.914,20.123,25.159,20.123,26.693z M26.198,31.592H20.83v1.789h5.368V31.592z M31.048,26.176h-5.369v1.789h5.369V26.176z
	 M35.468,48.499h0.435v-40.4h-0.435V48.499z M36.733,8.143v40.31c2.444-0.222,4.365-2.253,4.365-4.755V12.899
	C41.099,10.396,39.178,8.365,36.733,8.143z"/>
</svg>
