<?xml version="1.0" encoding="iso-8859-1"?>
<!-- Generator: Adobe Illustrator 17.1.0, SVG Export Plug-In . SVG Version: 6.00 Build 0)  -->
<!DOCTYPE svg PUBLIC "-//W3C//DTD SVG 1.1//EN" "http://www.w3.org/Graphics/SVG/1.1/DTD/svg11.dtd">
<svg version="1.1" xmlns="http://www.w3.org/2000/svg" xmlns:xlink="http://www.w3.org/1999/xlink" x="0px" y="0px"
	 viewBox="0 0 64 64" style="enable-background:new 0 0 64 64;" xml:space="preserve">
<g id="imagenes">
</g>
<g id="iconos">
	<path d="M44.078,39.159c1.359,0.245,2.915-1.133,3.556-3.225c0.313-1.022,0.342-2.023,0.152-2.851
		c-1.056,0.543-2.293,1.105-3.683,1.635c-0.561,0.214-1.146,0.419-1.756,0.616C39.395,36.285,35.896,37,31.979,37
		c-3.828,0-7.251-0.761-10.15-1.791c-0.651-0.231-1.27-0.475-1.865-0.728c-1.296-0.551-2.469-1.136-3.479-1.709
		c-0.28,0.88-0.284,2.008,0.07,3.162c0.625,2.042,2.123,3.402,3.458,3.239c0.067,2.49,0.217,4.751,0.53,5.421
		c0.792,1.698,7.583,8.906,8.583,9.406s6,0.542,6.875,0c0.875-0.542,7.083-7.604,7.687-9.406
		C43.925,43.885,44.033,41.632,44.078,39.159z"/>
	<g>
		<path d="M50.079,25c-0.617,1-2.09,2.471-5.367,3.847c-0.063,0.026-0.767,0.333-0.985-0.229c-0.24-0.617,0.137-1.016,0.392-1.122
			c3.214-1.349,3.527-2.714,3.999-3.353C47.591,22.104,46.224,15.787,38,13.216V25c0,1.654-1.346,3-3,3h-5c-1.654,0-3-1.346-3-3
			V13.172c-6.991,2.001-9.456,8.342-10.153,11.088c0.027,0.03,0.057,0.058,0.076,0.095c0.003,0.006,0.038,0.067,0.108,0.165
			c0.354,0.498,1.692,2.072,5.344,3.606c0.255,0.106,0.57,0.551,0.266,1.188c-0.344,0.719-0.875,0.508-0.938,0.482
			c-3.304-1.387-4.847-3.002-5.511-3.794H13v2.125c0,0,1.758,1.513,4.75,3.119c0.682,0.366,1.423,0.734,2.229,1.093
			c0.272,0.121,0.551,0.241,0.837,0.359C23.886,33.962,27.7,35,32,35c4.307,0,9.602-1.487,12.674-2.614
			c0.303-0.111,0.601-0.224,0.889-0.338c0.991-0.394,1.658-0.802,2.458-1.199c2.674-1.328,3.98-2.516,3.98-2.516V25H50.079z"/>
		<path d="M30,26h5c0.552,0,1-0.448,1-1V12.701V11c0-0.552-0.448-1-1-1h-5c-0.552,0-1,0.448-1,1v1.849V25C29,25.552,29.448,26,30,26
			z"/>
	</g>
</g>
</svg>
