<?xml version="1.0" encoding="iso-8859-1"?>
<!-- Generator: Adobe Illustrator 17.1.0, SVG Export Plug-In . SVG Version: 6.00 Build 0)  -->
<!DOCTYPE svg PUBLIC "-//W3C//DTD SVG 1.1//EN" "http://www.w3.org/Graphics/SVG/1.1/DTD/svg11.dtd">
<svg version="1.1" id="Layer_1" xmlns="http://www.w3.org/2000/svg" xmlns:xlink="http://www.w3.org/1999/xlink" x="0px" y="0px"
	 viewBox="0 0 128 128" style="enable-background:new 0 0 128 128;" xml:space="preserve">
<g>
	<path d="M104,65.803C101.749,65.284,99.409,65,97,65c-0.673,0-1.338,0.029-2,0.071C79.641,66.05,67.331,78.209,66.109,93.5
		C66.043,94.326,66,95.157,66,96c0,2.587,0.322,5.098,0.919,7.5C70.273,116.996,82.466,127,97,127c17.121,0,31-13.879,31-31
		C128,81.288,117.748,68.978,104,65.803z M97,116.5c-11.322,0-20.5-9.178-20.5-20.5S85.678,75.5,97,75.5s20.5,9.178,20.5,20.5
		S108.322,116.5,97,116.5z"/>
	<path d="M94,112c10.502,0,19-8.498,19-19H94V112z"/>
	<path d="M26,23.5c1.93,0,3.5-1.57,3.5-3.5v-8.5v-8C29.5,1.57,27.93,0,26,0h-3c-1.93,0-3.5,1.57-3.5,3.5v8V20
		c0,1.93,1.57,3.5,3.5,3.5H26z"/>
	<path d="M81,23.5c1.93,0,3.5-1.57,3.5-3.5v-8.5v-8C84.5,1.57,82.93,0,81,0h-3c-1.93,0-3.5,1.57-3.5,3.5v8V20
		c0,1.93,1.57,3.5,3.5,3.5H81z"/>
	<path d="M59.747,103.5C59.259,101.074,59,98.567,59,96c0-0.841,0.037-1.673,0.091-2.5H15c-3.314,0-6-2.686-6-6v-48h86v18.553
		C95.662,58.019,96.329,58,97,58c2.392,0,4.729,0.232,7,0.657V19.5c0-4.418-3.582-8-8-8h-6.5V20c0,4.687-3.813,8.5-8.5,8.5h-3
		c-4.687,0-8.5-3.813-8.5-8.5v-8.5h-35V20c0,4.687-3.813,8.5-8.5,8.5h-3c-4.687,0-8.5-3.813-8.5-8.5v-8.5H8c-4.418,0-8,3.582-8,8v76
		c0,4.418,3.582,8,8,8H59.747z"/>
	<circle cx="28.188" cy="54.5" r="7.938"/>
	<circle cx="52" cy="54.5" r="7.938"/>
	<circle cx="75.812" cy="54.5" r="7.938"/>
	<circle cx="52" cy="78.5" r="7.938"/>
	<circle cx="28.188" cy="78.5" r="7.938"/>
</g>
</svg>
