<?xml version="1.0" encoding="iso-8859-1"?>
<!-- Generator: Adobe Illustrator 17.1.0, SVG Export Plug-In . SVG Version: 6.00 Build 0)  -->
<!DOCTYPE svg PUBLIC "-//W3C//DTD SVG 1.1//EN" "http://www.w3.org/Graphics/SVG/1.1/DTD/svg11.dtd">
<svg version="1.1" id="Layer_1" xmlns="http://www.w3.org/2000/svg" xmlns:xlink="http://www.w3.org/1999/xlink" x="0px" y="0px"
	 viewBox="0 0 64 64" style="enable-background:new 0 0 64 64;" xml:space="preserve">
<g>
	<path d="M58.64,33.219c-0.977-0.977-2.559-0.977-3.535,0l-3.182,3.182l-2.709-2.709c1.684-2.277,2.608-5.014,2.608-7.898
		c0-3.562-1.388-6.91-3.906-9.428c-2.518-2.519-5.866-3.905-9.428-3.905c-2.206,0-4.329,0.534-6.224,1.538
		c-1.896-1.003-4.018-1.538-6.224-1.538c-3.562,0-6.91,1.387-9.428,3.905c-4.716,4.716-5.138,12.109-1.297,17.324l-2.711,2.711
		l-3.182-3.182c-0.977-0.977-2.559-0.977-3.535,0s-0.977,2.559,0,3.535l3.182,3.182l-3.182,3.182c-0.977,0.977-0.977,2.559,0,3.535
		c0.488,0.488,1.128,0.732,1.768,0.732s1.279-0.244,1.768-0.732l3.182-3.182l3.182,3.182c0.488,0.488,1.128,0.732,1.768,0.732
		s1.279-0.244,1.768-0.732c0.977-0.977,0.977-2.559,0-3.535l-3.182-3.182l2.84-2.84c2.098,1.316,4.522,2.032,7.06,2.032
		c2.206,0,4.329-0.534,6.224-1.538c1.896,1.003,4.018,1.538,6.224,1.538c2.538,0,4.961-0.716,7.06-2.032l2.84,2.84l-3.182,3.182
		c-0.977,0.977-0.977,2.559,0,3.535c0.488,0.488,1.128,0.732,1.768,0.732s1.279-0.244,1.768-0.732l3.182-3.182l3.182,3.182
		c0.488,0.488,1.128,0.732,1.768,0.732s1.279-0.244,1.768-0.732c0.977-0.977,0.977-2.559,0-3.535l-3.182-3.182l3.182-3.182
		C59.616,35.777,59.616,34.195,58.64,33.219z M32.263,31.32c-2.795-3.146-2.795-7.907,0-11.052
		C35.058,23.414,35.058,28.174,32.263,31.32z M26.039,34.128c-2.226,0-4.318-0.867-5.893-2.44c-3.249-3.25-3.249-8.537,0-11.786
		c1.574-1.573,3.667-2.44,5.893-2.44c0.643,0,1.272,0.081,1.883,0.221c-3.665,4.769-3.665,11.455,0,16.224
		C27.311,34.047,26.682,34.128,26.039,34.128z M36.604,33.907c3.665-4.769,3.665-11.456,0-16.224
		c0.611-0.141,1.24-0.221,1.883-0.221c2.226,0,4.318,0.867,5.893,2.44c1.574,1.574,2.441,3.667,2.441,5.893
		c0,2.227-0.867,4.319-2.441,5.894c-1.574,1.573-3.667,2.44-5.893,2.44C37.845,34.128,37.216,34.047,36.604,33.907z"/>
</g>
</svg>
