<?xml version="1.0" encoding="iso-8859-1"?>
<!-- Generator: Adobe Illustrator 17.1.0, SVG Export Plug-In . SVG Version: 6.00 Build 0)  -->
<!DOCTYPE svg PUBLIC "-//W3C//DTD SVG 1.1//EN" "http://www.w3.org/Graphics/SVG/1.1/DTD/svg11.dtd">
<svg version="1.1" id="Layer_1" xmlns="http://www.w3.org/2000/svg" xmlns:xlink="http://www.w3.org/1999/xlink" x="0px" y="0px"
	 viewBox="0 0 64 64" style="enable-background:new 0 0 64 64;" xml:space="preserve">
<g>
	<path d="M57.5,30.5c-1.381,0-2.5,1.119-2.5,2.5v3.779l-6.256-6.256c1.427-2.091,2.199-4.558,2.199-7.146
		c0-3.398-1.323-6.593-3.726-8.995c-2.403-2.403-5.598-3.727-8.996-3.727c-2.193,0-4.297,0.558-6.163,1.595
		c-1.865-1.037-3.97-1.595-6.162-1.595c-3.398,0-6.593,1.323-8.996,3.727c-2.403,2.402-3.726,5.597-3.726,8.995
		c0,2.588,0.772,5.055,2.198,7.146L9,36.896V32c0-1.381-1.119-2.5-2.5-2.5S4,30.619,4,32v10c0,1.083,0.693,1.997,1.656,2.344
		C6.003,45.307,6.917,46,8,46h10c1.381,0,2.5-1.119,2.5-2.5S19.381,41,18,41h-6.033l6.973-6.973
		c2.051,1.345,4.447,2.072,6.957,2.072c2.193,0,4.297-0.558,6.162-1.595c1.865,1.037,3.97,1.595,6.163,1.595
		c2.509,0,4.906-0.726,6.956-2.072L52.151,41H47c-1.381,0-2.5,1.119-2.5,2.5S45.619,46,47,46h10c0.818,0,1.538-0.399,1.994-1.006
		C59.601,44.538,60,43.818,60,43V33C60,31.619,58.881,30.5,57.5,30.5z M32.059,28.017c-1.006-1.331-1.559-2.942-1.559-4.64
		s0.552-3.308,1.559-4.64c1.006,1.331,1.559,2.942,1.559,4.64S33.065,26.685,32.059,28.017z M25.896,31.099
		c-2.063,0-4.002-0.804-5.46-2.262c-1.458-1.458-2.261-3.397-2.261-5.46s0.803-4.002,2.262-5.46c1.458-1.458,3.397-2.262,5.46-2.262
		c0.694,0,1.372,0.099,2.025,0.275c-1.565,2.155-2.422,4.732-2.422,7.447c0,2.715,0.857,5.292,2.422,7.447
		C27.269,31,26.591,31.099,25.896,31.099z M36.196,30.823c1.565-2.155,2.422-4.732,2.422-7.447s-0.857-5.292-2.421-7.447
		c0.653-0.177,1.331-0.275,2.025-0.275c2.062,0,4.001,0.804,5.46,2.262c1.458,1.458,2.261,3.397,2.261,5.46s-0.803,4.002-2.262,5.46
		c-1.458,1.458-3.397,2.262-5.459,2.262C37.527,31.099,36.849,31,36.196,30.823z"/>
</g>
</svg>
