<?xml version="1.0" encoding="utf-8"?>
<!-- Generator: Adobe Illustrator 17.0.0, SVG Export Plug-In . SVG Version: 6.00 Build 0)  -->
<!DOCTYPE svg PUBLIC "-//W3C//DTD SVG 1.1//EN" "http://www.w3.org/Graphics/SVG/1.1/DTD/svg11.dtd">
<svg version="1.1" id="Capa_1" xmlns="http://www.w3.org/2000/svg" xmlns:xlink="http://www.w3.org/1999/xlink" x="0px" y="0px"
	 width="64px" height="64px" viewBox="0 0 64 64" enable-background="new 0 0 64 64" xml:space="preserve">
<g>
	<path d="M40.502,28.212c0.4-0.437,0.457-1.036,0.126-1.339c-0.33-0.302-0.922-0.193-1.322,0.244l-0.688,0.752
		c0.49,0.33,0.948,0.636,1.363,0.912L40.502,28.212z"/>
	<path d="M42.502,29.212c0.4-0.437,0.457-1.036,0.126-1.339c-0.33-0.302-0.922-0.193-1.322,0.244l-0.878,0.959
		c0.627,0.413,1.11,0.725,1.384,0.889L42.502,29.212z"/>
	<path d="M44.502,30.212c0.4-0.437,0.457-1.036,0.126-1.339c-0.33-0.302-0.922-0.193-1.322,0.244l-0.896,0.979
		c0.464,0.045,1.171,0.102,2.046,0.165L44.502,30.212z"/>
	<path d="M33.557,24.429c1.45,0.993,3.067,2.095,4.5,3.061l0.933-0.933c0,0-1.978-1.346-3.727-2.543
		C34.75,24.087,34.185,24.221,33.557,24.429z"/>
	<path d="M17.63,40.914c0.392-0.826,1.086-2.667,0.912-4.122c-0.191-0.231-0.889-0.969-3.098-2.673
		c0.316,0.73,0.493,1.535,0.493,2.381c0,3.314-2.686,6-6,6s-6-2.686-6-6s2.686-6,6-6c0.267,0,0.528,0.023,0.785,0.057
		c-1.196-0.954-2.18-1.832-2.935-2.659C3.927,28.86,1.062,32.341,1.062,36.5c0,4.901,3.973,8.875,8.875,8.875
		C13.23,45.375,16.098,43.577,17.63,40.914z"/>
	<path d="M10.464,32.553C10.29,32.53,10.118,32.5,9.938,32.5c-2.206,0-4,1.794-4,4s1.794,4,4,4s4-1.794,4-4
		c0-0.535-0.109-1.043-0.301-1.51l-2.118,2.735c-0.381,0.493-0.958,0.775-1.583,0.775c-0.446,0-0.869-0.145-1.223-0.418
		c-0.872-0.676-1.032-1.934-0.357-2.806L10.464,32.553z"/>
	<path d="M53.688,26.5c-3.121,0-5.878,1.531-7.582,3.877c1.465,0.099,3.132,0.205,4.732,0.303c0.846-0.465,1.817-0.731,2.85-0.731
		c3.272,0,5.925,2.653,5.925,5.925c0,3.272-2.653,5.925-5.925,5.925c-1.817,0-3.44-0.82-4.527-2.107
		c-1.377-0.408-3.008-0.853-4.456-1.147c1.151,3.875,4.735,6.704,8.983,6.704c5.178,0,9.375-4.197,9.375-9.375
		S58.865,26.5,53.688,26.5z"/>
	<path d="M9.935,18.455c1.295-1.01,3.053-2.027,5.521-3.019l1.669-2.936l-2.305,1.042C12.058,15.218,10.66,17.025,9.935,18.455z"/>
	<path d="M56.565,16.562c-0.001,0-0.002,0-0.002,0c-0.662-0.033-1.287-0.049-1.876-0.049c-3.09,0-5.197,0.428-6.625,0.963
		c-1.281,1.326-4.606,4.611-6.192,4.689c-0.008,0-0.113,0.003-0.122,0.003c-1.882,0-8.18-2.105-8.448-2.195
		c-0.196-0.066-0.332-0.246-0.34-0.452c-0.009-0.207,0.11-0.397,0.3-0.48l2.49-1.085c-0.682-0.69-1.061-0.769-1.061-0.769
		c-3.265-1.678-8.01-1.908-10.369-1.908c-0.893,0-1.444,0.033-1.444,0.033c0.017-0.327-0.373-0.445-0.948-0.445
		c-1.512,0-4.302,0.82-4.302,0.82c-1.122,0.388-2.1,0.781-2.979,1.175c-2.689,1.204-4.331,2.418-5.414,3.548
		C8.333,21.349,7.808,22.23,7.375,23c-0.736,1.309-0.489,2.61,1.589,4.681c0.781,0.779,1.825,1.67,3.174,2.711
		c0.131,0.101,0.26,0.201,0.397,0.305c0.024,0.018,0.045,0.035,0.068,0.053l-0.215,0.278l-0.091,0.117L11.99,31.54l-0.241,0.312
		l-0.65,0.84l-2.082,2.689c-0.478,0.618-0.365,1.505,0.252,1.983c0.258,0.199,0.562,0.296,0.865,0.296
		c0.422,0,0.84-0.188,1.119-0.548l2.086-2.693l0.645-0.833l0.28-0.361l0.306-0.396l0.054-0.07l0.252-0.325
		c0.025,0.018,0.045,0.034,0.069,0.052c0.141,0.105,0.267,0.201,0.4,0.301c1.815,1.369,2.848,2.251,3.422,2.798
		c0.707,0.675,0.735,0.854,0.735,0.854c0.417,2.271-1.083,5.146-1.083,5.146s15.958,0,17.75,0c1.792,0,2.5-1,2.5-1s1.208-1.5,2.25-3
		c0.178-0.257,0.637-0.364,1.274-0.364c0.618,0,1.407,0.103,2.269,0.263c1.231,0.229,2.61,0.577,3.881,0.934
		c0.503,0.141,0.983,0.281,1.434,0.417c1.588,0.477,2.754,0.876,2.754,0.876l0.003-0.019c0.368,0.112,0.751,0.189,1.155,0.189
		c2.212,0,4.005-1.793,4.005-4.005c0-2.117-1.647-3.832-3.727-3.977l0.005-0.028c0,0-1.207-0.07-2.864-0.171
		c-0.476-0.029-0.988-0.061-1.521-0.094c-1.339-0.084-2.797-0.178-4.1-0.268c-0.688-0.048-1.33-0.094-1.888-0.137
		c-1.079-0.084-1.841-0.156-1.973-0.2c-0.005-0.002-0.022-0.012-0.028-0.015c-0.072-0.03-0.238-0.126-0.47-0.27
		c-0.336-0.208-0.806-0.513-1.381-0.892c-0.141-0.093-0.295-0.196-0.446-0.296c-0.426-0.283-0.882-0.588-1.363-0.912
		c-0.198-0.133-0.397-0.267-0.6-0.404c-2.788-1.882-5.898-4.023-5.898-4.023c1.031-0.459,1.91-0.768,2.671-0.964
		c0.748-0.192,1.382-0.275,1.928-0.275c1.812,0,2.667,0.89,3.619,1.551c0.51,0.354,1.045,0.472,1.531,0.472
		c0.972,0,1.75-0.472,1.75-0.472C59.306,16.624,56.65,16.562,56.565,16.562z M27.844,31.737l3.495-3.111
		c0.414-0.367,1.045-0.33,1.412,0.082c0.367,0.413,0.331,1.045-0.082,1.412l-3.097,2.757L27.844,31.737z M28.339,26.626
		c0.413-0.367,1.045-0.33,1.412,0.082c0.367,0.413,0.331,1.045-0.082,1.412l-3.11,2.769l-1.728-1.14L28.339,26.626z M35.669,32.12
		l-3.085,2.746l-1.728-1.14l3.482-3.1c0.414-0.367,1.044-0.33,1.412,0.082C36.118,31.121,36.082,31.753,35.669,32.12z"/>
	<path d="M41.747,21.669l0.001-0.005l0.071-0.497c0.311-0.015,0.81-0.285,1.406-0.707c0.481-0.341,1.025-0.782,1.584-1.269
		c0.008-0.007,0.016-0.014,0.023-0.02c0.112-0.097,0.223-0.194,0.335-0.294c-0.04,0.01-0.088,0.02-0.147,0.028
		c-0.167,0.023-0.425,0.037-0.853,0.037c-0.005,0-0.008,0-0.013,0c-1.648,0-4.943-0.195-6.555-0.298
		c-0.271-0.017-0.489-0.031-0.649-0.042c-0.058-0.004-0.114-0.008-0.155-0.01l-0.363,0.158l-1.568,0.684
		c0.753,0.239,1.657,0.516,2.566,0.778c0.236,0.068,0.468,0.133,0.702,0.198c0.733,0.203,1.437,0.384,2.053,0.52
		c0.471,0.104,0.876,0.176,1.2,0.21c0.128,0.014,0.264,0.031,0.361,0.031v0.495V21.669z"/>
</g>
</svg>
