<?xml version="1.0" encoding="iso-8859-1"?>
<!-- Generator: Adobe Illustrator 16.0.0, SVG Export Plug-In . SVG Version: 6.00 Build 0)  -->
<!DOCTYPE svg PUBLIC "-//W3C//DTD SVG 1.1//EN" "http://www.w3.org/Graphics/SVG/1.1/DTD/svg11.dtd">
<svg version="1.1" id="Layer_1" xmlns="http://www.w3.org/2000/svg" xmlns:xlink="http://www.w3.org/1999/xlink" x="0px" y="0px"
	 width="31.385px" height="20.9px" viewBox="0 0 31.385 20.9" style="enable-background:new 0 0 31.385 20.9;" xml:space="preserve"
	>
<g>
	<path d="M26.014,17.474L29.76,1.656L12.871,0l-2.419,12.696l-0.001,0L0.226,14.209l13.642,4.896L26.014,17.474z M13.564,1.117
		L28.06,2.82l-3.154,13.325l-13.512-3.822L13.564,1.117z M10.472,17.195l-3.348-1.278l1.615-0.215l3.756,1.254L10.472,17.195z"/>
	<polygon points="30.546,2.104 26.814,18.027 13.822,19.926 13.822,19.921 0,14.863 0,15.647 13.73,20.9 27.518,18.708 
		31.385,2.686 	"/>
	<polygon points="18.131,9.251 21.155,8.383 18.58,6.572 	"/>
	<path d="M19.924,4.077c-2.173-0.366-4.363,1.464-4.603,3.279c-0.244,1.731,1.106,4.238,3.279,4.603s4.238-1.107,4.603-3.279
		C23.568,6.506,22.097,4.442,19.924,4.077z M22.188,8.508c-0.271,1.614-1.803,2.706-3.416,2.435
		c-1.613-0.271-2.625-1.875-2.436-3.417c0.192-1.542,1.805-2.704,3.418-2.434C21.366,5.363,22.459,6.896,22.188,8.508z"/>
</g>
<g>
</g>
<g>
</g>
<g>
</g>
<g>
</g>
<g>
</g>
<g>
</g>
<g>
</g>
<g>
</g>
<g>
</g>
<g>
</g>
<g>
</g>
<g>
</g>
<g>
</g>
<g>
</g>
<g>
</g>
</svg>
