<?xml version="1.0" encoding="iso-8859-1"?>
<!-- Generator: Adobe Illustrator 17.1.0, SVG Export Plug-In . SVG Version: 6.00 Build 0)  -->
<!DOCTYPE svg PUBLIC "-//W3C//DTD SVG 1.1//EN" "http://www.w3.org/Graphics/SVG/1.1/DTD/svg11.dtd">
<svg version="1.1" id="Layer_1" xmlns="http://www.w3.org/2000/svg" xmlns:xlink="http://www.w3.org/1999/xlink" x="0px" y="0px"
	 viewBox="0 0 64 64" style="enable-background:new 0 0 64 64;" xml:space="preserve">
<g>
	<path d="M27.886,34.939c-0.022,0.245-0.052,0.488-0.052,0.736c0,6.388,7.291,11.567,16.286,11.567c1.463,0,2.874-0.15,4.223-0.407
		l2.99,1.893l2.446,1.548c1.351,0.855,2.27,0.265,2.053-1.319l-0.581-4.251l-0.055-0.568c3.198-2.112,5.211-5.117,5.211-8.463
		c0-6.388-7.291-11.567-16.286-11.567c-2.116,0-4.132,0.296-5.987,0.818C37.125,29.368,33.211,33.075,27.886,34.939z M38.775,31.235
		C41.286,28.933,44.163,32,44.163,32h0.021c0,0,2.877-3.067,5.388-0.765c2.511,2.302,0.314,7.647-5.388,9.949l-0.152-0.105
		C38.33,38.777,36.264,33.537,38.775,31.235z"/>
	<path d="M9.044,31.139l-0.055,0.568l-0.581,4.251c-0.149,1.091,0.241,1.711,0.94,1.711c0.315,0,0.694-0.126,1.113-0.392
		l2.446-1.548l2.99-1.893c1.349,0.257,2.76,0.407,4.223,0.407c3.04,0,5.876-0.603,8.311-1.633c3.57-1.51,6.251-3.956,7.377-6.868
		c0.378-0.978,0.597-2.003,0.597-3.066c0-6.388-7.291-11.567-16.286-11.567c-8.994,0-16.286,5.179-16.286,11.567
		C3.833,26.022,5.846,29.027,9.044,31.139z M14.667,18.235C17.178,15.933,20.055,19,20.055,19h0.021c0,0,2.877-3.067,5.388-0.765
		c2.511,2.302,0.445,7.542-5.257,9.844l-0.152,0.105C14.353,25.882,12.156,20.537,14.667,18.235z"/>
</g>
</svg>
