<?xml version="1.0" encoding="utf-8"?>
<!-- Generator: Adobe Illustrator 16.0.4, SVG Export Plug-In . SVG Version: 6.00 Build 0)  -->
<!DOCTYPE svg PUBLIC "-//W3C//DTD SVG 1.1//EN" "http://www.w3.org/Graphics/SVG/1.1/DTD/svg11.dtd">
<svg version="1.1" id="Capa_1" xmlns="http://www.w3.org/2000/svg" xmlns:xlink="http://www.w3.org/1999/xlink" x="0px" y="0px"
	 width="64px" height="64px" viewBox="0 0 64 64" enable-background="new 0 0 64 64" xml:space="preserve">
<path d="M53.066,22.513c-0.142-3.399-2.908-6.127-6.325-6.2c-0.048-0.001-0.093-0.007-0.14-0.007c-7.695,0-15.392-0.001-23.088,0
	c-3.777,0-8.393-0.95-11.123,2.371c-0.227,0.276-0.426,0.573-0.606,0.883c-0.075,0.129-0.143,0.262-0.209,0.396
	c-0.161,0.329-0.296,0.672-0.4,1.029c-0.677,2.336-0.259,5.156-0.259,7.559c0.002,3.558,0.002,7.114,0.002,10.67
	c0,0.767,0.141,1.5,0.387,2.183c0.121,0.336,0.264,0.66,0.436,0.969c0.076,0.136,0.157,0.269,0.243,0.398
	c0.191,0.291,0.408,0.562,0.642,0.817c0.947,1.034,2.221,1.758,3.659,2.009c0.347,0.061,0.703,0.098,1.066,0.1
	c0.016,0,0.031,0.002,0.046,0.002h0.578c0,0,1.031,0,1.069,0c7.192,0,14.383,0,21.575,0h1.919h0.328h2.079h1.656
	c3.572,0,6.479-2.905,6.479-6.479V23.162v-0.377C53.081,22.693,53.07,22.604,53.066,22.513z M46.604,19.307
	c1.369,0,2.547,0.804,3.112,1.958l-18.442,7.173c-0.014-0.026-0.028-0.051-0.042-0.076l12.534-9.055H46.604z M39.402,19.306
	L39.402,19.306l-9.304,7.583c-0.155-0.149-0.318-0.289-0.487-0.422l4.321-7.161H39.402z M29.88,19.308h1.402l-2.947,5.595
	L29.88,19.308z M24.088,19.309L24.088,19.309l0.458,5.953c-0.178,0.035-0.352,0.081-0.523,0.131l-2.601-6.084H24.088z
	 M17.397,19.307h1.519l3.418,6.864c-0.259,0.171-0.502,0.364-0.732,0.57l-6.942-6.077C15.298,19.844,16.281,19.307,17.397,19.307z
	 M13.919,23.118L13.919,23.118l6.5,5.055c-0.059,0.097-0.118,0.194-0.171,0.295l-6.329-2.422V23.118L13.919,23.118L13.919,23.118z
	 M13.917,28.409l5.717,1.815c-0.007,0.037-0.011,0.076-0.017,0.113l-5.7-0.275V28.409z M13.917,32.252l5.664-0.056
	c0.006,0.044,0.013,0.087,0.02,0.13l-5.684,1.585V32.252z M13.918,39.214v-2.978h-0.001l6.234-2.137
	c0.07,0.146,0.145,0.287,0.226,0.426l-6.44,4.879C13.933,39.34,13.918,39.279,13.918,39.214z M18.04,42.693h-0.643
	c-0.977,0-1.857-0.407-2.49-1.059l6.636-5.66c0.121,0.11,0.244,0.217,0.374,0.319L18.04,42.693z M24.69,42.693h-4.057l2.901-5.482
	c0.416,0.16,0.852,0.273,1.305,0.342L24.69,42.693z M26.293,19.308h1.298l-1.194,5.571L26.293,19.308z M26.847,42.693l-0.149-5.141
	c0.322-0.048,0.638-0.113,0.942-0.209l2.418,5.35H26.847z M32.541,42.693l-3.232-6.168c0.201-0.137,0.39-0.291,0.573-0.45
	l7.388,6.618H32.541z M46.604,42.693h-5.427L31.08,34.654c0.119-0.191,0.227-0.391,0.324-0.596l18.503,6.184
	C49.467,41.657,48.161,42.693,46.604,42.693z M50.082,37.191l-17.997-4.874l17.997,0.523V37.191z M50.082,29.928l-18.145,0.527
	c-0.015-0.101-0.026-0.202-0.046-0.301l18.191-6.001V29.928z"/>
</svg>
