<?xml version="1.0" encoding="iso-8859-1"?>
<!-- Generator: Adobe Illustrator 17.1.0, SVG Export Plug-In . SVG Version: 6.00 Build 0)  -->
<!DOCTYPE svg PUBLIC "-//W3C//DTD SVG 1.1//EN" "http://www.w3.org/Graphics/SVG/1.1/DTD/svg11.dtd">
<svg version="1.1" id="Capa_1" xmlns="http://www.w3.org/2000/svg" xmlns:xlink="http://www.w3.org/1999/xlink" x="0px" y="0px"
	 viewBox="0 0 200 200" style="enable-background:new 0 0 200 200;" xml:space="preserve">
<g>
	<path d="M20.694,83.745c-3.446,8.677-5.266,18.009-5.266,27.626c0,19.978,7.78,38.759,21.906,52.886
		c14.126,14.126,32.908,21.906,52.886,21.906c9.617,0,18.951-1.82,27.628-5.266c12.022,6.107,23.031,9.476,31.967,9.476
		c7.289,0,13.132-2.147,17.367-6.383c7.406-7.406,7.018-18.491,5.388-26.486c-1.567-7.688-5.065-16.612-10.209-26.122
		c6.055-21.697,2.019-45.386-11.741-64.125c-0.039-0.053-0.075-0.107-0.114-0.159c-0.639-0.868-1.307-1.722-1.987-2.568
		c-0.122-0.151-0.237-0.306-0.361-0.457c-0.632-0.773-1.292-1.531-1.96-2.284c-0.171-0.193-0.333-0.391-0.506-0.582
		c-0.836-0.923-1.696-1.831-2.586-2.721c-0.849-0.849-1.717-1.672-2.598-2.475c-0.522-0.474-1.058-0.925-1.591-1.382
		c-0.351-0.302-0.696-0.613-1.051-0.908c-0.764-0.632-1.541-1.241-2.324-1.838c-0.118-0.09-0.233-0.185-0.351-0.274
		c-12.895-9.745-28.525-15.029-44.971-15.029c-0.6,0-1.195,0.03-1.792,0.044c-0.076,0.002-0.152,0.003-0.228,0.005
		c-1.039,0.027-2.077,0.075-3.115,0.145c-0.071,0.005-0.141,0.011-0.212,0.016c-4.975,0.349-9.851,1.184-14.579,2.483
		c-10.648-5.775-23.781-11.243-35.33-11.243c-7.286,0-13.128,2.146-17.362,6.38c-6.3,6.3-11.161,19.399,1.461,46.024
		C19.582,81.528,20.129,82.634,20.694,83.745z M22.551,39.358c2.937-2.937,7.179-4.331,12.412-4.33
		c7.14,0.001,16.13,2.608,26.151,7.415c0.011,0.005,0.022,0.011,0.033,0.016c-0.742,0.313-1.484,0.626-2.218,0.964
		c-0.005-0.001-0.01-0.003-0.016-0.004c-3.337-0.89-6.415-1.355-9.163-1.355c-4.364,0-7.903,1.162-10.353,3.612
		c-3.122,3.122-4.013,7.897-3.032,13.827c0.409,2.475,1.147,5.152,2.191,7.999c5.649,15.414,20.23,35.755,40.004,55.53
		c19.771,19.771,40.113,34.357,55.526,40.008c2.845,1.043,5.522,1.783,7.996,2.193c1.511,0.25,2.952,0.387,4.304,0.387
		c3.958,0,7.201-1.096,9.529-3.425c3.985-3.985,4.543-10.865,2.254-19.479c0.342-0.735,0.685-1.469,1.001-2.212
		c8.322,17.357,10.005,31.595,3.062,38.538c-2.939,2.939-7.181,4.332-12.418,4.332c-6.578,0-14.72-2.205-23.796-6.309
		c-2.552-1.154-5.177-2.456-7.863-3.904c-15.768-8.503-33.603-21.963-50.682-39.042c-17.084-17.084-30.536-34.919-39.038-50.69
		c-1.449-2.689-2.747-5.312-3.901-7.867C17.171,59.269,15.924,45.985,22.551,39.358z"/>
	<path d="M140.704,35.375l9.547,3.877l2.346,10.394c0.61,2.705,2.588,4.453,5.04,4.453c1.023,0,2.56-0.318,4.064-1.833l7.221-7.269
		l10.244,0.222l0.167,0.002c2.205,0,3.986-0.967,4.889-2.653c0.908-1.697,0.717-3.737-0.523-5.599l-5.887-8.835l4.611-9.595
		c0.899-1.872,0.877-3.802-0.061-5.294c-1.111-1.768-3.27-2.575-5.694-2.077l-10.099,2.08l-8.028-6.622
		c-1.147-0.946-2.437-1.446-3.729-1.446c-2.634,0-4.708,2.051-5.044,4.987l-1.185,10.339l-8.714,5.512
		c-1.919,1.214-2.92,3.023-2.746,4.963C137.295,32.919,138.601,34.522,140.704,35.375z"/>
	<path d="M195.533,75.685l-4.649-3.062l-0.538-5.598c-0.244-2.545-2.064-4.322-4.426-4.322c-1.079,0-2.142,0.392-3.076,1.134
		l-4.404,3.499l-5.432-1.223c-2.022-0.456-3.919,0.248-4.938,1.783c-0.842,1.27-0.945,2.896-0.283,4.464l2.141,5.068l-3.052,4.831
		c-0.981,1.553-1.088,3.351-0.285,4.808c0.803,1.456,2.377,2.326,4.231,2.326l5.596-0.019l3.871,4.042
		c0.974,1.017,2.205,1.576,3.466,1.576c2.143,0,3.892-1.547,4.354-3.851l1.105-5.516l5.325-1.869c1.796-0.63,2.992-2.015,3.2-3.704
		C197.948,78.364,197.123,76.732,195.533,75.685z"/>
	<path d="M195.718,118.965l-3.497-2.303l-0.404-4.211c-0.183-1.914-1.552-3.251-3.329-3.251c-0.811,0-1.611,0.295-2.314,0.853
		l-3.313,2.632l-4.086-0.92c-1.521-0.343-2.948,0.187-3.714,1.341c-0.633,0.955-0.711,2.179-0.213,3.358l1.61,3.813l-2.296,3.634
		c-0.738,1.168-0.818,2.52-0.214,3.617c0.604,1.095,1.788,1.749,3.183,1.749l4.21-0.014l2.912,3.041
		c0.732,0.765,1.658,1.186,2.607,1.186c1.612,0,2.928-1.164,3.275-2.897l0.831-4.149l4.005-1.406
		c1.351-0.474,2.251-1.516,2.407-2.786C197.534,120.981,196.914,119.752,195.718,118.965z"/>
</g>
</svg>
