<?xml version="1.0" encoding="iso-8859-1"?>
<!-- Generator: Adobe Illustrator 17.0.0, SVG Export Plug-In . SVG Version: 6.00 Build 0)  -->
<!DOCTYPE svg PUBLIC "-//W3C//DTD SVG 1.1//EN" "http://www.w3.org/Graphics/SVG/1.1/DTD/svg11.dtd">
<svg version="1.1" id="Capa_1" xmlns="http://www.w3.org/2000/svg" xmlns:xlink="http://www.w3.org/1999/xlink" x="0px" y="0px"
	 width="64px" height="64px" viewBox="0 0 64 64" style="enable-background:new 0 0 64 64;" xml:space="preserve">
<g>
	<circle cx="17.297" cy="30.017" r="2.306"/>
	<circle cx="39.031" cy="30.017" r="2.306"/>
	<path d="M9.774,14.414c0.464-0.293,11.457-7.072,17.993,3.029c0.287,0.444,0.77,0.685,1.261,0.685c0.279,0,0.562-0.078,0.813-0.241
		c0.696-0.45,0.895-1.378,0.445-2.074c-8.163-12.614-21.983-4.02-22.122-3.931c-0.698,0.444-0.903,1.369-0.46,2.068
		S9.074,14.857,9.774,14.414z"/>
	<path d="M33.415,13.994c9.892-6.83,17.456,3.618,17.783,4.082c0.292,0.416,0.757,0.638,1.229,0.638c0.298,0,0.599-0.088,0.86-0.272
		c0.678-0.476,0.843-1.411,0.367-2.089c-0.094-0.134-9.582-13.36-21.944-4.827c-0.682,0.471-0.853,1.405-0.382,2.086
		C31.799,14.294,32.731,14.464,33.415,13.994z"/>
	<path d="M13.373,42.085c1.48,8.652,7.756,15.15,15.275,15.15c7.11,0,13.107-5.814,14.988-13.764
		c0.127-0.537,0.608-1.182,1.069-1.486c3.504-2.315,5.905-7.027,5.905-12.472c0-7.733-4.838-14.002-10.808-14.002
		c-2.661,0-5.097,1.247-6.979,3.314c-0.372,0.408-1.074,0.639-1.615,0.529c-0.833-0.17-1.687-0.26-2.559-0.26
		c-0.485,0-0.964,0.027-1.437,0.08c-0.549,0.062-1.241-0.221-1.589-0.65c-1.937-2.388-4.551-3.862-7.435-3.862
		c-5.969,0-10.809,6.269-10.809,14.003c0,4.986,2.016,9.356,5.045,11.835C12.852,40.85,13.28,41.541,13.373,42.085z M39.492,18.583
		c4.873,0,8.824,5.119,8.824,11.433c0,6.314-3.951,11.433-8.824,11.433c-4.873,0-8.824-5.119-8.824-11.433
		C30.668,23.702,34.619,18.583,39.492,18.583z M28.694,51.355c4.116,0,7.972-2.737,8.01-2.765c0.328-0.236,0.817-0.152,1.048,0.172
		c0.241,0.334,0.164,0.804-0.171,1.045c-0.175,0.125-4.316,3.053-8.86,3.053c-1.19,0-2.319-0.201-3.354-0.597
		c-5.679-2.171-7.034-8.479-7.089-8.747c-0.082-0.405,0.181-0.802,0.584-0.885c0.395-0.087,0.803,0.184,0.886,0.582
		c0.05,0.234,1.295,5.791,6.154,7.649C26.755,51.19,27.694,51.355,28.694,51.355z M18.248,17.377c4.873,0,8.824,5.12,8.824,11.434
		c0,6.315-3.951,11.433-8.824,11.433c-4.873,0-8.824-5.119-8.824-11.433C9.424,22.497,13.375,17.377,18.248,17.377z"/>
</g>
</svg>
