<?xml version="1.0" encoding="utf-8"?>
<!-- Generator: Adobe Illustrator 17.0.0, SVG Export Plug-In . SVG Version: 6.00 Build 0)  -->
<!DOCTYPE svg PUBLIC "-//W3C//DTD SVG 1.1//EN" "http://www.w3.org/Graphics/SVG/1.1/DTD/svg11.dtd">
<svg version="1.1" id="Capa_1" xmlns="http://www.w3.org/2000/svg" xmlns:xlink="http://www.w3.org/1999/xlink" x="0px" y="0px"
	 width="64px" height="64px" viewBox="0 0 64 64" enable-background="new 0 0 64 64" xml:space="preserve">
<path d="M13.597,21.194v22.083c0,4.065,3.296,7.361,7.361,7.361h22.083c4.065,0,7.361-3.296,7.361-7.361V21.194
	c0-4.065-3.296-7.361-7.361-7.361H20.958C16.893,13.833,13.597,17.129,13.597,21.194z M25.035,25.286
	c0.552-0.32,1.261-0.131,1.581,0.422l5.882,5.188l10.524-10.524c0.452-0.452,1.184-0.452,1.636,0c0.452,0.452,0.452,1.184,0,1.636
	L33.602,33.064l13.08,12.381c0.201,0.19,0.209,0.506,0.02,0.707c-0.099,0.104-0.231,0.156-0.363,0.156
	c-0.124,0-0.247-0.045-0.344-0.137L32.871,33.749c-0.015,0.01-0.026,0.023-0.042,0.032c-0.032,0.018-0.066,0.026-0.099,0.041
	c-0.032,0.015-0.063,0.028-0.096,0.04c-0.126,0.045-0.254,0.075-0.383,0.075c-0.133,0-0.262-0.031-0.387-0.076
	c-0.031-0.011-0.06-0.023-0.089-0.036c-0.124-0.056-0.241-0.127-0.34-0.226c-0.001-0.001-0.002-0.001-0.002-0.002
	c-0.003-0.003-0.004-0.007-0.007-0.011c-0.066-0.068-0.127-0.142-0.177-0.228l-6.636-6.492
	C24.293,26.314,24.482,25.606,25.035,25.286z"/>
<rect x="22.5" y="1.5" width="19" height="10.833"/>
<rect x="22.5" y="52.23" width="19" height="9.77"/>
</svg>
