<?xml version="1.0" encoding="utf-8"?>
<!-- Generator: Adobe Illustrator 17.0.0, SVG Export Plug-In . SVG Version: 6.00 Build 0)  -->
<!DOCTYPE svg PUBLIC "-//W3C//DTD SVG 1.1//EN" "http://www.w3.org/Graphics/SVG/1.1/DTD/svg11.dtd">
<svg version="1.1" id="Capa_1" xmlns="http://www.w3.org/2000/svg" xmlns:xlink="http://www.w3.org/1999/xlink" x="0px" y="0px"
	 width="518.287px" height="518.284px" viewBox="141.986 25.904 518.287 518.284"
	 enable-background="new 141.986 25.904 518.287 518.284" xml:space="preserve">
<g>
	<path d="M527.686,158.038c9.078,3.069,23.253-4.195,24.974-19.719c1.051-9.459-1.86-18.696-11.05-21.644L505,113.261
		c-12.752-3.786-26.397,3.423-30.443,16.11L440.7,220.412l-17.245,4.027l-6.269-165.506c0.139-13.319-10.566-24.434-23.858-24.825
		l-35.838-8.204c-9.645-0.074-15.301,7.794-17.263,17.105c-3.228,15.282,7.962,26.611,17.551,26.536l39.102,2.074l6.297,157.563
		l-27.969,6.539l-47.52-127.79c-4.046-12.687-17.682-19.895-30.443-16.11l-36.6,3.414c-9.18,2.958-12.092,12.185-11.05,21.644
		c1.721,15.524,15.896,22.788,24.974,19.719l37.791-10.269l42.702,114.098l-5.897,1.377c-12.622,0-23.142,8.846-25.802,20.677
		c-12.426,3.321-54.245,21.281-47.771,111.262c4.037,56.031,27.122,87.785,47.083,105.011v38.944c0,14.631,11.859,26.49,26.49,26.49
		h113.326c14.631,0,26.49-11.85,26.49-26.49v-4.418h24.025c9.757,0,17.654-7.906,17.654-17.654v-99.802
		c0-9.757-7.906-17.654-17.654-17.654h-24.025v-63.509h7.171c9.748,0,17.654-7.915,17.654-17.654v-44.144
		c0-9.757-7.915-17.654-17.654-17.654h-8.101c-2.781-10.762-12.12-18.807-23.514-19.691l25.346-67.722L527.686,158.038z
		 M322.696,438.833c-9.943-15.133-18.491-36.666-20.677-66.988c-3.869-53.761,10.985-73.164,20.677-80.093V438.833z"/>
</g>
</svg>
