<?xml version="1.0" encoding="utf-8"?>
<!-- Generator: Adobe Illustrator 17.0.0, SVG Export Plug-In . SVG Version: 6.00 Build 0)  -->
<!DOCTYPE svg PUBLIC "-//W3C//DTD SVG 1.1//EN" "http://www.w3.org/Graphics/SVG/1.1/DTD/svg11.dtd">
<svg version="1.1" id="Capa_1" xmlns="http://www.w3.org/2000/svg" xmlns:xlink="http://www.w3.org/1999/xlink" x="0px" y="0px"
	 width="437.244px" height="437.251px" viewBox="195.331 85.254 437.244 437.251"
	 enable-background="new 195.331 85.254 437.244 437.251" xml:space="preserve">
<g>
	<path d="M624.122,344.444c0-30.982,0-78,0-103.774c0-40.674-36.61-166.799-197.317-154.587
		c-115.866,8.79-165.107,89.487-183.569,133.845c-0.121,0.298-0.149,0.605-0.26,0.902c-0.549,0.67-1.153,1.284-1.535,2.102
		c-1.823,3.962-44.553,98.333-36.693,200.293c0.102,1.367,0.493,2.642,1.079,3.795c0.028,0.251-0.028,0.465,0.009,0.725
		c4.074,31.643,17.477,59.751,28.778,78.716c8.622,14.473,29.838,19.821,45.371,13.292l316.038-132.989
		C611.537,380.226,624.122,361.298,624.122,344.444z M418.545,251.692c-11.013,31.382-35.019,81.191-83.283,115.094
		c-41.521,29.187-76.847,35.456-100.184,35.205c-3.823-0.037-7.488,0.474-10.901,1.377c-1.032-63.881,17.328-123.549,28.127-152.913
		c3.2,2.093,6.976,3.469,11.189,3.841c24.974,2.204,61.305-0.093,92.11-23.793c19.254-14.817,33.912-19.923,44.795-20.426
		C417.225,209.306,424.126,235.805,418.545,251.692z M542.754,350.527c-15.161,0-27.457-12.296-27.457-27.457
		s12.296-27.457,27.457-27.457s27.467,12.296,27.467,27.457S557.915,350.527,542.754,350.527z"/>
</g>
</svg>
