<?xml version="1.0" encoding="utf-8"?>
<!-- Generator: Adobe Illustrator 17.0.0, SVG Export Plug-In . SVG Version: 6.00 Build 0)  -->
<!DOCTYPE svg PUBLIC "-//W3C//DTD SVG 1.1//EN" "http://www.w3.org/Graphics/SVG/1.1/DTD/svg11.dtd">
<svg version="1.1" id="Layer_1" xmlns="http://www.w3.org/2000/svg" xmlns:xlink="http://www.w3.org/1999/xlink" x="0px" y="0px"
	 width="459.241px" height="459.249px" viewBox="195.102 83.711 459.241 459.249"
	 enable-background="new 195.102 83.711 459.241 459.249" xml:space="preserve">
<circle cx="385.21" cy="359.531" r="5.86"/>
<path d="M628.772,126.785c0-23.783-23.141-43.074-51.687-43.074H284.198c-28.546,0-51.687,19.281-51.687,43.074
	c0,17.951,21.207,34.173,39.949,40.637c-38.414,39.967-70.094,93.375-70.094,153.182c0,122.804,99.551,222.356,222.356,222.356
	s222.356-99.551,222.356-222.356c0-58.607-22.714-111.885-59.76-151.601C610.96,165.041,628.772,147.648,628.772,126.785z
	 M487.635,307.927c0,0-20.072,8.864-22.407,17.738c0,0,30.341,4.669,43.409,23.337c0,0,23.802-32.675,56.477-23.337
	c-22.872,16.807-34.536,28.936-34.536,48.078c0,19.133,16.807,36.87,34.536,42.479c-9.803,8.399-48.078,4.204-56.942-21.942
	c0,0-21.467,14.938-33.14,15.868c0,0,17.272,7.004,24.267,6.064c-7.004,8.399-35.01,16.333-52.273-0.465
	c-27.076,5.599-96.621-11.673-96.621-47.613c0,0,6.539-42.944,80.279-42.944C430.693,325.2,455.425,296.263,487.635,307.927z
	 M359.082,191.048c27.708,0,50.171,22.463,50.171,50.171c0,27.708-22.463,50.171-50.171,50.171
	c-27.708,0-50.171-22.463-50.171-50.171C308.911,213.51,331.365,191.048,359.082,191.048z M344.851,338.324
	c0,7.441-6.036,13.478-13.478,13.478c-7.441,0-13.478-6.036-13.478-13.478c0-7.442,6.037-13.478,13.478-13.478
	C338.815,324.846,344.851,330.883,344.851,338.324z M299.164,273.42c13.375,0,24.211,10.845,24.211,24.211
	c0,13.366-10.845,24.211-24.211,24.211s-24.211-10.836-24.211-24.202C274.953,284.274,285.798,273.42,299.164,273.42z
	 M579.838,459.64c-9.301,11.041-60.653,70.531-158.893,70.531c-98.249,0-163.358-82.549-163.358-82.549
	c-6.102-9.301,51.157-8.725,80.809,11.627c29.643,20.351,74.987,35.456,111.615,9.878C486.63,443.558,589.14,448.59,579.838,459.64z
	"/>
</svg>
