<?xml version="1.0" encoding="utf-8"?>
<!-- Generator: Adobe Illustrator 17.0.0, SVG Export Plug-In . SVG Version: 6.00 Build 0)  -->
<!DOCTYPE svg PUBLIC "-//W3C//DTD SVG 1.1//EN" "http://www.w3.org/Graphics/SVG/1.1/DTD/svg11.dtd">
<svg version="1.1" id="Layer_1" xmlns="http://www.w3.org/2000/svg" xmlns:xlink="http://www.w3.org/1999/xlink" x="0px" y="0px"
	 width="48px" height="48px" viewBox="0 0 48 48" enable-background="new 0 0 48 48" xml:space="preserve">
<path fill="#FFFFFF" d="M42,32.448V15c0-4.971-4.029-9-9-9H9.552C10.791,2.511,14.085,0,18,0h21c4.971,0,9,4.029,9,9v15
	C48,27.915,45.486,31.209,42,32.448z M39,18v12c0,4.968-4.029,9-9,9h-9l-6,9l-6-9c-4.971,0-9-4.032-9-9V18c0-4.971,4.029-9,9-9h21
	C34.971,9,39,13.029,39,18z M6,18v12c0,1.659,1.341,3,3,3h2.001L15,39l3.999-6H30c1.659,0,3-1.341,3-3V18c0-1.656-1.341-3-3-3H9
	C7.341,15,6,16.344,6,18z"/>
</svg>
