<?xml version="1.0" encoding="utf-8"?>
<!-- Generator: Adobe Illustrator 17.0.0, SVG Export Plug-In . SVG Version: 6.00 Build 0)  -->
<!DOCTYPE svg PUBLIC "-//W3C//DTD SVG 1.1//EN" "http://www.w3.org/Graphics/SVG/1.1/DTD/svg11.dtd">
<svg version="1.1" id="Layer_1" xmlns="http://www.w3.org/2000/svg" xmlns:xlink="http://www.w3.org/1999/xlink" x="0px" y="0px"
	 width="48px" height="48px" viewBox="0 0 48 48" enable-background="new 0 0 48 48" xml:space="preserve">
<path d="M24,48C10.746,48,0,37.254,0,24S10.746,0,24,0s24,10.746,24,24S37.254,48,24,48z M24,6C14.061,6,6,14.061,6,24
	s8.061,18,18,18s18-8.061,18-18S33.939,6,24,6z"/>
<g>
	<path d="M23.244,30.053c-1.107,0.012-1.917-0.819-2.081-1.848l-0.21-4.23c-0.204-1.257,0.511-2.143,1.731-2.309
		c3.315-0.456,4.83-1.502,4.81-3.372l-0.001-0.076c-0.019-1.717-1.326-2.696-3.539-2.672c-1.641,0.018-3.048,0.529-4.411,1.575
		c-0.454,0.348-1.062,0.622-1.71,0.629c-1.45,0.016-2.685-1.192-2.7-2.642c-0.008-0.725,0.289-1.492,0.97-2.071
		c2.004-1.701,4.549-2.797,7.908-2.834c5.495-0.059,9.265,2.725,9.32,7.8l0.001,0.076c0.052,4.846-3.285,6.867-7.435,7.751
		l-0.306,2.328c-0.142,0.994-0.934,1.88-2.041,1.892L23.244,30.053z M23.482,31.886c1.908-0.021,3.335,1.376,3.355,3.208
		l0.001,0.075c0.02,1.832-1.377,3.26-3.285,3.28s-3.335-1.377-3.355-3.209l-0.001-0.075C20.177,33.333,21.574,31.907,23.482,31.886z
		"/>
</g>
</svg>
