<?xml version="1.0" encoding="utf-8"?>
<!-- Generator: Adobe Illustrator 17.0.0, SVG Export Plug-In . SVG Version: 6.00 Build 0)  -->
<!DOCTYPE svg PUBLIC "-//W3C//DTD SVG 1.1//EN" "http://www.w3.org/Graphics/SVG/1.1/DTD/svg11.dtd">
<svg version="1.1" id="Layer_1" xmlns="http://www.w3.org/2000/svg" xmlns:xlink="http://www.w3.org/1999/xlink" x="0px" y="0px"
	 width="48px" height="48px" viewBox="0 0 48 48" enable-background="new 0 0 48 48" xml:space="preserve">
<path fill="#FFFFFF" d="M39,48H9c-4.971,0-9-4.029-9-9V0h36v3h6l0,0v3h3h3v33C48,43.971,43.971,48,39,48z M30,6H6v33
	c0,1.659,1.341,3,3,3h21V6z M45,9h-3v28.5c0,0.828-0.672,1.5-1.5,1.5S39,38.328,39,37.5V6h-3v31.5c0,2.484,2.016,4.5,4.5,4.5
	s4.5-2.016,4.5-4.5V9z M9,36h9v3H9V36z M9,30h12v3H9V30z M27,33h-3v-3h3V33z M21,24h6v3h-6V24z M9,9h18v12H9V9z M18,27H9v-3h9V27z"
	/>
</svg>
