<?xml version="1.0" encoding="utf-8"?>
<!-- Generator: Adobe Illustrator 17.0.0, SVG Export Plug-In . SVG Version: 6.00 Build 0)  -->
<!DOCTYPE svg PUBLIC "-//W3C//DTD SVG 1.1//EN" "http://www.w3.org/Graphics/SVG/1.1/DTD/svg11.dtd">
<svg version="1.1" id="Layer_1" xmlns="http://www.w3.org/2000/svg" xmlns:xlink="http://www.w3.org/1999/xlink" x="0px" y="0px"
	 width="48px" height="48px" viewBox="0 0 48 48" enable-background="new 0 0 48 48" xml:space="preserve">
<path fill="#FFFFFF" d="M24,45c-9.939,0-18-4.029-18-9c0-1.836,1.113-3.54,3-4.962V24c0-6.195,3.759-11.511,9.123-13.8
	C18.042,9.813,18,9.411,18,9c0-3.312,2.688-6,6-6s6,2.688,6,6c0,0.411-0.042,0.813-0.123,1.2C35.238,12.489,39,17.805,39,24v7.038
	c1.887,1.425,3,3.126,3,4.962C42,40.971,33.939,45,24,45z M24,30c-6.627,0-12,2.688-12,6s5.373,6,12,6s12-2.688,12-6
	S30.627,30,24,30z M24,39c-2.931,0-5.361-2.103-5.886-4.878C19.695,33.432,21.738,33,24,33s4.308,0.432,5.889,1.122
	C29.361,36.897,26.931,39,24,39z"/>
</svg>
