<?xml version="1.0" encoding="utf-8"?>
<!-- Generator: Adobe Illustrator 17.0.0, SVG Export Plug-In . SVG Version: 6.00 Build 0)  -->
<!DOCTYPE svg PUBLIC "-//W3C//DTD SVG 1.1//EN" "http://www.w3.org/Graphics/SVG/1.1/DTD/svg11.dtd">
<svg version="1.1" id="Layer_1" xmlns="http://www.w3.org/2000/svg" xmlns:xlink="http://www.w3.org/1999/xlink" x="0px" y="0px"
	 width="48px" height="48px" viewBox="0 0 48 48" enable-background="new 0 0 48 48" xml:space="preserve">
<path fill="#FFFFFF" d="M39,48H9c-4.971,0-9-4.032-9-9V9c0-4.971,4.029-9,9-9h30c4.971,0,9,4.029,9,9v30C48,43.968,43.971,48,39,48z
	 M42,9c0-1.656-1.341-3-3-3H9C7.341,6,6,7.344,6,9v30c0,1.659,1.341,3,3,3h30c1.659,0,3-1.341,3-3V9z M33,27h-6v6
	c0,1.659-1.341,3-3,3s-3-1.341-3-3v-6h-6c-1.659,0-3-1.344-3-3s1.341-3,3-3h6v-6c0-1.656,1.341-3,3-3s3,1.344,3,3v6h6
	c1.659,0,3,1.344,3,3S34.659,27,33,27z"/>
</svg>
