<?xml version="1.0" encoding="utf-8"?>
<!-- Generator: Adobe Illustrator 17.0.0, SVG Export Plug-In . SVG Version: 6.00 Build 0)  -->
<!DOCTYPE svg PUBLIC "-//W3C//DTD SVG 1.1//EN" "http://www.w3.org/Graphics/SVG/1.1/DTD/svg11.dtd">
<svg version="1.1" id="Layer_1" xmlns="http://www.w3.org/2000/svg" xmlns:xlink="http://www.w3.org/1999/xlink" x="0px" y="0px"
	 width="48px" height="48px" viewBox="0 0 48 48" enable-background="new 0 0 48 48" xml:space="preserve">
<path fill="#FFFFFF" d="M24,0C10.746,0,0,10.746,0,24s10.746,24,24,24s24-10.746,24-24S37.254,0,24,0z M39,27h-3.426
	c-0.282,1.089-0.714,2.112-1.272,3.063l2.427,2.424c1.17,1.173,1.17,3.072,0,4.245c-1.173,1.17-3.072,1.17-4.245,0l-2.424-2.427
	c-0.948,0.555-1.971,0.99-3.06,1.269V39c0,1.659-1.341,3-3,3s-3-1.341-3-3v-3.426c-1.089-0.282-2.112-0.714-3.063-1.272
	l-2.424,2.427c-1.173,1.17-3.072,1.17-4.242,0c-1.173-1.173-1.173-3.072,0-4.245l2.424-2.424c-0.555-0.948-0.99-1.971-1.269-3.06H9
	c-1.659,0-3-1.341-3-3s1.341-3,3-3h3.426c0.279-1.089,0.714-2.112,1.269-3.063l-2.421-2.421c-1.173-1.173-1.173-3.072,0-4.242
	c1.17-1.173,3.069-1.173,4.242,0l2.424,2.424c0.948-0.558,1.971-0.993,3.06-1.272V9c0-1.659,1.341-3,3-3s3,1.341,3,3v3.426
	c1.089,0.282,2.112,0.714,3.063,1.272l2.424-2.424c1.173-1.173,3.072-1.173,4.245,0c1.17,1.17,1.17,3.069,0,4.242l-2.427,2.424
	c0.555,0.948,0.99,1.971,1.269,3.06H39c1.659,0,3,1.341,3,3S40.659,27,39,27z M24,18c-3.312,0-6,2.688-6,6s2.688,6,6,6s6-2.688,6-6
	S27.312,18,24,18z"/>
</svg>
