<?xml version="1.0" encoding="utf-8"?>
<!-- Generator: Adobe Illustrator 17.0.0, SVG Export Plug-In . SVG Version: 6.00 Build 0)  -->
<!DOCTYPE svg PUBLIC "-//W3C//DTD SVG 1.1//EN" "http://www.w3.org/Graphics/SVG/1.1/DTD/svg11.dtd">
<svg version="1.1" id="Layer_1" xmlns="http://www.w3.org/2000/svg" xmlns:xlink="http://www.w3.org/1999/xlink" x="0px" y="0px"
	 width="96.404px" height="96.4px" viewBox="7.503 3.907 96.404 96.4" enable-background="new 7.503 3.907 96.404 96.4"
	 xml:space="preserve">
<path d="M8.463,52.36l15.274,27.042c1.622,2.853,5.666,5.186,8.968,5.189l30.013-0.01c1.655,0,5.27-0.179,4.359-1.814
	c-1.594-2.861-16.691-30.565-18.982-34.425l0,0l0,0c2.768-0.017,35.999-0.044,38.979-0.063c3.293-0.021-0.389-6.022,0.118-5.133
	L72.458,17.278c-1.622-2.859-5.667-5.186-8.967-5.188l-30.023,0.011c-3.311,0.002-7.398,2.33-9.076,5.183L9.101,43.164
	C7.423,46.022,6.842,49.508,8.463,52.36 M100.639,50.534c-2.617,0.501-1.805,2.864-1.543,4.872
	c1.53,11.702-3.545,21.424-11.204,27.923c-2.363,2.005-4.709,3.472-7.967,4.863c-2.07,0.884-4.517,1.419-3.704,3.798
	c0.778,2.274,3.438,1.281,5.7,0.291c8.029-3.517,13.519-9.114,16.95-14.893c3.188-5.374,5.066-11.104,5.035-18.044
	c-0.008-2.106,0.123-5.548-0.873-7.537C102.563,50.868,101.629,50.344,100.639,50.534z M89.941,54.215
	c-0.255,0.644,0.073,1.504,0.177,2.31c1.206,9.292-3.655,18.106-11.362,22.377c-1.945,1.078-5.676,1.662-4.908,4.297
	c0.865,2.973,4.7,0.774,6.921-0.475c4.757-2.679,7.853-6.042,10.051-9.707c4.751-7.923,3.373-18.609,3.358-18.639
	C93.371,52.595,90.62,52.5,89.941,54.215z M82.925,55.328c-2.121,0.336-1.911,1.888-1.853,3.383
	c0.194,4.99-2.311,9.515-6.388,12.035c-0.68,0.42-1.661,0.67-2.424,1.267c-0.598,0.468-0.939,1.72-0.826,2.232
	c0.841,3.826,5.987,0.286,7.787-1.234c3.099-2.618,4.982-5.9,5.9-9.544c0.471-1.875,0.781-4.232,0.354-6.297
	c-0.114-0.548-0.237-0.63-0.281-0.709C84.829,55.801,83.874,55.178,82.925,55.328z"/>
</svg>
