<?xml version="1.0" encoding="utf-8"?>
<!-- Generator: Adobe Illustrator 17.0.0, SVG Export Plug-In . SVG Version: 6.00 Build 0)  -->
<!DOCTYPE svg PUBLIC "-//W3C//DTD SVG 1.1//EN" "http://www.w3.org/Graphics/SVG/1.1/DTD/svg11.dtd">
<svg version="1.1" id="Capa_1" xmlns="http://www.w3.org/2000/svg" xmlns:xlink="http://www.w3.org/1999/xlink" x="0px" y="0px"
	 width="57.855px" height="57.858px" viewBox="5.405 3.071 57.855 57.858" enable-background="new 5.405 3.071 57.855 57.858"
	 xml:space="preserve">
<g>
	<path d="M34.333,58.337c-11.621,0-21.222-3.525-22.767-8.103c-0.143,0.424-0.223,0.855-0.223,1.296
		c0,5.191,10.293,9.399,22.99,9.399c12.698,0,22.991-4.208,22.991-9.399c0-0.44-0.079-0.872-0.223-1.296
		C55.555,54.811,45.954,58.337,34.333,58.337z"/>
	<path d="M40.799,38.534v-2.347c7.425-2.625,12.632-8.744,12.632-15.874c0-9.523-9.288-17.242-20.745-17.242
		s-20.745,7.72-20.745,17.242c0,7.562,5.86,13.982,14.009,16.308v2.181c-8.55,1.37-14.608,4.771-14.608,8.752
		c0,5.192,10.293,9.4,22.99,9.4c12.698,0,22.991-4.208,22.991-9.4C57.323,43.281,50.347,39.676,40.799,38.534z M16.432,21.232
		c0-7.205,7.519-13.046,16.794-13.046s16.793,5.841,16.793,13.046s-7.518,13.046-16.793,13.046S16.432,28.438,16.432,21.232z
		 M34.273,55.104c-9.423,0-17.063-3.484-17.063-7.783s7.64-7.782,17.063-7.782c9.424,0,17.063,3.483,17.063,7.782
		S43.697,55.104,34.273,55.104z"/>
	<path d="M29.84,11.955c-0.202-0.19-0.519-0.177-0.706,0.026l-8.667,9.333c-0.188,0.202-0.176,0.518,0.026,0.706
		c0.096,0.09,0.218,0.134,0.34,0.134c0.134,0,0.268-0.054,0.366-0.16l8.667-9.333C30.054,12.459,30.042,12.143,29.84,11.955z"/>
	<path d="M30.916,14.255l-7.23,7.786c-0.188,0.202-0.176,0.519,0.026,0.706c0.096,0.09,0.218,0.134,0.34,0.134
		c0.134,0,0.268-0.054,0.366-0.16l7.23-7.786c0.188-0.202,0.176-0.519-0.026-0.706C31.419,14.039,31.102,14.051,30.916,14.255z"/>
</g>
</svg>
