<?xml version="1.0" encoding="utf-8"?>
<!-- Generator: Adobe Illustrator 17.0.0, SVG Export Plug-In . SVG Version: 6.00 Build 0)  -->
<!DOCTYPE svg PUBLIC "-//W3C//DTD SVG 1.1//EN" "http://www.w3.org/Graphics/SVG/1.1/DTD/svg11.dtd">
<svg version="1.1" id="Layer_1" xmlns="http://www.w3.org/2000/svg" xmlns:xlink="http://www.w3.org/1999/xlink" x="0px" y="0px"
	 width="100px" height="100px" viewBox="5.706 2.107 100 100" enable-background="new 5.706 2.107 100 100" xml:space="preserve">
<path fill="#FFFFFF" d="M6.701,51.721l15.844,28.051c1.682,2.959,5.877,5.379,9.302,5.383l31.132-0.01
	c1.717,0,5.467-0.186,4.522-1.882c-1.653-2.968-17.314-31.705-19.69-35.709l0,0l0,0c2.871-0.018,37.342-0.046,40.433-0.065
	c3.416-0.022-0.404-6.247,0.122-5.324L73.083,15.331c-1.682-2.966-5.878-5.379-9.301-5.382L32.639,9.961
	c-3.434,0.002-7.674,2.417-9.415,5.376L7.363,42.182C5.622,45.147,5.019,48.763,6.701,51.721 M102.315,49.827
	c-2.715,0.52-1.872,2.971-1.601,5.054c1.587,12.138-3.677,22.223-11.622,28.964c-2.451,2.08-4.885,3.602-8.264,5.044
	c-2.147,0.917-4.685,1.472-3.842,3.94c0.807,2.359,3.566,1.329,5.913,0.302c8.328-3.648,14.023-9.454,17.582-15.448
	c3.307-5.574,5.255-11.518,5.223-18.717c-0.008-2.185,0.128-5.755-0.906-7.818C104.311,50.174,103.342,49.63,102.315,49.827z
	 M91.218,53.645c-0.265,0.668,0.076,1.56,0.184,2.396c1.251,9.639-3.791,18.781-11.786,23.212c-2.018,1.118-5.888,1.724-5.091,4.457
	c0.897,3.084,4.875,0.803,7.179-0.493c4.934-2.779,8.146-6.267,10.426-10.069c4.928-8.219,3.499-19.303,3.483-19.334
	C94.776,51.965,91.922,51.866,91.218,53.645z M83.94,54.8c-2.2,0.349-1.982,1.958-1.922,3.509c0.201,5.176-2.397,9.87-6.626,12.484
	c-0.705,0.436-1.723,0.695-2.514,1.314c-0.62,0.485-0.974,1.784-0.857,2.315c0.872,3.969,6.21,0.297,8.077-1.28
	c3.215-2.716,5.168-6.12,6.12-9.9c0.489-1.945,0.81-4.39,0.367-6.532c-0.118-0.568-0.246-0.653-0.291-0.735
	C85.915,55.291,84.925,54.644,83.94,54.8z"/>
</svg>
