<?xml version="1.0" encoding="utf-8"?>
<!-- Generator: Adobe Illustrator 17.0.0, SVG Export Plug-In . SVG Version: 6.00 Build 0)  -->
<!DOCTYPE svg PUBLIC "-//W3C//DTD SVG 1.1//EN" "http://www.w3.org/Graphics/SVG/1.1/DTD/svg11.dtd">
<svg version="1.1" id="Layer_1" xmlns="http://www.w3.org/2000/svg" xmlns:xlink="http://www.w3.org/1999/xlink" x="0px" y="0px"
	 width="100px" height="100px" viewBox="6.15 0.39 100 100" enable-background="new 6.15 0.39 100 100" xml:space="preserve">
<path fill="#FFFFFF" d="M7.632,56.901L26.42,82.697c1.993,2.72,6.397,4.623,9.767,4.236l30.634-3.56
	c1.689-0.196,5.358-0.807,4.235-2.368c-1.964-2.73-20.65-29.224-23.445-32.893l0,0l0,0c2.823-0.345,36.741-4.301,39.78-4.673
	c3.359-0.411-1.109-6.102-0.486-5.253L68.807,13.525c-1.994-2.726-6.398-4.623-9.766-4.235l-30.644,3.562
	c-3.38,0.394-7.275,3.253-8.651,6.364L7.196,47.439C5.821,50.555,5.64,54.182,7.632,56.901 M101.505,44.138
	c-2.612,0.821-1.504,3.136-0.999,5.155c2.946,11.764-1.085,22.287-8.134,29.827c-2.175,2.326-4.396,4.101-7.557,5.907
	c-2.008,1.148-4.442,1.983-3.331,4.315c1.063,2.229,3.661,0.901,5.853-0.377c7.78-4.54,12.721-10.902,15.54-17.206
	c2.619-5.863,3.859-11.933,3.006-19.014c-0.258-2.149-0.53-5.677-1.783-7.59C103.509,44.252,102.494,43.827,101.505,44.138z
	 M91.021,49.16c-0.184,0.687,0.252,1.526,0.454,2.338c2.33,9.343-1.59,18.915-8.952,24.185c-1.858,1.331-5.597,2.368-4.501,4.967
	c1.235,2.932,4.889,0.234,7.008-1.304c4.539-3.296,7.302-7.096,9.112-11.097c3.913-8.649,1.242-19.393,1.224-19.423
	C94.331,47.101,91.511,47.329,91.021,49.16z M83.99,51.126c-2.125,0.594-1.727,2.154-1.492,3.673
	c0.788,5.071-1.234,9.986-5.098,13.04c-0.644,0.509-1.616,0.881-2.324,1.58c-0.555,0.548-0.755,1.867-0.58,2.377
	c1.31,3.806,6.145-0.416,7.803-2.181c2.854-3.039,4.388-6.611,4.894-10.44c0.26-1.97,0.297-4.412-0.383-6.47
	c-0.181-0.546-0.316-0.616-0.371-0.691C85.991,51.384,84.942,50.861,83.99,51.126z"/>
</svg>
