<?xml version="1.0" encoding="utf-8"?>
<!-- Generator: Adobe Illustrator 17.0.0, SVG Export Plug-In . SVG Version: 6.00 Build 0)  -->
<!DOCTYPE svg PUBLIC "-//W3C//DTD SVG 1.1//EN" "http://www.w3.org/Graphics/SVG/1.1/DTD/svg11.dtd">
<svg version="1.1" id="Capa_1" xmlns="http://www.w3.org/2000/svg" xmlns:xlink="http://www.w3.org/1999/xlink" x="0px" y="0px"
	 width="521.248px" height="521.235px" viewBox="170.994 56.515 521.248 521.235"
	 enable-background="new 170.994 56.515 521.248 521.235" xml:space="preserve">
<g>
	<path d="M468.502,93.385c-19.291,3.767-31.959,22.425-28.192,41.735c3.767,19.3,22.546,31.95,41.846,28.164
		c19.3-3.758,31.847-22.518,28.071-41.818C506.461,102.165,487.821,89.618,468.502,93.385z"/>
	<path d="M254.713,132.999c-18.268,3.562-30.248,21.225-26.685,39.502c3.572,18.268,21.337,30.229,39.595,26.657
		c18.277-3.562,30.145-21.318,26.574-39.577C290.625,141.305,272.981,129.427,254.713,132.999z"/>
	<path d="M662.396,397.731c-5.646-10.594-14.752-10.576-20.351,0.056l-2.986,5.683l-40.126-260.761l-0.205-0.614
		c-1.451-4.167-6.092-6.502-10.371-5.004c-3.851,1.339-5.767,5.376-5.265,9.431l15.468,100.342L548,244.158l-25.923-55.677
		c-4.362-9.376-16.259-16.547-26.574-16.035l-32.768,2.958c-10.324,0.521-18.965,9.301-19.291,19.626l-11.831,278.033
		c0,0.195,0.056,0.381,0.065,0.577c-2.762,0.4-5.413,0.912-7.72,1.628l-0.298,0.093l-45.51-295.707l-0.205-0.577
		c-1.367-3.944-5.757-6.148-9.813-4.734c-3.646,1.265-5.46,5.088-4.985,8.92l14.631,94.956l-47.836-2.539l-24.537-52.692
		c-4.12-8.873-15.375-15.663-25.151-15.17l-31.02,2.8c-9.766,0.493-17.951,8.808-18.249,18.584l-11.199,263.123
		c0.028,1.656,0.233,3.237,0.539,4.79c0.27,1.386,0.707,2.688,1.191,3.962l-10.808-3.962c-11.264-4.13-24.909,1.135-30.471,11.775
		l-7.013,13.403c-5.571,10.65-0.344,19.254,11.654,19.254h472.727c12.008,0,23.653-9.534,25.997-21.309l7.785-38.879
		c2.353-11.775-0.316-29.904-5.971-40.488L662.396,397.731z M301.229,482.633l-23.346,19.179
		c-4.576,3.758-10.948,6.325-17.589,7.497c3.841-3.851,6.343-8.92,6.855-14.426l5.776-136.868l60.607,116.759
		C322.705,472.987,309.218,476.075,301.229,482.633z M375.815,485.553c4.492-5.292,6.688-12.436,5.246-19.821
		c-0.344-1.767-0.884-3.376-1.516-5.023l-79.368-155.991l0.633-20.128l6.409,14.491c5.032,9.255,14.222,8.492,14.222,8.492
		l56.533,3.153c1.135-0.009,2.195-0.121,3.274-0.326c0.493-0.093,0.939-0.288,1.404-0.419l26.202,169.99l-10.334,3.209
		C392.279,485.125,383.945,485.879,375.815,485.553z M481.533,482.13l-1.256-0.456c0.67-1.907,1.191-3.869,1.377-5.916
		l6.102-144.625l59.928,115.484l-29.866,28.015C509.074,482.837,492.816,486.195,481.533,482.13z M595.585,430.174l-79.033-155.331
		l0.66-21.272l6.781,15.31c5.311,9.776,15.031,8.976,15.031,8.976l59.733,3.321c1.2-0.009,2.325-0.121,3.46-0.335
		c0.521-0.102,0.995-0.307,1.497-0.446l21.802,141.453c-6.567,5.023-14.836,8.325-22.258,8.325h-7.673V430.174z"/>
</g>
</svg>
