<?xml version="1.0" encoding="utf-8"?>
<!-- Generator: Adobe Illustrator 17.0.0, SVG Export Plug-In . SVG Version: 6.00 Build 0)  -->
<!DOCTYPE svg PUBLIC "-//W3C//DTD SVG 1.1//EN" "http://www.w3.org/Graphics/SVG/1.1/DTD/svg11.dtd">
<svg version="1.1" id="Layer_1" xmlns="http://www.w3.org/2000/svg" xmlns:xlink="http://www.w3.org/1999/xlink" x="0px" y="0px"
	 width="38.058px" height="38.069px" viewBox="5.971 5.965 38.058 38.069" enable-background="new 5.971 5.965 38.058 38.069"
	 xml:space="preserve">
<g>
	<path d="M34,14.558c-2.972,0-5.634,1.301-7.471,3.355c0.638,1.43,1,3.009,1,4.674c0,2.519-0.805,4.897-2.287,6.873
		c0.499,0.891,1.127,1.699,1.862,2.396l-0.335,5.586l4.764-3.145c0.791,0.201,1.614,0.319,2.467,0.319
		c5.54,0,10.029-4.491,10.029-10.029S39.54,14.558,34,14.558z M28.06,23.048c0-0.994,0.806-1.8,1.8-1.8s1.8,0.806,1.8,1.8
		s-0.806,1.8-1.8,1.8S28.06,24.042,28.06,23.048z M34,31.357c-2.77,0-5.015-2.198-5.015-3.463S31.23,27.947,34,27.947
		s5.014-1.318,5.014-0.053C39.015,29.16,36.771,31.357,34,31.357z M38.141,24.848c-0.994,0-1.8-0.806-1.8-1.8s0.806-1.8,1.8-1.8
		s1.8,0.806,1.8,1.8S39.135,24.848,38.141,24.848z"/>
	<path d="M26.029,22.586c0-5.539-4.49-10.029-10.029-10.029c-5.54,0-10.029,4.49-10.029,10.029S10.46,32.616,16,32.616
		c0.853,0,1.677-0.118,2.467-0.319l4.764,3.145l-0.335-5.586C24.822,28.028,26.029,25.451,26.029,22.586z M10.06,21.048
		c0-0.994,0.806-1.8,1.8-1.8c0.994,0,1.8,0.806,1.8,1.8s-0.806,1.8-1.8,1.8C10.866,22.848,10.06,22.042,10.06,21.048z M16,29.357
		c-2.77,0-5.014-2.198-5.014-3.463S13.23,25.947,16,25.947s5.015-1.318,5.015-0.053C21.014,27.16,18.77,29.357,16,29.357z
		 M20.14,22.848c-0.994,0-1.8-0.806-1.8-1.8s0.806-1.8,1.8-1.8s1.8,0.806,1.8,1.8S21.134,22.848,20.14,22.848z"/>
</g>
</svg>
