<?xml version="1.0" encoding="utf-8"?>
<!-- Generator: Adobe Illustrator 17.0.0, SVG Export Plug-In . SVG Version: 6.00 Build 0)  -->
<!DOCTYPE svg PUBLIC "-//W3C//DTD SVG 1.1//EN" "http://www.w3.org/Graphics/SVG/1.1/DTD/svg11.dtd">
<svg version="1.1" id="Capa_1" xmlns="http://www.w3.org/2000/svg" xmlns:xlink="http://www.w3.org/1999/xlink" x="0px" y="0px"
	 width="542.268px" height="542.276px" viewBox="137.715 8.927 542.268 542.276"
	 enable-background="new 137.715 8.927 542.268 542.276" xml:space="preserve">
<g>
	<path d="M328.611,310.79v71.874c0,5.786,4.691,10.477,10.48,10.477s10.48-4.691,10.48-10.477v-65.305l-33.196-35.038
		c-7.251-7.655-10.111-18.347-7.649-28.6l7.989-33.288h-9.337l7.003-10.623c1.476,0.676,3.03,1.208,4.661,1.539
		c1.685-4.974,4.542-9.316,8.218-12.745c4.819-4.488,11.042-7.387,17.858-8.105c1.021-0.107,2.051-0.176,3.098-0.182v-34.291
		c0-5.786-4.691-10.477-10.477-10.477c-5.786,0-10.477,4.694-10.477,10.477v12.644c-1.253-0.226-2.539-0.363-3.857-0.363
		c-1.327,0-2.619,0.137-3.881,0.366v-29.835c0-5.786-4.691-10.477-10.48-10.477c-5.786,0-10.477,4.691-10.477,10.477v56.891
		l-5.075,7.7l-5.075-7.7v-56.891c0-5.786-4.691-10.477-10.477-10.477c-5.786,0-10.477,4.691-10.477,10.477v29.835
		c-1.262-0.226-2.554-0.366-3.881-0.366c-2.676,0-5.23,0.506-7.599,1.393v-48.721c0-5.786-4.691-10.477-10.48-10.477
		s-10.477,4.691-10.477,10.477v56.891l-6.432,9.76v-48.792c0-5.786-4.691-10.477-10.477-10.477c-5.786,0-10.477,4.691-10.477,10.477
		v13.004c-2.369-0.884-4.92-1.393-7.599-1.393c-12.007,0-21.74,9.733-21.74,21.74s9.733,21.74,21.74,21.74
		c2.676,0,5.23-0.506,7.599-1.393v6.334c0,1.274,0.259,2.524,0.705,3.703h-8.304h-18.704l-16.284-24.704v-56.888
		c0-5.786-4.691-10.477-10.477-10.477s-10.477,4.691-10.477,10.477v60.034c0,2.051,0.601,4.054,1.729,5.765l28.258,42.872v45.804
		c-0.134,0.673-0.208,1.366-0.208,2.078v87.277c0,5.786,4.691,10.477,10.477,10.477s10.48-4.691,10.48-10.477v-71.877h5.209h5.209
		v71.874c0,5.786,4.691,10.477,10.48,10.477s10.48-4.691,10.48-10.477v-87.277c0-0.711-0.074-1.405-0.208-2.078v-45.587
		l11.629,17.641v45.804c-0.134,0.673-0.208,1.366-0.208,2.078v87.277c0,5.786,4.691,10.477,10.48,10.477
		c5.786,0,10.477-4.691,10.477-10.477V310.79h5.209h5.209v71.874c0,5.786,4.691,10.477,10.477,10.477
		c5.786,0,10.477-4.691,10.477-10.477v-87.277c0-0.711-0.074-1.405-0.208-2.078v-45.804l3.956-6.003l3.956,6.003v45.804
		c-0.134,0.673-0.208,1.366-0.208,2.078v87.277c0,5.786,4.691,10.477,10.477,10.477c5.786,0,10.48-4.691,10.48-10.477V310.79h5.209
		H328.611L328.611,310.79z M263.577,220.432h-18.704l-6.402-9.715l6.375-9.673c3.78,6.42,10.742,10.742,18.73,10.742
		c3.223,0,6.268-0.72,9.021-1.976l7.003,10.623h-16.023V220.432z"/>
	<path d="M372.105,201.362c1.077-1.723,2.232-3.39,3.497-4.968c1.179-1.47,2.414-2.89,3.741-4.224
		c2.331-2.342,4.881-4.459,7.617-6.328c2.991-2.042,6.209-3.768,9.599-5.161v-16.802c0-5.786-4.691-10.477-10.477-10.477
		c-2.581,0-4.914,0.97-6.739,2.515v-17.082c0-5.786-4.691-10.477-10.48-10.477s-10.477,4.691-10.477,10.477v53.141
		c2.405,0.813,4.64,1.914,6.709,3.235C367.757,196.91,370.108,198.99,372.105,201.362z"/>
	<polygon points="365.224,333.887 357.036,325.243 357.036,387.813 365.224,377.806 	"/>
	<path d="M660.173,118.354c-5.786,0-10.477,4.691-10.477,10.477v56.891l-16.284,24.704h-18.704h-8.304
		c0.446-1.182,0.705-2.429,0.705-3.703v-6.334c2.369,0.884,4.92,1.393,7.596,1.393c12.007,0,21.74-9.733,21.74-21.74
		s-9.733-21.74-21.74-21.74c-2.676,0-5.23,0.506-7.596,1.393v-13.004c0-5.786-4.691-10.477-10.48-10.477
		c-5.786,0-10.477,4.691-10.477,10.477v48.795l-6.435-9.76v-56.897c0-5.786-4.691-10.477-10.477-10.477s-10.48,4.691-10.48,10.477
		v48.721c-2.369-0.884-4.92-1.393-7.599-1.393c-1.327,0-2.619,0.137-3.881,0.366v-29.835c0-5.786-4.691-10.477-10.477-10.477
		s-10.477,4.691-10.477,10.477v56.891l-5.075,7.7l-0.798-1.208v2.417v35.66v2.417l0.798-1.208l3.956,6.003v45.804
		c-0.134,0.673-0.208,1.366-0.208,2.078v87.277c0,5.786,4.691,10.477,10.48,10.477c5.786,0,10.477-4.691,10.477-10.477v-71.874
		h5.209h5.209v71.874c0,5.786,4.691,10.477,10.477,10.477s10.48-4.691,10.48-10.477v-87.277c0-0.711-0.074-1.405-0.208-2.078V255.36
		l11.629-17.641v45.587c-0.134,0.673-0.208,1.366-0.208,2.078v87.277c0,5.786,4.691,10.477,10.48,10.477s10.477-4.691,10.477-10.477
		v-71.874h5.209h5.209v71.874c0,5.786,4.691,10.477,10.48,10.477s10.477-4.691,10.477-10.477v-87.277
		c0-0.711-0.074-1.405-0.208-2.078v-45.804l28.258-42.872c1.128-1.711,1.729-3.715,1.729-5.765V128.83
		C670.653,123.047,665.962,118.354,660.173,118.354z M569.875,228.287h-18.704H535.15l7.003-10.623
		c2.75,1.259,5.798,1.976,9.021,1.976c7.989,0,14.953-4.322,18.731-10.742l6.375,9.673L569.875,228.287z"/>
	<path d="M517.303,265.039c-0.586,1.202-1.22,2.381-1.964,3.509l-41.143,62.424v64.948c0.214,1.482,0.324,2.976,0.324,4.456v0.503
		c0.378,0.042,0.75,0.116,1.14,0.116c5.786,0,10.477-4.691,10.477-10.477v-71.874h5.209h5.209v71.874
		c0,5.786,4.691,10.477,10.48,10.477s10.477-4.691,10.477-10.477v-87.277c0-0.711-0.074-1.405-0.208-2.078v-36.124H517.303z"/>
	<path d="M456.358,146.689c0-5.786-4.691-10.477-10.477-10.477c-5.786,0-10.48,4.691-10.48,10.477v1.372
		c-1.827-1.548-4.158-2.515-6.739-2.515c-5.786,0-10.477,4.694-10.477,10.477v20.847c6.057,0.217,11.852,1.455,17.215,3.578
		c1.274,0.503,2.515,1.069,3.738,1.667c6.646,3.256,12.522,7.837,17.215,13.465v-48.89h0.005V146.689z"/>
	<path d="M230.292,100.721c6.25-8.203,6.53-19.739,1.363-28.764c-5.59-9.76-30.02-28.35-16.528-39.163
		c7.489-6.003-3.113-16.462-10.525-10.525c-8.786,7.042-9.623,17.852-6.566,28.091c4.075,13.641,30.841,27.835,19.406,42.848
		C211.621,100.846,224.556,108.246,230.292,100.721z"/>
	<path d="M618.239,37.122c9.548-0.967,6.337-15.51-3.11-14.555c-11.203,1.134-17.781,9.751-20.781,20.007
		c-3.997,13.665,10.754,40.131-7.006,46.512c-9.036,3.247-2.203,16.489,6.7,13.29c9.706-3.488,16.212-13.019,16.781-23.4
		C611.435,67.746,601.035,38.863,618.239,37.122z"/>
	<path d="M326.751,99.084c1.598,10.275,9.021,19.114,19.025,21.618c9.179,2.298,14.662-11.557,5.349-13.891
		c-18.308-4.587-6.262-32.386-11.596-45.587c-4.003-9.908-11.406-17.829-22.668-17.844c-9.495-0.012-11.248,14.778-1.649,14.79
		C332.498,58.198,325.025,87.973,326.751,99.084z"/>
	<path d="M508.627,45.744c4.375-9.751,4.965-20.576-2.825-28.71c-6.566-6.861-18.451,2.119-11.813,9.051
		c11.956,12.489-14.7,27.716-21.522,36.657c-6.307,8.268-7.542,19.742-2.42,28.695c4.697,8.212,18.489,2.575,13.724-5.762
		C474.401,69.297,502.799,58.736,508.627,45.744z"/>
	<path d="M374.281,61.341c3.985,9.605,13.293,16.433,23.603,16.495c9.462,0.06,11.507-14.7,1.905-14.763
		c-18.873-0.119-13.754-29.981-22.064-41.542c-6.239-8.679-15.305-14.62-26.249-11.965c-9.23,2.238-7.429,17.022,1.899,14.76
		C370.182,20.254,369.971,50.953,374.281,61.341z"/>
	<path d="M269.149,102.043c13.435,0,13.435-20.835,0-20.835C255.713,81.208,255.713,102.043,269.149,102.043z"/>
	<path d="M169.439,72.279c13.435,0,13.435-20.835,0-20.835S156.004,72.279,169.439,72.279z"/>
	<path d="M449.221,24.656c-13.435,0-13.435,20.835,0,20.835C462.656,45.491,462.656,24.656,449.221,24.656z"/>
	<path d="M429.874,99.067c13.435,0,13.435-20.835,0-20.835S416.439,99.067,429.874,99.067z"/>
	<path d="M544.466,67.814c13.435,0,13.435-20.835,0-20.835C531.03,46.979,531.03,67.814,544.466,67.814z"/>
	<path d="M663.522,69.303c-13.435,0-13.435,20.835,0,20.835S676.957,69.303,663.522,69.303z"/>
	<path d="M465.18,317.606l37.732-57.245c1.741-2.64,2.667-5.733,2.667-8.893V228.29v-2.714v-11.263v-32.818v-44.089
		c0-0.396-0.03-0.786-0.06-1.176c-0.604-8.376-7.575-14.989-16.108-14.989c-8.929,0-16.165,7.239-16.165,16.165v16.721v31.737
		v24.073v18.35v18.329l-7.858,11.92l-17.263,26.195h-38.967h-3.566h-21.891l-27.017-28.52l5.358-22.32l2.101-8.754
		c0.006-0.03,0.009-0.063,0.018-0.092c0.098-0.426,0.176-0.851,0.238-1.274c0.021-0.211,0.057-0.417,0.08-0.628
		c0.208-1.854,0.086-3.685-0.321-5.432c-0.387-1.658-1.021-3.241-1.89-4.685c-2.158-3.581-5.688-6.331-10.072-7.384
		c-0.104-0.024-0.205-0.033-0.31-0.057c-1.17-0.259-2.336-0.399-3.488-0.399c-0.063,0-0.122,0.015-0.185,0.015
		c-7.224,0.083-13.748,5.039-15.51,12.382l-0.682,2.842l-1.054,4.393l-7.768,32.368c-1.277,5.319,0.223,10.923,3.982,14.894
		l22.385,23.633l7.679,8.108l22.859,24.133v0.021v55.141l-2.113,2.581l-17.739,21.68l-33.848,41.375
		c-5.414,6.622-4.738,16.314,1.548,22.121l41.187,38.021c3.107,2.869,7.039,4.286,10.959,4.286c4.354,0,8.697-1.75,11.882-5.2
		c6.057-6.563,5.646-16.787-0.914-22.847l-29.996-27.689l27.249-33.3h38.985v110.895c0,8.926,7.239,16.165,16.165,16.165
		s16.165-7.239,16.165-16.165v-134.66c0-1.098-0.116-2.173-0.324-3.209v-70.657L465.18,317.606z"/>
	<path d="M380.076,237.621c2.473,10.352,9.23,19.034,18.329,24.025c3.31,1.816,6.929,3.134,10.754,3.875
		c2.316,0.449,4.7,0.702,7.143,0.702c14.644,0,27.279-8.465,33.377-20.749c1.423-2.866,2.518-5.923,3.167-9.149
		c0.479-2.387,0.738-4.857,0.738-7.387c0-2.914-0.369-5.736-1-8.456c-1.964-8.462-6.801-15.805-13.441-20.966
		c-1.191-0.926-2.441-1.774-3.738-2.551c-2.259-1.351-4.664-2.479-7.2-3.334c-3.17-1.069-6.53-1.705-10.016-1.881
		c-0.628-0.033-1.25-0.095-1.887-0.095c-5.417,0-10.551,1.182-15.195,3.259c-1.58,0.705-3.092,1.527-4.548,2.438
		c-9.441,5.914-16.055,15.909-17.314,27.535c-0.024,0.211-0.027,0.423-0.057,0.634c-0.092,1.003-0.143,2.018-0.155,3.042
		c0,0.125-0.018,0.247-0.018,0.375c0,1.205,0.068,2.393,0.182,3.569C379.365,234.255,379.677,235.954,380.076,237.621z"/>
</g>
</svg>
