<?xml version="1.0" encoding="utf-8"?>
<!-- Generator: Adobe Illustrator 17.0.0, SVG Export Plug-In . SVG Version: 6.00 Build 0)  -->
<!DOCTYPE svg PUBLIC "-//W3C//DTD SVG 1.1//EN" "http://www.w3.org/Graphics/SVG/1.1/DTD/svg11.dtd">
<svg version="1.1" id="Layer_1" xmlns="http://www.w3.org/2000/svg" xmlns:xlink="http://www.w3.org/1999/xlink" x="0px" y="0px"
	 width="48px" height="48px" viewBox="0 0 48 48" enable-background="new 0 0 48 48" xml:space="preserve">
<path d="M39,48H9c-4.971,0-9-4.032-9-9V9c0-4.971,4.029-9,9-9h30c4.971,0,9,4.029,9,9v30C48,43.968,43.971,48,39,48z M42,9
	c0-1.656-1.341-3-3-3H9C7.341,6,6,7.344,6,9v30c0,1.659,1.341,3,3,3h30c1.659,0,3-1.341,3-3V9z M34.125,34.222h-20.25v-2.306h20.25
	V34.222z M27.547,28.172h-7.093c-1.959,0-3.547-1.589-3.547-3.547l0,0c0.365-2.168,1.824-3.99,3.679-5.017
	c-0.81-0.849-1.315-1.992-1.315-3.258v-2.364c0-2.611,2.117-4.729,4.729-4.729s4.729,2.117,4.729,4.729v2.364
	c0,1.266-0.505,2.409-1.313,3.258c1.854,1.027,3.313,2.849,3.678,5.017l0,0C31.093,26.583,29.504,28.172,27.547,28.172z
	 M26.364,16.35v-2.364c0-1.305-1.059-2.364-2.364-2.364s-2.364,1.059-2.364,2.364v2.364c0,1.305,1.059,2.364,2.364,2.364
	S26.364,17.655,26.364,16.35z M28.729,24.626C28.202,22.589,26.2,21.079,24,21.079l0,0l0,0c-2.201,0-4.202,1.51-4.729,3.547l0,0
	c0,0.654,0.53,1.182,1.182,1.182h7.093C28.2,25.808,28.729,25.279,28.729,24.626L28.729,24.626z M30.917,38.722H17.083v-2.306
	h13.833V38.722z"/>
</svg>
