<?xml version="1.0" encoding="utf-8"?>
<!-- Generator: Adobe Illustrator 17.0.0, SVG Export Plug-In . SVG Version: 6.00 Build 0)  -->
<!DOCTYPE svg PUBLIC "-//W3C//DTD SVG 1.1//EN" "http://www.w3.org/Graphics/SVG/1.1/DTD/svg11.dtd">
<svg version="1.1" id="Layer_1" xmlns="http://www.w3.org/2000/svg" xmlns:xlink="http://www.w3.org/1999/xlink" x="0px" y="0px"
	 width="526.21px" height="526.224px" viewBox="158.956 24.19 526.21 526.224"
	 enable-background="new 158.956 24.19 526.21 526.224" xml:space="preserve">
<g>
	<path d="M382.68,324.976c-0.205,2.279-0.484,4.539-0.484,6.846c0,59.416,67.815,107.588,151.48,107.588
		c13.608,0,26.732-1.395,39.279-3.786l27.811,17.607l22.751,14.398c12.566,7.953,21.114,2.465,19.096-12.268l-5.404-39.54
		l-0.512-5.283c29.745-19.644,48.469-47.595,48.469-78.716c0-59.416-67.815-107.588-151.48-107.588
		c-19.681,0-38.433,2.753-55.687,7.608C468.614,273.159,432.209,307.639,382.68,324.976z M483.961,290.525
		c23.355-21.411,50.115,7.115,50.115,7.115h0.195c0,0,26.76-28.527,50.115-7.115c23.355,21.411,2.921,71.127-50.115,92.538
		l-1.414-0.977C479.822,360.675,460.606,311.936,483.961,290.525z"/>
	<path d="M207.425,289.632l-0.512,5.283l-5.404,39.54c-1.386,10.148,2.242,15.914,8.743,15.914c2.93,0,6.455-1.172,10.352-3.646
		l22.751-14.398l27.811-17.607c12.547,2.39,25.671,3.786,39.279,3.786c28.276,0,54.654-5.609,77.303-15.189
		c33.205-14.045,58.142-36.796,68.615-63.881c3.516-9.097,5.553-18.63,5.553-28.518c0-59.416-67.815-107.588-151.48-107.588
		c-83.655,0-151.48,48.171-151.48,107.588C158.957,242.037,177.68,269.987,207.425,289.632z M259.726,169.608
		c23.355-21.411,50.115,7.115,50.115,7.115h0.195c0,0,26.76-28.527,50.115-7.115s4.139,70.15-48.897,91.561l-1.414,0.977
		C256.806,240.735,236.371,191.02,259.726,169.608z"/>
</g>
</svg>
