<?xml version="1.0" encoding="utf-8"?>
<!-- Generator: Adobe Illustrator 17.0.0, SVG Export Plug-In . SVG Version: 6.00 Build 0)  -->
<!DOCTYPE svg PUBLIC "-//W3C//DTD SVG 1.1//EN" "http://www.w3.org/Graphics/SVG/1.1/DTD/svg11.dtd">
<svg version="1.1" id="Capa_1" xmlns="http://www.w3.org/2000/svg" xmlns:xlink="http://www.w3.org/1999/xlink" x="0px" y="0px"
	 width="612px" height="612px" viewBox="0 90 612 612" enable-background="new 0 90 612 612" xml:space="preserve">
<path d="M447.066,246.495c-2.446,0.816-6.426,2.55-11.934,5.202c-5.508,2.652-12.036,5.508-19.584,8.568s-15.912,5.712-25.092,7.956
	c-9.182,2.244-18.77,3.264-28.766,3.06c-9.996-0.204-19.99-2.142-29.986-5.814s-19.482-9.996-28.458-18.972
	s-19.176-14.994-30.6-18.054s-22.95-4.182-34.578-3.366s-23.052,3.06-34.272,6.732s-21.114,7.752-29.682,12.24
	c-8.568,4.488-15.504,8.874-20.808,13.158s-7.956,7.242-7.956,8.874v75.276v71.604v131.58c0,6.12,2.244,11.424,6.732,15.912
	c4.488,4.488,9.792,6.732,15.912,6.732c6.528,0,11.934-2.244,16.218-6.732s6.426-9.792,6.426-15.912V417.855
	c6.936-3.266,14.892-6.12,23.868-8.568s18.36-3.568,28.152-3.366c9.792,0.204,19.89,2.244,30.294,6.12
	c10.404,3.876,20.502,10.71,30.294,20.502c12.24,12.24,25.806,19.688,40.698,22.338c14.894,2.652,29.479,2.552,43.76-0.306
	c14.278-2.854,27.54-7.344,39.778-13.464c12.24-6.12,22.032-11.628,29.376-16.524c4.08-2.854,6.732-6.018,7.956-9.484
	c1.226-3.469,1.836-9.486,1.836-18.056V266.079c0-5.712-1.428-10.914-4.282-15.606C459.51,245.781,454.41,244.455,447.066,246.495z"
	/>
<path d="M587.826,276.966c-16.116-37.332-37.944-69.768-65.484-97.308c-27.54-27.54-59.976-49.368-97.308-65.484
	C387.702,98.058,348.024,90,306,90c-28.152,0-55.284,3.672-81.396,11.016s-50.49,17.646-73.134,30.906
	c-22.644,13.26-43.248,29.172-61.812,47.736c-18.564,18.564-34.476,39.168-47.736,61.812c-13.26,22.644-23.562,47.022-30.906,73.134
	S0,367.848,0,396c0,28.152,3.672,55.284,11.016,81.396c7.344,26.112,17.646,50.488,30.906,73.134
	c13.26,22.644,29.172,43.25,47.736,61.812c18.564,18.564,39.168,34.476,61.812,47.736c22.644,13.26,47.022,23.56,73.134,30.906
	C250.716,698.328,277.848,702,306,702c28.152,0,55.284-3.672,81.395-11.016c26.113-7.344,50.489-17.646,73.135-30.906
	c22.644-13.258,43.25-29.172,61.812-47.736c18.564-18.564,34.476-39.168,47.736-61.812c13.26-22.646,23.56-47.024,30.906-73.134
	C608.328,451.284,612,424.152,612,396C612,353.976,603.942,314.298,587.826,276.966z M306,655C162.958,655,47,539.042,47,396
	s115.958-259,259-259s259,115.958,259,259S449.042,655,306,655z"/>
</svg>
