<?xml version="1.0" encoding="utf-8"?>
<!-- Generator: Adobe Illustrator 17.0.0, SVG Export Plug-In . SVG Version: 6.00 Build 0)  -->
<!DOCTYPE svg PUBLIC "-//W3C//DTD SVG 1.1//EN" "http://www.w3.org/Graphics/SVG/1.1/DTD/svg11.dtd">
<svg version="1.1" id="Layer_1" xmlns="http://www.w3.org/2000/svg" xmlns:xlink="http://www.w3.org/1999/xlink" x="0px" y="0px"
	 width="466.667px" height="466.667px" viewBox="246.667 46.667 466.667 466.667"
	 enable-background="new 246.667 46.667 466.667 466.667" xml:space="preserve">
<g id="language">
	<path d="M480,46.667c-128.333,0-233.333,105-233.333,233.333s105,233.333,233.333,233.333s233.333-105,233.333-233.333
		S608.333,46.667,480,46.667z M641,186.667h-67.667c-7-30.333-18.667-56-32.667-84C582.667,119,620,147,641,186.667z M480,93.333
		c18.667,28,35,58.333,44.333,93.333h-88.667C445,154,461.333,121.333,480,93.333z M300.333,326.667c-4.667-14-7-30.333-7-46.667
		c0-16.333,2.333-32.667,7-46.667h79.333c-2.333,16.333-2.333,30.333-2.333,46.667c0,16.333,2.333,30.333,2.333,46.667H300.333z
		 M319,373.333h67.667c7,30.333,18.667,56,32.667,84C377.333,441,340,413,319,373.333z M386.667,186.667H319
		c23.333-39.667,58.333-67.667,100.333-84C405.333,130.667,393.667,156.333,386.667,186.667z M480,466.667
		c-18.667-28-35-58.333-44.333-93.333h88.667C515,406,498.667,438.667,480,466.667z M533.667,326.667H426.333
		c-2.333-16.333-4.667-30.333-4.667-46.667c0-16.333,2.333-30.333,4.667-46.667H536c2.333,16.333,4.667,30.333,4.667,46.667
		C540.667,296.333,536,310.333,533.667,326.667z M540.667,457.333c14-25.667,25.667-53.667,32.667-84H641
		C620,413,582.667,441,540.667,457.333z M582.667,326.667C585,310.333,585,296.333,585,280c0-16.333-2.333-30.333-2.333-46.667H662
		c4.667,14,7,30.333,7,46.667c0,16.333-2.333,32.667-7,46.667H582.667z"/>
</g>
</svg>
