<?xml version="1.0" encoding="utf-8"?>
<!-- Generator: Adobe Illustrator 17.0.0, SVG Export Plug-In . SVG Version: 6.00 Build 0)  -->
<!DOCTYPE svg PUBLIC "-//W3C//DTD SVG 1.1//EN" "http://www.w3.org/Graphics/SVG/1.1/DTD/svg11.dtd">
<svg version="1.1" id="Layer_1" xmlns="http://www.w3.org/2000/svg" xmlns:xlink="http://www.w3.org/1999/xlink" x="0px" y="0px"
	 width="46.15px" height="46.15px" viewBox="2.635 1.009 46.15 46.15" enable-background="new 2.635 1.009 46.15 46.15"
	 xml:space="preserve">
<g>
	<path d="M25.71,36.085"/>
	<g>
		<image overflow="visible" width="1001" height="400" xlink:href="E62C8B19.png"  transform="matrix(0.03 0 0 0.03 11.71 19.085)">
		</image>
		<g>
			<path fill="#FFB615" d="M34.71,21.085h-18c-1.656,0-3,1.344-3,3c0,1.659,1.344,3,3,3h18c1.659,0,3-1.341,3-3
				C37.71,22.429,36.369,21.085,34.71,21.085z"/>
		</g>
	</g>
	<path d="M25.71,12.085"/>
	<g>
		<path fill="#333333" d="M46.201,14.252c0-1.1-0.78-2.45-1.732-3L27.44,1.422c-0.953-0.55-2.512-0.55-3.464,0L6.949,11.255
			c-0.953,0.55-1.732,1.9-1.732,3l0.002,19.662c0,1.1,0.78,2.45,1.732,3l17.029,9.83c0.953,0.55,2.512,0.55,3.464,0l17.027-9.833
			c0.953-0.55,1.732-1.9,1.732-3L46.201,14.252z M27.443,40.158c-0.953,0.55-2.511,0.55-3.464,0l-11.322-6.535
			c-0.953-0.55-1.732-1.9-1.732-3L10.923,17.55c0-1.1,0.779-2.45,1.732-3l11.321-6.538c0.953-0.55,2.511-0.55,3.464,0l11.322,6.536
			c0.953,0.55,1.732,1.9,1.732,3l0.001,13.073c0,1.1-0.779,2.45-1.732,3L27.443,40.158z"/>
	</g>
</g>
</svg>
