<?xml version="1.0" encoding="utf-8"?>
<!-- Generator: Adobe Illustrator 17.0.0, SVG Export Plug-In . SVG Version: 6.00 Build 0)  -->
<!DOCTYPE svg PUBLIC "-//W3C//DTD SVG 1.1//EN" "http://www.w3.org/Graphics/SVG/1.1/DTD/svg11.dtd">
<svg version="1.1" id="Layer_1" xmlns="http://www.w3.org/2000/svg" xmlns:xlink="http://www.w3.org/1999/xlink" x="0px" y="0px"
	 width="48px" height="48px" viewBox="0 0 48 48" enable-background="new 0 0 48 48" xml:space="preserve">
<path fill="#FFB633" d="M42,45c-1.659,0-3-1.341-3-3V15c0-3.312-2.688-6-6-6s-6,2.688-6,6v18c0,6.627-5.373,12-12,12S3,39.627,3,33
	V6c0-1.656,1.341-3,3-3s3,1.344,3,3v27c0,3.312,2.688,6,6,6s6-2.688,6-6V15c0-6.627,5.373-12,12-12s12,5.373,12,12v27
	C45,43.659,43.659,45,42,45z"/>
</svg>
