<?xml version="1.0" encoding="utf-8"?>
<!-- Generator: Adobe Illustrator 17.0.0, SVG Export Plug-In . SVG Version: 6.00 Build 0)  -->
<!DOCTYPE svg PUBLIC "-//W3C//DTD SVG 1.1//EN" "http://www.w3.org/Graphics/SVG/1.1/DTD/svg11.dtd">
<svg version="1.1" id="Layer_1" xmlns="http://www.w3.org/2000/svg" xmlns:xlink="http://www.w3.org/1999/xlink" x="0px" y="0px"
	 width="412.895px" height="412.892px" viewBox="219.151 93.013 412.895 412.892"
	 enable-background="new 219.151 93.013 412.895 412.892" xml:space="preserve">
<g id="imagenes">
</g>
<g id="iconos">
	<path d="M533.286,364.228c12.64,2.279,27.113-10.538,33.075-29.997c2.911-9.506,3.181-18.816,1.414-26.518
		c-9.822,5.051-21.328,10.278-34.256,15.208c-5.218,1.99-10.659,3.897-16.333,5.73c-27.457,8.845-60.002,15.496-96.435,15.496
		c-35.605,0-67.443-7.078-94.408-16.659c-6.055-2.149-11.813-4.418-17.347-6.771c-12.054-5.125-22.965-10.566-32.359-15.896
		c-2.604,8.185-2.642,18.677,0.651,29.411c5.813,18.993,19.747,31.643,32.164,30.127c0.623,23.16,2.018,44.19,4.93,50.422
		c7.367,15.794,70.531,82.837,79.833,87.488c9.301,4.651,55.807,5.041,63.946,0c8.139-5.041,65.881-70.727,71.499-87.488
		C531.862,408.185,532.867,387.23,533.286,364.228z"/>
	<g>
		<path d="M589.102,232.531c-5.739,9.301-19.44,22.983-49.92,35.782c-0.586,0.242-7.134,3.097-9.162-2.13
			c-2.232-5.739,1.274-9.45,3.646-10.436c29.894-12.547,32.806-25.244,37.196-31.187c-4.902-18.965-17.617-77.721-94.11-101.635
			v109.606c0,15.384-12.519,27.904-27.904,27.904h-46.506c-15.384,0-27.904-12.519-27.904-27.904V122.516
			c-65.025,18.612-87.953,77.591-94.436,103.132c0.251,0.279,0.53,0.539,0.707,0.884c0.028,0.056,0.353,0.623,1.005,1.535
			c3.293,4.632,15.738,19.272,49.706,33.54c2.372,0.986,5.302,5.125,2.474,11.05c-3.2,6.688-8.139,4.725-8.725,4.483
			c-30.731-12.901-45.083-27.922-51.259-35.289h-29.69v19.765c0,0,16.352,14.073,44.181,29.011
			c6.343,3.404,13.236,6.827,20.732,10.166c2.53,1.125,5.125,2.242,7.785,3.339c28.555,11.757,64.03,21.411,104.025,21.411
			c40.06,0,89.311-13.831,117.884-24.313c2.818-1.032,5.59-2.083,8.269-3.144c9.218-3.665,15.422-7.46,22.862-11.152
			c24.872-12.352,37.019-23.402,37.019-23.402v-31.001H589.102z"/>
		<path d="M402.342,241.833h46.506c5.134,0,9.301-4.167,9.301-9.301V118.135v-15.821c0-5.134-4.167-9.301-9.301-9.301h-46.506
			c-5.134,0-9.301,4.167-9.301,9.301v17.198v113.02C393.041,237.666,397.208,241.833,402.342,241.833z"/>
	</g>
</g>
</svg>
